<?xml version="1.0" encoding="utf-8"?>
<!-- Generator: Adobe Illustrator 19.0.0, SVG Export Plug-In . SVG Version: 6.00 Build 0)  -->
<svg version="1.1" id="Layer_1" xmlns="http://www.w3.org/2000/svg" xmlns:xlink="http://www.w3.org/1999/xlink" x="0px" y="0px"
	 viewBox="-295 387 20 20" style="enable-background:new -295 387 20 20;" xml:space="preserve">
<style type="text/css">
	.st0{fill:#101010;}
</style>
<path class="st0" d="M-293,402.9h2v4.1l5.1-4.1h4.9c1.1,0,2-0.9,2-2v-8c0-1.1-0.9-2-2-2h-12c-1.1,0-2,0.9-2,2v8
	C-295,402-294.1,402.9-293,402.9z"/>
<path class="st0" d="M-277,387h-12c-1.1,0-2,0.9-2,2h12c1.1,0,2,0.9,2,2v8c1.1,0,2-0.9,2-2v-8C-275,387.9-275.9,387-277,387z"/>
</svg>
