<svg width="22" height="18" viewBox="0 0 22 18" fill="none" xmlns="http://www.w3.org/2000/svg">
<path fill-rule="evenodd" clip-rule="evenodd" d="M19.5556 0H2.44444C1.09633 0 0 1.0764 0 2.4V8.4V15C0 16.3236 1.09633 17.4 2.44445 17.4H9.77778H12.2222H19.5556C20.9037 17.4 22 16.3236 22 15V2.4C22 1.0764 20.9037 0 19.5556 0ZM2.44444 4.8V8.4L2.44445 15H9.77778H12.2222H19.5556V4.8L11.7333 10.56C11.5158 10.7196 11.2579 10.8 11 10.8C10.7421 10.8 10.4842 10.7196 10.2667 10.56L2.44444 4.8ZM3.25844 2.4L11 8.1L18.7416 2.4H3.25844Z" fill="white"/>
</svg>
