<?xml version="1.0" encoding="utf-8"?>
<!-- Generator: Adobe Illustrator 19.0.0, SVG Export Plug-In . SVG Version: 6.00 Build 0)  -->
<svg version="1.1" id="Layer_1" xmlns="http://www.w3.org/2000/svg" xmlns:xlink="http://www.w3.org/1999/xlink" x="0px" y="0px"
	 viewBox="-294 388 22 18" style="enable-background:new -294 388 22 18;" xml:space="preserve">
<style type="text/css">
	.st0{fill:#101010;}
	.st1{fill:#FFFFFF;}
</style>
<path class="st0" d="M-274.4,388h-17.1c-1.3,0-2.4,1.1-2.4,2.4v6v6.6c0,1.3,1.1,2.4,2.4,2.4h7.3h2.4h7.3c1.3,0,2.4-1.1,2.4-2.4
	v-12.6C-272,389.1-273.1,388-274.4,388z"/>
<path class="st1" d="M-291.6,392.8v3.6l0,6.6h7.3h2.4h7.3v-10.2l-7.8,5.8c-0.2,0.2-0.5,0.2-0.7,0.2s-0.5-0.1-0.7-0.2L-291.6,392.8z"
	/>
<polygon class="st1" points="-290.7,390.4 -283,396.1 -275.3,390.4 "/>
</svg>
