<svg width="26" height="25" viewBox="0 0 26 25" fill="none" xmlns="http://www.w3.org/2000/svg">
<path d="M12.6106 15.5455C14.3075 15.5455 15.6831 14.182 15.6831 12.5C15.6831 10.8181 14.3075 9.45459 12.6106 9.45459C10.9137 9.45459 9.53809 10.8181 9.53809 12.5C9.53809 14.182 10.9137 15.5455 12.6106 15.5455Z" fill="white"/>
<path d="M12.611 25C19.5649 25 25.222 19.3927 25.222 12.5C25.222 5.60782 19.5649 0 12.611 0C5.65709 0 0 5.60782 0 12.5C0 19.3927 5.65709 25 12.611 25ZM12.576 1.86185C16.2782 1.86185 19.5481 3.7298 21.4778 6.5642C22.6367 8.25953 23.3148 10.3027 23.3148 12.5003C23.3148 15.0647 22.3916 17.419 20.8578 19.2554C18.8879 21.6228 15.9069 23.1344 12.576 23.1344C6.65914 23.1344 1.84521 18.3634 1.84521 12.4981C1.84548 6.6334 6.65914 1.86185 12.576 1.86185Z" fill="#008174"/>
<path d="M12.6108 3.78198C7.76106 3.78198 3.81543 7.69287 3.81543 12.5C3.81543 14.5477 4.53607 16.4291 5.73287 17.9185V12.6951C5.731 12.6296 5.72297 12.5657 5.72297 12.4997C5.72297 12.4337 5.731 12.3698 5.73287 12.3043V12.1767H5.73929C5.91102 8.56281 8.92308 5.6722 12.6108 5.6722C16.4085 5.6722 19.499 8.73542 19.499 12.4997C19.499 16.2645 16.4085 19.3274 12.6108 19.3274C12.2096 19.3274 11.8185 19.2861 11.436 19.2206V21.131C11.8214 21.1824 12.2117 21.2182 12.6108 21.2182C15.9399 21.2182 18.842 19.3752 20.3354 16.6649C21.0138 15.4261 21.3993 14.0065 21.3993 12.4978C21.3993 11.1586 21.0866 9.89464 20.5438 8.76008C19.1279 5.82201 16.1089 3.78198 12.6108 3.78198Z" fill="#A3DCBE"/>
<path d="M7.64062 19.7482C8.22565 20.1403 8.86524 20.4553 9.53907 20.7006V17.6811V16.3559C10.3881 17.0222 11.4466 17.4369 12.6113 17.4369C15.358 17.4369 17.5919 15.2224 17.5919 12.5002C17.5919 9.77819 15.3577 7.56396 12.6113 7.56396C9.89859 7.56396 7.69466 9.72649 7.64062 12.4023V12.4418V19.7482V19.7482ZM12.6113 9.45445C14.3078 9.45445 15.6835 10.8181 15.6835 12.5002C15.6835 14.1823 14.3078 15.5459 12.6113 15.5459C10.9138 15.5459 9.53907 14.1823 9.53907 12.5002C9.53907 10.8181 10.9138 9.45445 12.6113 9.45445Z" fill="#008174"/>
<path d="M12.5765 23.1341C15.9074 23.1341 18.8884 21.6223 20.8583 19.2551C22.3918 17.4187 23.3153 15.0645 23.3153 12.5C23.3153 10.3024 22.6374 8.25924 21.4783 6.5639C19.5486 3.72976 16.2789 1.86182 12.5765 1.86182C6.65963 1.86182 1.8457 6.63337 1.8457 12.4981C1.84597 18.3634 6.65963 23.1341 12.5765 23.1341ZM21.4 12.4981C21.4 14.0068 21.0145 15.4264 20.3361 16.6651C18.8429 19.3754 15.9405 21.2185 12.6115 21.2185C12.2121 21.2185 11.8218 21.1827 11.4366 21.1312V19.2209C11.8194 19.2864 12.2103 19.3277 12.6115 19.3277C16.4092 19.3277 19.4996 16.2645 19.4996 12.5C19.4996 8.7357 16.4092 5.67248 12.6115 5.67248C8.92375 5.67248 5.9117 8.56309 5.73997 12.177H5.73355V12.3046C5.73168 12.37 5.72365 12.4339 5.72365 12.5C5.72365 12.566 5.73168 12.6299 5.73355 12.6954V17.9187C4.53675 16.4292 3.81611 14.5479 3.81611 12.5002C3.81611 7.69315 7.76173 3.78226 12.6115 3.78226C16.1096 3.78226 19.1283 5.82229 20.5445 8.76036C21.0872 9.89492 21.4 11.1589 21.4 12.4981ZM7.64082 12.4416V12.4021C7.69486 9.72628 9.89879 7.56376 12.6115 7.56376C15.3582 7.56376 17.5921 9.77825 17.5921 12.5C17.5921 15.2225 15.3579 17.4367 12.6115 17.4367C11.4468 17.4367 10.3883 17.022 9.53927 16.3557V17.6809V20.7004C8.86571 20.4551 8.22611 20.1401 7.64082 19.748V12.4416V12.4416Z" fill="white"/>
</svg>
