<svg width="36" height="35" viewBox="0 0 36 35" fill="none" xmlns="http://www.w3.org/2000/svg">
<path d="M4.5 17.7363H1.5M34.5 17.7363H31.5M18 21.2363V24.2363M18 1.23633V4.23633M27.5459 27.2823L29.6673 29.4036M6.33274 6.06907L8.45406 8.19039M27.5459 8.19036L29.6673 6.06904M6.33274 29.4036L8.45406 27.2822" stroke="#101010" stroke-width="2" stroke-linecap="round"/>
<path d="M9 17.703C9 12.754 13.0263 8.73633 18 8.73633C22.9737 8.73633 27 12.754 27 17.703C27 20.3711 25.8701 22.7577 24.0395 24.3961C23.1305 25.2097 22.3846 26.3948 22.3846 27.794V28.7365C22.3846 29.2887 21.937 29.7363 21.3846 29.7363H14.6154C14.063 29.7363 13.6154 29.2886 13.6154 28.7364V27.7398C13.6154 26.3407 12.8698 25.1546 11.9562 24.3421C10.1265 22.7149 9 20.3669 9 17.703Z" fill="white" stroke="#101010" stroke-width="2" stroke-linecap="round" stroke-linejoin="round"/>
<path d="M14 33.7363H22" stroke="#101010" stroke-width="2" stroke-linecap="round"/>
</svg>
