<svg width="960" height="602" viewBox="0 0 960 602" fill="none" xmlns="http://www.w3.org/2000/svg">
<mask id="path-1-outside-1" maskUnits="userSpaceOnUse" x="183.421" y="329" width="593" height="239" fill="black">
<rect fill="white" x="183.421" y="329" width="593" height="239"/>
<path fill-rule="evenodd" clip-rule="evenodd" d="M772.578 332C742.284 465.404 622.792 565 480 565C337.207 565 217.716 465.404 187.421 332H772.578Z"/>
</mask>
<path fill-rule="evenodd" clip-rule="evenodd" d="M772.578 332C742.284 465.404 622.792 565 480 565C337.207 565 217.716 465.404 187.421 332H772.578Z" fill="url(#paint0_linear)" fill-opacity="0.13"/>
<path d="M772.578 332L775.504 332.664L776.336 329H772.578V332ZM187.421 332V329H183.663L184.495 332.664L187.421 332ZM769.653 331.336C739.662 463.401 621.364 562 480 562V568C624.22 568 744.905 467.408 775.504 332.664L769.653 331.336ZM480 562C338.635 562 220.337 463.401 190.346 331.336L184.495 332.664C215.094 467.408 335.779 568 480 568V562ZM187.421 335H772.578V329H187.421V335Z" fill="url(#paint1_linear)" mask="url(#path-1-outside-1)"/>
<path d="M346.14 329.719H459.86V258.87L403 208.152L346.14 258.87V329.719Z" fill="#101010" fill-opacity="0.05"/>
<path d="M459.86 258.87V329.719H346.14V258.87M459.86 258.87L403 208.152L346.14 258.87M459.86 258.87L470 267.695M346.14 258.87L336 267.695" stroke="#101010" stroke-linejoin="round"/>
<path d="M363.629 277.225H382.377V305.972H363.629V277.225Z" fill="white"/>
<path d="M382.377 277.225H401.125V305.972H382.377V277.225Z" fill="white"/>
<path d="M416.749 277.225H442.371V329.719H416.749V277.225Z" fill="white"/>
<path d="M382.377 277.225H363.629V305.972H382.377M382.377 277.225V305.972M382.377 277.225H401.125V305.972H382.377M416.749 277.225H442.371V329.719H416.749V277.225Z" stroke="#101010" stroke-linejoin="round"/>
<g clip-path="url(#clip0)">
<rect x="426" y="236.219" width="59" height="59" rx="29.5" fill="white"/>
<path d="M444.438 267.298L457.958 250.969L455.91 263.121H464.924L451.403 280.469L453.451 267.298H444.438Z" fill="#101010" fill-opacity="0.05" stroke="#101010" stroke-linejoin="round"/>
<path fill-rule="evenodd" clip-rule="evenodd" d="M455.5 294.399C471.34 294.399 484.18 281.558 484.18 265.719C484.18 249.879 471.34 237.038 455.5 237.038C439.66 237.038 426.819 249.879 426.819 265.719C426.819 281.558 439.66 294.399 455.5 294.399ZM455.5 290.416C469.14 290.416 480.197 279.358 480.197 265.719C480.197 252.079 469.14 241.021 455.5 241.021C441.86 241.021 430.803 252.079 430.803 265.719C430.803 279.358 441.86 290.416 455.5 290.416Z" fill="#101010" fill-opacity="0.05" stroke="#101010" stroke-linejoin="round"/>
</g>
<circle cx="472.5" cy="155.5" r="13.5" fill="#101010" fill-opacity="0.03" stroke="#101010" stroke-linejoin="round"/>
<path d="M469.47 152.475C468.836 151.849 467.966 151.486 467.105 151.486C465.081 151.486 463.378 153.241 463.378 155.399C463.378 157.527 465.109 159.291 467.096 159.291C467.975 159.291 468.798 158.938 469.47 158.343V157.678C468.94 158.364 467.9 158.837 467.077 158.837C466.235 158.837 465.383 158.394 464.787 157.789C464.191 157.164 463.832 156.327 463.832 155.439C463.832 153.574 465.298 151.94 467.077 151.94C467.956 151.94 468.921 152.424 469.47 153.14V152.475Z" fill="#101010"/>
<path d="M474.014 151.486C472 151.486 470.316 153.251 470.316 155.389C470.316 157.527 472.009 159.291 474.014 159.291C476.02 159.291 477.713 157.527 477.713 155.389C477.713 153.251 476.02 151.486 474.014 151.486ZM474.014 151.94C475.783 151.94 477.259 153.513 477.259 155.389C477.259 157.254 475.783 158.837 474.014 158.837C472.236 158.837 470.77 157.264 470.77 155.389C470.77 153.513 472.236 151.94 474.014 151.94Z" fill="#101010"/>
<path d="M479.387 159.85L480.622 158.302C480.806 158.075 480.891 157.808 480.891 157.5C480.891 156.84 480.366 156.376 479.77 156.376C479.141 156.376 478.683 156.885 478.668 157.551H479.066C479.075 157.107 479.354 156.769 479.785 156.769C480.173 156.769 480.494 157.082 480.494 157.505C480.494 157.752 480.395 157.959 480.253 158.141L478.583 160.243H480.891V159.85H479.387Z" fill="#101010"/>
<path d="M469.47 152.475C468.836 151.849 467.966 151.486 467.105 151.486C465.081 151.486 463.378 153.241 463.378 155.399C463.378 157.527 465.109 159.291 467.096 159.291C467.975 159.291 468.798 158.938 469.47 158.343V157.678C468.94 158.364 467.9 158.837 467.077 158.837C466.235 158.837 465.383 158.394 464.787 157.789C464.191 157.164 463.832 156.327 463.832 155.439C463.832 153.574 465.298 151.94 467.077 151.94C467.956 151.94 468.921 152.424 469.47 153.14V152.475Z" stroke="#101010" stroke-width="0.437838"/>
<path d="M474.014 151.486C472 151.486 470.316 153.251 470.316 155.389C470.316 157.527 472.009 159.291 474.014 159.291C476.02 159.291 477.713 157.527 477.713 155.389C477.713 153.251 476.02 151.486 474.014 151.486ZM474.014 151.94C475.783 151.94 477.259 153.513 477.259 155.389C477.259 157.254 475.783 158.837 474.014 158.837C472.236 158.837 470.77 157.264 470.77 155.389C470.77 153.513 472.236 151.94 474.014 151.94Z" stroke="#101010" stroke-width="0.437838"/>
<path d="M479.387 159.85L480.622 158.302C480.806 158.075 480.891 157.808 480.891 157.5C480.891 156.84 480.366 156.376 479.77 156.376C479.141 156.376 478.683 156.885 478.668 157.551H479.066C479.075 157.107 479.354 156.769 479.785 156.769C480.173 156.769 480.494 157.082 480.494 157.505C480.494 157.752 480.395 157.959 480.253 158.141L478.583 160.243H480.891V159.85H479.387Z" stroke="#101010" stroke-width="0.437838"/>
<circle cx="495.5" cy="206.5" r="4.5" fill="#101010" fill-opacity="0.03" stroke="#101010" stroke-linejoin="round"/>
<path d="M558.582 279.004L590.724 223.804L622.865 279.004H611.007L626.61 302.171H590.724H554.838L570.44 279.004H558.582Z" fill="white" stroke="#101010" stroke-linecap="round"/>
<path d="M590.876 263.777V277.865M590.876 329V284.909M590.876 284.909L580.899 278.478M590.876 284.909V277.865M590.876 277.865L599.605 272.659" stroke="#101010" stroke-linecap="round"/>
<ellipse cx="685.741" cy="249.497" rx="46.3949" ry="46.8757" fill="url(#paint2_linear)" stroke="#101010" stroke-linecap="round"/>
<path d="M685.777 331.77V270.616M685.777 232.372V255.676M685.777 255.676L670.276 246.481M685.777 255.676V270.616M685.777 270.616L710.4 259.854" stroke="#101010" stroke-linecap="round"/>
<path d="M854.059 215.764C854.059 217.118 853.932 218.442 853.689 219.725C863.445 220.526 871.114 228.74 871.114 238.754C871.114 243.238 869.576 247.361 867.002 250.619C872.861 255.965 876.54 263.683 876.54 272.264C876.54 288.404 863.525 301.488 847.47 301.488C841.557 301.488 836.058 299.714 831.468 296.667C826.648 300.653 820.476 303.047 813.747 303.047C798.334 303.047 785.839 290.486 785.839 274.992C785.839 272.787 786.092 270.641 786.571 268.583C779.682 264.925 774.986 257.651 774.986 249.274C774.986 239.955 780.798 232 788.977 228.873C789.652 216.785 799.616 207.192 811.809 207.192C812.536 207.192 813.254 207.226 813.963 207.292C817.205 199.89 824.566 194.723 833.128 194.723C844.688 194.723 854.059 204.143 854.059 215.764Z" fill="white" stroke="#101010" stroke-linecap="round"/>
<path d="M831.023 255.416V269.892M831.023 331.766V278.508M831.023 278.508L819.994 271.27M831.023 278.508V269.892M831.023 269.892L841.018 263.688" stroke="#101010" stroke-linecap="round"/>
<path d="M803.844 234.872C803.844 258.203 785.977 277.117 763.937 277.117C741.896 277.117 724.029 258.203 724.029 234.872C724.029 211.541 741.896 162 763.937 162C785.977 162 803.844 211.541 803.844 234.872Z" fill="url(#paint3_linear)" stroke="#101010" stroke-linecap="round"/>
<path d="M763.983 329.768V247.885M763.983 194.232V232.386M763.983 232.386L747.053 222.847M763.983 232.386V247.885M763.983 247.885L786.96 234.77" stroke="#101010" stroke-linecap="round"/>
<path fill-rule="evenodd" clip-rule="evenodd" d="M223.283 192.947L192.063 226.792C188.974 230.14 194.133 235.809 197.865 233.196C197.887 233.181 197.908 233.165 197.93 233.15L213.461 221.956C218.572 218.272 222.837 213.543 225.972 208.083L230.095 200.9C226.849 199.447 224.273 196.604 223.283 192.947ZM241.669 200.053L241.495 200.613L287.362 210.87C291.816 211.867 294.113 204.486 289.946 202.621L272.467 194.795C266.714 192.219 260.477 190.898 254.172 190.919L247.272 190.942C246.907 194.671 244.827 198.045 241.669 200.053ZM240.533 178.817L227.667 137.769C226.303 133.417 218.801 135.049 219.209 139.59C219.211 139.613 219.214 139.637 219.216 139.66L221.164 158.68C221.806 164.94 223.777 170.991 226.948 176.429L228.659 179.364C229.781 178.672 231.035 178.152 232.393 177.845C235.25 177.2 238.099 177.61 240.533 178.817Z" fill="url(#paint4_linear)"/>
<path d="M192.063 226.792L191.696 226.453L192.063 226.792ZM223.283 192.947L223.766 192.816C223.718 192.64 223.579 192.504 223.402 192.461C223.225 192.418 223.039 192.474 222.915 192.608L223.283 192.947ZM197.865 233.196L198.152 233.605L198.152 233.605L197.865 233.196ZM197.93 233.15L197.637 232.744L197.637 232.744L197.93 233.15ZM213.461 221.956L213.753 222.362L213.461 221.956ZM225.972 208.083L226.405 208.332L225.972 208.083ZM230.095 200.9L230.529 201.149C230.599 201.026 230.615 200.879 230.571 200.745C230.527 200.611 230.429 200.501 230.3 200.443L230.095 200.9ZM241.669 200.053L241.4 199.631C241.301 199.695 241.226 199.792 241.191 199.905L241.669 200.053ZM241.495 200.613L241.017 200.464C240.976 200.597 240.992 200.742 241.062 200.863C241.132 200.984 241.249 201.07 241.385 201.101L241.495 200.613ZM287.362 210.87L287.471 210.383L287.362 210.87ZM289.946 202.621L290.15 202.165L290.15 202.165L289.946 202.621ZM272.467 194.795L272.262 195.251L272.467 194.795ZM254.172 190.919L254.171 190.419L254.172 190.919ZM247.272 190.942L247.27 190.442C247.014 190.443 246.799 190.638 246.774 190.893L247.272 190.942ZM240.533 178.817L240.31 179.265C240.49 179.354 240.705 179.328 240.857 179.198C241.01 179.067 241.07 178.859 241.01 178.668L240.533 178.817ZM227.667 137.769L227.19 137.919L227.667 137.769ZM219.209 139.59L218.711 139.635L218.711 139.635L219.209 139.59ZM219.216 139.66L219.713 139.609L219.713 139.609L219.216 139.66ZM221.164 158.68L220.667 158.731L221.164 158.68ZM226.948 176.429L226.516 176.681L226.948 176.429ZM228.659 179.364L228.227 179.616C228.295 179.732 228.407 179.816 228.538 179.849C228.669 179.882 228.807 179.86 228.922 179.79L228.659 179.364ZM232.393 177.845L232.283 177.357L232.393 177.845ZM192.431 227.131L223.65 193.286L222.915 192.608L191.696 226.453L192.431 227.131ZM197.579 232.786C195.994 233.896 194.047 233.293 192.776 231.893C191.506 230.494 191.128 228.543 192.431 227.131L191.696 226.453C189.909 228.389 190.566 230.946 192.036 232.565C193.506 234.184 196.005 235.109 198.152 233.605L197.579 232.786ZM197.637 232.744C197.618 232.758 197.598 232.772 197.579 232.786L198.152 233.605C198.176 233.589 198.199 233.572 198.222 233.556L197.637 232.744ZM213.169 221.551L197.637 232.744L198.222 233.556L213.753 222.362L213.169 221.551ZM225.538 207.834C222.439 213.232 218.222 217.908 213.169 221.551L213.753 222.362C218.922 218.636 223.236 213.853 226.405 208.332L225.538 207.834ZM229.662 200.651L225.538 207.834L226.405 208.332L230.529 201.149L229.662 200.651ZM230.3 200.443C227.184 199.049 224.715 196.323 223.766 192.816L222.8 193.077C223.831 196.886 226.514 199.845 229.891 201.356L230.3 200.443ZM241.191 199.905L241.017 200.464L241.972 200.761L242.146 200.202L241.191 199.905ZM241.385 201.101L287.253 211.358L287.471 210.383L241.604 200.125L241.385 201.101ZM287.253 211.358C289.831 211.935 291.71 210.061 292.364 207.968C293.018 205.875 292.551 203.239 290.15 202.165L289.742 203.077C291.508 203.868 291.976 205.856 291.41 207.67C290.843 209.484 289.347 210.802 287.471 210.383L287.253 211.358ZM290.15 202.165L272.671 194.338L272.262 195.251L289.742 203.077L290.15 202.165ZM272.671 194.338C266.854 191.734 260.546 190.398 254.171 190.419L254.174 191.419C260.408 191.398 266.575 192.705 272.262 195.251L272.671 194.338ZM254.171 190.419L247.27 190.442L247.274 191.442L254.174 191.419L254.171 190.419ZM246.774 190.893C246.424 194.469 244.429 197.705 241.4 199.631L241.937 200.475C245.224 198.384 247.39 194.874 247.769 190.991L246.774 190.893ZM241.01 178.668L228.144 137.62L227.19 137.919L240.055 178.967L241.01 178.668ZM228.144 137.62C227.356 135.104 224.808 134.393 222.668 134.856C220.528 135.319 218.476 137.021 218.711 139.635L219.707 139.545C219.534 137.618 221.029 136.234 222.879 135.833C224.73 135.433 226.615 136.082 227.19 137.919L228.144 137.62ZM218.711 139.635C218.714 139.66 218.716 139.686 218.719 139.711L219.713 139.609C219.711 139.588 219.709 139.567 219.707 139.545L218.711 139.635ZM218.719 139.711L220.667 158.731L221.662 158.629L219.713 139.609L218.719 139.711ZM220.667 158.731C221.315 165.061 223.31 171.181 226.516 176.681L227.38 176.177C224.245 170.8 222.296 164.818 221.662 158.629L220.667 158.731ZM226.516 176.681L228.227 179.616L229.091 179.112L227.38 176.177L226.516 176.681ZM228.922 179.79C229.997 179.127 231.199 178.627 232.503 178.333L232.283 177.357C230.87 177.676 229.565 178.218 228.397 178.938L228.922 179.79ZM232.503 178.333C235.244 177.714 237.976 178.107 240.31 179.265L240.755 178.369C238.222 177.113 235.256 176.686 232.283 177.357L232.503 178.333Z" fill="#101010"/>
<ellipse rx="6.99053" ry="6.97764" transform="matrix(0.975459 -0.220182 0.221041 0.975265 235.091 189.753)" fill="url(#paint5_linear)" stroke="#101010" stroke-linejoin="round"/>
<path d="M235.487 201.984H233.598L229.843 329.74H235.487H241.131L237.376 201.984H235.487Z" fill="#101010" fill-opacity="0.05" stroke="#101010" stroke-linejoin="round"/>
<path fill-rule="evenodd" clip-rule="evenodd" d="M129.206 235.838L154.141 256.312C156.69 258.405 160.576 254.444 158.529 251.857C158.518 251.843 158.507 251.83 158.496 251.816L149.766 241.066C146.892 237.528 143.298 234.644 139.223 232.606L134.441 230.215C133.648 232.769 131.722 234.858 129.206 235.838ZM132.422 221.518L133.184 221.708L138.713 188.179C139.25 184.923 133.82 183.57 132.643 186.653L127.705 199.592C126.08 203.85 125.381 208.406 125.655 212.956L126.005 218.75C128.505 218.749 130.799 219.802 132.422 221.518ZM118.498 222.911L88.3243 234.273C85.2364 235.436 86.7242 240.785 89.9883 240.303C90.0051 240.301 90.022 240.298 90.0388 240.296L103.708 238.107C108.206 237.387 112.499 235.715 116.3 233.203L118.269 231.901C117.675 230.834 117.293 229.627 117.186 228.33C117.021 226.353 117.521 224.473 118.498 222.911Z" fill="url(#paint6_linear)"/>
<path d="M154.141 256.312L153.824 256.698L153.824 256.698L154.141 256.312ZM129.206 235.838L129.025 235.372C128.859 235.437 128.74 235.584 128.713 235.759C128.685 235.935 128.752 236.112 128.889 236.225L129.206 235.838ZM158.529 251.857L158.921 251.547L158.921 251.547L158.529 251.857ZM158.496 251.816L158.884 251.501L158.884 251.501L158.496 251.816ZM149.766 241.066L149.377 241.381L149.377 241.381L149.766 241.066ZM139.223 232.606L139.446 232.159L139.223 232.606ZM134.441 230.215L134.665 229.768C134.534 229.702 134.38 229.698 134.245 229.755C134.11 229.813 134.007 229.927 133.964 230.067L134.441 230.215ZM132.422 221.518L132.059 221.862C132.124 221.931 132.208 221.98 132.301 222.003L132.422 221.518ZM133.184 221.708L133.063 222.194C133.198 222.227 133.342 222.203 133.459 222.126C133.575 222.05 133.655 221.928 133.677 221.79L133.184 221.708ZM138.713 188.179L139.206 188.261L138.713 188.179ZM132.643 186.653L132.176 186.475L132.643 186.653ZM127.705 199.592L128.172 199.77L127.705 199.592ZM125.655 212.956L125.156 212.986L125.655 212.956ZM126.005 218.75L125.506 218.78C125.522 219.044 125.741 219.25 126.005 219.25L126.005 218.75ZM118.498 222.911L118.922 223.176C119.035 222.995 119.021 222.761 118.885 222.595C118.749 222.429 118.522 222.368 118.322 222.443L118.498 222.911ZM88.3243 234.273L88.1481 233.805L88.1481 233.805L88.3243 234.273ZM89.9883 240.303L90.0612 240.798L90.0612 240.798L89.9883 240.303ZM90.0388 240.296L89.9598 239.802L89.9597 239.802L90.0388 240.296ZM103.708 238.107L103.787 238.601L103.708 238.107ZM116.3 233.203L116.576 233.62L116.576 233.62L116.3 233.203ZM118.269 231.901L118.545 232.318C118.763 232.174 118.833 231.886 118.706 231.658L118.269 231.901ZM117.186 228.33L117.684 228.289L117.186 228.33ZM154.458 255.925L129.524 235.452L128.889 236.225L153.824 256.698L154.458 255.925ZM158.137 252.167C158.947 253.191 158.632 254.543 157.702 255.489C156.772 256.435 155.458 256.746 154.458 255.925L153.824 256.698C155.373 257.971 157.277 257.348 158.415 256.19C159.553 255.033 160.158 253.11 158.921 251.547L158.137 252.167ZM158.108 252.131C158.118 252.143 158.127 252.155 158.137 252.167L158.921 251.547C158.909 251.531 158.897 251.516 158.884 251.501L158.108 252.131ZM149.377 241.381L158.108 252.131L158.884 251.501L150.154 240.75L149.377 241.381ZM138.999 233.053C143.011 235.059 146.549 237.898 149.377 241.381L150.154 240.75C147.236 237.157 143.585 234.228 139.446 232.159L138.999 233.053ZM134.218 230.662L138.999 233.053L139.446 232.159L134.665 229.768L134.218 230.662ZM133.964 230.067C133.215 232.477 131.397 234.448 129.025 235.372L129.388 236.304C132.046 235.268 134.081 233.062 134.919 230.364L133.964 230.067ZM132.301 222.003L133.063 222.194L133.305 221.223L132.543 221.033L132.301 222.003ZM133.677 221.79L139.206 188.261L138.22 188.098L132.691 221.627L133.677 221.79ZM139.206 188.261C139.534 186.277 138.021 184.949 136.442 184.554C134.864 184.159 132.889 184.608 132.176 186.475L133.111 186.832C133.575 185.615 134.903 185.199 136.2 185.524C137.496 185.848 138.43 186.826 138.22 188.098L139.206 188.261ZM132.176 186.475L127.238 199.414L128.172 199.77L133.111 186.832L132.176 186.475ZM127.238 199.414C125.587 203.738 124.877 208.365 125.156 212.986L126.154 212.926C125.884 208.447 126.572 203.962 128.172 199.77L127.238 199.414ZM125.156 212.986L125.506 218.78L126.504 218.72L126.154 212.926L125.156 212.986ZM126.005 219.25C128.363 219.249 130.527 220.242 132.059 221.862L132.785 221.175C131.071 219.363 128.648 218.249 126.005 218.25L126.005 219.25ZM118.322 222.443L88.1481 233.805L88.5005 234.741L118.674 223.379L118.322 222.443ZM88.1481 233.805C86.271 234.512 85.8588 236.473 86.2924 238.038C86.7259 239.603 88.0886 241.089 90.0612 240.798L89.9153 239.809C88.6238 239.999 87.6106 239.051 87.2561 237.771C86.9018 236.492 87.2897 235.197 88.5005 234.741L88.1481 233.805ZM90.0612 240.798C90.0801 240.795 90.099 240.792 90.1179 240.789L89.9597 239.802C89.945 239.804 89.9302 239.807 89.9153 239.809L90.0612 240.798ZM90.1179 240.789L103.787 238.601L103.629 237.613L89.9598 239.802L90.1179 240.789ZM103.787 238.601C108.356 237.869 112.716 236.171 116.576 233.62L116.025 232.785C112.283 235.259 108.057 236.905 103.629 237.613L103.787 238.601ZM116.576 233.62L118.545 232.318L117.994 231.484L116.025 232.785L116.576 233.62ZM118.706 231.658C118.146 230.652 117.785 229.513 117.684 228.289L116.687 228.372C116.801 229.74 117.204 231.017 117.833 232.145L118.706 231.658ZM117.684 228.289C117.529 226.423 118 224.65 118.922 223.176L118.074 222.646C117.042 224.297 116.514 226.283 116.687 228.372L117.684 228.289Z" fill="#101010"/>
<ellipse rx="5.05441" ry="5.05173" transform="matrix(-0.258728 -0.96595 0.965901 -0.25891 126.031 227.582)" fill="url(#paint7_linear)" stroke="#101010" stroke-linejoin="round"/>
<path d="M125.799 237.307H124.432L121.716 329.739H125.799H129.883L127.166 237.307H125.799Z" fill="#101010" fill-opacity="0.05" stroke="#101010" stroke-linejoin="round"/>
<path d="M177.424 278.054H171.397V329.74H177.424V278.054Z" fill="#101010" fill-opacity="0.05" stroke="#101010" stroke-linejoin="round"/>
<path d="M262.388 278.054H256.361V329.74H262.388V278.054Z" fill="#101010" fill-opacity="0.05" stroke="#101010" stroke-linejoin="round"/>
<path fill-rule="evenodd" clip-rule="evenodd" d="M181.875 242.757H290.578L246.626 306.675H137.923L181.875 242.757Z" fill="white"/>
<path fill-rule="evenodd" clip-rule="evenodd" d="M246.626 306.675L290.578 242.757L294.3 248.247L250.348 312.165H141.644L137.923 306.675H246.626Z" fill="white"/>
<path d="M290.578 242.757H181.875L137.923 306.675M290.578 242.757L246.626 306.675H137.923M290.578 242.757L294.3 248.247L250.348 312.165H141.644L137.923 306.675" stroke="#101010" stroke-linejoin="round"/>
<path fill-rule="evenodd" clip-rule="evenodd" d="M181.875 242.757H290.578L246.626 306.675H137.923L181.875 242.757Z" fill="url(#paint8_linear)" stroke="#101010" stroke-linejoin="round"/>
<path d="M268.891 274.297L268.316 275.131H232.591L210.901 306.676H209.883L231.573 275.131H196.349L174.667 306.676H173.65L195.34 275.131H159.615L160.19 274.297H195.916L217.605 242.76H218.615L196.924 274.297H232.149L253.839 242.76H254.848L233.158 274.297H268.891Z" fill="#101010"/>
<path d="M72.4648 329.739H311.536" stroke="#101010" stroke-linejoin="round"/>
<rect x="49" y="329" width="863" height="4" rx="2" fill="#008174"/>
<defs>
<linearGradient id="paint0_linear" x1="480" y1="332" x2="480" y2="565" gradientUnits="userSpaceOnUse">
<stop stop-color="#A3DCBE"/>
<stop offset="1" stop-color="#44C0BB"/>
</linearGradient>
<linearGradient id="paint1_linear" x1="214.512" y1="341.32" x2="214.512" y2="565" gradientUnits="userSpaceOnUse">
<stop stop-color="#D1EEDF"/>
<stop offset="1" stop-color="#A2E0DD"/>
</linearGradient>
<linearGradient id="paint2_linear" x1="643.642" y1="206.371" x2="643.642" y2="296.372" gradientUnits="userSpaceOnUse">
<stop stop-color="#D1EEDF"/>
<stop offset="1" stop-color="#A2E0DD"/>
</linearGradient>
<linearGradient id="paint3_linear" x1="727.724" y1="166.605" x2="727.724" y2="277.117" gradientUnits="userSpaceOnUse">
<stop stop-color="#D1EEDF"/>
<stop offset="1" stop-color="#A2E0DD"/>
</linearGradient>
<linearGradient id="paint4_linear" x1="177.865" y1="149.202" x2="196.974" y2="233.686" gradientUnits="userSpaceOnUse">
<stop stop-color="#D1EEDF"/>
<stop offset="1" stop-color="#A2E0DD"/>
</linearGradient>
<linearGradient id="paint5_linear" x1="0.647272" y1="0.558211" x2="0.647272" y2="13.9553" gradientUnits="userSpaceOnUse">
<stop stop-color="#D1EEDF"/>
<stop offset="1" stop-color="#A2E0DD"/>
</linearGradient>
<linearGradient id="paint6_linear" x1="91.293" y1="258.86" x2="159.091" y2="253.219" gradientUnits="userSpaceOnUse">
<stop stop-color="#D1EEDF"/>
<stop offset="1" stop-color="#A2E0DD"/>
</linearGradient>
<linearGradient id="paint7_linear" x1="0.468001" y1="0.404139" x2="0.468001" y2="10.1035" gradientUnits="userSpaceOnUse">
<stop stop-color="#D1EEDF"/>
<stop offset="1" stop-color="#A2E0DD"/>
</linearGradient>
<linearGradient id="paint8_linear" x1="144.99" y1="245.314" x2="144.99" y2="306.675" gradientUnits="userSpaceOnUse">
<stop stop-color="#D1EEDF"/>
<stop offset="1" stop-color="#A2E0DD"/>
</linearGradient>
<clipPath id="clip0">
<rect x="426" y="236.219" width="59" height="59" rx="29.5" fill="white"/>
</clipPath>
</defs>
</svg>
