<svg width="36" height="36" viewBox="0 0 36 36" fill="none" xmlns="http://www.w3.org/2000/svg">
<path d="M0 18C0 8.05888 8.05888 0 18 0C27.9411 0 36 8.05888 36 18C36 27.9411 27.9411 36 18 36C8.05888 36 0 27.9411 0 18Z" fill="#44C0BB"/>
<path d="M12.437 17.4287C11.7901 16.9112 10.8462 17.0161 10.3287 17.663C9.81118 18.3099 9.91606 19.2538 10.563 19.7713L12.437 17.4287ZM16.5 22.6L15.563 23.7713C16.1898 24.2728 17.1003 24.1919 17.6289 23.5878L16.5 22.6ZM24.6289 15.5878C25.1744 14.9643 25.1112 14.0167 24.4878 13.4711C23.8643 12.9256 22.9167 12.9888 22.3711 13.6122L24.6289 15.5878ZM10.563 19.7713L15.563 23.7713L17.437 21.4287L12.437 17.4287L10.563 19.7713ZM17.6289 23.5878L24.6289 15.5878L22.3711 13.6122L15.3711 21.6122L17.6289 23.5878Z" fill="white"/>
<path d="M18 34C9.16344 34 2 26.8366 2 18H-2C-2 29.0457 6.95431 38 18 38V34ZM34 18C34 26.8366 26.8366 34 18 34V38C29.0457 38 38 29.0457 38 18H34ZM18 2C26.8366 2 34 9.16344 34 18H38C38 6.95431 29.0457 -2 18 -2V2ZM18 -2C6.95431 -2 -2 6.95431 -2 18H2C2 9.16344 9.16344 2 18 2V-2Z" fill="#008174"/>
</svg>
