<svg xmlns="http://www.w3.org/2000/svg" width="40" height="40" viewBox="0 0 40 40">
  <g id="Group_2" data-name="Group 2" transform="translate(-366 -431)">
    <g id="checked" transform="translate(368 433)">
      <path id="Path_4" data-name="Path 4" d="M0,18A18,18,0,1,1,18,36,18,18,0,0,1,0,18Z" fill="#44c0bb"/>
      <path id="Path_5" data-name="Path 5" d="M12.437,17.429a1.5,1.5,0,0,0-1.874,2.343ZM16.5,22.6l-.937,1.171a1.5,1.5,0,0,0,2.066-.184Zm8.129-7.012a1.5,1.5,0,0,0-2.258-1.976ZM10.563,19.771l5,4,1.874-2.343-5-4Zm7.066,3.816,7-8-2.258-1.976-7,8Z" fill="#fff"/>
      <path id="Path_6" data-name="Path 6" d="M18,34A16,16,0,0,1,2,18H-2A20,20,0,0,0,18,38ZM34,18A16,16,0,0,1,18,34v4A20,20,0,0,0,38,18ZM18,2A16,16,0,0,1,34,18h4A20,20,0,0,0,18-2Zm0-4A20,20,0,0,0-2,18H2A16,16,0,0,1,18,2Z" fill="#008174"/>
    </g>
  </g>
</svg>
