<svg width="44" height="44" viewBox="0 0 44 44" fill="none" xmlns="http://www.w3.org/2000/svg">
<circle cx="22" cy="22" r="18" stroke="#101010" stroke-width="2" stroke-linecap="round" stroke-linejoin="round"/>
<path d="M18.4616 11.8472L18.014 10.953H18.014L18.4616 11.8472ZM19.2587 12.1112L18.3658 12.5614V12.5614L19.2587 12.1112ZM16.8179 12.6701L16.3702 11.7759L16.36 11.7811L16.8179 12.6701ZM16.8057 12.6764L16.3478 11.7873L16.3376 11.7927L16.8057 12.6764ZM14.7253 17.6748L13.7275 17.7417L14.7253 17.6748ZM16.8159 24.5529L15.9235 25.0042H15.9235L16.8159 24.5529ZM21.1218 30.3284L20.4744 31.0905L21.1218 30.3284ZM26.3885 31.6708L26.8096 32.5778L26.8149 32.5753L26.3885 31.6708ZM26.3946 31.6679L26.8211 32.5725L26.833 32.5667L26.3946 31.6679ZM26.4028 31.6639L26.8412 32.5627L26.848 32.5593L26.4028 31.6639ZM28.0481 30.8458L28.4934 31.7412L28.4934 31.7412L28.0481 30.8458ZM28.348 30.4997L29.2976 30.8132L29.2976 30.8132L28.348 30.4997ZM28.3131 30.0432L27.4223 30.4976L27.4223 30.4976L28.3131 30.0432ZM25.5656 24.657L24.6748 25.1114L24.6748 25.1114L25.5656 24.657ZM24.7713 24.3947L24.3262 23.4992L24.3262 23.4992L24.7713 24.3947ZM23.1623 25.1944L23.6031 26.0921L23.6074 26.0899L23.1623 25.1944ZM23.1616 25.1948L23.5994 26.0939L23.6024 26.0924L23.1616 25.1948ZM22.9334 25.1607L22.538 26.0792L22.538 26.0792L22.9334 25.1607ZM22.3062 24.6884L23.015 23.9829L23.015 23.9829L22.3062 24.6884ZM20.8601 22.5668L21.753 22.1165L20.8601 22.5668ZM20.0096 20.1344L20.9978 19.9815V19.9815L20.0096 20.1344ZM19.9991 19.3365L20.9749 19.5552L20.9749 19.5552L19.9991 19.3365ZM20.106 19.1227L19.6588 18.2283L19.6179 18.2487L19.5791 18.2728L20.106 19.1227ZM21.7193 18.3159L22.1666 19.2103L21.7193 18.3159ZM21.9843 17.5164L21.0914 17.9667L21.9843 17.5164ZM18.9093 12.7414C18.7095 12.8414 18.4664 12.7609 18.3658 12.5614L20.1516 11.6609C19.7559 10.8762 18.7999 10.5596 18.014 10.953L18.9093 12.7414ZM17.2655 13.5643L18.9093 12.7414L18.014 10.953L16.3702 11.7759L17.2655 13.5643ZM17.2636 13.5654L17.2758 13.5591L16.36 11.7811L16.3478 11.7874L17.2636 13.5654ZM15.723 17.6079C15.5901 15.6254 16.0882 14.1881 17.2738 13.5601L16.3376 11.7927C14.0737 12.9919 13.5785 15.5191 13.7275 17.7417L15.723 17.6079ZM17.7083 24.1017C16.6005 21.9111 15.8543 19.5664 15.723 17.6079L13.7275 17.7417C13.8821 20.0484 14.7372 22.6584 15.9235 25.0042L17.7083 24.1017ZM21.7692 29.5662C20.2649 28.2884 18.8159 26.292 17.7083 24.1017L15.9235 25.0042C17.11 27.3505 18.7072 29.5893 20.4744 31.0905L21.7692 29.5662ZM25.9673 30.7638C24.7532 31.3276 23.2923 30.8601 21.7692 29.5662L20.4744 31.0905C22.1746 32.5348 24.498 33.6511 26.8096 32.5778L25.9673 30.7638ZM25.9682 30.7634L25.962 30.7663L26.8149 32.5753L26.821 32.5724L25.9682 30.7634ZM25.9644 30.7651L25.9562 30.7691L26.833 32.5667L26.8412 32.5627L25.9644 30.7651ZM27.6029 29.9504L25.9576 30.7685L26.848 32.5593L28.4934 31.7412L27.6029 29.9504ZM27.3984 30.1863C27.4323 30.0835 27.506 29.9986 27.6029 29.9504L28.4934 31.7412C28.8746 31.5516 29.1642 31.2175 29.2976 30.8132L27.3984 30.1863ZM27.4223 30.4976C27.3731 30.4011 27.3645 30.2891 27.3984 30.1863L29.2976 30.8132C29.4311 30.4089 29.3973 29.9681 29.2039 29.5888L27.4223 30.4976ZM24.6748 25.1114L27.4223 30.4976L29.2039 29.5888L26.4564 24.2026L24.6748 25.1114ZM25.2164 25.2902C25.0174 25.3891 24.7758 25.3094 24.6748 25.1114L26.4564 24.2026C26.0592 23.4239 25.1091 23.1101 24.3262 23.4992L25.2164 25.2902ZM23.6074 26.0899L25.2164 25.2902L24.3262 23.4992L22.7172 24.299L23.6074 26.0899ZM23.6024 26.0924L23.6031 26.0921L22.7215 24.2968L22.7208 24.2972L23.6024 26.0924ZM22.538 26.0792C22.691 26.1451 22.8683 26.1981 23.0633 26.2051C23.2892 26.2131 23.4696 26.157 23.5994 26.0939L22.7238 24.2957C22.7617 24.2773 22.8279 24.2483 22.9135 24.2284C22.9945 24.2095 23.0695 24.204 23.1344 24.2063C23.1976 24.2086 23.2466 24.218 23.2783 24.2261C23.3097 24.234 23.3272 24.2415 23.3288 24.2422L22.538 26.0792ZM21.5975 25.3939C21.8926 25.6904 22.2106 25.9383 22.538 26.0792L23.3288 24.2422C23.3353 24.245 23.3079 24.2336 23.2472 24.1886C23.1887 24.1452 23.1105 24.0789 23.015 23.9829L21.5975 25.3939ZM19.9673 23.0172C20.4264 23.9274 21.0046 24.7983 21.5975 25.3939L23.015 23.9829C22.6195 23.5857 22.154 22.9115 21.753 22.1165L19.9673 23.0172ZM19.0214 20.2874C19.1506 21.1221 19.5081 22.1067 19.9673 23.0172L21.753 22.1165C21.3523 21.322 21.0847 20.543 20.9978 19.9815L19.0214 20.2874ZM19.0233 19.1178C18.9451 19.467 18.957 19.8717 19.0214 20.2874L20.9978 19.9815C20.9768 19.8456 20.9693 19.7407 20.9688 19.6647C20.9683 19.586 20.9754 19.553 20.9749 19.5552L19.0233 19.1178ZM19.5791 18.2728C19.2525 18.4753 19.0941 18.8019 19.0233 19.1178L20.9749 19.5552C20.9749 19.5553 20.9741 19.5588 20.9722 19.5651C20.9704 19.5714 20.9674 19.5809 20.9627 19.593C20.9536 19.6172 20.9374 19.6539 20.9105 19.6978C20.8498 19.7969 20.7568 19.8958 20.6329 19.9726L19.5791 18.2728ZM21.2721 17.4215L19.6588 18.2283L20.5533 20.0171L22.1666 19.2103L21.2721 17.4215ZM21.0686 17.6566C21.1025 17.5543 21.1757 17.4697 21.2721 17.4215L22.1666 19.2103C22.5457 19.0208 22.8337 18.6881 22.967 18.2858L21.0686 17.6566ZM21.0914 17.9667C21.0429 17.8705 21.0347 17.7589 21.0686 17.6566L22.967 18.2858C23.1004 17.8835 23.068 17.4446 22.8772 17.0662L21.0914 17.9667ZM18.3658 12.5614L21.0914 17.9667L22.8772 17.0662L20.1516 11.6609L18.3658 12.5614Z" fill="#101010"/>
</svg>
