<svg width="126" height="123" viewBox="0 0 126 123" fill="none" xmlns="http://www.w3.org/2000/svg">
<path fill-rule="evenodd" clip-rule="evenodd" d="M77.9629 36.7461L58.6832 57.6896C56.7739 59.7637 59.965 63.2719 62.2707 61.6497L62.3062 61.6243L71.8976 54.6974C75.0541 52.4178 77.6881 49.491 79.6236 46.1125L82.1702 41.6673C80.1653 40.7686 78.5744 39.0093 77.9629 36.7461ZM89.3175 41.1432L89.2099 41.4897L117.535 47.8374C120.286 48.4539 121.729 43.9362 119.171 42.7505L119.131 42.7324L108.337 37.8895C104.784 36.2957 100.933 35.478 97.039 35.4911L92.7773 35.5054C92.552 37.8129 91.2675 39.9002 89.3175 41.1432ZM88.6158 28.0025L80.6707 2.60104C79.8291 -0.0895801 75.1954 0.919958 75.4475 3.72783L75.4516 3.77131L76.6548 15.5411C77.0508 19.4146 78.2685 23.159 80.2266 26.5245L81.2832 28.3405C81.9759 27.9126 82.7501 27.5903 83.5887 27.4006C85.3532 27.0015 87.1131 27.2553 88.6158 28.0025Z" fill="url(#paint0_linear)"/>
<path d="M58.6832 57.6896L58.3154 57.351L58.6832 57.6896ZM77.9629 36.7461L78.4456 36.6157C78.398 36.4399 78.2587 36.3038 78.0818 36.2605C77.9048 36.2172 77.7184 36.2735 77.595 36.4075L77.9629 36.7461ZM62.2707 61.6497L62.5584 62.0586L62.5609 62.0568L62.2707 61.6497ZM62.3062 61.6243L62.5965 62.0315L62.599 62.0297L62.3062 61.6243ZM71.8976 54.6974L71.6049 54.2921L71.8976 54.6974ZM79.6236 46.1125L80.0574 46.361L79.6236 46.1125ZM82.1702 41.6673L82.604 41.9159C82.6742 41.7933 82.6893 41.6469 82.6456 41.5126C82.6019 41.3783 82.5035 41.2688 82.3747 41.2111L82.1702 41.6673ZM89.3175 41.1432L89.0487 40.7215C88.949 40.7851 88.8751 40.8819 88.84 40.9949L89.3175 41.1432ZM89.2099 41.4897L88.7324 41.3413C88.691 41.4747 88.7072 41.6192 88.7771 41.7401C88.847 41.8609 88.9643 41.947 89.1005 41.9776L89.2099 41.4897ZM117.535 47.8374L117.426 48.3253L117.535 47.8374ZM119.171 42.7505L119.381 42.2969L119.378 42.2956L119.171 42.7505ZM119.131 42.7324L119.339 42.2775L119.336 42.2762L119.131 42.7324ZM108.337 37.8895L108.132 38.3457L108.337 37.8895ZM97.039 35.4911L97.0373 34.9911L97.039 35.4911ZM92.7773 35.5054L92.7756 35.0054C92.5189 35.0062 92.3046 35.2013 92.2796 35.4568L92.7773 35.5054ZM88.6158 28.0025L88.3932 28.4502C88.5725 28.5394 88.7879 28.5129 88.9403 28.3829C89.0927 28.2529 89.1528 28.0444 89.093 27.8532L88.6158 28.0025ZM80.6707 2.60104L80.1935 2.7503L80.6707 2.60104ZM75.4475 3.72783L74.9494 3.77254L74.9497 3.77562L75.4475 3.72783ZM75.4516 3.77131L74.9539 3.81909L74.9542 3.82216L75.4516 3.77131ZM76.6548 15.5411L76.1574 15.592L76.6548 15.5411ZM80.2266 26.5245L80.6588 26.273L80.2266 26.5245ZM81.2832 28.3405L80.8511 28.5919C80.9189 28.7085 81.031 28.7928 81.1618 28.8255C81.2927 28.8583 81.4312 28.8368 81.546 28.7659L81.2832 28.3405ZM59.0511 58.0282L78.3307 37.0848L77.595 36.4075L58.3154 57.351L59.0511 58.0282ZM61.983 61.2407C61.1116 61.8538 60.0143 61.5436 59.2666 60.7197C58.5191 59.8962 58.3375 58.8034 59.0511 58.0282L58.3154 57.351C57.1196 58.6499 57.579 60.3483 58.5261 61.3918C59.473 62.435 61.1242 63.0677 62.5584 62.0586L61.983 61.2407ZM62.016 61.2172L61.9804 61.2425L62.5609 62.0568L62.5965 62.0314L62.016 61.2172ZM71.6049 54.2921L62.0135 61.219L62.599 62.0297L72.1903 55.1028L71.6049 54.2921ZM79.1897 45.8639C77.2896 49.1807 74.7037 52.0541 71.6049 54.2921L72.1903 55.1028C75.4045 52.7815 78.0866 49.8013 80.0574 46.361L79.1897 45.8639ZM81.7363 41.4188L79.1897 45.8639L80.0574 46.361L82.604 41.9159L81.7363 41.4188ZM82.3747 41.2111C80.5012 40.3713 79.0164 38.7283 78.4456 36.6157L77.4802 36.8766C78.1324 39.2903 79.8294 41.166 81.9656 42.1236L82.3747 41.2111ZM88.84 40.9949L88.7324 41.3413L89.6874 41.638L89.795 41.2915L88.84 40.9949ZM89.1005 41.9776L117.426 48.3253L117.645 47.3495L89.3192 41.0018L89.1005 41.9776ZM117.426 48.3253C119.149 48.7114 120.39 47.4644 120.82 46.1224C121.25 44.7807 120.972 43.0344 119.381 42.2969L118.961 43.2042C119.927 43.6523 120.207 44.7576 119.868 45.8171C119.528 46.8763 118.673 47.5799 117.645 47.3495L117.426 48.3253ZM119.378 42.2956L119.339 42.2775L118.924 43.1873L118.964 43.2055L119.378 42.2956ZM119.336 42.2762L108.541 37.4333L108.132 38.3457L118.927 43.1886L119.336 42.2762ZM108.541 37.4333C104.924 35.8104 101.002 34.9778 97.0373 34.9911L97.0406 35.9911C100.863 35.9783 104.644 36.781 108.132 38.3457L108.541 37.4333ZM97.0373 34.9911L92.7756 35.0054L92.7789 36.0054L97.0406 35.9911L97.0373 34.9911ZM92.2796 35.4568C92.0693 37.6111 90.8694 39.561 89.0487 40.7215L89.5862 41.5648C91.6655 40.2395 93.0347 38.0148 93.2749 35.5539L92.2796 35.4568ZM89.093 27.8532L81.1479 2.45178L80.1935 2.7503L88.1386 28.1518L89.093 27.8532ZM81.1479 2.45178C80.6208 0.766731 78.9203 0.315347 77.543 0.613847C76.1662 0.912265 74.7927 2.02588 74.9495 3.77254L75.9455 3.68313C75.8502 2.62191 76.6675 1.82682 77.7549 1.59116C78.8418 1.35557 79.879 1.74473 80.1935 2.7503L81.1479 2.45178ZM74.9497 3.77562L74.9539 3.81909L75.9493 3.72352L75.9452 3.68005L74.9497 3.77562ZM74.9542 3.82216L76.1574 15.592L77.1522 15.4903L75.949 3.72046L74.9542 3.82216ZM76.1574 15.592C76.5606 19.5362 77.8005 23.349 79.7944 26.7759L80.6588 26.273C78.7364 22.969 77.541 19.293 77.1522 15.4903L76.1574 15.592ZM79.7944 26.7759L80.8511 28.5919L81.7154 28.089L80.6588 26.273L79.7944 26.7759ZM81.546 28.7659C82.1923 28.3666 82.915 28.0656 83.699 27.8883L83.4784 26.9129C82.5852 27.1149 81.7595 27.4586 81.0205 27.9151L81.546 28.7659ZM83.699 27.8883C85.3472 27.5155 86.9898 27.7523 88.3932 28.4502L88.8384 27.5548C87.2364 26.7582 85.3592 26.4875 83.4784 26.9129L83.699 27.8883Z" fill="#101010"/>
<circle cx="85.2554" cy="34.7693" r="4.31745" transform="rotate(-12.7449 85.2554 34.7693)" fill="url(#paint1_linear)" stroke="#101010" stroke-linejoin="round"/>
<path d="M85.5 42H84.3333L81 122H85.5H90L86.6667 42H85.5Z" fill="white" stroke="#101010" stroke-linejoin="round"/>
<path d="M47.0459 90.5298H43.3773V122.057H47.0459V90.5298Z" fill="white" stroke="#101010" stroke-linejoin="round"/>
<path d="M99 91H95V122H99V91Z" fill="white" stroke="#101010" stroke-linejoin="round"/>
<path fill-rule="evenodd" clip-rule="evenodd" d="M49.755 69H115.926L89.1713 107.988H23L49.755 69Z" fill="white"/>
<path fill-rule="evenodd" clip-rule="evenodd" d="M89.1713 107.988L115.926 69L118.192 72.3488L91.437 111.337H25.2653L23 107.988H89.1713Z" fill="white"/>
<path d="M115.926 69H49.755L23 107.988M115.926 69L89.1713 107.988H23M115.926 69L118.192 72.3488L91.437 111.337H25.2653L23 107.988" stroke="#101010" stroke-linejoin="round"/>
<path fill-rule="evenodd" clip-rule="evenodd" d="M49.7549 69H115.926L89.1713 107.988H23L49.7549 69Z" fill="white" stroke="#101010" stroke-linejoin="round"/>
<path d="M102.724 88.2389L102.374 88.7474H80.6277L67.4241 107.989H66.8045L80.0081 88.7474H58.5658L45.3673 107.989H44.7481L57.9517 88.7474H36.2049L36.5549 88.2389H58.3021L71.5052 69.002H72.1197L58.9162 88.2389H80.3585L93.562 69.002H94.1761L80.9725 88.2389H102.724Z" fill="#101010" stroke="#101010" stroke-width="0.5"/>
<path d="M1.20647 74.0872C1.20647 89.0737 13.2677 101.223 28.146 101.223C43.0243 101.223 55.0856 89.0737 55.0856 74.0872C55.0856 59.1006 43.0243 46.9517 28.146 46.9517C13.2677 46.9517 1.20647 59.1006 1.20647 74.0872Z" fill="url(#paint2_linear)" stroke="#101010" stroke-linecap="round"/>
<path d="M29.4313 121.5V85.8067M29.4313 59.542V77.0518M29.4313 77.0518L38.3807 71.6642M29.4313 77.0518V85.8067M29.4313 85.8067L13.5976 78.3987" stroke="#101010" stroke-linecap="round"/>
<path d="M3 122H125.5" stroke="#101010" stroke-linecap="round" stroke-linejoin="round"/>
<defs>
<linearGradient id="paint0_linear" x1="49.8919" y1="9.67053" x2="61.7178" y2="61.9551" gradientUnits="userSpaceOnUse">
<stop stop-color="#D1EEDF"/>
<stop offset="1" stop-color="#A2E0DD"/>
</linearGradient>
<linearGradient id="paint1_linear" x1="81.3377" y1="30.7973" x2="81.3377" y2="39.0868" gradientUnits="userSpaceOnUse">
<stop stop-color="#D1EEDF"/>
<stop offset="1" stop-color="#A2E0DD"/>
</linearGradient>
<linearGradient id="paint2_linear" x1="3.70087" y1="49.1225" x2="3.70087" y2="101.223" gradientUnits="userSpaceOnUse">
<stop stop-color="#D1EEDF"/>
<stop offset="1" stop-color="#A2E0DD"/>
</linearGradient>
</defs>
</svg>
