<svg width="72" height="72" viewBox="0 0 72 72" fill="none" xmlns="http://www.w3.org/2000/svg">
<path d="M40 19L40.9861 19.1662C41.0613 18.7201 40.8276 18.2791 40.4162 18.0907C40.0049 17.9024 39.5183 18.0138 39.2298 18.3622L40 19ZM23.5 38.9268L22.7298 38.2891C22.4827 38.5875 22.4302 39.0018 22.5951 39.3524C22.76 39.703 23.1125 39.9268 23.5 39.9268V38.9268ZM34.5 38.9268L35.4881 39.0805C35.533 38.7919 35.4495 38.4981 35.2595 38.2763C35.0695 38.0545 34.7921 37.9268 34.5 37.9268V38.9268ZM32 55L31.0119 54.8463C30.9419 55.2965 31.1849 55.737 31.6031 55.9178C32.0212 56.0987 32.5087 55.974 32.7887 55.6147L32 55ZM48.5 33.8293L49.2887 34.444C49.5236 34.1426 49.5662 33.7337 49.3985 33.3904C49.2308 33.047 48.8821 32.8293 48.5 32.8293V33.8293ZM37.5 33.8293L36.5139 33.663C36.465 33.9532 36.5464 34.2502 36.7364 34.4749C36.9264 34.6996 37.2057 34.8293 37.5 34.8293V33.8293ZM39.2298 18.3622L22.7298 38.2891L24.2702 39.5646L40.7702 19.6378L39.2298 18.3622ZM23.5 39.9268H34.5V37.9268H23.5V39.9268ZM33.5119 38.7731L31.0119 54.8463L32.9881 55.1537L35.4881 39.0805L33.5119 38.7731ZM32.7887 55.6147L49.2887 34.444L47.7113 33.2145L31.2113 54.3853L32.7887 55.6147ZM48.5 32.8293H37.5V34.8293H48.5V32.8293ZM38.4861 33.9955L40.9861 19.1662L39.0139 18.8338L36.5139 33.663L38.4861 33.9955Z" fill="#101010"/>
<path d="M37 4C37 3.44772 36.5523 3 36 3C35.4477 3 35 3.44772 35 4H37ZM35 10.6016C35 11.1538 35.4477 11.6016 36 11.6016C36.5523 11.6016 37 11.1538 37 10.6016H35ZM37 62.3984C37 61.8462 36.5523 61.3984 36 61.3984C35.4477 61.3984 35 61.8462 35 62.3984H37ZM35 69C35 69.5523 35.4477 70 36 70C36.5523 70 37 69.5523 37 69H35ZM68.5 37.5C69.0523 37.5 69.5 37.0523 69.5 36.5C69.5 35.9477 69.0523 35.5 68.5 35.5V37.5ZM61.8984 35.5C61.3462 35.5 60.8984 35.9477 60.8984 36.5C60.8984 37.0523 61.3462 37.5 61.8984 37.5V35.5ZM10.1016 37.5C10.6538 37.5 11.1016 37.0523 11.1016 36.5C11.1016 35.9477 10.6538 35.5 10.1016 35.5V37.5ZM3.5 35.5C2.94772 35.5 2.5 35.9477 2.5 36.5C2.5 37.0523 2.94772 37.5 3.5 37.5V35.5ZM58.2739 60.1881C58.6644 60.5786 59.2976 60.5786 59.6881 60.1881C60.0786 59.7976 60.0786 59.1644 59.6881 58.7739L58.2739 60.1881ZM55.0201 54.1059C54.6295 53.7153 53.9964 53.7153 53.6059 54.1059C53.2153 54.4964 53.2153 55.1295 53.6059 55.5201L55.0201 54.1059ZM16.9799 18.8941C17.3705 19.2847 18.0036 19.2847 18.3941 18.8941C18.7847 18.5036 18.7847 17.8705 18.3941 17.4799L16.9799 18.8941ZM13.7261 12.8119C13.3356 12.4214 12.7024 12.4214 12.3119 12.8119C11.9214 13.2024 11.9214 13.8356 12.3119 14.2261L13.7261 12.8119ZM12.3119 58.7739C11.9214 59.1644 11.9214 59.7976 12.312 60.1881C12.7025 60.5786 13.3356 60.5786 13.7262 60.1881L12.3119 58.7739ZM18.3942 55.5201C18.7847 55.1296 18.7847 54.4964 18.3942 54.1059C18.0036 53.7154 17.3705 53.7154 16.98 54.1059L18.3942 55.5201ZM53.6059 17.48C53.2154 17.8705 53.2154 18.5036 53.6059 18.8942C53.9964 19.2847 54.6296 19.2847 55.0201 18.8942L53.6059 17.48ZM59.6881 14.2262C60.0786 13.8356 60.0786 13.2025 59.6881 12.8119C59.2976 12.4214 58.6644 12.4214 58.2739 12.8119L59.6881 14.2262ZM35 4V10.6016H37V4H35ZM35 62.3984V69H37V62.3984H35ZM68.5 35.5H61.8984V37.5H68.5V35.5ZM10.1016 35.5H3.5V37.5H10.1016V35.5ZM59.6881 58.7739L55.0201 54.1059L53.6059 55.5201L58.2739 60.1881L59.6881 58.7739ZM18.3941 17.4799L13.7261 12.8119L12.3119 14.2261L16.9799 18.8941L18.3941 17.4799ZM13.7262 60.1881L18.3942 55.5201L16.98 54.1059L12.3119 58.7739L13.7262 60.1881ZM55.0201 18.8942L59.6881 14.2262L58.2739 12.8119L53.6059 17.48L55.0201 18.8942Z" fill="#008174"/>
</svg>
