<svg width="72" height="72" viewBox="0 0 72 72" fill="none" xmlns="http://www.w3.org/2000/svg">
<path d="M4.875 35.9339C4.875 45.9115 12.9051 54 22.8107 54C30.2403 54 36.6148 49.4498 39.3374 42.965C36.9746 40.1769 35.5393 36.5041 35.5393 32.4795C35.5393 30.2967 35.9615 27.4998 36.725 24.5332C33.4362 20.4657 28.4247 17.8677 22.8107 17.8677C12.9051 17.8677 4.875 25.9562 4.875 35.9339Z" stroke="#101010" stroke-width="2" stroke-linecap="round"/>
<path d="M36.725 24.5332C35.9615 27.4998 35.5393 30.2966 35.5393 32.4795C35.5393 36.5041 36.9746 40.1769 39.3374 42.965M36.725 24.5332C39.0106 15.652 44.3544 5.25 50.5821 5.25C58.8901 5.25 65.625 23.7616 65.625 32.4795C65.625 41.1974 58.8901 48.2647 50.5821 48.2647C46.1095 48.2647 42.0928 46.2164 39.3374 42.965M36.725 24.5332C33.4362 20.4657 28.4247 17.8676 22.8107 17.8676C12.9051 17.8676 4.875 25.9561 4.875 35.9338C4.875 45.9115 12.9051 54 22.8107 54C30.2403 54 36.6148 49.4497 39.3374 42.965" stroke="#101010" stroke-width="2" stroke-linecap="round"/>
<path d="M23.6667 67.5V43.7364M23.6667 26.25V37.9076M23.6667 37.9076L29.625 34.3207M23.6667 37.9076V43.7364M23.6667 43.7364L13.125 38.8043" stroke="#008174" stroke-width="2" stroke-linecap="round"/>
<path d="M50.6705 67.5V37.4397M50.6705 17.25V31.6071M50.6705 31.6071L44.625 28.0179M50.6705 31.6071V37.4397M50.6705 37.4397L58.875 32.5045" stroke="#008174" stroke-width="2" stroke-linecap="round"/>
<path d="M1.875 67.5H70.125" stroke="#101010" stroke-width="2" stroke-linecap="round"/>
</svg>
