<svg width="72" height="72" viewBox="0 0 72 72" fill="none" xmlns="http://www.w3.org/2000/svg">
<path d="M27.5559 65.7388C29.997 66.7133 32.6652 67.25 35.4605 67.25C41.7034 67.25 47.3124 64.5733 51.1721 60.32M51.1721 60.32C51.2989 60.1802 51.4239 60.0388 51.5469 59.8956C52.578 60.1723 53.663 60.32 54.7829 60.32C61.5738 60.32 67.0789 54.8903 67.0789 48.1925C67.0789 45.3872 66.1132 42.8044 64.4918 40.7498C66.8089 38.5443 68.25 35.4494 68.25 32.0225C68.25 25.3247 62.7449 19.895 55.9539 19.895C54.9316 19.895 53.9383 20.0181 52.9886 20.25C49.5474 13.8552 42.7269 9.5 34.875 9.5C27.5042 9.5 21.0422 13.3379 17.4314 19.0982C16.4537 18.8641 15.4323 18.74 14.3816 18.74C7.26728 18.74 1.5 24.4282 1.5 31.445C1.5 36.0939 4.03164 40.1597 7.80936 42.3743C5.40925 44.0474 3.84211 46.8057 3.84211 49.925C3.84211 55.0281 8.03649 59.165 13.2105 59.165C14.9114 59.165 16.5065 58.7179 17.8814 57.9364C18.8543 57.339 21.0251 55.9221 21.9259 55.0337C21.1752 53.1815 18.5478 47.7317 18.5478 40.7498C18.5478 37.2644 36.9161 44.6912 48.9502 32.8221C49.5268 32.2534 50.1239 31.6645 50.6627 31.1331C51.5863 30.2221 53.0703 30.2223 53.9939 31.1333V31.1333C54.9358 32.0622 54.9358 33.582 53.9939 34.511L50.6392 37.8197C53.6218 41.1588 57.9041 50.3337 51.1721 60.32Z" stroke="#101010" stroke-width="2" stroke-linecap="round" stroke-linejoin="round"/>
<path d="M33.3086 57.3678C36.7473 58.948 43.6845 58.8933 46.2349 53.7104" stroke="#008174" stroke-width="2" stroke-linecap="round"/>
<circle cx="33.75" cy="48.5" r="1.5" fill="#008174"/>
<circle cx="42.75" cy="46.25" r="1.5" fill="#008174"/>
</svg>
