<svg width="136" height="32" viewBox="0 0 136 32" fill="none" xmlns="http://www.w3.org/2000/svg">
<path d="M16.029 19.8979C18.1858 19.8979 19.9343 18.1527 19.9343 15.9997C19.9343 13.8468 18.1858 12.1016 16.029 12.1016C13.8722 12.1016 12.1238 13.8468 12.1238 15.9997C12.1238 18.1527 13.8722 19.8979 16.029 19.8979Z" fill="#008174"/>
<path d="M16.029 32C24.8676 32 32.0579 24.8227 32.0579 16C32.0579 7.17801 24.8676 0 16.029 0C7.19032 0 0 7.17801 0 16C0 24.8227 7.19032 32 16.029 32ZM15.9844 2.38317C20.69 2.38317 24.8462 4.77414 27.2989 8.40217C28.7718 10.5722 29.6337 13.1875 29.6337 16.0003C29.6337 19.2829 28.4604 22.2963 26.5108 24.6469C24.0071 27.6772 20.2181 29.6121 15.9844 29.6121C8.46396 29.6121 2.34532 23.5052 2.34532 15.9976C2.34566 8.49075 8.46396 2.38317 15.9844 2.38317Z" fill="white"/>
<path d="M16.0291 4.84082C9.86485 4.84082 4.84985 9.84676 4.84985 15.9998C4.84985 18.6209 5.76581 21.0292 7.28697 22.9355V16.2496C7.28459 16.1658 7.27439 16.084 7.27439 15.9995C7.27439 15.915 7.28459 15.8332 7.28697 15.7494V15.5861H7.29513C7.51341 10.9603 11.3418 7.2603 16.0291 7.2603C20.856 7.2603 24.7841 11.1812 24.7841 15.9995C24.7841 20.8184 20.856 24.739 16.0291 24.739C15.5191 24.739 15.022 24.6861 14.5358 24.6022V27.0475C15.0257 27.1133 15.5218 27.1592 16.0291 27.1592C20.2604 27.1592 23.949 24.8001 25.8472 21.3309C26.7095 19.7453 27.1994 17.9282 27.1994 15.9971C27.1994 14.2829 26.802 12.665 26.1121 11.2128C24.3125 7.45205 20.4752 4.84082 16.0291 4.84082Z" fill="#A3DCBE"/>
<path d="M9.71118 25.2774C10.4548 25.7794 11.2677 26.1826 12.1242 26.4965V22.6316V20.9353C13.2033 21.7882 14.5487 22.319 16.0291 22.319C19.5202 22.319 22.3595 19.4845 22.3595 16C22.3595 12.5159 19.5198 9.68164 16.0291 9.68164C12.5811 9.68164 9.77986 12.4497 9.71118 15.8748V15.9253V25.2774V25.2774ZM16.0291 12.1015C18.1853 12.1015 19.934 13.8469 19.934 16C19.934 18.153 18.1853 19.8985 16.0291 19.8985C13.8714 19.8985 12.1242 18.153 12.1242 16C12.1242 13.8469 13.8714 12.1015 16.0291 12.1015Z" fill="white"/>
<path d="M15.9843 29.6119C20.218 29.6119 24.007 27.6767 26.5107 24.6467C28.4599 22.2961 29.6336 19.2827 29.6336 16.0001C29.6336 13.1873 28.7721 10.572 27.2988 8.40197C24.8461 4.77427 20.6903 2.3833 15.9843 2.3833C8.46386 2.3833 2.34521 8.49089 2.34521 15.9978C2.34555 23.5053 8.46386 29.6119 15.9843 29.6119ZM27.1992 15.9978C27.1992 17.9289 26.7093 19.7459 25.847 21.3315C23.9492 24.8007 20.2602 27.1598 16.0289 27.1598C15.5212 27.1598 15.0252 27.114 14.5356 27.0482V24.6029C15.0221 24.6867 15.5189 24.7397 16.0289 24.7397C20.8558 24.7397 24.7839 20.8187 24.7839 16.0001C24.7839 11.1819 20.8558 7.26095 16.0289 7.26095C11.3416 7.26095 7.51321 10.9609 7.29493 15.5868H7.28677V15.75C7.28439 15.8338 7.27419 15.9156 7.27419 16.0001C7.27419 16.0846 7.28439 16.1664 7.28677 16.2503V22.9362C5.76561 21.0295 4.84965 18.6215 4.84965 16.0005C4.84965 9.84741 9.86466 4.84147 16.0289 4.84147C20.475 4.84147 24.3119 7.4527 26.1119 11.2134C26.8018 12.6657 27.1992 14.2835 27.1992 15.9978ZM9.71097 15.9255V15.8749C9.77965 12.4498 12.5809 9.68179 16.0289 9.68179C19.52 9.68179 22.3593 12.5163 22.3593 16.0001C22.3593 19.4849 19.5196 22.3192 16.0289 22.3192C14.5485 22.3192 13.2031 21.7884 12.124 20.9355V22.6317V26.4967C11.2678 26.1827 10.4549 25.7795 9.71097 25.2776V15.9255V15.9255Z" fill="#008174"/>
<path d="M42.8512 20.7831H42.9008C43.6005 21.7802 44.9238 22.3276 46.1709 22.3276C49.7902 22.3276 51.8374 19.0889 51.8374 15.7507C51.8374 12.5367 49.7154 9.29791 46.2457 9.29791C44.9479 9.29791 43.6502 9.8708 42.8512 10.8177V9.69635H39.3577V28.4566H42.8512V20.7831ZM45.3971 12.387C47.194 12.387 48.2926 14.1562 48.2926 15.8002C48.2926 17.4449 47.194 19.2385 45.3971 19.2385C43.6002 19.2385 42.5017 17.4449 42.5017 15.8002C42.5017 14.1559 43.6002 12.387 45.3971 12.387Z" fill="white"/>
<path d="M56.9534 16.4233C56.9534 14.5302 57.2036 12.3873 59.6241 12.3873C60.1487 12.3873 60.6475 12.537 61.0718 12.836L61.4961 9.59657C61.0466 9.42213 60.5475 9.29791 60.0484 9.29791C58.7506 9.29791 57.7027 9.89557 57.003 10.9667H56.9534V9.69635H53.4585V21.9288H56.9534V16.4233Z" fill="white"/>
<path d="M68.2101 22.3279C72.0541 22.3279 74.65 19.6125 74.65 15.8257C74.65 12.0133 72.029 9.29791 68.2101 9.29791C64.3915 9.29791 61.7701 12.0133 61.7701 15.8257C61.7705 19.6125 64.366 22.3279 68.2101 22.3279ZM68.2101 12.387C70.007 12.387 71.1055 14.1311 71.1055 15.8253C71.1055 17.4696 70.007 19.2385 68.2101 19.2385C66.4132 19.2385 65.3146 17.4696 65.3146 15.8253C65.3146 14.1311 66.4132 12.387 68.2101 12.387Z" fill="white"/>
<path d="M82.0131 22.1783L87.654 9.69635H83.8351L81.3144 16.5974L78.4431 9.69635H74.6004L80.2162 22.1783H82.0131Z" fill="white"/>
<path d="M92.1471 9.69635H88.6522V21.9288H92.1471V9.69635Z" fill="white"/>
<path d="M90.3995 6.6317C91.5436 6.6317 92.4711 5.70588 92.4711 4.56382C92.4711 3.42177 91.5436 2.49595 90.3995 2.49595C89.2554 2.49595 88.3279 3.42177 88.3279 4.56382C88.3279 5.70588 89.2554 6.6317 90.3995 6.6317Z" fill="white"/>
<path d="M98.2362 19.6373C97.2128 19.6373 96.3148 18.965 95.6406 18.217L94.0429 20.2852C95.1173 21.5806 96.7136 22.3279 98.362 22.3279C100.932 22.3279 103.129 20.7084 103.129 17.9933C103.129 15.8752 101.881 15.0284 100.607 14.48C99.3599 13.9319 98.0862 13.6828 98.0862 12.7858C98.0862 12.1881 98.6601 11.7395 99.2341 11.7395C99.9338 11.7395 100.583 12.1135 101.082 12.5862L102.579 10.5682C101.581 9.69669 99.9341 9.29791 98.6363 9.29791C96.3403 9.29791 94.7427 10.9667 94.7427 13.2592C94.7427 15.2273 95.9656 15.9499 97.1886 16.4732C98.4116 16.9962 99.6346 17.2453 99.6346 18.3171C99.6346 19.1143 99.011 19.6373 98.2362 19.6373Z" fill="white"/>
<path d="M108.694 9.69635H105.2V21.9288H108.694V9.69635Z" fill="white"/>
<path d="M106.948 6.63204C108.096 6.63204 109.019 5.70993 109.019 4.56382C109.019 3.44249 108.096 2.49561 106.948 2.49561C105.8 2.49561 104.875 3.44249 104.875 4.56382C104.875 5.70993 105.8 6.63204 106.948 6.63204Z" fill="white"/>
<path d="M116.931 22.3279C120.775 22.3279 123.371 19.6125 123.371 15.8257C123.371 12.0133 120.751 9.29791 116.931 9.29791C113.112 9.29791 110.492 12.0133 110.492 15.8257C110.492 19.6125 113.088 22.3279 116.931 22.3279ZM116.931 12.387C118.728 12.387 119.826 14.1311 119.826 15.8253C119.826 17.4696 118.728 19.2385 116.931 19.2385C115.134 19.2385 114.035 17.4696 114.035 15.8253C114.035 14.1311 115.134 12.387 116.931 12.387Z" fill="white"/>
<path d="M128.512 15.8749C128.512 14.405 128.538 12.0877 130.609 12.0877C132.582 12.0877 132.506 13.9814 132.506 15.4513V21.9288H136V14.4552C136 11.6146 135.053 9.29791 131.757 9.29791C130.509 9.29791 129.286 9.72147 128.562 10.8177H128.512V9.69635H125.018V21.9288H128.512V15.8749Z" fill="white"/>
</svg>
