<svg width="156" height="156" viewBox="0 0 156 156" fill="none" xmlns="http://www.w3.org/2000/svg">
<g clip-path="url(#clip0)">
<path fill-rule="evenodd" clip-rule="evenodd" d="M95.0172 44.7849L71.5202 70.3098C69.1932 72.8376 73.0824 77.1132 75.8924 75.1361L75.9038 75.128L75.9357 75.1052L87.6252 66.663C91.4722 63.8847 94.6823 60.3177 97.0412 56.2002L100.145 50.7826C97.7014 49.6873 95.7625 47.5432 95.0172 44.7849ZM108.856 50.1438L108.725 50.5661L143.246 58.3024C146.599 59.0537 148.357 53.5478 145.24 52.1028C145.224 52.0953 145.207 52.088 145.191 52.0807L132.035 46.1784C127.706 44.2359 123.012 43.2394 118.266 43.2553L113.072 43.2727C112.798 46.0851 111.232 48.629 108.856 50.1438ZM108 34.1287L98.3174 3.17059C97.2917 -0.108611 91.6444 1.12176 91.9516 4.54386L91.954 4.57037L91.9567 4.59685L93.423 18.9413C93.9056 23.6621 95.3897 28.2256 97.7762 32.3273L99.0639 34.5406C99.9081 34.0191 100.852 33.6262 101.874 33.395C104.024 32.9086 106.169 33.218 108 34.1287Z" fill="url(#paint0_linear)"/>
<path d="M71.5202 70.3098L71.1523 69.9711L71.1523 69.9711L71.5202 70.3098ZM95.0172 44.7849L95.4999 44.6545C95.4524 44.4787 95.313 44.3426 95.1361 44.2993C94.9592 44.256 94.7727 44.3123 94.6494 44.4463L95.0172 44.7849ZM75.8924 75.1361L76.1801 75.545L76.1805 75.5447L75.8924 75.1361ZM75.9038 75.128L76.192 75.5366L76.1948 75.5346L75.9038 75.128ZM75.9357 75.1052L76.2267 75.5118L76.2285 75.5105L75.9357 75.1052ZM87.6252 66.663L87.9179 67.0684L87.6252 66.663ZM97.0412 56.2002L97.4751 56.4487L97.0412 56.2002ZM100.145 50.7826L100.579 51.0312C100.649 50.9087 100.664 50.7622 100.62 50.6279C100.577 50.4937 100.478 50.3841 100.349 50.3264L100.145 50.7826ZM108.856 50.1438L108.587 49.7222C108.487 49.7858 108.413 49.8826 108.378 49.9955L108.856 50.1438ZM108.725 50.5661L108.247 50.4178C108.206 50.5511 108.222 50.6957 108.292 50.8165C108.362 50.9374 108.479 51.0235 108.615 51.054L108.725 50.5661ZM143.246 58.3024L143.137 58.7903L143.246 58.3024ZM145.24 52.1028L145.029 52.5564L145.029 52.5564L145.24 52.1028ZM145.191 52.0807L144.987 52.5369L144.987 52.5369L145.191 52.0807ZM132.035 46.1784L131.831 46.6346L132.035 46.1784ZM118.266 43.2553L118.268 43.7553L118.266 43.2553ZM113.072 43.2727L113.071 42.7727C112.814 42.7736 112.6 42.9687 112.575 43.2242L113.072 43.2727ZM108 34.1287L107.778 34.5764C107.957 34.6656 108.173 34.6391 108.325 34.5091C108.477 34.379 108.537 34.1706 108.478 33.9794L108 34.1287ZM98.3174 3.17059L98.7946 3.02133L98.3174 3.17059ZM91.9516 4.54386L91.4536 4.58857L91.4537 4.59015L91.9516 4.54386ZM91.954 4.57037L91.4562 4.61666L91.4565 4.61969L91.954 4.57037ZM91.9567 4.59685L91.4591 4.64617L91.4593 4.64769L91.9567 4.59685ZM93.423 18.9413L93.9205 18.8904L93.423 18.9413ZM97.7762 32.3273L97.344 32.5787L97.7762 32.3273ZM99.0639 34.5406L98.6318 34.792C98.6996 34.9086 98.8117 34.9928 98.9425 35.0256C99.0734 35.0584 99.2119 35.0368 99.3267 34.9659L99.0639 34.5406ZM71.888 70.6484L95.3851 45.1236L94.6494 44.4463L71.1523 69.9711L71.888 70.6484ZM75.6047 74.7272C74.4811 75.5177 73.0832 75.1043 72.1501 74.0762C71.2173 73.0485 70.9656 71.6504 71.888 70.6484L71.1523 69.9711C69.7477 71.497 70.2772 73.5006 71.4097 74.7483C72.5419 75.9958 74.4937 76.7316 76.1801 75.545L75.6047 74.7272ZM75.6157 74.7194L75.6042 74.7275L76.1805 75.5447L76.192 75.5366L75.6157 74.7194ZM75.6448 74.6986L75.6129 74.7214L76.1948 75.5346L76.2267 75.5118L75.6448 74.6986ZM87.3324 66.2577L75.643 74.6998L76.2285 75.5105L87.9179 67.0684L87.3324 66.2577ZM96.6074 55.9516C94.2838 60.0075 91.1218 63.521 87.3324 66.2577L87.9179 67.0684C91.8226 64.2484 95.0808 60.628 97.4751 56.4487L96.6074 55.9516ZM99.711 50.5341L96.6074 55.9516L97.4751 56.4487L100.579 51.0312L99.711 50.5341ZM100.349 50.3264C98.0373 49.29 96.2045 47.2621 95.4999 44.6545L94.5345 44.9154C95.3205 47.8242 97.3655 50.0847 99.9403 51.2389L100.349 50.3264ZM108.378 49.9955L108.247 50.4178L109.202 50.7144L109.333 50.2922L108.378 49.9955ZM108.615 51.054L143.137 58.7903L143.355 57.8145L108.834 50.0782L108.615 51.054ZM143.137 58.7903C145.16 59.2438 146.631 57.7834 147.145 56.1788C147.659 54.5746 147.321 52.5164 145.45 51.6491L145.029 52.5564C146.276 53.1342 146.617 54.5515 146.193 55.8736C145.769 57.1953 144.684 58.1123 143.355 57.8145L143.137 58.7903ZM145.45 51.6492C145.432 51.6408 145.414 51.6326 145.396 51.6245L144.987 52.5369C145.001 52.5433 145.015 52.5498 145.029 52.5564L145.45 51.6492ZM145.396 51.6245L132.24 45.7222L131.831 46.6346L144.987 52.5369L145.396 51.6245ZM132.24 45.7222C127.846 43.7506 123.081 42.7392 118.265 42.7553L118.268 43.7553C122.942 43.7396 127.566 44.7212 131.831 46.6346L132.24 45.7222ZM118.265 42.7553L113.071 42.7727L113.074 43.7727L118.268 43.7553L118.265 42.7553ZM112.575 43.2242C112.315 45.8833 110.834 48.2898 108.587 49.7222L109.124 50.5655C111.63 48.9682 113.28 46.2869 113.57 43.3213L112.575 43.2242ZM108.478 33.9794L98.7946 3.02133L97.8402 3.31985L107.523 34.2779L108.478 33.9794ZM98.7946 3.02133C98.1755 1.04199 96.1755 0.498668 94.5287 0.855584C92.8823 1.21242 91.2692 2.5348 91.4536 4.58857L92.4496 4.49916C92.3267 3.13083 93.3837 2.12697 94.7406 1.83289C96.097 1.5389 97.4336 2.01999 97.8402 3.31985L98.7946 3.02133ZM91.4537 4.59015L91.4562 4.61666L92.4519 4.52409L92.4494 4.49758L91.4537 4.59015ZM91.4565 4.61969L91.4591 4.64617L92.4542 4.54753L92.4516 4.52105L91.4565 4.61969ZM91.4593 4.64769L92.9256 18.9921L93.9205 18.8904L92.4541 4.546L91.4593 4.64769ZM92.9256 18.9921C93.4155 23.7837 94.9218 28.4156 97.344 32.5787L98.2083 32.0758C95.8576 28.0356 94.3958 23.5405 93.9205 18.8904L92.9256 18.9921ZM97.344 32.5787L98.6318 34.792L99.4961 34.2891L98.2083 32.0758L97.344 32.5787ZM99.3267 34.9659C100.125 34.4731 101.017 34.1015 101.984 33.8827L101.763 32.9074C100.687 33.1509 99.6918 33.565 98.8012 34.1152L99.3267 34.9659ZM101.984 33.8827C104.018 33.4226 106.046 33.715 107.778 34.5764L108.223 33.681C106.292 32.7209 104.03 32.3947 101.763 32.9074L101.984 33.8827Z" fill="#101010"/>
<ellipse cx="103.905" cy="42.3757" rx="5.2619" ry="5.26189" transform="rotate(-12.7449 103.905 42.3757)" fill="url(#paint1_linear)" stroke="#101010" stroke-linejoin="round"/>
<path d="M104.203 51.1875H102.781L98.7188 148.688H104.203H109.688L105.625 51.1875H104.203Z" fill="white" stroke="#101010" stroke-linejoin="round"/>
<path d="M57.3371 110.333H52.866V148.757H57.3371V110.333Z" fill="white" stroke="#101010" stroke-linejoin="round"/>
<path d="M120.656 110.906H115.781V148.688H120.656V110.906Z" fill="white" stroke="#101010" stroke-linejoin="round"/>
<path fill-rule="evenodd" clip-rule="evenodd" d="M60.6388 84.0938H141.285L108.677 131.611H28.0312L60.6388 84.0938Z" fill="white"/>
<path fill-rule="evenodd" clip-rule="evenodd" d="M108.677 131.611L141.285 84.0938L144.046 88.1751L111.439 135.692H30.7921L28.0312 131.611H108.677Z" fill="white"/>
<path d="M141.285 84.0938H60.6388L28.0312 131.611M141.285 84.0938L108.677 131.611H28.0312M141.285 84.0938L144.046 88.1751L111.439 135.692H30.7921L28.0312 131.611" stroke="#101010" stroke-linejoin="round"/>
<path fill-rule="evenodd" clip-rule="evenodd" d="M60.6388 84.0938H141.285L108.677 131.611H28.0312L60.6388 84.0938Z" fill="white" stroke="#101010" stroke-linejoin="round"/>
<path d="M125.195 107.541L124.769 108.16H98.265L82.1732 131.612H81.4181L97.5099 108.16H71.3771L55.2914 131.612H54.5368L70.6287 108.16H44.1248L44.5513 107.541H71.0557L87.147 84.0957H87.8959L71.8041 107.541H97.9369L114.029 84.0957H114.777L98.6853 107.541H125.195Z" fill="#101010" stroke="#101010" stroke-width="0.5"/>
<path d="M1.47046 90.2941C1.47046 108.559 16.1701 123.365 34.3031 123.365C52.436 123.365 67.1357 108.559 67.1357 90.2941C67.1357 72.0292 52.436 57.2227 34.3031 57.2227C16.1701 57.2227 1.47046 72.0292 1.47046 90.2941Z" fill="url(#paint2_linear)" stroke="#101010" stroke-linecap="round"/>
<path d="M35.8695 148.078V104.577M35.8695 72.5674V93.9075M35.8695 93.9075L46.7767 87.3413M35.8695 93.9075V104.577M35.8695 104.577L16.5723 95.549" stroke="#101010" stroke-linecap="round"/>
<path d="M3.65625 148.688H152.953" stroke="#101010" stroke-linecap="round" stroke-linejoin="round"/>
</g>
<defs>
<linearGradient id="paint0_linear" x1="60.8057" y1="11.7865" x2="75.2185" y2="75.5083" gradientUnits="userSpaceOnUse">
<stop stop-color="#D1EEDF"/>
<stop offset="1" stop-color="#A2E0DD"/>
</linearGradient>
<linearGradient id="paint1_linear" x1="99.1302" y1="37.5348" x2="99.1302" y2="47.6376" gradientUnits="userSpaceOnUse">
<stop stop-color="#D1EEDF"/>
<stop offset="1" stop-color="#A2E0DD"/>
</linearGradient>
<linearGradient id="paint2_linear" x1="4.51052" y1="59.8684" x2="4.51052" y2="123.365" gradientUnits="userSpaceOnUse">
<stop stop-color="#D1EEDF"/>
<stop offset="1" stop-color="#A2E0DD"/>
</linearGradient>
<clipPath id="clip0">
<rect width="156" height="156" fill="white"/>
</clipPath>
</defs>
</svg>
