<svg width="15" height="11" viewBox="0 0 15 11" fill="none" xmlns="http://www.w3.org/2000/svg">
<path d="M2.04661 4.91672C1.66925 4.61483 1.11862 4.67601 0.81674 5.05337C0.514856 5.43072 0.576038 5.98135 0.953392 6.28324L2.04661 4.91672ZM6.5 9.59998L5.95339 10.2832C6.31903 10.5758 6.85016 10.5286 7.1585 10.1762L6.5 9.59998ZM14.1585 2.17617C14.4767 1.81249 14.4399 1.25969 14.0762 0.941471C13.7125 0.623249 13.1597 0.660102 12.8415 1.02378L14.1585 2.17617ZM0.953392 6.28324L5.95339 10.2832L7.04661 8.91672L2.04661 4.91672L0.953392 6.28324ZM7.1585 10.1762L14.1585 2.17617L12.8415 1.02378L5.8415 9.02378L7.1585 10.1762Z" fill="#101010" fill-opacity="0.15"/>
</svg>
