<svg width="168" height="40" viewBox="0 0 168 40" fill="none" xmlns="http://www.w3.org/2000/svg">
<path d="M19.8005 24.8727C22.4648 24.8727 24.6246 22.6911 24.6246 20C24.6246 17.3089 22.4648 15.1273 19.8005 15.1273C17.1362 15.1273 14.9764 17.3089 14.9764 20C14.9764 22.6911 17.1362 24.8727 19.8005 24.8727Z" fill="#008174"/>
<path d="M19.8005 40C30.7188 40 39.601 31.0283 39.601 20C39.601 8.97251 30.7188 0 19.8005 0C8.88216 0 0 8.97251 0 20C0 31.0283 8.88216 40 19.8005 40ZM19.7455 2.97896C25.5583 2.97896 30.6923 5.96767 33.7222 10.5027C35.5417 13.2153 36.6064 16.4844 36.6064 20.0004C36.6064 24.1036 35.1569 27.8704 32.7487 30.8086C29.6558 34.5966 24.9753 37.0151 19.7455 37.0151C10.4555 37.0151 2.89716 29.3815 2.89716 19.997C2.89758 10.6134 10.4555 2.97896 19.7455 2.97896Z" fill="white"/>
<path d="M19.8005 6.05127C12.1859 6.05127 5.99091 12.3087 5.99091 20C5.99091 23.2764 7.12239 26.2867 9.00147 28.6696V20.3123C8.99853 20.2075 8.98593 20.1052 8.98593 19.9996C8.98593 19.894 8.99853 19.7917 9.00147 19.6869V19.4829H9.01155C9.28119 13.7006 14.0104 9.07562 19.8005 9.07562C25.7632 9.07562 30.6155 13.9768 30.6155 19.9996C30.6155 26.0233 25.7632 30.924 19.8005 30.924C19.1705 30.924 18.5565 30.8578 17.9559 30.753V33.8096C18.5611 33.8919 19.1739 33.9492 19.8005 33.9492C25.0274 33.9492 29.584 31.0004 31.9289 26.6639C32.994 24.6818 33.5992 22.4105 33.5992 19.9966C33.5992 17.8538 33.1082 15.8315 32.256 14.0162C30.033 9.31531 25.2928 6.05127 19.8005 6.05127Z" fill="#A3DCBE"/>
<path d="M11.996 31.5969C12.9146 32.2243 13.9188 32.7283 14.9768 33.1207V28.2895V26.1692C16.3099 27.2353 17.9718 27.8988 19.8005 27.8988C24.113 27.8988 27.6205 24.3556 27.6205 20C27.6205 15.6449 24.1126 12.1021 19.8005 12.1021C15.5413 12.1021 12.0809 15.5622 11.996 19.8435V19.9067V31.5969V31.5969ZM19.8005 15.1269C22.4641 15.1269 24.6242 17.3087 24.6242 20C24.6242 22.6914 22.4641 24.8732 19.8005 24.8732C17.1352 24.8732 14.9768 22.6914 14.9768 20C14.9768 17.3087 17.1352 15.1269 19.8005 15.1269Z" fill="white"/>
<path d="M19.7455 37.0147C24.9753 37.0147 29.6558 34.5957 32.7487 30.8082C35.1565 27.8699 36.6064 24.1032 36.6064 20C36.6064 16.484 35.5421 13.2148 33.7222 10.5023C30.6923 5.96769 25.5587 2.97897 19.7455 2.97897C10.4555 2.97897 2.89716 10.6135 2.89716 19.997C2.89758 29.3815 10.4555 37.0147 19.7455 37.0147ZM33.5992 19.997C33.5992 22.4109 32.9939 24.6823 31.9288 26.6643C29.5844 31.0008 25.0274 33.9496 19.8005 33.9496C19.1734 33.9496 18.5606 33.8923 17.9558 33.81V30.7534C18.5569 30.8582 19.1705 30.9244 19.8005 30.9244C25.7632 30.9244 30.6155 26.0233 30.6155 20C30.6155 13.9772 25.7632 9.07604 19.8005 9.07604C14.0104 9.07604 9.28116 13.701 9.01152 19.4833H9.00144V19.6874C8.9985 19.7921 8.9859 19.8944 8.9859 20C8.9859 20.1056 8.9985 20.2079 9.00144 20.3127V28.67C7.12236 26.2867 5.99088 23.2768 5.99088 20.0004C5.99088 12.3091 12.1859 6.05169 19.8005 6.05169C25.2928 6.05169 30.0325 9.31573 32.256 14.0166C33.1082 15.8319 33.5992 17.8542 33.5992 19.997ZM11.996 19.9067V19.8435C12.0809 15.5621 15.5413 12.1021 19.8005 12.1021C24.113 12.1021 27.6205 15.6453 27.6205 20C27.6205 24.356 24.1126 27.8988 19.8005 27.8988C17.9718 27.8988 16.3099 27.2353 14.9768 26.1692V28.2895V33.1207C13.9192 32.7282 12.915 32.2243 11.996 31.5968V19.9067V19.9067Z" fill="#008174"/>
<path d="M52.9338 25.9791H52.9952C53.8595 27.2255 55.4942 27.9098 57.0347 27.9098C61.5056 27.9098 64.0344 23.8613 64.0344 19.6886C64.0344 15.6711 61.4132 11.6227 57.1271 11.6227C55.524 11.6227 53.9208 12.3388 52.9338 13.5224V12.1207H48.6183V35.571H52.9338V25.9791ZM56.0788 15.484C58.2985 15.484 59.6556 17.6955 59.6556 19.7505C59.6556 21.8064 58.2985 24.0484 56.0788 24.0484C53.8591 24.0484 52.5021 21.8064 52.5021 19.7505C52.5021 17.6951 53.8591 15.484 56.0788 15.484Z" fill="white"/>
<path d="M70.3542 20.5294C70.3542 18.1631 70.6633 15.4845 73.6533 15.4845C74.3014 15.4845 74.9175 15.6715 75.4417 16.0453L75.9658 11.996C75.4106 11.7779 74.794 11.6227 74.1775 11.6227C72.5743 11.6227 71.2799 12.3697 70.4155 13.7086H70.3542V12.1207H66.037V27.4113H70.3542V20.5294Z" fill="white"/>
<path d="M84.2596 27.9102C89.0081 27.9102 92.2148 24.5159 92.2148 19.7823C92.2148 15.0169 88.977 11.6227 84.2596 11.6227C79.5425 11.6227 76.3043 15.0169 76.3043 19.7823C76.3048 24.5159 79.511 27.9102 84.2596 27.9102ZM84.2596 15.484C86.4793 15.484 87.8363 17.6642 87.8363 19.7819C87.8363 21.8373 86.4793 24.0484 84.2596 24.0484C82.0399 24.0484 80.6828 21.8373 80.6828 19.7819C80.6828 17.6642 82.0399 15.484 84.2596 15.484Z" fill="white"/>
<path d="M101.31 27.7231L108.279 12.1207H103.561L100.447 20.747L96.9003 12.1207H92.1535L99.0906 27.7231H101.31Z" fill="white"/>
<path d="M113.829 12.1207H109.512V27.4113H113.829V12.1207Z" fill="white"/>
<path d="M111.67 8.2899C113.083 8.2899 114.229 7.13262 114.229 5.70505C114.229 4.27748 113.083 3.12021 111.67 3.12021C110.257 3.12021 109.111 4.27748 109.111 5.70505C109.111 7.13262 110.257 8.2899 111.67 8.2899Z" fill="white"/>
<path d="M121.351 24.5469C120.086 24.5469 118.977 23.7065 118.144 22.7715L116.171 25.3568C117.498 26.976 119.47 27.9102 121.506 27.9102C124.681 27.9102 127.395 25.8858 127.395 22.4919C127.395 19.8443 125.853 18.7858 124.279 18.1003C122.739 17.4151 121.165 17.1037 121.165 15.9825C121.165 15.2354 121.874 14.6746 122.583 14.6746C123.448 14.6746 124.249 15.1421 124.866 15.733L126.716 13.2106C125.483 12.1211 123.448 11.6227 121.845 11.6227C119.009 11.6227 117.035 13.7086 117.035 16.5743C117.035 19.0344 118.546 19.9376 120.057 20.5918C121.567 21.2455 123.078 21.5569 123.078 22.8966C123.078 23.8932 122.308 24.5469 121.351 24.5469Z" fill="white"/>
<path d="M134.269 12.1207H129.953V27.4113H134.269V12.1207Z" fill="white"/>
<path d="M132.112 8.29032C133.531 8.29032 134.671 7.13768 134.671 5.70505C134.671 4.30339 133.531 3.11978 132.112 3.11978C130.694 3.11978 129.552 4.30339 129.552 5.70505C129.552 7.13768 130.694 8.29032 132.112 8.29032Z" fill="white"/>
<path d="M144.444 27.9102C149.192 27.9102 152.399 24.5159 152.399 19.7823C152.399 15.0169 149.163 11.6227 144.444 11.6227C139.727 11.6227 136.49 15.0169 136.49 19.7823C136.49 24.5159 139.697 27.9102 144.444 27.9102ZM144.444 15.484C146.664 15.484 148.021 17.6642 148.021 19.7819C148.021 21.8373 146.664 24.0484 144.444 24.0484C142.224 24.0484 140.867 21.8373 140.867 19.7819C140.867 17.6642 142.224 15.484 144.444 15.484Z" fill="white"/>
<path d="M158.751 19.8439C158.751 18.0065 158.782 15.1099 161.341 15.1099C163.777 15.1099 163.684 17.4771 163.684 19.3144V27.4113H168V18.0693C168 14.5185 166.83 11.6227 162.759 11.6227C161.217 11.6227 159.706 12.1521 158.812 13.5224H158.751V12.1207H154.434V27.4113H158.751V19.8439Z" fill="white"/>
</svg>
