<svg width="44" height="44" viewBox="0 0 44 44" fill="none" xmlns="http://www.w3.org/2000/svg">
<path d="M14.0378 29.5606C13.4079 30.1901 12.6712 30.9034 12.3258 31.1158C11.543 31.5611 10.635 31.8159 9.66667 31.8159C6.72115 31.8159 4.33333 29.4583 4.33333 26.5501C4.33333 25.3295 4.75399 24.2058 5.45997 23.3128C5.91214 22.7408 5.87672 21.8142 5.33974 21.321C3.90037 19.999 3 18.1126 3 16.0185C3 12.0197 6.28325 8.77801 10.3333 8.77801C10.6829 8.77801 11.0268 8.80217 11.3634 8.84888C11.7889 8.90793 12.2197 8.73424 12.4699 8.38511C14.5828 5.4369 18.0637 3.51221 22 3.51221C26.1908 3.51221 29.8655 5.6939 31.9227 8.9697C32.165 9.35562 32.6204 9.55548 33.0723 9.4964C33.3758 9.45672 33.6855 9.43624 34 9.43624C37.866 9.43624 41 12.5306 41 16.3476C41 17.9751 40.4303 19.4712 39.4769 20.6521C39.1528 21.0536 39.1121 21.6275 39.3757 22.0711C39.9844 23.0958 40.3333 24.289 40.3333 25.5628C40.3333 29.3798 37.1993 32.4741 33.3333 32.4741C32.8774 32.4741 32.4316 32.4311 32 32.3489" stroke="#101010" stroke-width="2" stroke-linecap="round" stroke-linejoin="round"/>
<path d="M31.8571 32.2775C31.786 32.3581 31.7139 32.4378 31.6407 32.5165M31.6407 32.5165C29.4125 34.9113 27.3518 35.9962 23.7478 35.9962C18.8635 35.9962 15.474 33.3839 14.1795 29.5399C13.7461 28.497 12.8066 25.4285 12.8066 21.4972C12.8066 19.5347 23.4107 23.7165 30.358 17.0334C30.6995 16.7049 31.0535 16.3644 31.3708 16.0591C31.8943 15.5556 32.722 15.5556 33.2454 16.0591V16.0591C33.7983 16.591 33.7983 17.4759 33.2454 18.0078L31.6402 19.5519C31.4694 19.7163 31.4606 19.985 31.6091 20.1699C33.2967 22.2706 35.3233 27.1884 31.6407 32.5165Z" stroke="#101010" stroke-width="2" stroke-linecap="round" stroke-linejoin="round"/>
<path d="M21.6548 30.5134C23.0444 31.6522 26.1123 32.1402 27.5891 29.7665" stroke="#101010" stroke-width="2" stroke-linecap="round"/>
<circle cx="21.2167" cy="26.0194" r="1.05556" fill="#101010"/>
<circle cx="26.7333" cy="24.7936" r="1.05556" fill="#101010"/>
<path d="M12.5 41.2058C12.8065 40.2865 14.0323 38.1413 16.4839 36.9155M31.8065 35.6897C33.4409 35.7918 36.9548 36.9768 37.9355 40.8994" stroke="#101010" stroke-width="2" stroke-linecap="round" stroke-linejoin="round"/>
</svg>
