<svg width="44" height="44" viewBox="0 0 44 44" fill="none" xmlns="http://www.w3.org/2000/svg">
<path d="M20.3007 6H6V20.3007L23.6993 38L38 23.6993L20.3007 6Z" stroke="#101010" stroke-width="2"/>
<circle cx="12.4001" cy="12.4001" r="2.66667" stroke="#101010" stroke-width="2" stroke-linecap="round"/>
<path d="M20.4638 27.4132C20.5929 27.849 20.9996 28.1429 21.4539 28.1287C22.2343 28.1043 22.9404 27.8157 23.4674 27.5795L23.0583 26.667L23.4674 27.5795C23.7766 27.4409 24.0751 27.2781 24.358 27.0875L24.778 27.5074C25.1685 27.8979 25.8017 27.8979 26.1922 27.5074L27.0189 26.6807C27.4094 26.2902 27.4094 25.657 27.0189 25.2665L26.4286 24.6762C26.7073 24.0579 26.871 23.4047 26.842 22.7283C26.8005 21.762 26.372 20.8861 25.6055 20.1196C24.7751 19.2891 23.8471 19.0103 22.9028 19.1062C22.6891 19.1279 22.4778 19.1688 22.2707 19.223C22.3029 19.0583 22.2936 18.8861 22.2406 18.7226L21.6094 16.7759C21.4514 16.2884 20.9505 15.9993 20.4494 16.1063C19.7802 16.2492 19.1675 16.5324 18.6281 16.8756L18.1562 16.4038C17.7657 16.0133 17.1326 16.0133 16.742 16.4038L15.9153 17.2305C15.5248 17.6211 15.5248 18.2542 15.9153 18.6447L16.4151 19.1445C15.6633 20.6655 16.1294 22.4857 17.2665 23.6228C17.9822 24.3385 18.7747 24.6505 19.5821 24.659C19.6889 24.6601 19.7942 24.6559 19.8976 24.6471C19.8 24.8636 19.7818 25.1101 19.8505 25.3419L20.4638 27.4132Z" stroke="#101010" stroke-width="2" stroke-linecap="round" stroke-linejoin="round"/>
</svg>
