<svg width="307" height="415" viewBox="0 0 307 415" fill="none" xmlns="http://www.w3.org/2000/svg">
<path opacity="0.1" d="M15 384.5C6.71573 384.5 0 391.216 0 399.5C0 407.784 6.71573 414.5 15 414.5V384.5ZM278.78 208.063L293.056 212.667L278.78 208.063ZM283.717 9.59768C280.457 1.9817 271.641 -1.54971 264.025 1.71005C256.409 4.96982 252.877 13.7863 256.137 21.4023L283.717 9.59768ZM277 123.606C277 151.482 272.615 178.31 264.504 203.459L293.056 212.667C302.114 184.58 307 154.647 307 123.606H277ZM264.504 203.459C230.638 308.473 131.74 384.5 15 384.5V414.5C145.072 414.5 255.289 329.774 293.056 212.667L264.504 203.459ZM256.137 21.4023C269.563 52.7705 277 87.3043 277 123.606H307C307 83.1702 298.71 44.6259 283.717 9.59768L256.137 21.4023Z" fill="#44C0BB"/>
</svg>
