<svg width="151" height="55" viewBox="0 0 151 55" fill="none" xmlns="http://www.w3.org/2000/svg">
<g clip-path="url(#clip0)">
<path d="M36.2877 5.14991C30.817 1.20317 23.6276 -0.228214 16.6791 1.89648L0.824219 6.74343V15.9911L36.2877 5.14991Z" fill="#2C6CBE"/>
<path d="M44.0617 15.2587C42.9253 12.2847 41.2067 9.67828 39.0789 7.53351L0.825195 19.2286V28.4778L44.0617 15.2587Z" fill="#2C6CBE"/>
<path d="M45.155 27.4101C45.7201 24.4408 45.6877 21.3202 44.9666 18.2181L0.825195 31.7151V40.9628L45.155 27.4101Z" fill="#2C6CBE"/>
<path d="M29.7376 44.6084C36.6861 42.4837 41.8465 37.277 44.1735 30.9462L0.824219 44.1992V53.4484L29.7376 44.6084Z" fill="#2C6CBE"/>
<path d="M62.0242 20.0878C64.518 20.0878 65.9108 18.4989 65.9108 15.982C65.9108 13.4389 64.518 11.85 62.0242 11.85H60.4106V20.0878H62.0242ZM56.5488 8.47612H62.2188C66.9376 8.47612 69.7973 11.4099 69.7973 15.982C69.7973 20.5526 66.9376 23.4864 62.2188 23.4864H56.5488V8.47612Z" fill="#231F20"/>
<path d="M76.4908 15.3947C75.3158 15.3947 74.6564 16.471 74.6564 17.9858C74.6564 19.5005 75.3158 20.5521 76.4908 20.5521C77.6875 20.5521 78.3468 19.5005 78.3468 17.9858C78.3468 16.471 77.6875 15.3947 76.4908 15.3947ZM76.4908 23.7314C73.1648 23.7314 70.8672 21.3828 70.8672 17.9858C70.8672 14.5872 73.1648 12.2417 76.4908 12.2417C79.84 12.2417 82.1129 14.5872 82.1129 17.9858C82.1129 21.3828 79.84 23.7314 76.4908 23.7314Z" fill="#231F20"/>
<path d="M96.7058 12.2412C99.0035 12.2412 100.421 13.8054 100.421 16.276V23.487H96.5838V17.204C96.5838 16.276 96.1932 15.6151 95.3362 15.6151C94.6769 15.6151 94.1133 16.0305 93.9187 16.7886V23.487H90.1048V17.204C90.1048 16.276 89.7141 15.6151 88.8587 15.6151C88.1993 15.6151 87.6126 16.0305 87.4396 16.7886V23.487H83.6025V12.4867H87.4396V13.3901C88.0032 12.706 89.0563 12.2412 90.2762 12.2412C91.669 12.2412 92.6495 12.7786 93.3073 13.5614C93.9697 12.8774 95.0907 12.2412 96.7058 12.2412Z" fill="#231F20"/>
<path d="M106.342 23.4864H102.505V12.4862H106.342V23.4864Z" fill="#231F20"/>
<path d="M108.419 12.486H112.258V13.4388C112.868 12.7547 113.944 12.2405 115.215 12.2405C117.66 12.2405 119.103 13.8294 119.103 16.2753V23.4863H115.287V17.2033C115.287 16.2984 114.824 15.6391 113.845 15.6391C113.087 15.6391 112.454 16.0792 112.258 16.8373V23.4863H108.419V12.486Z" fill="#231F20"/>
<path d="M125.011 23.4864H121.174V12.4862H125.011V23.4864Z" fill="#231F20"/>
<path d="M132.126 15.3947C130.952 15.3947 130.293 16.471 130.293 17.9858C130.293 19.5005 130.952 20.5521 132.126 20.5521C133.324 20.5521 133.983 19.5005 133.983 17.9858C133.983 16.471 133.324 15.3947 132.126 15.3947ZM132.126 23.7314C128.801 23.7314 126.502 21.3828 126.502 17.9858C126.502 14.5872 128.801 12.2417 132.126 12.2417C135.475 12.2417 137.748 14.5872 137.748 17.9858C137.748 21.3828 135.475 23.7314 132.126 23.7314Z" fill="#231F20"/>
<path d="M139.239 12.486H143.079V13.4388C143.688 12.7547 144.763 12.2405 146.035 12.2405C148.479 12.2405 149.921 13.8294 149.921 16.2753V23.4863H146.107V17.2033C146.107 16.2984 145.643 15.6391 144.667 15.6391C143.907 15.6391 143.272 16.0792 143.079 16.8373V23.4863H139.239V12.486Z" fill="#231F20"/>
<path d="M125.011 11.2123H121.174V8.47623H125.011V11.2123Z" fill="#231F20"/>
<path d="M106.342 11.2123H102.505V8.47623H106.342V11.2123Z" fill="#231F20"/>
<path d="M69.2559 30.4609H73.0945V31.4136C73.706 30.7295 74.7791 30.2153 76.0515 30.2153C78.4973 30.2153 79.938 31.8042 79.938 34.2501V41.4595H76.1256V35.1781C76.1256 34.2733 75.6608 33.6139 74.6834 33.6139C73.9252 33.6139 73.2906 34.054 73.0945 34.8106V41.4595H69.2559V30.4609Z" fill="#231F20"/>
<path d="M101.456 33.8304C100.93 33.605 100.528 33.5046 99.9352 33.5046C99.015 33.5046 98.0576 34.0172 97.9109 35.007V41.4598H94.0723V30.4612H97.9109V31.4386C98.4483 30.7051 99.3037 30.2156 100.405 30.2156C100.893 30.2156 101.283 30.3145 101.456 30.4118V33.8304Z" fill="#231F20"/>
<path d="M117.125 45.6812L118.848 41.1631L114.742 30.4316H118.728L120.829 36.6898L122.883 30.4316H126.697L120.912 45.6812H117.125Z" fill="#231F20"/>
<path d="M108.043 38.1317C106.529 38.1317 105.876 36.9828 105.876 35.5885C105.876 34.1942 106.478 33.0979 107.905 33.0979C108.639 33.0979 109.439 33.6584 109.732 34.1479V37.057C109.439 37.5464 108.798 38.1317 108.043 38.1317ZM113.521 30.4312H109.732V31.2619C109.242 30.6752 108.338 30.1857 107.141 30.1857C104.036 30.1857 102.275 32.5574 102.275 35.5885C102.275 38.6196 104.036 41.016 107.141 41.016C108.22 41.016 109.062 40.5991 109.573 40.1035C109.573 40.1035 109.647 40.0294 109.672 40.0016L109.675 40.8369C109.616 42.2977 108.373 42.9693 106.94 42.9693C105.425 42.9693 104.227 42.5771 103.105 41.6244V44.9566C104.161 45.6808 105.524 45.8846 107.065 45.8846C110.584 45.8846 113.509 44.1321 113.509 40.0741L113.521 30.4312Z" fill="#231F20"/>
<path d="M60.4102 35.4728H66.2408V32.173H60.4102V29.8244H67.2784V26.4506H56.5469V41.4608H67.2784V38.0622H60.4102V35.4728Z" fill="#231F20"/>
<path d="M85.1304 34.7889C85.2694 33.5027 86.202 32.919 87.0343 32.919C87.865 32.919 88.8579 33.4934 89.0154 34.7889H85.1304ZM87.0127 30.1519C83.7345 30.1519 81.4199 32.7167 81.4199 35.9516C81.4199 39.957 83.8102 41.7667 87.479 41.7667C89.1142 41.7667 90.4313 41.427 91.4474 40.9422V38.2261C90.1874 38.9024 89.0262 39.08 88.1383 39.08C86.4012 39.08 85.2292 38.2863 85.1567 36.8873H92.5869C92.6054 36.6218 92.6054 36.4643 92.6054 36.2172C92.6054 32.9607 90.8452 30.1519 87.0127 30.1519Z" fill="#231F20"/>
<path d="M130.401 29.3033C129.177 29.3033 128.186 30.2977 128.186 31.5221C128.186 32.7466 129.177 33.7395 130.401 33.7395C131.629 33.7395 132.623 32.7466 132.623 31.5221C132.623 30.2977 131.629 29.3033 130.401 29.3033ZM130.404 33.4662C129.33 33.4662 128.459 32.5953 128.459 31.5221C128.459 30.449 129.33 29.5766 130.404 29.5766C131.479 29.5766 132.35 30.449 132.35 31.5221C132.35 32.5953 131.479 33.4662 130.404 33.4662Z" fill="#231F20"/>
<path d="M131.333 31.0039C131.333 30.6441 131.14 30.4325 130.566 30.4325H129.619V32.5958H129.865V31.5952H130.371L130.99 32.5958H131.308L130.652 31.5952C131.037 31.586 131.333 31.4285 131.333 31.0039ZM130.289 31.3497H129.865V30.675H130.502C130.771 30.675 131.088 30.7151 131.088 30.9961C131.088 31.4007 130.595 31.3497 130.289 31.3497Z" fill="#231F20"/>
</g>
<defs>
<clipPath id="clip0">
<rect width="150.255" height="53.6919" fill="white" transform="translate(0.245117 0.33548)"/>
</clipPath>
</defs>
</svg>
