<svg width="35" height="36" viewBox="0 0 35 36" fill="none" xmlns="http://www.w3.org/2000/svg">
<path d="M4.52093 30.6799C4.52088 30.6799 4.52076 30.6799 4.52074 30.6798L1.2482 8.24315C1.07565 7.06014 1.77414 5.92309 2.90739 5.54223V5.54223C3.03071 5.50079 3.1571 5.46914 3.2854 5.44758L9.83383 4.34725C11.0215 4.14768 12.2419 4.3324 13.3173 4.87451V4.87451C14.107 5.2726 14.9791 5.47997 15.8635 5.47997H17.0572C18.2135 5.47997 19.3621 5.29213 20.4582 4.9238L22.1657 4.34999C22.7772 4.14447 23.3557 3.85109 23.8828 3.47908L26.7533 1.45323C28.5801 0.164001 31.1263 0.808521 32.1197 2.8116V2.8116C32.2868 3.14853 32.4008 3.50928 32.4575 3.88106L33.5807 11.2416C33.7265 12.1971 33.7563 13.1668 33.6695 14.1295L33.2056 19.2746C33.1266 20.1506 32.8856 21.0043 32.4948 21.7922L32.4202 21.9425C31.9205 22.9501 31.1668 23.8099 30.2334 24.4373L28.3904 25.6761C27.7544 26.1036 27.373 26.8195 27.373 27.5858V27.9579C27.373 28.7239 26.8839 29.4043 26.1578 29.6483V29.6483C25.5802 29.8424 25.1417 30.318 24.9951 30.9094L24.5164 32.8399L24.371 33.2797C24.0315 34.3066 23.0719 35 21.9904 35H21.8354C21.266 35 20.7203 34.7726 20.3193 34.3684L19.814 33.8589C19.2572 33.2975 18.3495 33.2975 17.7927 33.8589V33.8589C17.5254 34.1284 17.1615 34.28 16.782 34.28H13.5975C13.273 34.28 12.9619 34.1504 12.7334 33.9199V33.9199C12.5048 33.6895 12.1938 33.5599 11.8692 33.5599H10.9806C10.0685 33.5599 9.21726 33.1023 8.7142 32.3415V32.3415C8.31562 31.7387 7.69332 31.3195 6.98492 31.1767L4.52103 30.6798C4.52099 30.6798 4.52094 30.6798 4.52093 30.6799V30.6799Z" fill="url(#paint0_linear)" fill-opacity="0.13" stroke="#101010" stroke-width="1.5" stroke-linejoin="round"/>
<defs>
<linearGradient id="paint0_linear" x1="17.3752" y1="-1" x2="17.3752" y2="35" gradientUnits="userSpaceOnUse">
<stop stop-color="#A3DCBE"/>
<stop offset="1" stop-color="#44C0BB"/>
</linearGradient>
</defs>
</svg>
