<svg width="47" height="33" viewBox="0 0 47 33" fill="none" xmlns="http://www.w3.org/2000/svg">
<path d="M5.75358 5.28591L2.68019 8.37388C0.953057 10.1092 0.524756 12.7526 1.61558 14.9445V14.9445C1.88792 15.4918 2.0706 16.0792 2.15665 16.6844L3.51754 26.2557V26.2557C4.37525 29.7027 7.61941 32.0086 11.1568 31.6854L12.5022 31.5625C12.9715 31.5197 13.4365 31.4391 13.8928 31.3215L40.1786 24.5493C41.5366 24.1995 42.7343 23.3961 43.5731 22.2723L44.9041 20.4892C45.964 19.0692 45.8232 17.087 44.5733 15.8312V15.8312C44.0493 15.3047 43.7024 14.628 43.5809 13.8953L43.1614 11.3666C43.0701 10.816 43.1142 10.2515 43.2899 9.72177L43.7458 8.34757C44.1536 7.11856 43.3937 5.80989 42.1242 5.55477V5.55477C41.3072 5.39059 40.658 4.7703 40.4567 3.96164L40.4035 3.74796C40.1802 2.85063 39.4805 2.14942 38.5837 1.92413L37.5689 1.6692C37.2304 1.58419 36.8828 1.5412 36.5339 1.5412H34.9975C33.4064 1.5412 31.8312 1.85762 30.3635 2.47205L25.3447 4.57314C24.2212 5.0435 23.0153 5.28573 21.7973 5.28573V5.28573C21.0427 5.28573 20.291 5.37869 19.5592 5.56253L7.00974 8.71493C6.37205 8.87512 5.75376 8.39293 5.75376 7.73543V5.28598C5.75376 5.28589 5.75364 5.28584 5.75358 5.28591V5.28591Z" fill="url(#paint0_linear)" fill-opacity="0.13" stroke="#101010" stroke-width="1.5" stroke-linejoin="round"/>
<defs>
<linearGradient id="paint0_linear" x1="23.2699" y1="1.5412" x2="23.2699" y2="32.2471" gradientUnits="userSpaceOnUse">
<stop stop-color="#A3DCBE"/>
<stop offset="1" stop-color="#44C0BB"/>
</linearGradient>
</defs>
</svg>
