<svg width="452" height="212" viewBox="0 0 452 212" fill="none" xmlns="http://www.w3.org/2000/svg">
<g filter="url(#filter0_d)">
<g clip-path="url(#clip0)">
<rect x="32" y="20" width="388" height="205" rx="12" fill="white"/>
<rect x="32" y="20" width="388" height="205" rx="12" fill="white"/>
<rect x="19" y="6" width="430" height="51" fill="#008174" fill-opacity="0.03"/>
<rect x="19.5" y="6.5" width="429" height="50" stroke="#008174" stroke-opacity="0.06"/>
<rect x="93" y="27" width="320" height="24" rx="5" fill="white"/>
<rect x="92.5" y="26.5" width="321" height="25" rx="5.5" stroke="#008174" stroke-opacity="0.06"/>
<path d="M105 34C102.243 34 100 36.243 100 39C100 41.757 102.243 44 105 44C107.757 44 110 41.757 110 39C110 36.243 107.757 34 105 34ZM108.965 38.5H107.583C107.525 37.4175 107.219 36.35 106.688 35.3785C107.906 35.949 108.791 37.114 108.965 38.5ZM105.265 35.0135C105.782 35.6955 106.478 36.9035 106.578 38.5H103.515C103.584 37.202 104.012 35.986 104.74 35.013C104.826 35.008 104.912 35 105 35C105.089 35 105.177 35.008 105.265 35.0135ZM103.344 35.3635C102.852 36.309 102.568 37.381 102.515 38.5H101.034C101.21 37.102 102.109 35.9285 103.344 35.3635ZM101.034 39.5H102.522C102.59 40.6895 102.854 41.739 103.299 42.615C102.087 42.042 101.208 40.881 101.034 39.5ZM104.725 42.9865C104.024 42.1375 103.611 40.948 103.521 39.5H106.577C106.473 40.8865 106.018 42.098 105.275 42.986C105.184 42.992 105.094 43 105 43C104.907 43 104.816 42.992 104.725 42.9865ZM106.731 42.6005C107.208 41.7035 107.5 40.65 107.576 39.5H108.965C108.793 40.8695 107.927 42.0235 106.731 42.6005Z" fill="url(#paint0_linear)"/>
<rect x="40" y="29" width="20" height="20" rx="10" fill="white"/>
<rect x="39.5" y="28.5" width="21" height="21" rx="10.5" stroke="#008174" stroke-opacity="0.06"/>
<path d="M47.2727 39.0001L46.9192 38.6465C46.7239 38.8418 46.7239 39.1584 46.9192 39.3536L47.2727 39.0001ZM51.7172 35.2627C51.9124 35.0675 51.9124 34.7509 51.7172 34.5556C51.5219 34.3604 51.2053 34.3604 51.0101 34.5556L51.7172 35.2627ZM51.0101 43.4446C51.2053 43.6398 51.5219 43.6398 51.7172 43.4446C51.9124 43.2493 51.9124 42.9327 51.7172 42.7374L51.0101 43.4446ZM47.6263 39.3536L51.7172 35.2627L51.0101 34.5556L46.9192 38.6465L47.6263 39.3536ZM46.9192 39.3536L51.0101 43.4446L51.7172 42.7374L47.6263 38.6465L46.9192 39.3536Z" fill="url(#paint1_linear)"/>
<rect width="20" height="20" rx="10" transform="matrix(-1 0 0 1 85 29)" fill="white"/>
<rect x="0.5" y="-0.5" width="21" height="21" rx="10.5" transform="matrix(-1 0 0 1 86 29)" stroke="#008174" stroke-opacity="0.06"/>
<path d="M77.7273 39.0001L78.0808 38.6465C78.2761 38.8418 78.2761 39.1584 78.0808 39.3536L77.7273 39.0001ZM73.2828 35.2627C73.0876 35.0675 73.0876 34.7509 73.2828 34.5556C73.4781 34.3604 73.7947 34.3604 73.9899 34.5556L73.2828 35.2627ZM73.9899 43.4446C73.7947 43.6398 73.4781 43.6398 73.2828 43.4446C73.0876 43.2493 73.0876 42.9327 73.2828 42.7374L73.9899 43.4446ZM77.3737 39.3536L73.2828 35.2627L73.9899 34.5556L78.0808 38.6465L77.3737 39.3536ZM78.0808 39.3536L73.9899 43.4446L73.2828 42.7374L77.3737 38.6465L78.0808 39.3536Z" fill="url(#paint2_linear)"/>
<g filter="url(#filter1_d)">
<mask id="path-14-outside-1" maskUnits="userSpaceOnUse" x="80" y="60.3076" width="164" height="88" fill="black">
<rect fill="white" x="80" y="60.3076" width="164" height="88"/>
<path fill-rule="evenodd" clip-rule="evenodd" d="M111.192 69L104.5 62.3076L97.8076 69H87C83.6863 69 81 71.6863 81 75V141C81 144.314 83.6863 147 87 147H237C240.314 147 243 144.314 243 141V75C243 71.6863 240.314 69 237 69H111.192Z"/>
</mask>
<path fill-rule="evenodd" clip-rule="evenodd" d="M111.192 69L104.5 62.3076L97.8076 69H87C83.6863 69 81 71.6863 81 75V141C81 144.314 83.6863 147 87 147H237C240.314 147 243 144.314 243 141V75C243 71.6863 240.314 69 237 69H111.192Z" fill="white"/>
<path d="M104.5 62.3076L105.207 61.6005L104.5 60.8934L103.793 61.6005L104.5 62.3076ZM111.192 69L110.485 69.7071L110.778 70H111.192V69ZM97.8076 69V70H98.2218L98.5147 69.7071L97.8076 69ZM103.793 63.0147L110.485 69.7071L111.899 68.2929L105.207 61.6005L103.793 63.0147ZM98.5147 69.7071L105.207 63.0147L103.793 61.6005L97.1005 68.2929L98.5147 69.7071ZM87 70H97.8076V68H87V70ZM82 75C82 72.2386 84.2386 70 87 70V68C83.134 68 80 71.134 80 75H82ZM82 141V75H80V141H82ZM87 146C84.2386 146 82 143.761 82 141H80C80 144.866 83.134 148 87 148V146ZM237 146H87V148H237V146ZM242 141C242 143.761 239.761 146 237 146V148C240.866 148 244 144.866 244 141H242ZM242 75V141H244V75H242ZM237 70C239.761 70 242 72.2386 242 75H244C244 71.134 240.866 68 237 68V70ZM111.192 70H237V68H111.192V70Z" fill="#008174" fill-opacity="0.1" mask="url(#path-14-outside-1)"/>
</g>
<path d="M99.632 84.599H98.092V85.116H98.07C97.762 84.698 97.212 84.423 96.673 84.423C95.067 84.423 94.165 85.853 94.165 87.338C94.165 88.79 95.012 90.176 96.596 90.176C97.168 90.176 97.74 89.901 98.07 89.461H98.092V89.813C98.092 90.627 98.07 91.584 96.981 91.584C96.398 91.584 95.991 91.21 95.914 90.638H94.286C94.363 92.079 95.694 92.882 97.014 92.882C99.038 92.882 99.632 91.43 99.632 89.67V84.599ZM97.003 88.812C96.211 88.812 95.727 88.031 95.727 87.305C95.727 86.579 96.211 85.787 97.003 85.787C97.795 85.787 98.279 86.579 98.279 87.305C98.279 88.031 97.795 88.812 97.003 88.812ZM105.523 87.547V87.36C105.523 85.732 104.731 84.423 102.96 84.423C101.211 84.423 100.342 85.71 100.342 87.349C100.342 88.988 101.365 90.176 103.037 90.176C104.17 90.176 105.116 89.571 105.49 88.493L104.071 88.262C103.862 88.691 103.543 88.999 103.037 88.999C102.234 88.999 101.97 88.229 101.97 87.547H105.523ZM102.014 86.59C102.091 86.029 102.432 85.501 103.048 85.501C103.642 85.501 103.994 86.04 104.071 86.59H102.014ZM107.965 85.897H108.911V84.599H107.965V82.773H106.425V84.599H105.897V85.897H106.425V90H107.965V85.897ZM110.796 84.599H109.256V92.882H110.796V89.494H110.818C111.126 89.934 111.709 90.176 112.259 90.176C113.854 90.176 114.756 88.746 114.756 87.272C114.756 85.853 113.821 84.423 112.292 84.423C111.72 84.423 111.148 84.676 110.796 85.094V84.599ZM111.918 88.812C111.126 88.812 110.642 88.02 110.642 87.294C110.642 86.568 111.126 85.787 111.918 85.787C112.71 85.787 113.194 86.568 113.194 87.294C113.194 88.02 112.71 88.812 111.918 88.812ZM117.016 84.599H115.476V90H117.016V87.569C117.016 86.733 117.126 85.787 118.193 85.787C118.424 85.787 118.644 85.853 118.831 85.985L119.018 84.555C118.82 84.478 118.6 84.423 118.38 84.423C117.808 84.423 117.346 84.687 117.038 85.16H117.016V84.599ZM121.914 84.423C120.231 84.423 119.076 85.622 119.076 87.305C119.076 88.977 120.22 90.176 121.914 90.176C123.608 90.176 124.752 88.977 124.752 87.305C124.752 85.622 123.597 84.423 121.914 84.423ZM121.914 85.787C122.706 85.787 123.19 86.557 123.19 87.305C123.19 88.031 122.706 88.812 121.914 88.812C121.122 88.812 120.638 88.031 120.638 87.305C120.638 86.557 121.122 85.787 121.914 85.787ZM126.423 84.599H124.729L127.204 90.11H127.996L130.482 84.599H128.799L127.688 87.646L126.423 84.599ZM132.465 84.599H130.925V90H132.465V84.599ZM131.695 81.42C131.189 81.42 130.782 81.838 130.782 82.333C130.782 82.839 131.189 83.246 131.695 83.246C132.201 83.246 132.608 82.839 132.608 82.333C132.608 81.838 132.201 81.42 131.695 81.42ZM137.062 84.984C136.622 84.599 135.896 84.423 135.324 84.423C134.312 84.423 133.608 85.16 133.608 86.172C133.608 87.041 134.147 87.36 134.686 87.591C135.225 87.822 135.764 87.932 135.764 88.405C135.764 88.757 135.489 88.988 135.148 88.988C134.697 88.988 134.301 88.691 134.004 88.361L133.3 89.274C133.773 89.846 134.477 90.176 135.203 90.176C136.336 90.176 137.304 89.461 137.304 88.262C137.304 87.327 136.754 86.953 136.193 86.711C135.643 86.469 135.082 86.359 135.082 85.963C135.082 85.699 135.335 85.501 135.588 85.501C135.896 85.501 136.182 85.666 136.402 85.875L137.062 84.984ZM139.759 84.599H138.219V90H139.759V84.599ZM138.989 81.42C138.483 81.42 138.076 81.838 138.076 82.333C138.076 82.839 138.483 83.246 138.989 83.246C139.495 83.246 139.902 82.839 139.902 82.333C139.902 81.838 139.495 81.42 138.989 81.42ZM143.388 84.423C141.705 84.423 140.55 85.622 140.55 87.305C140.55 88.977 141.694 90.176 143.388 90.176C145.082 90.176 146.226 88.977 146.226 87.305C146.226 85.622 145.071 84.423 143.388 84.423ZM143.388 85.787C144.18 85.787 144.664 86.557 144.664 87.305C144.664 88.031 144.18 88.812 143.388 88.812C142.596 88.812 142.112 88.031 142.112 87.305C142.112 86.557 142.596 85.787 143.388 85.787ZM148.49 84.599H146.95V90H148.49V87.327C148.49 86.678 148.501 85.655 149.414 85.655C150.283 85.655 150.25 86.491 150.25 87.14V90H151.79V86.7C151.79 85.446 151.372 84.423 149.92 84.423C149.37 84.423 148.831 84.61 148.512 85.094H148.49V84.599ZM153.936 88.262C153.397 88.262 152.957 88.691 152.957 89.23C152.957 89.769 153.397 90.22 153.936 90.22C154.475 90.22 154.915 89.769 154.915 89.23C154.915 88.691 154.475 88.262 153.936 88.262ZM159.745 84.764C159.371 84.533 158.92 84.423 158.491 84.423C156.863 84.423 155.686 85.71 155.686 87.316C155.686 88.867 156.819 90.176 158.414 90.176C158.887 90.176 159.327 90.077 159.745 89.846V88.361C159.47 88.669 159.085 88.878 158.667 88.878C157.787 88.878 157.248 88.174 157.248 87.327C157.248 86.535 157.743 85.721 158.612 85.721C159.085 85.721 159.415 85.919 159.745 86.249V84.764ZM163.035 84.423C161.352 84.423 160.197 85.622 160.197 87.305C160.197 88.977 161.341 90.176 163.035 90.176C164.729 90.176 165.873 88.977 165.873 87.305C165.873 85.622 164.718 84.423 163.035 84.423ZM163.035 85.787C163.827 85.787 164.311 86.557 164.311 87.305C164.311 88.031 163.827 88.812 163.035 88.812C162.243 88.812 161.759 88.031 161.759 87.305C161.759 86.557 162.243 85.787 163.035 85.787ZM168.138 84.599H166.598V90H168.138V87.349C168.138 86.777 168.094 85.655 168.952 85.655C169.755 85.655 169.689 86.733 169.689 87.261V90H171.229V87.349C171.229 86.788 171.218 85.655 172.054 85.655C172.813 85.655 172.78 86.634 172.78 87.162V90H174.32V86.634C174.32 85.457 173.979 84.423 172.604 84.423C171.977 84.423 171.361 84.742 171.031 85.27C170.679 84.698 170.151 84.423 169.48 84.423C168.985 84.423 168.457 84.654 168.16 85.083H168.138V84.599ZM179.532 84.599H177.849L180.335 90.11H181.127L182.414 86.821L183.569 90.11H184.35L186.858 84.599H185.186L184.042 87.756L182.711 84.423H181.974L180.654 87.712L179.532 84.599ZM192.316 84.599H190.798V85.105C190.424 84.665 189.852 84.423 189.291 84.423C187.74 84.423 186.827 85.842 186.827 87.272C186.827 88.735 187.729 90.176 189.313 90.176C189.874 90.176 190.446 89.934 190.776 89.505H190.798V90H192.316V84.599ZM189.665 88.812C188.873 88.812 188.389 88.02 188.389 87.294C188.389 86.568 188.873 85.787 189.665 85.787C190.457 85.787 190.952 86.568 190.952 87.294C190.952 88.02 190.457 88.812 189.665 88.812ZM194.972 84.599H193.432V90H194.972V87.327C194.972 86.678 194.983 85.655 195.896 85.655C196.765 85.655 196.732 86.491 196.732 87.14V90H198.272V86.7C198.272 85.446 197.854 84.423 196.402 84.423C195.852 84.423 195.313 84.61 194.994 85.094H194.972V84.599ZM201.099 85.897H202.045V84.599H201.099V82.773H199.559V84.599H199.031V85.897H199.559V90H201.099V85.897ZM205.823 84.984C205.383 84.599 204.657 84.423 204.085 84.423C203.073 84.423 202.369 85.16 202.369 86.172C202.369 87.041 202.908 87.36 203.447 87.591C203.986 87.822 204.525 87.932 204.525 88.405C204.525 88.757 204.25 88.988 203.909 88.988C203.458 88.988 203.062 88.691 202.765 88.361L202.061 89.274C202.534 89.846 203.238 90.176 203.964 90.176C205.097 90.176 206.065 89.461 206.065 88.262C206.065 87.327 205.515 86.953 204.954 86.711C204.404 86.469 203.843 86.359 203.843 85.963C203.843 85.699 204.096 85.501 204.349 85.501C204.657 85.501 204.943 85.666 205.163 85.875L205.823 84.984ZM211.809 85.897H212.755V84.599H211.809V82.773H210.269V84.599H209.741V85.897H210.269V90H211.809V85.897ZM215.565 84.423C213.882 84.423 212.727 85.622 212.727 87.305C212.727 88.977 213.871 90.176 215.565 90.176C217.259 90.176 218.403 88.977 218.403 87.305C218.403 85.622 217.248 84.423 215.565 84.423ZM215.565 85.787C216.357 85.787 216.841 86.557 216.841 87.305C216.841 88.031 216.357 88.812 215.565 88.812C214.773 88.812 214.289 88.031 214.289 87.305C214.289 86.557 214.773 85.787 215.565 85.787Z" fill="#008174"/>
<rect x="192" y="115" width="39" height="20" rx="10" fill="#008174"/>
<path d="M204.23 126.569L204.752 128H206.165L203.591 121.034H202.565L199.919 128H201.314L201.872 126.569H204.23ZM203.861 125.489H202.25L202.997 123.023H203.015L203.861 125.489ZM207.792 120.368H206.532V128H207.792V120.368ZM209.954 120.368H208.694V128H209.954V120.368ZM212.863 123.437C211.486 123.437 210.541 124.418 210.541 125.795C210.541 127.163 211.477 128.144 212.863 128.144C214.249 128.144 215.185 127.163 215.185 125.795C215.185 124.418 214.24 123.437 212.863 123.437ZM212.863 124.553C213.511 124.553 213.907 125.183 213.907 125.795C213.907 126.389 213.511 127.028 212.863 127.028C212.215 127.028 211.819 126.389 211.819 125.795C211.819 125.183 212.215 124.553 212.863 124.553ZM216.543 123.581H215.166L217.2 128.09H217.848L218.901 125.399L219.846 128.09H220.485L222.537 123.581H221.169L220.233 126.164L219.144 123.437H218.541L217.461 126.128L216.543 123.581Z" fill="white"/>
<path d="M96.09 97.672H94.55V107H96.09V104.701H96.112L97.883 107H99.907L97.454 103.975L99.731 101.599H97.729L96.112 103.579H96.09V97.672ZM101.88 101.599H100.34V107H101.88V104.327C101.88 103.678 101.891 102.655 102.804 102.655C103.673 102.655 103.64 103.491 103.64 104.14V107H105.18V103.7C105.18 102.446 104.762 101.423 103.31 101.423C102.76 101.423 102.221 101.61 101.902 102.094H101.88V101.599ZM108.744 101.423C107.061 101.423 105.906 102.622 105.906 104.305C105.906 105.977 107.05 107.176 108.744 107.176C110.438 107.176 111.582 105.977 111.582 104.305C111.582 102.622 110.427 101.423 108.744 101.423ZM108.744 102.787C109.536 102.787 110.02 103.557 110.02 104.305C110.02 105.031 109.536 105.812 108.744 105.812C107.952 105.812 107.468 105.031 107.468 104.305C107.468 103.557 107.952 102.787 108.744 102.787ZM113.242 101.599H111.559L114.045 107.11H114.837L116.124 103.821L117.279 107.11H118.06L120.568 101.599H118.896L117.752 104.756L116.421 101.423H115.684L114.364 104.712L113.242 101.599ZM125.438 106.175L123.656 109.882H125.35L129.277 101.599H127.561L126.175 104.668L124.888 101.599H123.139L125.438 106.175ZM132.066 101.423C130.383 101.423 129.228 102.622 129.228 104.305C129.228 105.977 130.372 107.176 132.066 107.176C133.76 107.176 134.904 105.977 134.904 104.305C134.904 102.622 133.749 101.423 132.066 101.423ZM132.066 102.787C132.858 102.787 133.342 103.557 133.342 104.305C133.342 105.031 132.858 105.812 132.066 105.812C131.274 105.812 130.79 105.031 130.79 104.305C130.79 103.557 131.274 102.787 132.066 102.787ZM135.595 101.599V104.778C135.595 106.351 136.409 107.176 138.015 107.176C139.621 107.176 140.435 106.351 140.435 104.778V101.599H138.895V104.525C138.895 105.141 138.796 105.878 138.015 105.878C137.234 105.878 137.135 105.141 137.135 104.525V101.599H135.595ZM143.055 101.599H141.515V107H143.055V104.569C143.055 103.733 143.165 102.787 144.232 102.787C144.463 102.787 144.683 102.853 144.87 102.985L145.057 101.555C144.859 101.478 144.639 101.423 144.419 101.423C143.847 101.423 143.385 101.687 143.077 102.16H143.055V101.599ZM150.274 97.672H148.734V107H150.274V97.672ZM153.829 101.423C152.146 101.423 150.991 102.622 150.991 104.305C150.991 105.977 152.135 107.176 153.829 107.176C155.523 107.176 156.667 105.977 156.667 104.305C156.667 102.622 155.512 101.423 153.829 101.423ZM153.829 102.787C154.621 102.787 155.105 103.557 155.105 104.305C155.105 105.031 154.621 105.812 153.829 105.812C153.037 105.812 152.553 105.031 152.553 104.305C152.553 103.557 153.037 102.787 153.829 102.787ZM161.066 101.764C160.692 101.533 160.241 101.423 159.812 101.423C158.184 101.423 157.007 102.71 157.007 104.316C157.007 105.867 158.14 107.176 159.735 107.176C160.208 107.176 160.648 107.077 161.066 106.846V105.361C160.791 105.669 160.406 105.878 159.988 105.878C159.108 105.878 158.569 105.174 158.569 104.327C158.569 103.535 159.064 102.721 159.933 102.721C160.406 102.721 160.736 102.919 161.066 103.249V101.764ZM167.126 101.599H165.608V102.105C165.234 101.665 164.662 101.423 164.101 101.423C162.55 101.423 161.637 102.842 161.637 104.272C161.637 105.735 162.539 107.176 164.123 107.176C164.684 107.176 165.256 106.934 165.586 106.505H165.608V107H167.126V101.599ZM164.475 105.812C163.683 105.812 163.199 105.02 163.199 104.294C163.199 103.568 163.683 102.787 164.475 102.787C165.267 102.787 165.762 103.568 165.762 104.294C165.762 105.02 165.267 105.812 164.475 105.812ZM169.968 102.897H170.914V101.599H169.968V99.773H168.428V101.599H167.9V102.897H168.428V107H169.968V102.897ZM172.888 101.599H171.348V107H172.888V101.599ZM172.118 98.42C171.612 98.42 171.205 98.838 171.205 99.333C171.205 99.839 171.612 100.246 172.118 100.246C172.624 100.246 173.031 99.839 173.031 99.333C173.031 98.838 172.624 98.42 172.118 98.42ZM176.517 101.423C174.834 101.423 173.679 102.622 173.679 104.305C173.679 105.977 174.823 107.176 176.517 107.176C178.211 107.176 179.355 105.977 179.355 104.305C179.355 102.622 178.2 101.423 176.517 101.423ZM176.517 102.787C177.309 102.787 177.793 103.557 177.793 104.305C177.793 105.031 177.309 105.812 176.517 105.812C175.725 105.812 175.241 105.031 175.241 104.305C175.241 103.557 175.725 102.787 176.517 102.787ZM181.619 101.599H180.079V107H181.619V104.327C181.619 103.678 181.63 102.655 182.543 102.655C183.412 102.655 183.379 103.491 183.379 104.14V107H184.919V103.7C184.919 102.446 184.501 101.423 183.049 101.423C182.499 101.423 181.96 101.61 181.641 102.094H181.619V101.599Z" fill="#101010" fill-opacity="0.7"/>
</g>
</g>
<defs>
<filter id="filter0_d" x="0" y="0" width="452" height="269" filterUnits="userSpaceOnUse" color-interpolation-filters="sRGB">
<feFlood flood-opacity="0" result="BackgroundImageFix"/>
<feColorMatrix in="SourceAlpha" type="matrix" values="0 0 0 0 0 0 0 0 0 0 0 0 0 0 0 0 0 0 127 0"/>
<feOffset dy="12"/>
<feGaussianBlur stdDeviation="16"/>
<feColorMatrix type="matrix" values="0 0 0 0 0 0 0 0 0 0.505882 0 0 0 0 0.454902 0 0 0 0.15 0"/>
<feBlend mode="normal" in2="BackgroundImageFix" result="effect1_dropShadow"/>
<feBlend mode="normal" in="SourceGraphic" in2="effect1_dropShadow" result="shape"/>
</filter>
<filter id="filter1_d" x="71" y="54.8936" width="182" height="105.107" filterUnits="userSpaceOnUse" color-interpolation-filters="sRGB">
<feFlood flood-opacity="0" result="BackgroundImageFix"/>
<feColorMatrix in="SourceAlpha" type="matrix" values="0 0 0 0 0 0 0 0 0 0 0 0 0 0 0 0 0 0 127 0"/>
<feOffset dy="3"/>
<feGaussianBlur stdDeviation="4.5"/>
<feColorMatrix type="matrix" values="0 0 0 0 0 0 0 0 0 0.505882 0 0 0 0 0.454902 0 0 0 0.1 0"/>
<feBlend mode="normal" in2="BackgroundImageFix" result="effect1_dropShadow"/>
<feBlend mode="normal" in="SourceGraphic" in2="effect1_dropShadow" result="shape"/>
</filter>
<linearGradient id="paint0_linear" x1="105" y1="34" x2="105" y2="44" gradientUnits="userSpaceOnUse">
<stop stop-color="#A3DCBE"/>
<stop offset="1" stop-color="#44C0BB"/>
</linearGradient>
<linearGradient id="paint1_linear" x1="49.3182" y1="34.9092" x2="49.3182" y2="43.091" gradientUnits="userSpaceOnUse">
<stop stop-color="#A3DCBE"/>
<stop offset="1" stop-color="#44C0BB"/>
</linearGradient>
<linearGradient id="paint2_linear" x1="75.6818" y1="34.9092" x2="75.6818" y2="43.091" gradientUnits="userSpaceOnUse">
<stop stop-color="#A3DCBE"/>
<stop offset="1" stop-color="#44C0BB"/>
</linearGradient>
<clipPath id="clip0">
<rect x="32" y="20" width="388" height="205" rx="12" fill="white"/>
</clipPath>
</defs>
</svg>
