<svg width="452" height="212" viewBox="0 0 452 212" fill="none" xmlns="http://www.w3.org/2000/svg">
<g filter="url(#filter0_d)">
<g clip-path="url(#clip0)">
<rect x="32" y="20" width="388" height="205" rx="12" fill="white"/>
<rect x="32" y="20" width="388" height="205" rx="12" fill="white"/>
<rect x="19" y="6" width="430" height="51" fill="#008174" fill-opacity="0.03"/>
<rect x="19.5" y="6.5" width="429" height="50" stroke="#008174" stroke-opacity="0.06"/>
<rect x="93" y="27" width="320" height="24" rx="5" fill="white"/>
<rect x="92.5" y="26.5" width="321" height="25" rx="5.5" stroke="#008174" stroke-opacity="0.06"/>
<path d="M105 34C102.243 34 100 36.243 100 39C100 41.757 102.243 44 105 44C107.757 44 110 41.757 110 39C110 36.243 107.757 34 105 34ZM108.965 38.5H107.583C107.525 37.4175 107.219 36.35 106.688 35.3785C107.906 35.949 108.791 37.114 108.965 38.5ZM105.265 35.0135C105.782 35.6955 106.478 36.9035 106.578 38.5H103.515C103.584 37.202 104.012 35.986 104.74 35.013C104.826 35.008 104.912 35 105 35C105.089 35 105.177 35.008 105.265 35.0135ZM103.344 35.3635C102.852 36.309 102.568 37.381 102.515 38.5H101.034C101.21 37.102 102.109 35.9285 103.344 35.3635ZM101.034 39.5H102.522C102.59 40.6895 102.854 41.739 103.299 42.615C102.087 42.042 101.208 40.881 101.034 39.5ZM104.725 42.9865C104.024 42.1375 103.611 40.948 103.521 39.5H106.577C106.473 40.8865 106.018 42.098 105.275 42.986C105.184 42.992 105.094 43 105 43C104.907 43 104.816 42.992 104.725 42.9865ZM106.731 42.6005C107.208 41.7035 107.5 40.65 107.576 39.5H108.965C108.793 40.8695 107.927 42.0235 106.731 42.6005Z" fill="url(#paint0_linear)"/>
<rect x="40" y="29" width="20" height="20" rx="10" fill="white"/>
<rect x="39.5" y="28.5" width="21" height="21" rx="10.5" stroke="#008174" stroke-opacity="0.06"/>
<path d="M47.2727 39.0001L46.9192 38.6465C46.7239 38.8418 46.7239 39.1584 46.9192 39.3536L47.2727 39.0001ZM51.7172 35.2627C51.9124 35.0675 51.9124 34.7509 51.7172 34.5556C51.5219 34.3604 51.2053 34.3604 51.0101 34.5556L51.7172 35.2627ZM51.0101 43.4446C51.2053 43.6398 51.5219 43.6398 51.7172 43.4446C51.9124 43.2493 51.9124 42.9327 51.7172 42.7374L51.0101 43.4446ZM47.6263 39.3536L51.7172 35.2627L51.0101 34.5556L46.9192 38.6465L47.6263 39.3536ZM46.9192 39.3536L51.0101 43.4446L51.7172 42.7374L47.6263 38.6465L46.9192 39.3536Z" fill="url(#paint1_linear)"/>
<rect width="20" height="20" rx="10" transform="matrix(-1 0 0 1 85 29)" fill="white"/>
<rect x="0.5" y="-0.5" width="21" height="21" rx="10.5" transform="matrix(-1 0 0 1 86 29)" stroke="#008174" stroke-opacity="0.06"/>
<path d="M77.7273 39.0001L78.0808 38.6465C78.2761 38.8418 78.2761 39.1584 78.0808 39.3536L77.7273 39.0001ZM73.2828 35.2627C73.0876 35.0675 73.0876 34.7509 73.2828 34.5556C73.4781 34.3604 73.7947 34.3604 73.9899 34.5556L73.2828 35.2627ZM73.9899 43.4446C73.7947 43.6398 73.4781 43.6398 73.2828 43.4446C73.0876 43.2493 73.0876 42.9327 73.2828 42.7374L73.9899 43.4446ZM77.3737 39.3536L73.2828 35.2627L73.9899 34.5556L78.0808 38.6465L77.3737 39.3536ZM78.0808 39.3536L73.9899 43.4446L73.2828 42.7374L77.3737 38.6465L78.0808 39.3536Z" fill="url(#paint2_linear)"/>
<g filter="url(#filter1_d)">
<mask id="path-14-outside-1" maskUnits="userSpaceOnUse" x="80" y="60.3076" width="164" height="88" fill="black">
<rect fill="white" x="80" y="60.3076" width="164" height="88"/>
<path fill-rule="evenodd" clip-rule="evenodd" d="M111.192 69L104.5 62.3076L97.8076 69H87C83.6863 69 81 71.6863 81 75V141C81 144.314 83.6863 147 87 147H237C240.314 147 243 144.314 243 141V75C243 71.6863 240.314 69 237 69H111.192Z"/>
</mask>
<path fill-rule="evenodd" clip-rule="evenodd" d="M111.192 69L104.5 62.3076L97.8076 69H87C83.6863 69 81 71.6863 81 75V141C81 144.314 83.6863 147 87 147H237C240.314 147 243 144.314 243 141V75C243 71.6863 240.314 69 237 69H111.192Z" fill="white"/>
<path d="M104.5 62.3076L105.207 61.6005L104.5 60.8934L103.793 61.6005L104.5 62.3076ZM111.192 69L110.485 69.7071L110.778 70H111.192V69ZM97.8076 69V70H98.2218L98.5147 69.7071L97.8076 69ZM103.793 63.0147L110.485 69.7071L111.899 68.2929L105.207 61.6005L103.793 63.0147ZM98.5147 69.7071L105.207 63.0147L103.793 61.6005L97.1005 68.2929L98.5147 69.7071ZM87 70H97.8076V68H87V70ZM82 75C82 72.2386 84.2386 70 87 70V68C83.134 68 80 71.134 80 75H82ZM82 141V75H80V141H82ZM87 146C84.2386 146 82 143.761 82 141H80C80 144.866 83.134 148 87 148V146ZM237 146H87V148H237V146ZM242 141C242 143.761 239.761 146 237 146V148C240.866 148 244 144.866 244 141H242ZM242 75V141H244V75H242ZM237 70C239.761 70 242 72.2386 242 75H244C244 71.134 240.866 68 237 68V70ZM111.192 70H237V68H111.192V70Z" fill="#008174" fill-opacity="0.1" mask="url(#path-14-outside-1)"/>
</g>
<path d="M96.09 84.599H94.55V92.882H96.09V89.494H96.112C96.42 89.934 97.003 90.176 97.553 90.176C99.148 90.176 100.05 88.746 100.05 87.272C100.05 85.853 99.115 84.423 97.586 84.423C97.014 84.423 96.442 84.676 96.09 85.094V84.599ZM97.212 88.812C96.42 88.812 95.936 88.02 95.936 87.294C95.936 86.568 96.42 85.787 97.212 85.787C98.004 85.787 98.488 86.568 98.488 87.294C98.488 88.02 98.004 88.812 97.212 88.812ZM102.31 84.599H100.77V90H102.31V87.569C102.31 86.733 102.42 85.787 103.487 85.787C103.718 85.787 103.938 85.853 104.125 85.985L104.312 84.555C104.114 84.478 103.894 84.423 103.674 84.423C103.102 84.423 102.64 84.687 102.332 85.16H102.31V84.599ZM107.208 84.423C105.525 84.423 104.37 85.622 104.37 87.305C104.37 88.977 105.514 90.176 107.208 90.176C108.902 90.176 110.046 88.977 110.046 87.305C110.046 85.622 108.891 84.423 107.208 84.423ZM107.208 85.787C108 85.787 108.484 86.557 108.484 87.305C108.484 88.031 108 88.812 107.208 88.812C106.416 88.812 105.932 88.031 105.932 87.305C105.932 86.557 106.416 85.787 107.208 85.787ZM111.717 84.599H110.023L112.498 90.11H113.29L115.776 84.599H114.093L112.982 87.646L111.717 84.599ZM117.759 84.599H116.219V90H117.759V84.599ZM116.989 81.42C116.483 81.42 116.076 81.838 116.076 82.333C116.076 82.839 116.483 83.246 116.989 83.246C117.495 83.246 117.902 82.839 117.902 82.333C117.902 81.838 117.495 81.42 116.989 81.42ZM122.356 84.984C121.916 84.599 121.19 84.423 120.618 84.423C119.606 84.423 118.902 85.16 118.902 86.172C118.902 87.041 119.441 87.36 119.98 87.591C120.519 87.822 121.058 87.932 121.058 88.405C121.058 88.757 120.783 88.988 120.442 88.988C119.991 88.988 119.595 88.691 119.298 88.361L118.594 89.274C119.067 89.846 119.771 90.176 120.497 90.176C121.63 90.176 122.598 89.461 122.598 88.262C122.598 87.327 122.048 86.953 121.487 86.711C120.937 86.469 120.376 86.359 120.376 85.963C120.376 85.699 120.629 85.501 120.882 85.501C121.19 85.501 121.476 85.666 121.696 85.875L122.356 84.984ZM125.053 84.599H123.513V90H125.053V84.599ZM124.283 81.42C123.777 81.42 123.37 81.838 123.37 82.333C123.37 82.839 123.777 83.246 124.283 83.246C124.789 83.246 125.196 82.839 125.196 82.333C125.196 81.838 124.789 81.42 124.283 81.42ZM128.682 84.423C126.999 84.423 125.844 85.622 125.844 87.305C125.844 88.977 126.988 90.176 128.682 90.176C130.376 90.176 131.52 88.977 131.52 87.305C131.52 85.622 130.365 84.423 128.682 84.423ZM128.682 85.787C129.474 85.787 129.958 86.557 129.958 87.305C129.958 88.031 129.474 88.812 128.682 88.812C127.89 88.812 127.406 88.031 127.406 87.305C127.406 86.557 127.89 85.787 128.682 85.787ZM133.784 84.599H132.244V90H133.784V87.327C133.784 86.678 133.795 85.655 134.708 85.655C135.577 85.655 135.544 86.491 135.544 87.14V90H137.084V86.7C137.084 85.446 136.666 84.423 135.214 84.423C134.664 84.423 134.125 84.61 133.806 85.094H133.784V84.599ZM139.725 84.599H138.185V92.882H139.725V89.494H139.747C140.055 89.934 140.638 90.176 141.188 90.176C142.783 90.176 143.685 88.746 143.685 87.272C143.685 85.853 142.75 84.423 141.221 84.423C140.649 84.423 140.077 84.676 139.725 85.094V84.599ZM140.847 88.812C140.055 88.812 139.571 88.02 139.571 87.294C139.571 86.568 140.055 85.787 140.847 85.787C141.639 85.787 142.123 86.568 142.123 87.294C142.123 88.02 141.639 88.812 140.847 88.812ZM149.486 84.599H147.946V85.116H147.924C147.616 84.698 147.066 84.423 146.527 84.423C144.921 84.423 144.019 85.853 144.019 87.338C144.019 88.79 144.866 90.176 146.45 90.176C147.022 90.176 147.594 89.901 147.924 89.461H147.946V89.813C147.946 90.627 147.924 91.584 146.835 91.584C146.252 91.584 145.845 91.21 145.768 90.638H144.14C144.217 92.079 145.548 92.882 146.868 92.882C148.892 92.882 149.486 91.43 149.486 89.67V84.599ZM146.857 88.812C146.065 88.812 145.581 88.031 145.581 87.305C145.581 86.579 146.065 85.787 146.857 85.787C147.649 85.787 148.133 86.579 148.133 87.305C148.133 88.031 147.649 88.812 146.857 88.812ZM151.626 88.262C151.087 88.262 150.647 88.691 150.647 89.23C150.647 89.769 151.087 90.22 151.626 90.22C152.165 90.22 152.605 89.769 152.605 89.23C152.605 88.691 152.165 88.262 151.626 88.262ZM157.435 84.764C157.061 84.533 156.61 84.423 156.181 84.423C154.553 84.423 153.376 85.71 153.376 87.316C153.376 88.867 154.509 90.176 156.104 90.176C156.577 90.176 157.017 90.077 157.435 89.846V88.361C157.16 88.669 156.775 88.878 156.357 88.878C155.477 88.878 154.938 88.174 154.938 87.327C154.938 86.535 155.433 85.721 156.302 85.721C156.775 85.721 157.105 85.919 157.435 86.249V84.764ZM160.726 84.423C159.043 84.423 157.888 85.622 157.888 87.305C157.888 88.977 159.032 90.176 160.726 90.176C162.42 90.176 163.564 88.977 163.564 87.305C163.564 85.622 162.409 84.423 160.726 84.423ZM160.726 85.787C161.518 85.787 162.002 86.557 162.002 87.305C162.002 88.031 161.518 88.812 160.726 88.812C159.934 88.812 159.45 88.031 159.45 87.305C159.45 86.557 159.934 85.787 160.726 85.787ZM165.828 84.599H164.288V90H165.828V87.349C165.828 86.777 165.784 85.655 166.642 85.655C167.445 85.655 167.379 86.733 167.379 87.261V90H168.919V87.349C168.919 86.788 168.908 85.655 169.744 85.655C170.503 85.655 170.47 86.634 170.47 87.162V90H172.01V86.634C172.01 85.457 171.669 84.423 170.294 84.423C169.667 84.423 169.051 84.742 168.721 85.27C168.369 84.698 167.841 84.423 167.17 84.423C166.675 84.423 166.147 84.654 165.85 85.083H165.828V84.599ZM177.222 84.599H175.539L178.025 90.11H178.817L180.104 86.821L181.259 90.11H182.04L184.548 84.599H182.876L181.732 87.756L180.401 84.423H179.664L178.344 87.712L177.222 84.599ZM190.007 84.599H188.489V85.105C188.115 84.665 187.543 84.423 186.982 84.423C185.431 84.423 184.518 85.842 184.518 87.272C184.518 88.735 185.42 90.176 187.004 90.176C187.565 90.176 188.137 89.934 188.467 89.505H188.489V90H190.007V84.599ZM187.356 88.812C186.564 88.812 186.08 88.02 186.08 87.294C186.08 86.568 186.564 85.787 187.356 85.787C188.148 85.787 188.643 86.568 188.643 87.294C188.643 88.02 188.148 88.812 187.356 88.812ZM192.662 84.599H191.122V90H192.662V87.327C192.662 86.678 192.673 85.655 193.586 85.655C194.455 85.655 194.422 86.491 194.422 87.14V90H195.962V86.7C195.962 85.446 195.544 84.423 194.092 84.423C193.542 84.423 193.003 84.61 192.684 85.094H192.662V84.599ZM198.79 85.897H199.736V84.599H198.79V82.773H197.25V84.599H196.722V85.897H197.25V90H198.79V85.897ZM203.513 84.984C203.073 84.599 202.347 84.423 201.775 84.423C200.763 84.423 200.059 85.16 200.059 86.172C200.059 87.041 200.598 87.36 201.137 87.591C201.676 87.822 202.215 87.932 202.215 88.405C202.215 88.757 201.94 88.988 201.599 88.988C201.148 88.988 200.752 88.691 200.455 88.361L199.751 89.274C200.224 89.846 200.928 90.176 201.654 90.176C202.787 90.176 203.755 89.461 203.755 88.262C203.755 87.327 203.205 86.953 202.644 86.711C202.094 86.469 201.533 86.359 201.533 85.963C201.533 85.699 201.786 85.501 202.039 85.501C202.347 85.501 202.633 85.666 202.853 85.875L203.513 84.984ZM209.5 85.897H210.446V84.599H209.5V82.773H207.96V84.599H207.432V85.897H207.96V90H209.5V85.897ZM213.255 84.423C211.572 84.423 210.417 85.622 210.417 87.305C210.417 88.977 211.561 90.176 213.255 90.176C214.949 90.176 216.093 88.977 216.093 87.305C216.093 85.622 214.938 84.423 213.255 84.423ZM213.255 85.787C214.047 85.787 214.531 86.557 214.531 87.305C214.531 88.031 214.047 88.812 213.255 88.812C212.463 88.812 211.979 88.031 211.979 87.305C211.979 86.557 212.463 85.787 213.255 85.787Z" fill="#008174"/>
<rect x="192" y="115" width="39" height="20" rx="10" fill="#008174"/>
<path d="M204.23 126.569L204.752 128H206.165L203.591 121.034H202.565L199.919 128H201.314L201.872 126.569H204.23ZM203.861 125.489H202.25L202.997 123.023H203.015L203.861 125.489ZM207.792 120.368H206.532V128H207.792V120.368ZM209.954 120.368H208.694V128H209.954V120.368ZM212.863 123.437C211.486 123.437 210.541 124.418 210.541 125.795C210.541 127.163 211.477 128.144 212.863 128.144C214.249 128.144 215.185 127.163 215.185 125.795C215.185 124.418 214.24 123.437 212.863 123.437ZM212.863 124.553C213.511 124.553 213.907 125.183 213.907 125.795C213.907 126.389 213.511 127.028 212.863 127.028C212.215 127.028 211.819 126.389 211.819 125.795C211.819 125.183 212.215 124.553 212.863 124.553ZM216.543 123.581H215.166L217.2 128.09H217.848L218.901 125.399L219.846 128.09H220.485L222.537 123.581H221.169L220.233 126.164L219.144 123.437H218.541L217.461 126.128L216.543 123.581Z" fill="white"/>
<path d="M96.09 97.672H94.55V107H96.09V104.701H96.112L97.883 107H99.907L97.454 103.975L99.731 101.599H97.729L96.112 103.579H96.09V97.672ZM101.88 101.599H100.34V107H101.88V104.327C101.88 103.678 101.891 102.655 102.804 102.655C103.673 102.655 103.64 103.491 103.64 104.14V107H105.18V103.7C105.18 102.446 104.762 101.423 103.31 101.423C102.76 101.423 102.221 101.61 101.902 102.094H101.88V101.599ZM108.744 101.423C107.061 101.423 105.906 102.622 105.906 104.305C105.906 105.977 107.05 107.176 108.744 107.176C110.438 107.176 111.582 105.977 111.582 104.305C111.582 102.622 110.427 101.423 108.744 101.423ZM108.744 102.787C109.536 102.787 110.02 103.557 110.02 104.305C110.02 105.031 109.536 105.812 108.744 105.812C107.952 105.812 107.468 105.031 107.468 104.305C107.468 103.557 107.952 102.787 108.744 102.787ZM113.242 101.599H111.559L114.045 107.11H114.837L116.124 103.821L117.279 107.11H118.06L120.568 101.599H118.896L117.752 104.756L116.421 101.423H115.684L114.364 104.712L113.242 101.599ZM125.438 106.175L123.656 109.882H125.35L129.277 101.599H127.561L126.175 104.668L124.888 101.599H123.139L125.438 106.175ZM132.066 101.423C130.383 101.423 129.228 102.622 129.228 104.305C129.228 105.977 130.372 107.176 132.066 107.176C133.76 107.176 134.904 105.977 134.904 104.305C134.904 102.622 133.749 101.423 132.066 101.423ZM132.066 102.787C132.858 102.787 133.342 103.557 133.342 104.305C133.342 105.031 132.858 105.812 132.066 105.812C131.274 105.812 130.79 105.031 130.79 104.305C130.79 103.557 131.274 102.787 132.066 102.787ZM135.595 101.599V104.778C135.595 106.351 136.409 107.176 138.015 107.176C139.621 107.176 140.435 106.351 140.435 104.778V101.599H138.895V104.525C138.895 105.141 138.796 105.878 138.015 105.878C137.234 105.878 137.135 105.141 137.135 104.525V101.599H135.595ZM143.055 101.599H141.515V107H143.055V104.569C143.055 103.733 143.165 102.787 144.232 102.787C144.463 102.787 144.683 102.853 144.87 102.985L145.057 101.555C144.859 101.478 144.639 101.423 144.419 101.423C143.847 101.423 143.385 101.687 143.077 102.16H143.055V101.599ZM150.274 97.672H148.734V107H150.274V97.672ZM153.829 101.423C152.146 101.423 150.991 102.622 150.991 104.305C150.991 105.977 152.135 107.176 153.829 107.176C155.523 107.176 156.667 105.977 156.667 104.305C156.667 102.622 155.512 101.423 153.829 101.423ZM153.829 102.787C154.621 102.787 155.105 103.557 155.105 104.305C155.105 105.031 154.621 105.812 153.829 105.812C153.037 105.812 152.553 105.031 152.553 104.305C152.553 103.557 153.037 102.787 153.829 102.787ZM161.066 101.764C160.692 101.533 160.241 101.423 159.812 101.423C158.184 101.423 157.007 102.71 157.007 104.316C157.007 105.867 158.14 107.176 159.735 107.176C160.208 107.176 160.648 107.077 161.066 106.846V105.361C160.791 105.669 160.406 105.878 159.988 105.878C159.108 105.878 158.569 105.174 158.569 104.327C158.569 103.535 159.064 102.721 159.933 102.721C160.406 102.721 160.736 102.919 161.066 103.249V101.764ZM167.126 101.599H165.608V102.105C165.234 101.665 164.662 101.423 164.101 101.423C162.55 101.423 161.637 102.842 161.637 104.272C161.637 105.735 162.539 107.176 164.123 107.176C164.684 107.176 165.256 106.934 165.586 106.505H165.608V107H167.126V101.599ZM164.475 105.812C163.683 105.812 163.199 105.02 163.199 104.294C163.199 103.568 163.683 102.787 164.475 102.787C165.267 102.787 165.762 103.568 165.762 104.294C165.762 105.02 165.267 105.812 164.475 105.812ZM169.968 102.897H170.914V101.599H169.968V99.773H168.428V101.599H167.9V102.897H168.428V107H169.968V102.897ZM172.888 101.599H171.348V107H172.888V101.599ZM172.118 98.42C171.612 98.42 171.205 98.838 171.205 99.333C171.205 99.839 171.612 100.246 172.118 100.246C172.624 100.246 173.031 99.839 173.031 99.333C173.031 98.838 172.624 98.42 172.118 98.42ZM176.517 101.423C174.834 101.423 173.679 102.622 173.679 104.305C173.679 105.977 174.823 107.176 176.517 107.176C178.211 107.176 179.355 105.977 179.355 104.305C179.355 102.622 178.2 101.423 176.517 101.423ZM176.517 102.787C177.309 102.787 177.793 103.557 177.793 104.305C177.793 105.031 177.309 105.812 176.517 105.812C175.725 105.812 175.241 105.031 175.241 104.305C175.241 103.557 175.725 102.787 176.517 102.787ZM181.619 101.599H180.079V107H181.619V104.327C181.619 103.678 181.63 102.655 182.543 102.655C183.412 102.655 183.379 103.491 183.379 104.14V107H184.919V103.7C184.919 102.446 184.501 101.423 183.049 101.423C182.499 101.423 181.96 101.61 181.641 102.094H181.619V101.599Z" fill="#101010" fill-opacity="0.7"/>
</g>
</g>
<defs>
<filter id="filter0_d" x="0" y="0" width="452" height="269" filterUnits="userSpaceOnUse" color-interpolation-filters="sRGB">
<feFlood flood-opacity="0" result="BackgroundImageFix"/>
<feColorMatrix in="SourceAlpha" type="matrix" values="0 0 0 0 0 0 0 0 0 0 0 0 0 0 0 0 0 0 127 0"/>
<feOffset dy="12"/>
<feGaussianBlur stdDeviation="16"/>
<feColorMatrix type="matrix" values="0 0 0 0 0 0 0 0 0 0.505882 0 0 0 0 0.454902 0 0 0 0.15 0"/>
<feBlend mode="normal" in2="BackgroundImageFix" result="effect1_dropShadow"/>
<feBlend mode="normal" in="SourceGraphic" in2="effect1_dropShadow" result="shape"/>
</filter>
<filter id="filter1_d" x="71" y="54.8936" width="182" height="105.107" filterUnits="userSpaceOnUse" color-interpolation-filters="sRGB">
<feFlood flood-opacity="0" result="BackgroundImageFix"/>
<feColorMatrix in="SourceAlpha" type="matrix" values="0 0 0 0 0 0 0 0 0 0 0 0 0 0 0 0 0 0 127 0"/>
<feOffset dy="3"/>
<feGaussianBlur stdDeviation="4.5"/>
<feColorMatrix type="matrix" values="0 0 0 0 0 0 0 0 0 0.505882 0 0 0 0 0.454902 0 0 0 0.1 0"/>
<feBlend mode="normal" in2="BackgroundImageFix" result="effect1_dropShadow"/>
<feBlend mode="normal" in="SourceGraphic" in2="effect1_dropShadow" result="shape"/>
</filter>
<linearGradient id="paint0_linear" x1="105" y1="34" x2="105" y2="44" gradientUnits="userSpaceOnUse">
<stop stop-color="#A3DCBE"/>
<stop offset="1" stop-color="#44C0BB"/>
</linearGradient>
<linearGradient id="paint1_linear" x1="49.3182" y1="34.9092" x2="49.3182" y2="43.091" gradientUnits="userSpaceOnUse">
<stop stop-color="#A3DCBE"/>
<stop offset="1" stop-color="#44C0BB"/>
</linearGradient>
<linearGradient id="paint2_linear" x1="75.6818" y1="34.9092" x2="75.6818" y2="43.091" gradientUnits="userSpaceOnUse">
<stop stop-color="#A3DCBE"/>
<stop offset="1" stop-color="#44C0BB"/>
</linearGradient>
<clipPath id="clip0">
<rect x="32" y="20" width="388" height="205" rx="12" fill="white"/>
</clipPath>
</defs>
</svg>
