<svg width="221" height="215" viewBox="0 0 221 215" fill="none" xmlns="http://www.w3.org/2000/svg">
<g filter="url(#filter0_d)">
<path d="M48.9569 149.599C48.9567 149.6 48.9561 149.6 48.956 149.599L33.4231 43.7023C32.5996 38.0878 35.9185 32.6905 41.3005 30.8919C41.8821 30.6975 42.4781 30.5491 43.0829 30.448L79.0106 24.445C81.5178 24.0261 84.0932 24.4141 86.3656 25.5532L93.8954 29.3276C95.5645 30.1642 97.4057 30.5998 99.2728 30.5998H114.829C116.122 30.5998 117.406 30.3909 118.633 29.9812L135.47 24.3546C136.57 23.987 137.611 23.462 138.56 22.7958L159.633 8.00763C165.639 3.79218 173.989 5.90756 177.264 12.4745L180.379 18.7202C180.935 19.8334 181.313 21.0262 181.502 22.2557L187.778 63.1542C187.925 64.1149 187.956 65.09 187.868 66.0581L184.813 99.7498C184.678 101.237 184.267 102.686 183.6 104.022L179.248 112.749C178.316 114.617 176.913 116.21 175.177 117.37L162.295 125.981C159.285 127.992 157.478 131.373 157.478 134.993V136.712C157.478 140.348 155.153 143.577 151.704 144.729C148.963 145.645 146.881 147.897 146.181 150.701L143.912 159.8L143.238 161.829C141.616 166.708 137.052 170 131.91 170H131.174C128.474 170 125.885 168.926 123.978 167.014L121.579 164.609C118.932 161.955 114.632 161.955 111.985 164.609C110.714 165.884 108.988 166.6 107.188 166.6H92.0535C90.5163 166.6 89.0422 165.988 87.9566 164.9C86.8711 163.811 85.397 163.2 83.8598 163.2H79.1275C75.1102 163.2 71.3594 161.189 69.135 157.844L68.6682 157.142C66.9044 154.49 64.1583 152.647 61.035 152.021L48.9574 149.599C48.9572 149.599 48.957 149.599 48.9569 149.599Z" fill="white"/>
<path d="M48.9569 149.599C48.9567 149.6 48.9561 149.6 48.956 149.599L33.4231 43.7023C32.5996 38.0878 35.9185 32.6905 41.3005 30.8919C41.8821 30.6975 42.4781 30.5491 43.0829 30.448L79.0106 24.445C81.5178 24.0261 84.0932 24.4141 86.3656 25.5532L93.8954 29.3276C95.5645 30.1642 97.4057 30.5998 99.2728 30.5998H114.829C116.122 30.5998 117.406 30.3909 118.633 29.9812L135.47 24.3546C136.57 23.987 137.611 23.462 138.56 22.7958L159.633 8.00763C165.639 3.79218 173.989 5.90756 177.264 12.4745L180.379 18.7202C180.935 19.8334 181.313 21.0262 181.502 22.2557L187.778 63.1542C187.925 64.1149 187.956 65.09 187.868 66.0581L184.813 99.7498C184.678 101.237 184.267 102.686 183.6 104.022L179.248 112.749C178.316 114.617 176.913 116.21 175.177 117.37L162.295 125.981C159.285 127.992 157.478 131.373 157.478 134.993V136.712C157.478 140.348 155.153 143.577 151.704 144.729C148.963 145.645 146.881 147.897 146.181 150.701L143.912 159.8L143.238 161.829C141.616 166.708 137.052 170 131.91 170H131.174C128.474 170 125.885 168.926 123.978 167.014L121.579 164.609C118.932 161.955 114.632 161.955 111.985 164.609C110.714 165.884 108.988 166.6 107.188 166.6H92.0535C90.5163 166.6 89.0422 165.988 87.9566 164.9C86.8711 163.811 85.397 163.2 83.8598 163.2H79.1275C75.1102 163.2 71.3594 161.189 69.135 157.844L68.6682 157.142C66.9044 154.49 64.1583 152.647 61.035 152.021L48.9574 149.599C48.9572 149.599 48.957 149.599 48.9569 149.599Z" stroke="#101010" stroke-width="2" stroke-linejoin="round"/>
</g>
<defs>
<filter id="filter0_d" x="0.298096" y="-15.1729" width="220.619" height="230.173" filterUnits="userSpaceOnUse" color-interpolation-filters="sRGB">
<feFlood flood-opacity="0" result="BackgroundImageFix"/>
<feColorMatrix in="SourceAlpha" type="matrix" values="0 0 0 0 0 0 0 0 0 0 0 0 0 0 0 0 0 0 127 0"/>
<feOffset dy="12"/>
<feGaussianBlur stdDeviation="16"/>
<feColorMatrix type="matrix" values="0 0 0 0 0 0 0 0 0 0.505882 0 0 0 0 0.454902 0 0 0 0.15 0"/>
<feBlend mode="normal" in2="BackgroundImageFix" result="effect1_dropShadow"/>
<feBlend mode="normal" in="SourceGraphic" in2="effect1_dropShadow" result="shape"/>
</filter>
</defs>
</svg>
