<svg width="284" height="202" viewBox="0 0 284 202" fill="none" xmlns="http://www.w3.org/2000/svg">
<g filter="url(#filter0_d)">
<path d="M59.3177 29.6833L37.1238 51.8574C33.4673 55.5107 32.5609 61.0948 34.8742 65.7171L40.7473 77.4522C41.3249 78.6065 41.7126 79.8464 41.8953 81.1242L48.6991 128.708L53.2846 147.033C54.7202 152.77 60.1215 156.606 66.0112 156.071L93.7548 153.55C94.3933 153.492 95.0262 153.383 95.6474 153.224L228.676 119.144C231.32 118.466 233.655 116.907 235.294 114.723L247.746 98.1349C251.334 93.3558 250.858 86.6654 246.631 82.4417L242.563 78.3777C240.793 76.6091 239.62 74.3314 239.208 71.8633L236.793 57.3818C236.47 55.4494 236.626 53.4676 237.246 51.6093L239.716 44.2063C241.662 38.3736 238.054 32.1554 232.024 30.9505C228.152 30.1767 225.072 27.2411 224.113 23.4103L223.866 22.4218C222.805 18.1838 219.495 14.8754 215.257 13.8166L209.416 12.3577C208.465 12.1201 207.488 12 206.508 12H189.144C187.561 12 185.994 12.3132 184.532 12.9216L146.484 28.7609C145.022 29.3693 143.455 29.6825 141.872 29.6825H131.588C130.607 29.6825 129.631 29.8026 128.679 30.0402L65.2617 45.8813C62.2426 46.6354 59.3185 44.3519 59.3185 41.24V29.6837C59.3185 29.6832 59.318 29.683 59.3177 29.6833Z" fill="white"/>
<path d="M59.3177 29.6833L37.1238 51.8574C33.4673 55.5107 32.5609 61.0948 34.8742 65.7171L40.7473 77.4522C41.3249 78.6065 41.7126 79.8464 41.8953 81.1242L48.6991 128.708L53.2846 147.033C54.7202 152.77 60.1215 156.606 66.0112 156.071L93.7548 153.55C94.3933 153.492 95.0262 153.383 95.6474 153.224L228.676 119.144C231.32 118.466 233.655 116.907 235.294 114.723L247.746 98.1349C251.334 93.3558 250.858 86.6654 246.631 82.4417L242.563 78.3777C240.793 76.6091 239.62 74.3314 239.208 71.8633L236.793 57.3818C236.47 55.4494 236.626 53.4676 237.246 51.6093L239.716 44.2063C241.662 38.3736 238.054 32.1554 232.024 30.9505C228.152 30.1767 225.072 27.2411 224.113 23.4103L223.866 22.4218C222.805 18.1838 219.495 14.8754 215.257 13.8166L209.416 12.3577C208.465 12.1201 207.488 12 206.508 12H189.144C187.561 12 185.994 12.3132 184.532 12.9216L146.484 28.7609C145.022 29.3693 143.455 29.6825 141.872 29.6825H131.588C130.607 29.6825 129.631 29.8026 128.679 30.0402L65.2617 45.8813C62.2426 46.6354 59.3185 44.3519 59.3185 41.24V29.6837C59.3185 29.6832 59.318 29.683 59.3177 29.6833Z" stroke="#101010" stroke-width="2" stroke-linejoin="round"/>
</g>
<defs>
<filter id="filter0_d" x="0.60498" y="-9" width="282.545" height="210.12" filterUnits="userSpaceOnUse" color-interpolation-filters="sRGB">
<feFlood flood-opacity="0" result="BackgroundImageFix"/>
<feColorMatrix in="SourceAlpha" type="matrix" values="0 0 0 0 0 0 0 0 0 0 0 0 0 0 0 0 0 0 127 0"/>
<feOffset dy="12"/>
<feGaussianBlur stdDeviation="16"/>
<feColorMatrix type="matrix" values="0 0 0 0 0 0 0 0 0 0.505882 0 0 0 0 0.454902 0 0 0 0.15 0"/>
<feBlend mode="normal" in2="BackgroundImageFix" result="effect1_dropShadow"/>
<feBlend mode="normal" in="SourceGraphic" in2="effect1_dropShadow" result="shape"/>
</filter>
</defs>
</svg>
