<svg width="1808" height="298" viewBox="0 0 1808 298" fill="none" xmlns="http://www.w3.org/2000/svg">
<path d="M64 64.2572C333.207 133.454 613.821 170.099 902.211 170.208H904.789C1193.54 170.099 1474.49 133.363 1744 64V234H64V64.2572Z" fill="white"/>
<path opacity="0.05" d="M1751.83 160.871C1766.04 157.286 1776 144.502 1776 129.843V64.0002C1776 54.1074 1771.42 44.7708 1763.61 38.7097C1755.79 32.6486 1745.6 30.5444 1736.02 33.0101C1725.6 35.6921 1715.16 38.3248 1704.71 40.9082L1712 70.4202L1704.71 40.9082C1463.71 100.454 1213.64 133.709 957.124 137.783C939.709 138.059 922.263 138.202 904.789 138.208C904.785 138.208 904.781 138.208 904.777 138.208H903.5C903.053 138.208 902.646 138.209 902.223 138.208C795.357 138.168 689.577 133.063 585.068 123.101C410.196 106.433 238.87 76.1655 71.9663 33.2649C62.3866 30.8026 52.2066 32.9086 44.3903 38.9699C36.574 45.0312 32 54.3664 32 64.2575V130.095C32 144.757 41.9647 157.544 56.1826 161.126C328.588 229.752 612.231 266 903.5 266C1195.13 266 1479.11 229.662 1751.83 160.871Z" fill="url(#paint0_linear)" stroke="white" stroke-width="64" stroke-linejoin="round"/>
<defs>
<linearGradient id="paint0_linear" x1="904" y1="64.0002" x2="904" y2="234" gradientUnits="userSpaceOnUse">
<stop stop-color="#A3DCBE"/>
<stop offset="1" stop-color="#44C0BB"/>
</linearGradient>
</defs>
</svg>
