<svg xmlns="http://www.w3.org/2000/svg" width="22" height="22" viewBox="0 0 22 22">
  <g id="green" transform="translate(1 1)">
    <path id="Path_7" data-name="Path 7" d="M8.977,11.323h1.54l.088-1.056A2.3,2.3,0,0,0,12.376,8a2.308,2.308,0,0,0-2.365-2.365A2.277,2.277,0,0,0,7.679,8.012H9.285V7.88a.807.807,0,0,1,.737-.9c.506,0,.759.528.759.968A1.282,1.282,0,0,1,9.373,9.178a1.619,1.619,0,0,1-.4-.044Zm.792,1.089a.972.972,0,0,0-.979.968.979.979,0,1,0,1.958,0A.972.972,0,0,0,9.769,12.412Z" fill="#101010"/>
    <path id="Path_8" data-name="Path 8" d="M10,19a9,9,0,0,1-9-9H-1A11,11,0,0,0,10,21Zm9-9a9,9,0,0,1-9,9v2A11,11,0,0,0,21,10ZM10,1a9,9,0,0,1,9,9h2A11,11,0,0,0,10-1Zm0-2A11,11,0,0,0-1,10H1a9,9,0,0,1,9-9Z" fill="#101010"/>
  </g>
</svg>
