<svg width="36" height="36" viewBox="0 0 36 36" fill="none" xmlns="http://www.w3.org/2000/svg">
<path d="M0 18C0 8.05888 8.05888 0 18 0C27.9411 0 36 8.05888 36 18C36 27.9411 27.9411 36 18 36C8.05888 36 0 27.9411 0 18Z" fill="#101010" fill-opacity="0.03"/>
<path d="M12.0466 17.9167C11.6693 17.6148 11.1186 17.676 10.8167 18.0534C10.5149 18.4307 10.576 18.9814 10.9534 19.2832L12.0466 17.9167ZM16.5 22.6L15.9534 23.2832C16.319 23.5758 16.8502 23.5286 17.1585 23.1762L16.5 22.6ZM24.1585 15.1762C24.4767 14.8125 24.4399 14.2597 24.0762 13.9415C23.7125 13.6232 23.1597 13.6601 22.8415 14.0238L24.1585 15.1762ZM10.9534 19.2832L15.9534 23.2832L17.0466 21.9167L12.0466 17.9167L10.9534 19.2832ZM17.1585 23.1762L24.1585 15.1762L22.8415 14.0238L15.8415 22.0238L17.1585 23.1762Z" fill="#101010" fill-opacity="0.15"/>
<path d="M18 35C8.61116 35 1 27.3888 1 18H-1C-1 28.4934 7.50659 37 18 37V35ZM35 18C35 27.3888 27.3888 35 18 35V37C28.4934 37 37 28.4934 37 18H35ZM18 1C27.3888 1 35 8.61116 35 18H37C37 7.50659 28.4934 -1 18 -1V1ZM18 -1C7.50659 -1 -1 7.50659 -1 18H1C1 8.61116 8.61116 1 18 1V-1Z" fill="#101010" fill-opacity="0.25"/>
</svg>
