<svg xmlns="http://www.w3.org/2000/svg" width="38" height="38" viewBox="0 0 38 38">
  <g id="Group_1" data-name="Group 1" transform="translate(-251 -424)">
    <g id="unchecked" transform="translate(252 425)">
      <path id="Path_1" data-name="Path 1" d="M0,18A18,18,0,1,1,18,36,18,18,0,0,1,0,18Z" fill="rgba(16,16,16,0.03)"/>
      <path id="Path_2" data-name="Path 2" d="M12.047,17.917a.875.875,0,1,0-1.093,1.366ZM16.5,22.6l-.547.683a.875.875,0,0,0,1.205-.107Zm7.659-7.424a.875.875,0,0,0-1.317-1.152ZM10.953,19.283l5,4,1.093-1.366-5-4Zm6.205,3.893,7-8-1.317-1.152-7,8Z" fill="rgba(16,16,16,0.15)"/>
      <path id="Path_3" data-name="Path 3" d="M18,35A17,17,0,0,1,1,18H-1A19,19,0,0,0,18,37ZM35,18A17,17,0,0,1,18,35v2A19,19,0,0,0,37,18ZM18,1A17,17,0,0,1,35,18h2A19,19,0,0,0,18-1Zm0-2A19,19,0,0,0-1,18H1A17,17,0,0,1,18,1Z" fill="rgba(16,16,16,0.25)"/>
    </g>
  </g>
</svg>
