<svg width="6" height="10" viewBox="0 0 6 10" fill="none" xmlns="http://www.w3.org/2000/svg">
<path d="M1.97669 6.3229H3.51669L3.60469 5.26689C4.66069 5.02489 5.37569 4.07889 5.37569 3.0009C5.37569 1.64789 4.36369 0.635895 3.01069 0.635895C1.67969 0.635895 0.612687 1.6809 0.678687 3.0119H2.28469V2.87989C2.28469 2.4399 2.52669 1.9779 3.02169 1.9779C3.52769 1.9779 3.78069 2.50589 3.78069 2.9459C3.78069 3.7379 3.10969 4.1779 2.37269 4.1779C2.24069 4.1779 2.10869 4.1669 1.97669 4.13389V6.3229ZM2.76869 7.4119C2.22969 7.4119 1.78969 7.84089 1.78969 8.37989C1.78969 8.91889 2.22969 9.3699 2.76869 9.3699C3.30769 9.3699 3.74769 8.91889 3.74769 8.37989C3.74769 7.84089 3.30769 7.4119 2.76869 7.4119Z" fill="white"/>
</svg>
