<?xml version="1.0" encoding="UTF-8"?> <svg xmlns="http://www.w3.org/2000/svg" width="46" height="46" viewBox="0 0 46 46" fill="none"><rect x="1" y="1" width="44" height="44" rx="22" fill="white"></rect><path d="M15 29.9355H17V34L22.101 29.9355H27C28.103 29.9355 29 29.0421 29 27.9435V19.9758C29 18.8772 28.103 17.9839 27 17.9839H15C13.897 17.9839 13 18.8772 13 19.9758V27.9435C13 29.0421 13.897 29.9355 15 29.9355Z" fill="#008174"></path><path d="M31 14H19C17.897 14 17 14.8934 17 15.9919H29C30.103 15.9919 31 16.8853 31 17.9839V25.9516C32.103 25.9516 33 25.0582 33 23.9597V15.9919C33 14.8934 32.103 14 31 14Z" fill="#008174"></path><rect x="1" y="1" width="44" height="44" rx="22" stroke="#008174" stroke-width="2"></rect></svg> 