<svg width="288" height="173" viewBox="0 0 288 173" fill="none" xmlns="http://www.w3.org/2000/svg">
<path d="M0.557373 171.673H287.443" stroke="#101010" stroke-linejoin="round"/>
<path d="M24.0123 171.673H142.474V97.8695L83.2434 45.0369L24.0123 97.8695V171.673Z" fill="#101010" fill-opacity="0.05"/>
<path d="M142.474 97.8695V171.673H24.0123V97.8695M142.474 97.8695L83.2434 45.0369L24.0123 97.8695M142.474 97.8695L153.037 107.063M24.0123 97.8695L13.4495 107.063" stroke="#101010" stroke-linejoin="round"/>
<path d="M42.2305 116.99H61.7603V146.935H42.2305V116.99Z" fill="white"/>
<path d="M61.7603 116.99H81.2902V146.935H61.7603V116.99Z" fill="white"/>
<path d="M97.5651 116.99H124.256V171.673H97.5651V116.99Z" fill="white"/>
<path d="M61.7603 116.99H42.2305V146.935H61.7603M61.7603 116.99V146.935M61.7603 116.99H81.2902V146.935H61.7603M97.5651 116.99H124.256V171.673H97.5651V116.99Z" stroke="#101010" stroke-linejoin="round"/>
<path d="M108.123 85.0033C108.123 112.319 130.107 134.463 157.226 134.463C177.566 134.463 195.017 122.006 202.471 104.253C196.002 96.6195 192.073 86.5644 192.073 75.5463C192.073 69.5703 193.229 61.9133 195.319 53.7918C186.315 42.6561 172.595 35.5435 157.226 35.5435C130.107 35.5435 108.123 57.6874 108.123 85.0033Z" fill="white" stroke="#101010" stroke-linecap="round"/>
<path d="M274.439 75.5462C274.439 99.4133 256.001 118.761 233.256 118.761C221.011 118.761 210.015 113.154 202.471 104.252C196.003 96.6194 192.073 86.5643 192.073 75.5462C192.073 69.5702 193.229 61.9132 195.319 53.7917C201.577 29.4775 216.206 1 233.256 1C256.001 1 274.439 51.6791 274.439 75.5462Z" fill="url(#paint0_linear)"/>
<path d="M108.124 85.0032C108.124 112.319 130.108 134.463 157.226 134.463C177.566 134.463 195.018 122.006 202.471 104.252C196.003 96.6194 192.073 86.5643 192.073 75.5462C192.073 69.5702 193.229 61.9132 195.319 53.7917C186.316 42.656 172.596 35.5434 157.226 35.5434C130.108 35.5434 108.124 57.6873 108.124 85.0032Z" fill="url(#paint1_linear)"/>
<path d="M195.319 53.7917C193.229 61.9132 192.073 69.5702 192.073 75.5462C192.073 86.5643 196.003 96.6194 202.471 104.252M195.319 53.7917C201.577 29.4775 216.206 1 233.256 1C256.001 1 274.439 51.6791 274.439 75.5462C274.439 99.4133 256.001 118.761 233.256 118.761C221.011 118.761 210.015 113.154 202.471 104.252M195.319 53.7917C186.316 42.656 172.596 35.5434 157.226 35.5434C130.108 35.5434 108.124 57.6873 108.124 85.0032C108.124 112.319 130.108 134.463 157.226 134.463C177.566 134.463 195.018 122.006 202.471 104.252" stroke="#101010" stroke-linecap="round"/>
<path d="M159.569 171.422V106.364M159.569 58.4916V90.4066M159.569 90.4066L175.882 80.5866M159.569 90.4066V106.364M159.569 106.364L130.709 92.8616" stroke="#101010" stroke-linecap="round"/>
<path d="M233.498 171.422V89.1258M233.498 33.8523V73.1579M233.498 73.1579L216.947 63.3315M233.498 73.1579V89.1258M233.498 89.1258L255.96 75.6145" stroke="#101010" stroke-linecap="round"/>
<defs>
<linearGradient id="paint0_linear" x1="115.823" y1="6.33852" x2="115.823" y2="134.463" gradientUnits="userSpaceOnUse">
<stop stop-color="#D1EEDF"/>
<stop offset="1" stop-color="#A2E0DD"/>
</linearGradient>
<linearGradient id="paint1_linear" x1="115.823" y1="6.33852" x2="115.823" y2="134.463" gradientUnits="userSpaceOnUse">
<stop stop-color="#D1EEDF"/>
<stop offset="1" stop-color="#A2E0DD"/>
</linearGradient>
</defs>
</svg>
