<svg width="362" height="149" viewBox="0 0 362 149" fill="none" xmlns="http://www.w3.org/2000/svg">
<path d="M1 148H361" stroke="#101010" stroke-linecap="round"/>
<path d="M50.1618 106.295L80.6114 54L111.061 106.295H99.8272L114.609 128.242H80.6114H46.6143L61.3956 106.295H50.1618Z" fill="white" stroke="#101010" stroke-linecap="round"/>
<path d="M80.7551 91.8694V105.216M80.7551 147.456V111.889M80.7551 111.889L71.3037 105.796M80.7551 111.889V105.216M80.7551 105.216L89.0251 100.283" stroke="#101010" stroke-linecap="round"/>
<ellipse cx="171.906" cy="78.5425" rx="41.1164" ry="41.5425" fill="url(#paint0_linear)" stroke="#101010" stroke-linecap="round"/>
<path d="M171.938 147.91V97.2593M171.938 63.3662V84.0184M171.938 84.0184L158.2 75.8701M171.938 84.0184V97.2593M171.938 97.2593L193.76 87.7211" stroke="#101010" stroke-linecap="round"/>
<path d="M321.076 48.6475C321.076 49.8473 320.964 51.0207 320.748 52.1575C329.394 52.8677 336.191 60.1468 336.191 69.0216C336.191 72.9955 334.828 76.6494 332.547 79.5369C337.739 84.2751 341 91.1145 341 98.7194C341 113.023 329.465 124.619 315.237 124.619C309.997 124.619 305.123 123.046 301.056 120.346C296.784 123.879 291.314 126 285.351 126C271.692 126 260.618 114.868 260.618 101.137C260.618 99.1825 260.843 97.281 261.267 95.4568C255.161 92.2157 251 85.769 251 78.3453C251 70.0862 256.15 63.0363 263.399 60.2646C263.997 49.5519 272.828 41.0504 283.634 41.0504C284.277 41.0504 284.914 41.0805 285.542 41.1395C288.415 34.5797 294.939 30 302.527 30C312.771 30 321.076 38.3488 321.076 48.6475Z" fill="white" stroke="#101010" stroke-linecap="round"/>
<path d="M300.663 83.7881V96.6169M300.663 147.907V104.253M300.663 104.253L290.889 97.8386M300.663 104.253V96.6169M300.663 96.6169L309.521 91.1188" stroke="#101010" stroke-linecap="round"/>
<path d="M276.574 65.5815C276.574 86.2582 260.739 103.02 241.207 103.02C221.674 103.02 205.84 86.2582 205.84 65.5815C205.84 44.9047 221.674 1 241.207 1C260.739 1 276.574 44.9047 276.574 65.5815Z" fill="url(#paint1_linear)" stroke="#101010" stroke-linecap="round"/>
<path d="M241.247 147.909V77.1143M241.247 29.5657V63.378M241.247 63.378L226.243 54.9249M241.247 63.378V77.1143M241.247 77.1143L261.61 65.4913" stroke="#101010" stroke-linecap="round"/>
<defs>
<linearGradient id="paint0_linear" x1="134.597" y1="40.3234" x2="134.597" y2="120.085" gradientUnits="userSpaceOnUse">
<stop stop-color="#D1EEDF"/>
<stop offset="1" stop-color="#A2E0DD"/>
</linearGradient>
<linearGradient id="paint1_linear" x1="209.115" y1="5.0808" x2="209.115" y2="103.02" gradientUnits="userSpaceOnUse">
<stop stop-color="#D1EEDF"/>
<stop offset="1" stop-color="#A2E0DD"/>
</linearGradient>
</defs>
</svg>
