<svg width="44" height="44" viewBox="0 0 44 44" fill="none" xmlns="http://www.w3.org/2000/svg">
<path d="M22.2581 40.0645C24.6097 40.0645 26.5161 38.1581 26.5161 35.8065C26.5161 35.3356 26.0994 35 25.6286 35H18.8875C18.4167 35 18 35.3356 18 35.8065C18 38.1581 19.9064 40.0645 22.2581 40.0645Z" stroke="#101010" stroke-width="2" stroke-linecap="round" stroke-linejoin="round"/>
<path d="M21.9678 7.00006V4.93555" stroke="#101010" stroke-width="2" stroke-linecap="round" stroke-linejoin="round"/>
<path d="M25.5 7.65546C24.4133 7.23203 23.2333 7 22 7C16.5999 7 12.2222 11.4483 12.2222 16.9355C12.2222 16.9355 12.2222 16.9355 12.2222 16.9355C12.2222 16.9355 12.2222 16.9355 12.2222 20.2473C12.2222 25.2223 10.8776 29.2864 7.60364 33.2318C7.03718 33.9144 7.50011 35 8.38716 35H22H35.6128C36.4999 35 36.9628 33.9144 36.3964 33.2318C33.1224 29.2864 31.7778 25.2223 31.7778 20.2473C31.7778 19.6777 31.7778 19.206 31.7778 18.8155" stroke="#101010" stroke-width="2" stroke-linecap="round" stroke-linejoin="round"/>
<circle cx="31.016" cy="11.8549" r="6.91935" stroke="#101010" stroke-width="2" stroke-linecap="round" stroke-linejoin="round"/>
<path d="M31 9.1936V12.0001M31 14.5001V14.5162" stroke="#101010" stroke-width="2" stroke-linecap="round" stroke-linejoin="round"/>
</svg>
