<svg width="44" height="44" viewBox="0 0 44 44" fill="none" xmlns="http://www.w3.org/2000/svg">
<circle cx="22" cy="22" r="18" stroke="#101010" stroke-width="2" stroke-linecap="round" stroke-linejoin="round"/>
<path d="M18.4616 11.8467L18.014 10.9525H18.014L18.4616 11.8467ZM19.2587 12.1107L18.3658 12.5609V12.5609L19.2587 12.1107ZM16.8179 12.6696L16.3702 11.7754L16.36 11.7806L16.8179 12.6696ZM16.8057 12.6759L16.3478 11.7868L16.3376 11.7922L16.8057 12.6759ZM14.7253 17.6743L13.7275 17.7412L14.7253 17.6743ZM16.8159 24.5524L15.9235 25.0037H15.9235L16.8159 24.5524ZM21.1218 30.3279L20.4744 31.09L21.1218 30.3279ZM26.3885 31.6703L26.8096 32.5774L26.8149 32.5749L26.3885 31.6703ZM26.3946 31.6674L26.8211 32.572L26.833 32.5662L26.3946 31.6674ZM26.4028 31.6634L26.8412 32.5623L26.848 32.5588L26.4028 31.6634ZM28.0481 30.8453L28.4934 31.7407L28.4934 31.7407L28.0481 30.8453ZM28.348 30.4993L29.2976 30.8127L29.2976 30.8127L28.348 30.4993ZM28.3131 30.0427L27.4223 30.4971L27.4223 30.4971L28.3131 30.0427ZM25.5656 24.6565L24.6748 25.1109L24.6748 25.1109L25.5656 24.6565ZM24.7713 24.3942L24.3262 23.4987L24.3262 23.4987L24.7713 24.3942ZM23.1623 25.194L23.6031 26.0916L23.6074 26.0894L23.1623 25.194ZM23.1616 25.1943L23.5994 26.0934L23.6024 26.0919L23.1616 25.1943ZM22.9334 25.1602L22.538 26.0787L22.538 26.0787L22.9334 25.1602ZM22.3062 24.6879L23.015 23.9824L23.015 23.9824L22.3062 24.6879ZM20.8601 22.5663L21.753 22.116L20.8601 22.5663ZM20.0096 20.134L20.9978 19.981V19.981L20.0096 20.134ZM19.9991 19.336L20.9749 19.5547L20.9749 19.5547L19.9991 19.336ZM20.106 19.1222L19.6588 18.2278L19.6179 18.2482L19.5791 18.2723L20.106 19.1222ZM21.7193 18.3155L22.1666 19.2099L21.7193 18.3155ZM21.9843 17.5159L21.0914 17.9662L21.9843 17.5159ZM18.9093 12.7409C18.7095 12.841 18.4664 12.7605 18.3658 12.5609L20.1516 11.6605C19.7559 10.8757 18.7999 10.5591 18.014 10.9525L18.9093 12.7409ZM17.2655 13.5638L18.9093 12.7409L18.014 10.9525L16.3702 11.7754L17.2655 13.5638ZM17.2636 13.5649L17.2758 13.5586L16.36 11.7806L16.3478 11.7869L17.2636 13.5649ZM15.723 17.6074C15.5901 15.625 16.0882 14.1876 17.2738 13.5596L16.3376 11.7922C14.0737 12.9914 13.5785 15.5186 13.7275 17.7412L15.723 17.6074ZM17.7083 24.1012C16.6005 21.9106 15.8543 19.5659 15.723 17.6074L13.7275 17.7412C13.8821 20.0479 14.7372 22.658 15.9235 25.0037L17.7083 24.1012ZM21.7692 29.5657C20.2649 28.2879 18.8159 26.2915 17.7083 24.1012L15.9235 25.0037C17.11 27.35 18.7072 29.5888 20.4744 31.09L21.7692 29.5657ZM25.9673 30.7633C24.7532 31.3271 23.2923 30.8596 21.7692 29.5657L20.4744 31.09C22.1746 32.5343 24.498 33.6506 26.8096 32.5773L25.9673 30.7633ZM25.9682 30.7629L25.962 30.7658L26.8149 32.5749L26.821 32.5719L25.9682 30.7629ZM25.9644 30.7646L25.9562 30.7686L26.833 32.5662L26.8412 32.5622L25.9644 30.7646ZM27.6029 29.9499L25.9576 30.768L26.848 32.5588L28.4934 31.7407L27.6029 29.9499ZM27.3984 30.1858C27.4323 30.083 27.506 29.9981 27.6029 29.9499L28.4934 31.7407C28.8746 31.5511 29.1642 31.217 29.2976 30.8127L27.3984 30.1858ZM27.4223 30.4971C27.3731 30.4007 27.3645 30.2886 27.3984 30.1858L29.2976 30.8127C29.4311 30.4084 29.3973 29.9676 29.2039 29.5883L27.4223 30.4971ZM24.6748 25.1109L27.4223 30.4971L29.2039 29.5883L26.4564 24.2021L24.6748 25.1109ZM25.2164 25.2897C25.0174 25.3886 24.7758 25.3089 24.6748 25.1109L26.4564 24.2021C26.0592 23.4234 25.1091 23.1096 24.3262 23.4987L25.2164 25.2897ZM23.6074 26.0894L25.2164 25.2897L24.3262 23.4987L22.7172 24.2985L23.6074 26.0894ZM23.6024 26.0919L23.6031 26.0916L22.7215 24.2963L22.7208 24.2967L23.6024 26.0919ZM22.538 26.0787C22.691 26.1446 22.8683 26.1976 23.0633 26.2046C23.2892 26.2126 23.4696 26.1566 23.5994 26.0934L22.7238 24.2952C22.7617 24.2768 22.8279 24.2478 22.9135 24.2279C22.9945 24.209 23.0695 24.2035 23.1344 24.2058C23.1976 24.2081 23.2466 24.2175 23.2783 24.2256C23.3097 24.2336 23.3272 24.241 23.3288 24.2417L22.538 26.0787ZM21.5975 25.3934C21.8926 25.6899 22.2106 25.9378 22.538 26.0787L23.3288 24.2417C23.3353 24.2445 23.3079 24.2331 23.2472 24.1881C23.1887 24.1447 23.1105 24.0784 23.015 23.9824L21.5975 25.3934ZM19.9673 23.0167C20.4264 23.9269 21.0046 24.7978 21.5975 25.3934L23.015 23.9824C22.6195 23.5852 22.154 22.9111 21.753 22.116L19.9673 23.0167ZM19.0214 20.2869C19.1506 21.1217 19.5081 22.1062 19.9673 23.0167L21.753 22.116C21.3523 21.3215 21.0847 20.5425 20.9978 19.981L19.0214 20.2869ZM19.0233 19.1173C18.9451 19.4665 18.957 19.8712 19.0214 20.2869L20.9978 19.981C20.9768 19.8452 20.9693 19.7402 20.9688 19.6642C20.9683 19.5855 20.9754 19.5525 20.9749 19.5547L19.0233 19.1173ZM19.5791 18.2723C19.2525 18.4748 19.0941 18.8014 19.0233 19.1173L20.9749 19.5547C20.9749 19.5548 20.9741 19.5583 20.9722 19.5646C20.9704 19.5709 20.9674 19.5804 20.9627 19.5926C20.9536 19.6167 20.9374 19.6535 20.9105 19.6973C20.8498 19.7964 20.7568 19.8953 20.6329 19.9721L19.5791 18.2723ZM21.2721 17.421L19.6588 18.2278L20.5533 20.0166L22.1666 19.2099L21.2721 17.421ZM21.0686 17.6561C21.1025 17.5538 21.1757 17.4692 21.2721 17.421L22.1666 19.2099C22.5457 19.0203 22.8337 18.6876 22.967 18.2853L21.0686 17.6561ZM21.0914 17.9662C21.0429 17.87 21.0347 17.7584 21.0686 17.6561L22.967 18.2853C23.1004 17.883 23.068 17.4441 22.8772 17.0657L21.0914 17.9662ZM18.3658 12.5609L21.0914 17.9662L22.8772 17.0657L20.1516 11.6605L18.3658 12.5609Z" fill="#101010"/>
</svg>
