<svg width="72" height="65" viewBox="0 0 72 65" fill="none" xmlns="http://www.w3.org/2000/svg">
<path d="M4.875 31.9339C4.875 41.9115 12.9051 50 22.8107 50C30.2403 50 36.6148 45.4498 39.3374 38.965C36.9746 36.1769 35.5393 32.5041 35.5393 28.4795C35.5393 26.2967 35.9615 23.4998 36.725 20.5332C33.4362 16.4657 28.4247 13.8677 22.8107 13.8677C12.9051 13.8677 4.875 21.9562 4.875 31.9339Z" stroke="#101010" stroke-width="2" stroke-linecap="round"/>
<path d="M36.725 20.5332C35.9615 23.4998 35.5393 26.2966 35.5393 28.4795C35.5393 32.5041 36.9746 36.1769 39.3374 38.965M36.725 20.5332C39.0106 11.652 44.3544 1.25 50.5821 1.25C58.8901 1.25 65.625 19.7616 65.625 28.4795C65.625 37.1974 58.8901 44.2647 50.5821 44.2647C46.1095 44.2647 42.0928 42.2164 39.3374 38.965M36.725 20.5332C33.4362 16.4657 28.4247 13.8676 22.8107 13.8676C12.9051 13.8676 4.875 21.9561 4.875 31.9338C4.875 41.9115 12.9051 50 22.8107 50C30.2403 50 36.6148 45.4497 39.3374 38.965" stroke="#101010" stroke-width="2" stroke-linecap="round"/>
<path d="M23.6667 63.5V39.7364M23.6667 22.25V33.9076M23.6667 33.9076L29.625 30.3207M23.6667 33.9076V39.7364M23.6667 39.7364L13.125 34.8043" stroke="#008174" stroke-width="2" stroke-linecap="round"/>
<path d="M50.6705 63.5V33.4397M50.6705 13.25V27.6071M50.6705 27.6071L44.625 24.0179M50.6705 27.6071V33.4397M50.6705 33.4397L58.875 28.5045" stroke="#008174" stroke-width="2" stroke-linecap="round"/>
<path d="M1.875 63.5H70.125" stroke="#101010" stroke-width="2" stroke-linecap="round"/>
</svg>
