<svg width="65" height="83" viewBox="0 0 65 83" fill="none" xmlns="http://www.w3.org/2000/svg">
<path d="M58.8677 42C58.8677 56.7276 47.0624 68.6667 32.4998 68.6667C17.9372 68.6667 6.13184 56.7276 6.13184 42C6.13184 20.7879 32.4998 2 32.4998 2C32.4998 2 58.8677 20.7879 58.8677 42Z" fill="white"/>
<path d="M58.8677 42C58.8677 56.7276 47.0624 68.6667 32.4998 68.6667C17.9372 68.6667 6.13184 56.7276 6.13184 42C6.13184 20.7879 32.4998 2 32.4998 2C32.4998 2 58.8677 20.7879 58.8677 42Z" fill="url(#paint0_linear)" fill-opacity="0.45"/>
<path d="M58.8677 42C58.8677 56.7276 47.0624 68.6667 32.4998 68.6667C17.9372 68.6667 6.13184 56.7276 6.13184 42C6.13184 20.7879 32.4998 2 32.4998 2C32.4998 2 58.8677 20.7879 58.8677 42Z" stroke="#008174" stroke-width="2" stroke-linecap="round"/>
<path d="M32.8408 81.9998V51.9339M32.8408 26.2422V43.37M32.8408 43.37L41.6982 38.0999M32.8408 43.37V51.9339M32.8408 51.9339L17.1699 44.6875" stroke="#008174" stroke-width="2" stroke-linecap="round"/>
<defs>
<linearGradient id="paint0_linear" x1="16.4109" y1="17.0034" x2="62.8289" y2="57.4538" gradientUnits="userSpaceOnUse">
<stop stop-color="#A3DCBE"/>
<stop offset="1" stop-color="#44C0BB"/>
</linearGradient>
</defs>
</svg>
