<svg width="36" height="36" viewBox="0 0 36 36" fill="none" xmlns="http://www.w3.org/2000/svg">
<path d="M4.5 17.7361H1.5M34.5 17.7361H31.5M18 21.2361V24.2361M18 1.23608V4.23608M27.5459 27.282L29.6673 29.4033M6.33274 6.06882L8.45406 8.19014M27.5459 8.19012L29.6673 6.0688M6.33274 29.4033L8.45406 27.282" stroke="#101010" stroke-width="2" stroke-linecap="round"/>
<path d="M9 17.7028C9 12.7537 13.0263 8.73608 18 8.73608C22.9737 8.73608 27 12.7537 27 17.7028C27 20.3709 25.8701 22.7574 24.0395 24.3958C23.1305 25.2094 22.3846 26.3946 22.3846 27.7937V28.7362C22.3846 29.2884 21.937 29.7361 21.3846 29.7361H14.6154C14.063 29.7361 13.6154 29.2884 13.6154 28.7362V27.7396C13.6154 26.3405 12.8698 25.1544 11.9562 24.3419C10.1265 22.7147 9 20.3666 9 17.7028Z" fill="white" stroke="#101010" stroke-width="2" stroke-linecap="round" stroke-linejoin="round"/>
<path d="M14 33.7361H22" stroke="#101010" stroke-width="2" stroke-linecap="round"/>
</svg>
