<svg width="153" height="37" viewBox="0 0 153 37" fill="none" xmlns="http://www.w3.org/2000/svg">
<path d="M18.0326 22.5472C20.459 22.5472 22.4259 20.5696 22.4259 18.13C22.4259 15.6905 20.459 13.7129 18.0326 13.7129C15.6061 13.7129 13.6392 15.6905 13.6392 18.13C13.6392 20.5696 15.6061 22.5472 18.0326 22.5472Z" fill="white"/>
<path d="M18.0326 36.2601C27.976 36.2601 36.0652 28.1273 36.0652 18.1301C36.0652 8.13361 27.976 0 18.0326 0C8.08911 0 0 8.13361 0 18.1301C0 28.1273 8.08911 36.2601 18.0326 36.2601ZM17.9825 2.70043C23.2763 2.70043 27.952 5.40971 30.7113 9.52074C32.3683 11.9797 33.3379 14.9431 33.3379 18.1304C33.3379 21.85 32.0179 25.2646 29.8247 27.9281C27.0079 31.3619 22.7454 33.5543 17.9825 33.5543C9.52196 33.5543 2.63848 26.6344 2.63848 18.1274C2.63887 9.62111 9.52196 2.70043 17.9825 2.70043Z" fill="#008174"/>
<path d="M18.0327 5.48535C11.0979 5.48535 5.45605 11.1577 5.45605 18.1299C5.45605 21.1 6.48651 23.8288 8.19781 25.989V18.413C8.19514 18.318 8.18366 18.2253 8.18366 18.1296C8.18366 18.0338 8.19514 17.9411 8.19781 17.8461V17.6611H8.20699C8.45256 12.4195 12.7595 8.22693 18.0327 8.22693C23.463 8.22693 27.882 12.6698 27.882 18.1296C27.882 23.59 23.463 28.0326 18.0327 28.0326C17.4589 28.0326 16.8997 27.9726 16.3527 27.8776V30.6484C16.9039 30.723 17.462 30.7749 18.0327 30.7749C22.7929 30.7749 26.9426 28.1018 29.0781 24.1707C30.0481 22.374 30.5993 20.315 30.5993 18.1269C30.5993 16.1844 30.1522 14.3512 29.3761 12.7056C27.3515 8.44422 23.0346 5.48535 18.0327 5.48535Z" fill="#A3DCBE"/>
<path d="M10.925 28.6427C11.7616 29.2115 12.6761 29.6684 13.6397 30.0241V25.6447V23.7226C14.8537 24.689 16.3673 25.2905 18.0327 25.2905C21.9602 25.2905 25.1544 22.0786 25.1544 18.1302C25.1544 14.1822 21.9598 10.9707 18.0327 10.9707C14.1537 10.9707 11.0023 14.1072 10.925 17.9883V18.0456V28.6427V28.6427ZM18.0327 13.7127C20.4585 13.7127 22.4257 15.6905 22.4257 18.1302C22.4257 20.5699 20.4585 22.5477 18.0327 22.5477C15.6053 22.5477 13.6397 20.5699 13.6397 18.1302C13.6397 15.6905 15.6053 13.7127 18.0327 13.7127Z" fill="#008174"/>
<path d="M17.9824 33.5537C22.7453 33.5537 27.0079 31.3609 29.8246 27.9274C32.0175 25.2639 33.3379 21.8494 33.3379 18.1298C33.3379 14.9425 32.3686 11.979 30.7112 9.52012C27.9519 5.40947 23.2766 2.7002 17.9824 2.7002C9.5219 2.7002 2.63843 9.62088 2.63843 18.1271C2.63881 26.6341 9.5219 33.5537 17.9824 33.5537ZM30.5992 18.1271C30.5992 20.3153 30.048 22.3743 29.078 24.171C26.9429 28.102 22.7927 30.7752 18.0325 30.7752C17.4615 30.7752 16.9034 30.7233 16.3526 30.6486V27.8778C16.8999 27.9728 17.4588 28.0328 18.0325 28.0328C23.4629 28.0328 27.8819 23.5899 27.8819 18.1298C27.8819 12.6701 23.4629 8.2272 18.0325 8.2272C12.7594 8.2272 8.45243 12.4198 8.20686 17.6614H8.19768V17.8464C8.195 17.9414 8.18353 18.0341 8.18353 18.1298C8.18353 18.2256 8.195 18.3183 8.19768 18.4132V25.9892C6.48638 23.8287 5.45592 21.1002 5.45592 18.1302C5.45592 11.158 11.0978 5.48562 18.0325 5.48562C23.0345 5.48562 27.351 8.44448 29.3759 12.7059C30.152 14.3514 30.5992 16.1847 30.5992 18.1271ZM10.9249 18.0452V17.9879C11.0022 14.1069 14.1536 10.9703 18.0325 10.9703C21.96 10.9703 25.1543 14.1822 25.1543 18.1298C25.1543 22.0786 21.9597 25.2901 18.0325 25.2901C16.3671 25.2901 14.8536 24.6886 13.6395 23.7222V25.6443V30.0237C12.6764 29.668 11.7618 29.2111 10.9249 28.6424V18.0452V18.0452Z" fill="white"/>
<path d="M48.2075 23.5502H48.2634C49.0506 24.68 50.5392 25.3003 51.9423 25.3003C56.014 25.3003 58.317 21.6304 58.317 17.8478C58.317 14.2059 55.9298 10.536 52.0264 10.536C50.5664 10.536 49.1064 11.1852 48.2075 12.2581V10.9875H44.2773V32.2452H48.2075V23.5502ZM51.0717 14.0363C53.0932 14.0363 54.3291 16.0411 54.3291 17.9039C54.3291 19.7676 53.0932 21.8 51.0717 21.8C49.0502 21.8 47.8143 19.7676 47.8143 17.9039C47.8143 16.0407 49.0502 14.0363 51.0717 14.0363Z" fill="#008174"/>
<path d="M64.0725 18.61C64.0725 16.4649 64.354 14.0367 67.077 14.0367C67.6672 14.0367 68.2284 14.2063 68.7057 14.5451L69.1831 10.8744C68.6774 10.6768 68.1159 10.536 67.5544 10.536C66.0944 10.536 64.9155 11.2132 64.1283 12.4269H64.0725V10.9875H60.1408V24.8485H64.0725V18.61Z" fill="#008174"/>
<path d="M76.7363 25.3007C81.0608 25.3007 83.9812 22.2238 83.9812 17.9328C83.9812 13.6129 81.0325 10.536 76.7363 10.536C72.4404 10.536 69.4914 13.6129 69.4914 17.9328C69.4917 22.2238 72.4118 25.3007 76.7363 25.3007ZM76.7363 14.0363C78.7578 14.0363 79.9937 16.0126 79.9937 17.9324C79.9937 19.7956 78.7578 21.8 76.7363 21.8C74.7148 21.8 73.4789 19.7956 73.4789 17.9324C73.4789 16.0126 74.7148 14.0363 76.7363 14.0363Z" fill="#008174"/>
<path d="M92.2647 25.1311L98.6107 10.9875H94.3145L91.4786 18.8073L88.2484 10.9875H83.9254L90.2431 25.1311H92.2647Z" fill="#008174"/>
<path d="M103.665 10.9875H99.7337V24.8485H103.665V10.9875Z" fill="#008174"/>
<path d="M101.699 7.51485C102.987 7.51485 104.03 6.46578 104.03 5.17168C104.03 3.87758 102.987 2.82851 101.699 2.82851C100.412 2.82851 99.3688 3.87758 99.3688 5.17168C99.3688 6.46578 100.412 7.51485 101.699 7.51485Z" fill="#008174"/>
<path d="M110.516 22.2519C109.364 22.2519 108.354 21.49 107.596 20.6425L105.798 22.986C107.007 24.4539 108.803 25.3007 110.657 25.3007C113.549 25.3007 116.02 23.4656 116.02 20.389C116.02 17.9889 114.616 17.0294 113.183 16.408C111.78 15.7869 110.347 15.5046 110.347 14.4882C110.347 13.811 110.993 13.3026 111.638 13.3026C112.425 13.3026 113.156 13.7264 113.717 14.2621L115.402 11.9755C114.279 10.9879 112.426 10.536 110.966 10.536C108.383 10.536 106.585 12.4269 106.585 15.0247C106.585 17.2548 107.961 18.0735 109.337 18.6665C110.713 19.2592 112.089 19.5414 112.089 20.7559C112.089 21.6592 111.387 22.2519 110.516 22.2519Z" fill="#008174"/>
<path d="M122.281 10.9875H118.35V24.8485H122.281V10.9875Z" fill="#008174"/>
<path d="M120.316 7.51524C121.608 7.51524 122.647 6.47037 122.647 5.17168C122.647 3.90107 121.608 2.82812 120.316 2.82812C119.025 2.82812 117.985 3.90107 117.985 5.17168C117.985 6.47037 119.025 7.51524 120.316 7.51524Z" fill="#008174"/>
<path d="M131.547 25.3007C135.872 25.3007 138.792 22.2238 138.792 17.9328C138.792 13.6129 135.845 10.536 131.547 10.536C127.251 10.536 124.304 13.6129 124.304 17.9328C124.304 22.2238 127.224 25.3007 131.547 25.3007ZM131.547 14.0363C133.569 14.0363 134.804 16.0126 134.804 17.9324C134.804 19.7956 133.569 21.8 131.547 21.8C129.526 21.8 128.29 19.7956 128.29 17.9324C128.29 16.0126 129.526 14.0363 131.547 14.0363Z" fill="#008174"/>
<path d="M144.576 17.9886C144.576 16.323 144.605 13.6972 146.935 13.6972C149.154 13.6972 149.07 15.843 149.07 17.5086V24.8485H153V16.3799C153 13.1611 151.934 10.536 148.227 10.536C146.822 10.536 145.447 11.016 144.632 12.2581H144.576V10.9875H140.645V24.8485H144.576V17.9886Z" fill="#008174"/>
</svg>
