<svg width="53" height="50" viewBox="0 0 53 50" fill="none" xmlns="http://www.w3.org/2000/svg">
<path d="M26.4576 48.6249C26.4578 48.625 26.4579 48.625 26.4581 48.625L30.6388 47.6414C31.5245 47.4331 32.4313 47.3279 33.3412 47.3279H36.9209C37.8089 47.3279 38.6911 47.1846 39.5335 46.9035V46.9035C39.9428 46.7669 40.3622 46.6626 40.7879 46.5916L45.1023 45.8719C46.599 45.6222 47.6959 44.3272 47.6959 42.8098V42.8098C47.6959 42.0692 47.9607 41.353 48.4424 40.7904L49.9699 39.0068C50.9378 37.8766 51.4697 36.4377 51.4697 34.9497V34.9497C51.4697 33.9821 51.2446 33.0278 50.8121 32.1621L50.6111 31.7597C50.3456 31.2284 50.1391 30.6697 49.9952 30.0935L49.0472 26.2983C48.9861 26.0535 48.8596 25.8299 48.6812 25.6514V25.6514C48.1371 25.1068 47.2545 25.1068 46.7104 25.6514L46.4378 25.9242L43.2621 29.6325C42.9107 30.0428 42.325 30.1611 41.8419 29.9193V29.9193C41.5629 29.7797 41.3507 29.535 41.2521 29.2389L41.1176 28.8349C40.9027 28.1898 40.9975 27.4818 41.3744 26.9159L43.1977 24.1785C43.261 24.0834 43.3336 23.9948 43.4143 23.914V23.914C43.7393 23.5887 43.9219 23.1477 43.9219 22.6878V20.5187C43.9219 19.949 43.6957 19.4025 43.2929 18.9994V18.9994C42.8902 18.5964 42.6639 18.0499 42.6639 17.4801V17.4511C42.6639 16.4961 42.0529 15.6481 41.1469 15.3458L40.777 15.2224L39.5047 14.904C38.6803 14.6977 37.8909 14.3704 37.1623 13.9329L35.6317 13.0137C35.2945 12.8112 34.9087 12.7042 34.5154 12.7042V12.7042C34.087 12.7042 33.6683 12.8311 33.312 13.0688L33.1524 13.1753C32.4146 13.6675 31.9715 14.4958 31.9715 15.3827V15.9479C31.9715 16.2894 31.8359 16.6169 31.5946 16.8584V16.8584C31.4297 17.0235 31.3127 17.2303 31.2561 17.4567L30.7135 19.6287L30.5125 20.2324C30.257 20.9997 29.539 21.5174 28.7302 21.5174H28.5876C27.9632 21.5174 27.3925 21.8702 27.1135 22.4287V22.4287C26.9993 22.6574 26.9398 22.9095 26.9398 23.1651V24.5166C26.9398 25.4422 26.7245 26.355 26.3108 27.183V27.183C25.8972 28.011 25.6818 28.9239 25.6818 29.8494V30.6454C25.6818 32.0944 26.019 33.5235 26.6665 34.8197L26.9398 35.3667V35.3667C27.76 36.5982 28.1976 38.0448 28.1976 39.5245V41.7807C28.1976 42.9447 27.9268 44.0927 27.4067 45.134L27.1213 45.7053C27.0009 45.9464 26.9144 46.2029 26.8645 46.4677L26.4573 48.6243C26.4573 48.6245 26.4574 48.6248 26.4576 48.6249V48.6249Z" fill="white"/>
<path d="M16.8762 20.2606C16.876 20.2605 16.8759 20.2604 16.8758 20.2602L16.2469 17.7425L16.1995 17.6C15.8199 16.4602 15.1191 15.4544 14.1813 14.7036L13.824 14.4174C12.9496 13.7173 11.8629 13.3359 10.7427 13.3359H9.18619C8.87454 13.3359 8.57567 13.212 8.3554 12.9915V12.9915C8.17072 12.8067 7.92968 12.6887 7.67041 12.6563L3.99371 12.1963C3.38137 12.1196 2.82314 11.807 2.43784 11.325V11.325C1.46935 10.1133 1.90792 8.31314 3.32522 7.68269L5.57685 6.68111C5.97897 6.50224 6.35102 6.26229 6.67984 5.96975L11.4647 1.71292C11.694 1.50886 12.0246 1.46513 12.2991 1.60252V1.60252C12.7175 1.81191 12.8443 2.34899 12.5638 2.7234L11.4647 4.18998C11.303 4.40587 11.2155 4.66838 11.2155 4.93817V4.93817C11.2155 5.70921 11.9079 6.29568 12.6685 6.16881L13.9531 5.9545C14.6125 5.8445 15.2875 6.02041 15.8093 6.43821L16.7505 7.19188C17.6461 7.90896 18.7591 8.29967 19.9064 8.29967H20.8361C21.9249 8.29967 22.9692 7.86686 23.7388 7.09655V7.09655C24.1892 6.64574 24.7384 6.30604 25.3429 6.10435L28.9869 4.88857C29.593 4.68638 30.2481 5.01395 30.45 5.62009V5.62009C30.6073 6.09241 31.0492 6.41104 31.5471 6.41104H32.4059C32.5353 6.41104 32.6645 6.40034 32.7922 6.37904L34.4274 6.10625C35.5267 5.92287 36.5823 6.61503 36.8524 7.69627V7.69627C36.9508 8.09027 36.9343 8.50619 36.8059 8.89149V8.89149C36.543 9.68106 35.8484 10.2539 35.0227 10.3572L31.9943 10.7361C31.5651 10.7898 31.1294 10.7466 30.7192 10.6098V10.6098C29.9172 10.3422 29.0384 10.4387 28.3136 10.874L27.0465 11.6349C26.5651 11.924 26.0142 12.0768 25.4526 12.0768H25.1779C24.314 12.0768 23.5073 12.5087 23.0284 13.2277V13.2277C22.71 13.7058 22.2412 14.0641 21.6963 14.2459L21.5937 14.2802C20.9822 14.4842 20.4563 14.8862 20.0989 15.4227L16.8767 20.2604C16.8766 20.2606 16.8764 20.2606 16.8762 20.2606V20.2606Z" fill="white"/>
<path d="M26.4576 48.6249C26.4578 48.625 26.4579 48.625 26.4581 48.625L30.6388 47.6414C31.5245 47.4331 32.4313 47.3279 33.3412 47.3279H36.9209C37.8089 47.3279 38.6911 47.1846 39.5335 46.9035V46.9035C39.9428 46.7669 40.3622 46.6626 40.7879 46.5916L45.1023 45.8719C46.599 45.6222 47.6959 44.3272 47.6959 42.8098V42.8098C47.6959 42.0692 47.9607 41.353 48.4424 40.7904L49.9699 39.0068C50.9378 37.8766 51.4697 36.4377 51.4697 34.9497V34.9497C51.4697 33.9821 51.2446 33.0278 50.8121 32.1621L50.6111 31.7597C50.3456 31.2284 50.1391 30.6697 49.9952 30.0935L49.0472 26.2983C48.9861 26.0535 48.8596 25.8299 48.6812 25.6514V25.6514C48.1371 25.1068 47.2545 25.1068 46.7104 25.6514L46.4378 25.9242L43.2621 29.6325C42.9107 30.0428 42.325 30.1611 41.8419 29.9193V29.9193C41.5629 29.7797 41.3507 29.535 41.2521 29.2389L41.1176 28.8349C40.9027 28.1898 40.9975 27.4818 41.3744 26.9159L43.1977 24.1785C43.261 24.0834 43.3336 23.9948 43.4143 23.914V23.914C43.7393 23.5887 43.9219 23.1477 43.9219 22.6878V20.5187C43.9219 19.949 43.6957 19.4025 43.2929 18.9994V18.9994C42.8902 18.5964 42.6639 18.0499 42.6639 17.4801V17.4511C42.6639 16.4961 42.0529 15.6481 41.1469 15.3458L40.777 15.2224L39.5047 14.904C38.6803 14.6977 37.8909 14.3704 37.1623 13.9329L35.6317 13.0137C35.2945 12.8112 34.9087 12.7042 34.5154 12.7042V12.7042C34.087 12.7042 33.6683 12.8311 33.312 13.0688L33.1524 13.1753C32.4146 13.6675 31.9715 14.4958 31.9715 15.3827V15.9479C31.9715 16.2894 31.8359 16.6169 31.5946 16.8584V16.8584C31.4297 17.0235 31.3127 17.2303 31.2561 17.4567L30.7135 19.6287L30.5125 20.2324C30.257 20.9997 29.539 21.5174 28.7302 21.5174H28.5876C27.9632 21.5174 27.3925 21.8702 27.1135 22.4287V22.4287C26.9993 22.6574 26.9398 22.9095 26.9398 23.1651V24.5166C26.9398 25.4422 26.7245 26.355 26.3108 27.183V27.183C25.8972 28.011 25.6818 28.9239 25.6818 29.8494V30.6454C25.6818 32.0944 26.019 33.5235 26.6665 34.8197L26.9398 35.3667V35.3667C27.76 36.5982 28.1976 38.0448 28.1976 39.5245V41.7807C28.1976 42.9447 27.9268 44.0927 27.4067 45.134L27.1213 45.7053C27.0009 45.9464 26.9144 46.2029 26.8645 46.4677L26.4573 48.6243C26.4573 48.6245 26.4574 48.6248 26.4576 48.6249V48.6249Z" stroke="#101010" stroke-width="2" stroke-linejoin="round"/>
<path d="M16.8762 20.2606C16.876 20.2605 16.8759 20.2604 16.8758 20.2602L16.2469 17.7425L16.1995 17.6C15.8199 16.4602 15.1191 15.4544 14.1813 14.7036L13.824 14.4174C12.9496 13.7173 11.8629 13.3359 10.7427 13.3359H9.18619C8.87454 13.3359 8.57567 13.212 8.3554 12.9915V12.9915C8.17072 12.8067 7.92968 12.6887 7.67041 12.6563L3.99371 12.1963C3.38137 12.1196 2.82314 11.807 2.43784 11.325V11.325C1.46935 10.1133 1.90792 8.31314 3.32522 7.68269L5.57685 6.68111C5.97897 6.50224 6.35102 6.26229 6.67984 5.96975L11.4647 1.71292C11.694 1.50886 12.0246 1.46513 12.2991 1.60252V1.60252C12.7175 1.81191 12.8443 2.34899 12.5638 2.7234L11.4647 4.18998C11.303 4.40587 11.2155 4.66838 11.2155 4.93817V4.93817C11.2155 5.70921 11.9079 6.29568 12.6685 6.16881L13.9531 5.9545C14.6125 5.8445 15.2875 6.02041 15.8093 6.43821L16.7505 7.19188C17.6461 7.90896 18.7591 8.29967 19.9064 8.29967H20.8361C21.9249 8.29967 22.9692 7.86686 23.7388 7.09655V7.09655C24.1892 6.64574 24.7384 6.30604 25.3429 6.10435L28.9869 4.88857C29.593 4.68638 30.2481 5.01395 30.45 5.62009V5.62009C30.6073 6.09241 31.0492 6.41104 31.5471 6.41104H32.4059C32.5353 6.41104 32.6645 6.40034 32.7922 6.37904L34.4274 6.10625C35.5267 5.92287 36.5823 6.61503 36.8524 7.69627V7.69627C36.9508 8.09027 36.9343 8.50619 36.8059 8.89149V8.89149C36.543 9.68106 35.8484 10.2539 35.0227 10.3572L31.9943 10.7361C31.5651 10.7898 31.1294 10.7466 30.7192 10.6098V10.6098C29.9172 10.3422 29.0384 10.4387 28.3136 10.874L27.0465 11.6349C26.5651 11.924 26.0142 12.0768 25.4526 12.0768H25.1779C24.314 12.0768 23.5073 12.5087 23.0284 13.2277V13.2277C22.71 13.7058 22.2412 14.0641 21.6963 14.2459L21.5937 14.2802C20.9822 14.4842 20.4563 14.8862 20.0989 15.4227L16.8767 20.2604C16.8766 20.2606 16.8764 20.2606 16.8762 20.2606V20.2606Z" stroke="#101010" stroke-width="2" stroke-linejoin="round"/>
</svg>
