<?xml version="1.0" encoding="UTF-8"?> <svg xmlns="http://www.w3.org/2000/svg" width="40" height="38" viewBox="0 0 40 38" fill="none"><path d="M19.7231 36.9999C19.7232 37 19.7233 37 19.7234 37L22.9025 36.2506C23.576 36.0919 24.2657 36.0117 24.9576 36.0117H27.6793C28.3547 36.0117 29.0257 35.9025 29.6663 35.6884V35.6884C29.9775 35.5843 30.2964 35.5049 30.6201 35.4508L33.8964 34.9031C35.0372 34.7125 35.8731 33.7252 35.8731 32.5686V32.5686C35.8731 32.0048 36.0744 31.4594 36.4407 31.0308L37.6012 29.6731C38.3379 28.8111 38.7427 27.7145 38.7427 26.5806V26.5806C38.7427 25.8434 38.5715 25.1163 38.2426 24.4566L38.0898 24.1503C37.888 23.7455 37.7309 23.3198 37.6215 22.8808L36.9004 19.9883C36.854 19.8023 36.7581 19.6325 36.6228 19.4968V19.4968C36.209 19.0818 35.5369 19.0818 35.1232 19.4968L34.9164 19.7041L32.5015 22.5295C32.2344 22.842 31.7886 22.9321 31.4211 22.7478V22.7478C31.2092 22.6416 31.0482 22.4556 30.9734 22.2306L30.8706 21.9212C30.7073 21.43 30.7794 20.891 31.0659 20.46L32.4525 18.3741C32.5007 18.3017 32.5559 18.2341 32.6173 18.1725V18.1725C32.8645 17.9247 33.0032 17.589 33.0032 17.239V15.5851C33.0032 15.1513 32.8312 14.7353 32.5249 14.4281V14.4281C32.2187 14.121 32.0467 13.705 32.0467 13.2712V13.2488C32.0467 12.5209 31.5812 11.8744 30.8907 11.6436L30.6118 11.5504L29.6445 11.3079C29.0175 11.1507 28.4172 10.9013 27.8633 10.568L26.699 9.86745C26.4428 9.71326 26.1494 9.63179 25.8504 9.63179V9.63179C25.5247 9.63179 25.2063 9.7284 24.9356 9.90939L24.8152 9.98982C24.2533 10.3655 23.916 10.9968 23.916 11.6727V12.1036C23.916 12.3635 23.8129 12.6128 23.6294 12.7969V12.7969C23.5039 12.9227 23.415 13.0802 23.372 13.2526L22.9594 14.9076L22.8059 15.3694C22.612 15.9529 22.0662 16.3466 21.4514 16.3466H21.3445C20.8687 16.3466 20.4339 16.6157 20.2216 17.0415V17.0415C20.1349 17.2154 20.0898 17.407 20.0898 17.6013V18.6321C20.0898 19.3371 19.926 20.0324 19.6115 20.6633V20.6633C19.2969 21.2941 19.1332 21.9894 19.1332 22.6944V23.3012C19.1332 24.4053 19.3896 25.4942 19.8823 26.4823L20.0898 26.8984V26.8984C20.7135 27.8368 21.0462 28.9385 21.0462 30.0652V31.7859C21.0462 32.6724 20.8404 33.5467 20.4448 34.3401L20.2278 34.7755C20.1362 34.9591 20.0705 35.1546 20.0325 35.3562L19.7229 36.9994C19.7229 36.9996 19.723 36.9998 19.7231 36.9999V36.9999Z" fill="url(#paint0_linear)" fill-opacity="0.13"></path><path d="M12.4372 15.389C12.4371 15.389 12.437 15.3889 12.437 15.3888L11.9587 13.4705L11.9217 13.359C11.6337 12.4925 11.1016 11.7276 10.3893 11.1561L10.1156 10.9365C9.4512 10.4035 8.6249 10.113 7.77313 10.113H6.59002C6.35281 10.113 6.12535 10.0186 5.95786 9.85066V9.85066C5.81745 9.70985 5.63405 9.61995 5.43674 9.59522L2.64355 9.24506C2.17644 9.1865 1.75069 8.94776 1.45711 8.57974V8.57974C0.72064 7.65652 1.0546 6.28643 2.1333 5.80566L3.84397 5.04322C4.15044 4.90663 4.43394 4.72345 4.68441 4.50018L8.32168 1.25794C8.49637 1.10223 8.74838 1.06886 8.95757 1.17375V1.17375C9.27551 1.33318 9.37191 1.74134 9.15888 2.02616L8.32213 3.14494C8.19919 3.30932 8.13276 3.50907 8.13276 3.71433V3.71433C8.13276 4.30197 8.66056 4.74887 9.24016 4.652L10.2137 4.48927C10.7155 4.4054 11.2293 4.53946 11.6261 4.85783L12.3418 5.43199C13.0226 5.97824 13.8694 6.27594 14.7424 6.27594H15.4469C16.2758 6.27594 17.0706 5.94605 17.6559 5.35911V5.35911C17.9982 5.01575 18.4159 4.75694 18.8758 4.60321L21.6449 3.67751C22.1064 3.52323 22.6055 3.77278 22.759 4.23455V4.23455C22.8786 4.59425 23.2151 4.83698 23.5941 4.83698H24.2461C24.3446 4.83698 24.443 4.82882 24.5402 4.81257L25.7798 4.60537C26.6176 4.46533 27.4222 4.99299 27.6277 5.81716V5.81716C27.7024 6.11675 27.6898 6.43301 27.5924 6.726V6.726C27.3923 7.32799 26.863 7.76501 26.2336 7.84392L23.9333 8.13228C23.607 8.17319 23.2756 8.14029 22.9637 8.036V8.036C22.354 7.83217 21.6856 7.90568 21.1347 8.23714L20.1708 8.81714C19.8049 9.03737 19.3858 9.15373 18.9587 9.15373H18.7517C18.0938 9.15373 17.4796 9.48298 17.1153 10.0308V10.0308C16.8733 10.395 16.5167 10.668 16.102 10.8066L16.0245 10.8325C15.5595 10.9879 15.1597 11.294 14.8883 11.7023L12.4376 15.3889C12.4375 15.389 12.4374 15.3891 12.4372 15.389V15.389Z" fill="url(#paint1_linear)" fill-opacity="0.13"></path><path d="M19.7231 36.9999C19.7232 37 19.7233 37 19.7234 37L22.9025 36.2506C23.576 36.0919 24.2657 36.0117 24.9576 36.0117H27.6793C28.3547 36.0117 29.0257 35.9025 29.6663 35.6884V35.6884C29.9775 35.5843 30.2964 35.5049 30.6201 35.4508L33.8964 34.9031C35.0372 34.7125 35.8731 33.7252 35.8731 32.5686V32.5686C35.8731 32.0048 36.0744 31.4594 36.4407 31.0308L37.6012 29.6731C38.3379 28.8111 38.7427 27.7145 38.7427 26.5806V26.5806C38.7427 25.8434 38.5715 25.1163 38.2426 24.4566L38.0898 24.1503C37.888 23.7455 37.7309 23.3198 37.6215 22.8808L36.9004 19.9883C36.854 19.8023 36.7581 19.6325 36.6228 19.4968V19.4968C36.209 19.0818 35.5369 19.0818 35.1232 19.4968L34.9164 19.7041L32.5015 22.5295C32.2344 22.842 31.7886 22.9321 31.4211 22.7478V22.7478C31.2092 22.6416 31.0482 22.4556 30.9734 22.2306L30.8706 21.9212C30.7073 21.43 30.7794 20.891 31.0659 20.46L32.4525 18.3741C32.5007 18.3017 32.5559 18.2341 32.6173 18.1725V18.1725C32.8645 17.9247 33.0032 17.589 33.0032 17.239V15.5851C33.0032 15.1513 32.8312 14.7353 32.5249 14.4281V14.4281C32.2187 14.121 32.0467 13.705 32.0467 13.2712V13.2488C32.0467 12.5209 31.5812 11.8744 30.8907 11.6436L30.6118 11.5504L29.6445 11.3079C29.0175 11.1507 28.4172 10.9013 27.8633 10.568L26.699 9.86745C26.4428 9.71326 26.1494 9.63179 25.8504 9.63179V9.63179C25.5247 9.63179 25.2063 9.7284 24.9356 9.90939L24.8152 9.98982C24.2533 10.3655 23.916 10.9968 23.916 11.6727V12.1036C23.916 12.3635 23.8129 12.6128 23.6294 12.7969V12.7969C23.5039 12.9227 23.415 13.0802 23.372 13.2526L22.9594 14.9076L22.8059 15.3694C22.612 15.9529 22.0662 16.3466 21.4514 16.3466H21.3445C20.8687 16.3466 20.4339 16.6157 20.2216 17.0415V17.0415C20.1349 17.2154 20.0898 17.407 20.0898 17.6013V18.6321C20.0898 19.3371 19.926 20.0324 19.6115 20.6633V20.6633C19.2969 21.2941 19.1332 21.9894 19.1332 22.6944V23.3012C19.1332 24.4053 19.3896 25.4942 19.8823 26.4823L20.0898 26.8984V26.8984C20.7135 27.8368 21.0462 28.9385 21.0462 30.0652V31.7859C21.0462 32.6724 20.8404 33.5467 20.4448 34.3401L20.2278 34.7755C20.1362 34.9591 20.0705 35.1546 20.0325 35.3562L19.7229 36.9994C19.7229 36.9996 19.723 36.9998 19.7231 36.9999V36.9999Z" stroke="#101010" stroke-width="1.5" stroke-linejoin="round"></path><path d="M12.4372 15.389C12.4371 15.389 12.437 15.3889 12.437 15.3888L11.9587 13.4705L11.9217 13.359C11.6337 12.4925 11.1016 11.7276 10.3893 11.1561L10.1156 10.9365C9.4512 10.4035 8.6249 10.113 7.77313 10.113H6.59002C6.35281 10.113 6.12535 10.0186 5.95786 9.85066V9.85066C5.81745 9.70985 5.63405 9.61995 5.43674 9.59522L2.64355 9.24506C2.17644 9.1865 1.75069 8.94776 1.45711 8.57974V8.57974C0.72064 7.65652 1.0546 6.28643 2.1333 5.80566L3.84397 5.04322C4.15044 4.90663 4.43394 4.72345 4.68441 4.50018L8.32168 1.25794C8.49637 1.10223 8.74838 1.06886 8.95757 1.17375V1.17375C9.27551 1.33318 9.37191 1.74134 9.15888 2.02616L8.32213 3.14494C8.19919 3.30932 8.13276 3.50907 8.13276 3.71433V3.71433C8.13276 4.30197 8.66056 4.74887 9.24016 4.652L10.2137 4.48927C10.7155 4.4054 11.2293 4.53946 11.6261 4.85783L12.3418 5.43199C13.0226 5.97824 13.8694 6.27594 14.7424 6.27594H15.4469C16.2758 6.27594 17.0706 5.94605 17.6559 5.35911V5.35911C17.9982 5.01575 18.4159 4.75694 18.8758 4.60321L21.6449 3.67751C22.1064 3.52323 22.6055 3.77278 22.759 4.23455V4.23455C22.8786 4.59425 23.2151 4.83698 23.5941 4.83698H24.2461C24.3446 4.83698 24.443 4.82882 24.5402 4.81257L25.7798 4.60537C26.6176 4.46533 27.4222 4.99299 27.6277 5.81716V5.81716C27.7024 6.11675 27.6898 6.43301 27.5924 6.726V6.726C27.3923 7.32799 26.863 7.76501 26.2336 7.84392L23.9333 8.13228C23.607 8.17319 23.2756 8.14029 22.9637 8.036V8.036C22.354 7.83217 21.6856 7.90568 21.1347 8.23714L20.1708 8.81714C19.8049 9.03737 19.3858 9.15373 18.9587 9.15373H18.7517C18.0938 9.15373 17.4796 9.48298 17.1153 10.0308V10.0308C16.8733 10.395 16.5167 10.668 16.102 10.8066L16.0245 10.8325C15.5595 10.9879 15.1597 11.294 14.8883 11.7023L12.4376 15.3889C12.4375 15.389 12.4374 15.3891 12.4372 15.389V15.389Z" stroke="#101010" stroke-width="1.5" stroke-linejoin="round"></path><defs><linearGradient id="paint0_linear" x1="19.3723" y1="1" x2="19.3723" y2="37" gradientUnits="userSpaceOnUse"><stop stop-color="#A3DCBE"></stop><stop offset="1" stop-color="#44C0BB"></stop></linearGradient><linearGradient id="paint1_linear" x1="19.3723" y1="1" x2="19.3723" y2="37" gradientUnits="userSpaceOnUse"><stop stop-color="#A3DCBE"></stop><stop offset="1" stop-color="#44C0BB"></stop></linearGradient></defs></svg> 