<?xml version="1.0" encoding="UTF-8"?> <svg xmlns="http://www.w3.org/2000/svg" width="67" height="67" viewBox="0 0 67 67" fill="none"><path d="M37.5 16L38.4861 16.1662C38.5613 15.7201 38.3276 15.2791 37.9162 15.0907C37.5049 14.9024 37.0183 15.0138 36.7298 15.3622L37.5 16ZM21 35.9268L20.2298 35.2891C19.9827 35.5875 19.9302 36.0018 20.0951 36.3524C20.26 36.703 20.6125 36.9268 21 36.9268V35.9268ZM32 35.9268L32.9881 36.0805C33.033 35.7919 32.9495 35.4981 32.7595 35.2763C32.5695 35.0545 32.2921 34.9268 32 34.9268V35.9268ZM29.5 52L28.5119 51.8463C28.4419 52.2965 28.6849 52.737 29.1031 52.9178C29.5212 53.0987 30.0087 52.974 30.2887 52.6147L29.5 52ZM46 30.8293L46.7887 31.444C47.0236 31.1426 47.0662 30.7337 46.8985 30.3904C46.7308 30.047 46.3821 29.8293 46 29.8293V30.8293ZM35 30.8293L34.0139 30.663C33.965 30.9532 34.0464 31.2502 34.2364 31.4749C34.4264 31.6996 34.7057 31.8293 35 31.8293V30.8293ZM36.7298 15.3622L20.2298 35.2891L21.7702 36.5646L38.2702 16.6378L36.7298 15.3622ZM21 36.9268H32V34.9268H21V36.9268ZM31.0119 35.7731L28.5119 51.8463L30.4881 52.1537L32.9881 36.0805L31.0119 35.7731ZM30.2887 52.6147L46.7887 31.444L45.2113 30.2145L28.7113 51.3853L30.2887 52.6147ZM46 29.8293H35V31.8293H46V29.8293ZM35.9861 30.9955L38.4861 16.1662L36.5139 15.8338L34.0139 30.663L35.9861 30.9955Z" fill="#101010"></path><path d="M34.5 1C34.5 0.447715 34.0523 0 33.5 0C32.9477 0 32.5 0.447715 32.5 1H34.5ZM32.5 7.60156C32.5 8.15385 32.9477 8.60156 33.5 8.60156C34.0523 8.60156 34.5 8.15385 34.5 7.60156H32.5ZM34.5 59.3984C34.5 58.8462 34.0523 58.3984 33.5 58.3984C32.9477 58.3984 32.5 58.8462 32.5 59.3984H34.5ZM32.5 66C32.5 66.5523 32.9477 67 33.5 67C34.0523 67 34.5 66.5523 34.5 66H32.5ZM66 34.5C66.5523 34.5 67 34.0523 67 33.5C67 32.9477 66.5523 32.5 66 32.5V34.5ZM59.3984 32.5C58.8462 32.5 58.3984 32.9477 58.3984 33.5C58.3984 34.0523 58.8462 34.5 59.3984 34.5V32.5ZM7.60156 34.5C8.15385 34.5 8.60156 34.0523 8.60156 33.5C8.60156 32.9477 8.15385 32.5 7.60156 32.5V34.5ZM1 32.5C0.447715 32.5 0 32.9477 0 33.5C0 34.0523 0.447715 34.5 1 34.5V32.5ZM55.7739 57.1881C56.1644 57.5786 56.7976 57.5786 57.1881 57.1881C57.5786 56.7976 57.5786 56.1644 57.1881 55.7739L55.7739 57.1881ZM52.5201 51.1059C52.1295 50.7153 51.4964 50.7153 51.1059 51.1059C50.7153 51.4964 50.7153 52.1295 51.1059 52.5201L52.5201 51.1059ZM14.4799 15.8941C14.8705 16.2847 15.5036 16.2847 15.8941 15.8941C16.2847 15.5036 16.2847 14.8705 15.8941 14.4799L14.4799 15.8941ZM11.2261 9.81192C10.8356 9.4214 10.2024 9.4214 9.81193 9.81192C9.4214 10.2024 9.4214 10.8356 9.81193 11.2261L11.2261 9.81192ZM9.81195 55.7739C9.42143 56.1644 9.42143 56.7976 9.81195 57.1881C10.2025 57.5786 10.8356 57.5786 11.2262 57.1881L9.81195 55.7739ZM15.8942 52.5201C16.2847 52.1296 16.2847 51.4964 15.8942 51.1059C15.5036 50.7154 14.8705 50.7154 14.48 51.1059L15.8942 52.5201ZM51.1059 14.48C50.7154 14.8705 50.7154 15.5036 51.1059 15.8942C51.4964 16.2847 52.1296 16.2847 52.5201 15.8942L51.1059 14.48ZM57.1881 11.2262C57.5786 10.8356 57.5786 10.2025 57.1881 9.81194C56.7976 9.42142 56.1644 9.42142 55.7739 9.81194L57.1881 11.2262ZM32.5 1V7.60156H34.5V1H32.5ZM32.5 59.3984V66H34.5V59.3984H32.5ZM66 32.5H59.3984V34.5H66V32.5ZM7.60156 32.5H1V34.5H7.60156V32.5ZM57.1881 55.7739L52.5201 51.1059L51.1059 52.5201L55.7739 57.1881L57.1881 55.7739ZM15.8941 14.4799L11.2261 9.81192L9.81193 11.2261L14.4799 15.8941L15.8941 14.4799ZM11.2262 57.1881L15.8942 52.5201L14.48 51.1059L9.81195 55.7739L11.2262 57.1881ZM52.5201 15.8942L57.1881 11.2262L55.7739 9.81194L51.1059 14.48L52.5201 15.8942Z" fill="#008174"></path></svg> 