<?xml version="1.0" encoding="UTF-8"?> <svg xmlns="http://www.w3.org/2000/svg" width="71" height="65" viewBox="0 0 71 65" fill="none"><path d="M4.375 31.9339C4.375 41.9115 12.4051 50 22.3107 50C29.7403 50 36.1148 45.4498 38.8374 38.965C36.4746 36.1769 35.0393 32.5041 35.0393 28.4795C35.0393 26.2967 35.4615 23.4998 36.225 20.5332C32.9362 16.4657 27.9247 13.8677 22.3107 13.8677C12.4051 13.8677 4.375 21.9562 4.375 31.9339Z" stroke="#101010" stroke-width="2" stroke-linecap="round"></path><path d="M36.225 20.5332C35.4615 23.4998 35.0393 26.2966 35.0393 28.4795C35.0393 32.5041 36.4746 36.1769 38.8374 38.965M36.225 20.5332C38.5106 11.652 43.8544 1.25 50.0821 1.25C58.3901 1.25 65.125 19.7616 65.125 28.4795C65.125 37.1974 58.3901 44.2647 50.0821 44.2647C45.6095 44.2647 41.5928 42.2164 38.8374 38.965M36.225 20.5332C32.9362 16.4657 27.9247 13.8676 22.3107 13.8676C12.4051 13.8676 4.375 21.9561 4.375 31.9338C4.375 41.9115 12.4051 50 22.3107 50C29.7403 50 36.1148 45.4497 38.8374 38.965" stroke="#101010" stroke-width="2" stroke-linecap="round"></path><path d="M23.1667 63.5V39.7364M23.1667 22.25V33.9076M23.1667 33.9076L29.125 30.3207M23.1667 33.9076V39.7364M23.1667 39.7364L12.625 34.8043" stroke="#008174" stroke-width="2" stroke-linecap="round"></path><path d="M50.1705 63.5V33.4397M50.1705 13.25V27.6071M50.1705 27.6071L44.125 24.0179M50.1705 27.6071V33.4397M50.1705 33.4397L58.375 28.5045" stroke="#008174" stroke-width="2" stroke-linecap="round"></path><path d="M1.375 63.5H69.625" stroke="#101010" stroke-width="2" stroke-linecap="round"></path></svg> 