<svg width="68" height="67" viewBox="0 0 68 67" fill="none" xmlns="http://www.w3.org/2000/svg">
<path d="M21.5 35.9268L38 16L35.5 30.8293H46.5L30 52L32.5 35.9268H21.5Z" fill="white"/>
<path d="M38 16L38.9861 16.1662C39.0613 15.7201 38.8276 15.2791 38.4162 15.0907C38.0049 14.9024 37.5183 15.0138 37.2298 15.3622L38 16ZM21.5 35.9268L20.7298 35.2891C20.4827 35.5875 20.4302 36.0018 20.5951 36.3524C20.76 36.703 21.1125 36.9268 21.5 36.9268V35.9268ZM32.5 35.9268L33.4881 36.0805C33.533 35.7919 33.4495 35.4981 33.2595 35.2763C33.0695 35.0545 32.7921 34.9268 32.5 34.9268V35.9268ZM30 52L29.0119 51.8463C28.9419 52.2965 29.1849 52.737 29.6031 52.9178C30.0212 53.0987 30.5087 52.974 30.7887 52.6147L30 52ZM46.5 30.8293L47.2887 31.444C47.5236 31.1426 47.5662 30.7337 47.3985 30.3904C47.2308 30.047 46.8821 29.8293 46.5 29.8293V30.8293ZM35.5 30.8293L34.5139 30.663C34.465 30.9532 34.5464 31.2502 34.7364 31.4749C34.9264 31.6996 35.2057 31.8293 35.5 31.8293V30.8293ZM37.2298 15.3622L20.7298 35.2891L22.2702 36.5646L38.7702 16.6378L37.2298 15.3622ZM21.5 36.9268H32.5V34.9268H21.5V36.9268ZM31.5119 35.7731L29.0119 51.8463L30.9881 52.1537L33.4881 36.0805L31.5119 35.7731ZM30.7887 52.6147L47.2887 31.444L45.7113 30.2145L29.2113 51.3853L30.7887 52.6147ZM46.5 29.8293H35.5V31.8293H46.5V29.8293ZM36.4861 30.9955L38.9861 16.1662L37.0139 15.8338L34.5139 30.663L36.4861 30.9955Z" fill="#101010"/>
<path d="M35 1C35 0.447715 34.5523 0 34 0C33.4477 0 33 0.447715 33 1H35ZM33 7.60156C33 8.15385 33.4477 8.60156 34 8.60156C34.5523 8.60156 35 8.15385 35 7.60156H33ZM35 59.3984C35 58.8462 34.5523 58.3984 34 58.3984C33.4477 58.3984 33 58.8462 33 59.3984H35ZM33 66C33 66.5523 33.4477 67 34 67C34.5523 67 35 66.5523 35 66H33ZM66.5 34.5C67.0523 34.5 67.5 34.0523 67.5 33.5C67.5 32.9477 67.0523 32.5 66.5 32.5V34.5ZM59.8984 32.5C59.3462 32.5 58.8984 32.9477 58.8984 33.5C58.8984 34.0523 59.3462 34.5 59.8984 34.5V32.5ZM8.10156 34.5C8.65385 34.5 9.10156 34.0523 9.10156 33.5C9.10156 32.9477 8.65385 32.5 8.10156 32.5V34.5ZM1.5 32.5C0.947715 32.5 0.5 32.9477 0.5 33.5C0.5 34.0523 0.947715 34.5 1.5 34.5V32.5ZM56.2739 57.1881C56.6644 57.5786 57.2976 57.5786 57.6881 57.1881C58.0786 56.7976 58.0786 56.1644 57.6881 55.7739L56.2739 57.1881ZM53.0201 51.1059C52.6295 50.7153 51.9964 50.7153 51.6059 51.1059C51.2153 51.4964 51.2153 52.1295 51.6059 52.5201L53.0201 51.1059ZM14.9799 15.8941C15.3705 16.2847 16.0036 16.2847 16.3941 15.8941C16.7847 15.5036 16.7847 14.8705 16.3941 14.4799L14.9799 15.8941ZM11.7261 9.81192C11.3356 9.4214 10.7024 9.4214 10.3119 9.81192C9.9214 10.2024 9.9214 10.8356 10.3119 11.2261L11.7261 9.81192ZM10.3119 55.7739C9.92143 56.1644 9.92143 56.7976 10.312 57.1881C10.7025 57.5786 11.3356 57.5786 11.7262 57.1881L10.3119 55.7739ZM16.3942 52.5201C16.7847 52.1296 16.7847 51.4964 16.3942 51.1059C16.0036 50.7154 15.3705 50.7154 14.98 51.1059L16.3942 52.5201ZM51.6059 14.48C51.2154 14.8705 51.2154 15.5036 51.6059 15.8942C51.9964 16.2847 52.6296 16.2847 53.0201 15.8942L51.6059 14.48ZM57.6881 11.2262C58.0786 10.8356 58.0786 10.2025 57.6881 9.81194C57.2976 9.42142 56.6644 9.42142 56.2739 9.81194L57.6881 11.2262ZM33 1V7.60156H35V1H33ZM33 59.3984V66H35V59.3984H33ZM66.5 32.5H59.8984V34.5H66.5V32.5ZM8.10156 32.5H1.5V34.5H8.10156V32.5ZM57.6881 55.7739L53.0201 51.1059L51.6059 52.5201L56.2739 57.1881L57.6881 55.7739ZM16.3941 14.4799L11.7261 9.81192L10.3119 11.2261L14.9799 15.8941L16.3941 14.4799ZM11.7262 57.1881L16.3942 52.5201L14.98 51.1059L10.3119 55.7739L11.7262 57.1881ZM53.0201 15.8942L57.6881 11.2262L56.2739 9.81194L51.6059 14.48L53.0201 15.8942Z" fill="url(#paint0_linear)"/>
<defs>
<linearGradient id="paint0_linear" x1="34" y1="1" x2="34" y2="66" gradientUnits="userSpaceOnUse">
<stop stop-color="#44C0BB"/>
<stop offset="1" stop-color="#F9423A"/>
</linearGradient>
</defs>
</svg>
