<svg width="24" height="24" viewBox="0 0 24 24" fill="none" xmlns="http://www.w3.org/2000/svg">
<path d="M2.95298 11.0088C2.40556 10.4825 1.53512 10.4996 1.00881 11.047C0.482494 11.5944 0.499603 12.4649 1.04702 12.9912L2.95298 11.0088ZM9.2807 19L8.32773 19.9912C8.87177 20.5143 9.73573 20.5011 10.2635 19.9616L9.2807 19ZM22.9828 6.9616C23.5139 6.4188 23.5044 5.54825 22.9616 5.01718C22.4188 4.4861 21.5483 4.4956 21.0172 5.0384L22.9828 6.9616ZM1.04702 12.9912L8.32773 19.9912L10.2337 18.0088L2.95298 11.0088L1.04702 12.9912ZM10.2635 19.9616L22.9828 6.9616L21.0172 5.0384L8.29788 18.0384L10.2635 19.9616Z" fill="#008174"/>
</svg>
