<svg width="6" height="10" viewBox="0 0 6 10" fill="none" xmlns="http://www.w3.org/2000/svg">
<path d="M1.97669 6.32293H3.51669L3.60469 5.26693C4.66069 5.02493 5.37569 4.07893 5.37569 3.00093C5.37569 1.64793 4.36369 0.635925 3.01069 0.635925C1.67969 0.635925 0.612687 1.68093 0.678687 3.01193H2.28469V2.87993C2.28469 2.43993 2.52669 1.97793 3.02169 1.97793C3.52769 1.97793 3.78069 2.50593 3.78069 2.94593C3.78069 3.73793 3.10969 4.17793 2.37269 4.17793C2.24069 4.17793 2.10869 4.16693 1.97669 4.13393V6.32293ZM2.76869 7.41193C2.22969 7.41193 1.78969 7.84093 1.78969 8.37993C1.78969 8.91893 2.22969 9.36993 2.76869 9.36993C3.30769 9.36993 3.74769 8.91893 3.74769 8.37993C3.74769 7.84093 3.30769 7.41193 2.76869 7.41193Z" fill="#101010"/>
</svg>
