<svg width="62" height="42" viewBox="0 0 62 42" fill="none" xmlns="http://www.w3.org/2000/svg">
<path d="M11 21C11 9.95503 19.955 1 31 1C42.045 1 51 9.95503 51 21C51 32.045 42.045 41 31 41C19.955 41 11 32.045 11 21Z" fill="white" stroke="#008174" stroke-width="2"/>
<path d="M36.0235 31.6827C29.115 34.77 18.394 14.3945 25.1469 10.9515L27.1215 10L30.3958 16.2498L28.4417 17.1903C26.3883 18.2665 30.6639 26.4302 32.7642 25.4347L34.6995 24.5089L38 30.7367L36.0235 31.6827Z" fill="#008174"/>
<path d="M7.85693 4.54736C8.15923 4.08516 8.0296 3.46541 7.5674 3.16311C7.10519 2.8608 6.48544 2.99043 6.18314 3.45264L7.85693 4.54736ZM55.8169 3.45264C55.5146 2.99043 54.8948 2.8608 54.4326 3.16311C53.9704 3.46541 53.8408 4.08516 54.1431 4.54736L55.8169 3.45264ZM54.1431 37.4526C53.8408 37.9148 53.9704 38.5346 54.4326 38.8369C54.8948 39.1392 55.5146 39.0096 55.8169 38.5474L54.1431 37.4526ZM6.18314 38.5474C6.48544 39.0096 7.10519 39.1392 7.5674 38.8369C8.0296 38.5346 8.15923 37.9148 7.85693 37.4526L6.18314 38.5474ZM6.18314 3.45264C2.91068 8.45607 1 14.4987 1 21H3C3 14.8945 4.79349 9.23121 7.85693 4.54736L6.18314 3.45264ZM61 21C61 14.4987 59.0893 8.45607 55.8169 3.45264L54.1431 4.54736C57.2065 9.23121 59 14.8945 59 21H61ZM55.8169 38.5474C59.0893 33.5439 61 27.5013 61 21H59C59 27.1055 57.2065 32.7688 54.1431 37.4526L55.8169 38.5474ZM1 21C1 27.5013 2.91068 33.5439 6.18314 38.5474L7.85693 37.4526C4.79349 32.7688 3 27.1055 3 21H1Z" fill="#4EC85A"/>
</svg>
