<svg width="960" height="611" viewBox="0 0 960 611" fill="none" xmlns="http://www.w3.org/2000/svg">
<mask id="path-1-inside-1" fill="white">
<path fill-rule="evenodd" clip-rule="evenodd" d="M817.172 341C781.8 494.526 644.269 609 480 609C315.732 609 178.201 494.526 142.828 341H817.172Z"/>
</mask>
<path fill-rule="evenodd" clip-rule="evenodd" d="M817.172 341C781.8 494.526 644.269 609 480 609C315.732 609 178.201 494.526 142.828 341H817.172Z" fill="#008174" fill-opacity="0.06"/>
<path d="M817.172 341L818.147 341.225L818.429 340H817.172V341ZM142.828 341V340H141.572L141.854 341.225L142.828 341ZM816.198 340.775C780.928 493.858 643.792 608 480 608V610C644.745 610 782.672 495.194 818.147 341.225L816.198 340.775ZM480 608C316.208 608 179.073 493.858 143.803 340.775L141.854 341.225C177.328 495.194 315.256 610 480 610V608ZM142.828 342H817.172V340H142.828V342Z" fill="#101010" fill-opacity="0.5" mask="url(#path-1-inside-1)"/>
<path d="M270 339H226L233.5 246.315L261 239H261.908L270 339Z" stroke="#101010" stroke-linejoin="round"/>
<path d="M264.5 273H231.5L267 304H228.5L270 338.5" stroke="#101010" stroke-linejoin="round"/>
<path d="M277.636 218.485L204.287 238.139C200.172 239.241 197.73 243.471 198.832 247.586C199.935 251.701 204.165 254.143 208.279 253.04L281.628 233.386L277.636 218.485Z" fill="#101010" fill-opacity="0.05" stroke="#101010" stroke-linejoin="round"/>
<path d="M274.246 204.828C273.96 203.761 274.593 202.664 275.66 202.378L287.391 199.235C288.146 199.033 288.956 199.294 289.449 199.9C301.597 214.843 303.741 224.369 300.591 241.437C300.452 242.189 299.889 242.795 299.151 242.993L287.388 246.145C286.321 246.431 285.224 245.798 284.938 244.731L274.246 204.828Z" fill="#101010" fill-opacity="0.05" stroke="#101010" stroke-linejoin="round"/>
<path d="M206.5 253.5V302" stroke="#101010"/>
<path d="M218 339V302H200L192 315.5V339H218Z" fill="#101010" fill-opacity="0.05" stroke="#101010" stroke-linejoin="round"/>
<path d="M293 245V315" stroke="#101010"/>
<path d="M286 322C286 318.134 289.134 315 293 315C296.866 315 300 318.134 300 322V339H286V322Z" fill="#101010" fill-opacity="0.05" stroke="#101010" stroke-linejoin="round"/>
<path d="M379.466 448.941L379.466 448.941C373.622 446.908 367.785 444.878 360.397 442.593L359.684 442.372C343.314 437.308 326.787 432.195 303.188 431.813C286.201 431.539 273.198 436.323 271.92 460.2C269.722 501.292 356.52 553.319 471.993 559.018C572.566 563.982 675.202 514.591 677.278 476.926C679.185 442.326 643.721 432.781 600.206 430.633C532.967 427.315 478.703 477.985 410.283 458.752C396.682 454.929 388.066 451.932 379.466 448.941Z" fill="#101010" fill-opacity="0.05" stroke="#101010" stroke-opacity="0.5"/>
<path d="M299.481 345.5C299.226 348.856 296.422 351.5 293 351.5C289.578 351.5 286.774 348.856 286.519 345.5H299.481Z" fill="#101010" fill-opacity="0.05" stroke="#101010"/>
<path d="M293 352V469" stroke="#101010" stroke-linecap="round" stroke-dasharray="12 12"/>
<path d="M346.14 338.719H459.86V267.87L403 217.152L346.14 267.87V338.719Z" fill="#101010" fill-opacity="0.05"/>
<path d="M459.86 267.87V338.719H346.14V267.87M459.86 267.87L403 217.152L346.14 267.87M459.86 267.87L470 276.695M346.14 267.87L336 276.695" stroke="#101010" stroke-linejoin="round"/>
<path d="M363.629 286.224H382.377V314.972H363.629V286.224Z" fill="white"/>
<path d="M382.377 286.224H401.125V314.972H382.377V286.224Z" fill="white"/>
<path d="M416.749 286.224H442.371V338.719H416.749V286.224Z" fill="white"/>
<path d="M382.377 286.224H363.629V314.972H382.377M382.377 286.224V314.972M382.377 286.224H401.125V314.972H382.377M416.749 286.224H442.371V338.719H416.749V286.224Z" stroke="#101010" stroke-linejoin="round"/>
<g clip-path="url(#clip0)">
<rect x="426" y="245.219" width="59" height="59" rx="29.5" fill="white"/>
<path d="M444.438 276.298L457.958 259.969L455.91 272.121H464.924L451.403 289.469L453.451 276.298H444.438Z" fill="#101010" fill-opacity="0.05" stroke="#101010" stroke-linejoin="round"/>
<path fill-rule="evenodd" clip-rule="evenodd" d="M455.501 303.399C471.341 303.399 484.181 290.559 484.181 274.719C484.181 258.879 471.341 246.038 455.501 246.038C439.661 246.038 426.82 258.879 426.82 274.719C426.82 290.559 439.661 303.399 455.501 303.399ZM455.501 299.416C469.141 299.416 480.198 288.359 480.198 274.719C480.198 261.079 469.141 250.022 455.501 250.022C441.861 250.022 430.804 261.079 430.804 274.719C430.804 288.359 441.861 299.416 455.501 299.416Z" fill="#101010" fill-opacity="0.05" stroke="#101010" stroke-linejoin="round"/>
</g>
<circle cx="508.5" cy="118.5" r="18.5" fill="#101010" fill-opacity="0.05" stroke="#101010" stroke-linejoin="round"/>
<path d="M504.348 114.354C503.48 113.497 502.287 113 501.108 113C498.333 113 496 115.404 496 118.362C496 121.277 498.372 123.696 501.095 123.696C502.3 123.696 503.428 123.212 504.348 122.397V121.485C503.622 122.424 502.196 123.074 501.069 123.074C499.915 123.074 498.748 122.466 497.932 121.637C497.115 120.78 496.622 119.633 496.622 118.417C496.622 115.86 498.632 113.622 501.069 113.622C502.274 113.622 503.597 114.285 504.348 115.266V114.354Z" fill="#101010"/>
<path d="M510.576 113C507.815 113 505.507 115.418 505.507 118.348C505.507 121.277 507.828 123.696 510.576 123.696C513.324 123.696 515.645 121.277 515.645 118.348C515.645 115.418 513.324 113 510.576 113ZM510.576 113.622C513 113.622 515.022 115.778 515.022 118.348C515.022 120.904 513 123.074 510.576 123.074C508.139 123.074 506.13 120.918 506.13 118.348C506.13 115.778 508.139 113.622 510.576 113.622Z" fill="#101010"/>
<path d="M517.939 124.461L519.631 122.34C519.883 122.029 520 121.663 520 121.241C520 120.336 519.281 119.701 518.464 119.701C517.602 119.701 516.973 120.398 516.954 121.31H517.498C517.511 120.702 517.893 120.239 518.483 120.239C519.015 120.239 519.456 120.668 519.456 121.248C519.456 121.587 519.319 121.87 519.125 122.119L516.837 125H520V124.461H517.939Z" fill="#101010"/>
<path d="M504.348 114.354C503.48 113.497 502.287 113 501.108 113C498.333 113 496 115.404 496 118.362C496 121.277 498.372 123.696 501.095 123.696C502.3 123.696 503.428 123.212 504.348 122.397V121.485C503.622 122.424 502.196 123.074 501.069 123.074C499.915 123.074 498.748 122.466 497.932 121.637C497.115 120.78 496.622 119.633 496.622 118.417C496.622 115.86 498.632 113.622 501.069 113.622C502.274 113.622 503.597 114.285 504.348 115.266V114.354Z" stroke="#101010" stroke-width="0.6"/>
<path d="M510.576 113C507.815 113 505.507 115.418 505.507 118.348C505.507 121.277 507.828 123.696 510.576 123.696C513.324 123.696 515.645 121.277 515.645 118.348C515.645 115.418 513.324 113 510.576 113ZM510.576 113.622C513 113.622 515.022 115.778 515.022 118.348C515.022 120.904 513 123.074 510.576 123.074C508.139 123.074 506.13 120.918 506.13 118.348C506.13 115.778 508.139 113.622 510.576 113.622Z" stroke="#101010" stroke-width="0.6"/>
<path d="M517.939 124.461L519.631 122.34C519.883 122.029 520 121.663 520 121.241C520 120.336 519.281 119.701 518.464 119.701C517.602 119.701 516.973 120.398 516.954 121.31H517.498C517.511 120.702 517.893 120.239 518.483 120.239C519.015 120.239 519.456 120.668 519.456 121.248C519.456 121.587 519.319 121.87 519.125 122.119L516.837 125H520V124.461H517.939Z" stroke="#101010" stroke-width="0.6"/>
<circle cx="448.5" cy="184.5" r="18.5" fill="#101010" fill-opacity="0.05" stroke="#101010" stroke-linejoin="round"/>
<path d="M444.348 180.354C443.48 179.497 442.287 179 441.108 179C438.333 179 436 181.404 436 184.362C436 187.277 438.372 189.696 441.095 189.696C442.3 189.696 443.428 189.212 444.348 188.397V187.485C443.622 188.424 442.196 189.074 441.069 189.074C439.915 189.074 438.748 188.466 437.932 187.637C437.115 186.78 436.622 185.633 436.622 184.417C436.622 181.86 438.632 179.622 441.069 179.622C442.274 179.622 443.597 180.285 444.348 181.266V180.354Z" fill="#101010"/>
<path d="M450.576 179C447.815 179 445.507 181.418 445.507 184.348C445.507 187.277 447.828 189.696 450.576 189.696C453.324 189.696 455.645 187.277 455.645 184.348C455.645 181.418 453.324 179 450.576 179ZM450.576 179.622C453 179.622 455.022 181.778 455.022 184.348C455.022 186.904 453 189.074 450.576 189.074C448.139 189.074 446.13 186.918 446.13 184.348C446.13 181.778 448.139 179.622 450.576 179.622Z" fill="#101010"/>
<path d="M457.939 190.461L459.631 188.34C459.883 188.029 460 187.663 460 187.241C460 186.336 459.281 185.701 458.464 185.701C457.602 185.701 456.973 186.398 456.954 187.31H457.498C457.511 186.702 457.893 186.239 458.483 186.239C459.015 186.239 459.456 186.668 459.456 187.248C459.456 187.587 459.319 187.87 459.125 188.119L456.837 191H460V190.461H457.939Z" fill="#101010"/>
<path d="M444.348 180.354C443.48 179.497 442.287 179 441.108 179C438.333 179 436 181.404 436 184.362C436 187.277 438.372 189.696 441.095 189.696C442.3 189.696 443.428 189.212 444.348 188.397V187.485C443.622 188.424 442.196 189.074 441.069 189.074C439.915 189.074 438.748 188.466 437.932 187.637C437.115 186.78 436.622 185.633 436.622 184.417C436.622 181.86 438.632 179.622 441.069 179.622C442.274 179.622 443.597 180.285 444.348 181.266V180.354Z" stroke="#101010" stroke-width="0.6"/>
<path d="M450.576 179C447.815 179 445.507 181.418 445.507 184.348C445.507 187.277 447.828 189.696 450.576 189.696C453.324 189.696 455.645 187.277 455.645 184.348C455.645 181.418 453.324 179 450.576 179ZM450.576 179.622C453 179.622 455.022 181.778 455.022 184.348C455.022 186.904 453 189.074 450.576 189.074C448.139 189.074 446.13 186.918 446.13 184.348C446.13 181.778 448.139 179.622 450.576 179.622Z" stroke="#101010" stroke-width="0.6"/>
<path d="M457.939 190.461L459.631 188.34C459.883 188.029 460 187.663 460 187.241C460 186.336 459.281 185.701 458.464 185.701C457.602 185.701 456.973 186.398 456.954 187.31H457.498C457.511 186.702 457.893 186.239 458.483 186.239C459.015 186.239 459.456 186.668 459.456 187.248C459.456 187.587 459.319 187.87 459.125 188.119L456.837 191H460V190.461H457.939Z" stroke="#101010" stroke-width="0.6"/>
<path d="M541.729 270.776C541.729 292.815 559.466 310.681 581.346 310.681C597.756 310.681 611.837 300.63 617.85 286.306C612.631 280.148 609.461 272.035 609.461 263.146C609.461 258.324 610.394 252.146 612.08 245.594C604.816 236.609 593.746 230.87 581.346 230.87C559.466 230.87 541.729 248.737 541.729 270.776Z" fill="white" stroke="#101010" stroke-linecap="round"/>
<path d="M675.915 263.145C675.915 282.402 661.039 298.012 642.688 298.012C632.809 298.012 623.936 293.488 617.85 286.306C612.631 280.148 609.461 272.035 609.461 263.145C609.461 258.324 610.394 252.146 612.08 245.593C617.128 225.976 628.932 203 642.688 203C661.039 203 675.915 243.889 675.915 263.145Z" fill="url(#paint0_linear)"/>
<path d="M612.08 245.593C610.394 252.146 609.461 258.324 609.461 263.145C609.461 272.035 612.631 280.148 617.85 286.306M612.08 245.593C617.128 225.976 628.932 203 642.688 203C661.039 203 675.915 243.889 675.915 263.145C675.915 282.402 661.039 298.012 642.688 298.012C632.809 298.012 623.936 293.488 617.85 286.306M612.08 245.593C604.816 236.609 593.746 230.87 581.346 230.87C559.466 230.87 541.729 248.736 541.729 270.776C541.729 292.815 559.466 310.681 581.346 310.681C597.756 310.681 611.837 300.63 617.85 286.306" stroke="#101010" stroke-linecap="round"/>
<path d="M583.236 340.5V288.01M583.236 249.386V275.135M583.236 275.135L596.397 267.212M583.236 275.135V288.01M583.236 288.01L559.951 277.116" stroke="#101010" stroke-linecap="round"/>
<path d="M642.883 340.5V274.102M642.883 229.506V261.219M642.883 261.219L629.529 253.29M642.883 261.219V274.102M642.883 274.102L661.005 263.201" stroke="#101010" stroke-linecap="round"/>
<circle cx="547.5" cy="170.5" r="4.5" fill="#101010" fill-opacity="0.05" stroke="#101010" stroke-linejoin="round"/>
<circle cx="600.5" cy="206.5" r="4.5" fill="#101010" fill-opacity="0.05" stroke="#101010" stroke-linejoin="round"/>
<path d="M716.507 340.5V317.01M716.507 271.386V300.135M716.507 300.135L698.668 285.212M716.507 300.135V317.01M716.507 317.01L730.222 309.116" stroke="#101010" stroke-linecap="round"/>
<path d="M749.154 340.5V294.102M749.154 249.506V281.219M749.154 281.219L733.801 271.291M749.154 281.219V294.102M749.154 294.102L769.277 280.201" stroke="#101010" stroke-linecap="round"/>
<path d="M792.507 340.5V318.01M792.507 276.386V305.135M792.507 305.135L806.668 297.212M792.507 305.135V318.01M792.507 318.01L783.223 313.116" stroke="#101010" stroke-linecap="round"/>
<rect x="0.235171" y="0.260558" width="85.9725" height="0.5" transform="matrix(0.999034 0.0439349 -0.0583522 0.998296 659.728 372.99)" fill="white" stroke="#101010" stroke-width="0.5"/>
<rect x="0.253575" y="0.247273" width="85.9983" height="0.5" transform="matrix(0.999942 -0.0108035 0.0143587 0.999897 643.098 386.524)" fill="white" stroke="#101010" stroke-width="0.5"/>
<rect x="0.241744" y="0.256022" width="85.9913" height="0.5" transform="matrix(0.999697 0.024625 -0.0327223 0.999464 659.452 392.963)" fill="white" stroke="#101010" stroke-width="0.5"/>
<rect x="0.257829" y="0.24393" width="85.9919" height="0.5" transform="matrix(0.999717 -0.0237788 0.0315983 0.999501 630.76 407.001)" fill="white" stroke="#101010" stroke-width="0.5"/>
<rect x="49" y="338" width="863" height="4" rx="2" fill="#008174"/>
<path d="M709.444 237.686C710.093 238.201 711.037 238.093 711.552 237.444L719.948 226.873C720.463 226.224 720.355 225.28 719.706 224.765C719.057 224.25 718.114 224.358 717.599 225.007L710.136 234.404L700.739 226.941C700.09 226.426 699.146 226.534 698.631 227.182C698.116 227.831 698.224 228.775 698.873 229.29L709.444 237.686ZM449.54 493.009C323.064 476.551 233.903 360.432 250.402 233.643L247.427 233.256C230.715 361.681 321.027 479.311 449.153 495.984L449.54 493.009ZM250.402 233.643C266.9 106.855 382.809 17.4216 509.285 33.8796L509.672 30.9047C381.547 14.232 264.138 104.832 247.427 233.256L250.402 233.643ZM645.315 424.407C596.257 475.126 524.768 502.798 449.54 493.009L449.153 495.984C525.363 505.901 597.783 477.863 647.471 426.493L645.315 424.407ZM509.285 33.8796C616.605 47.8449 697.06 133.569 708.887 236.682L711.867 236.34C699.888 131.895 618.396 45.0526 509.672 30.9047L509.285 33.8796Z" fill="url(#paint1_linear)"/>
<defs>
<linearGradient id="paint0_linear" x1="547.941" y1="207.307" x2="547.941" y2="310.681" gradientUnits="userSpaceOnUse">
<stop stop-color="#D1EEDF"/>
<stop offset="1" stop-color="#A2E0DD"/>
</linearGradient>
<linearGradient id="paint1_linear" x1="506.066" y1="31.948" x2="445.933" y2="494.052" gradientUnits="userSpaceOnUse">
<stop stop-color="#44C0BB"/>
<stop offset="1" stop-color="#F9423A"/>
</linearGradient>
<clipPath id="clip0">
<rect x="426" y="245.219" width="59" height="59" rx="29.5" fill="white"/>
</clipPath>
</defs>
</svg>
