<svg width="24" height="24" viewBox="0 0 24 24" fill="none" xmlns="http://www.w3.org/2000/svg">
<path d="M0 5C0 2.23858 2.23858 0 5 0H19C21.7614 0 24 2.23858 24 5V19C24 21.7614 21.7614 24 19 24H5C2.23858 24 0 21.7614 0 19V5Z" fill="#44C0BB"/>
<path d="M7.38853 11.4926C6.83219 11.0839 6.04983 11.2036 5.64109 11.7599C5.23234 12.3162 5.352 13.0986 5.90834 13.5074L7.38853 11.4926ZM10.7318 15.5L9.99168 16.5074C10.5059 16.8851 11.2221 16.815 11.6532 16.3447L10.7318 15.5ZM18.0699 9.34466C18.5364 8.83576 18.502 8.04505 17.9931 7.57856C17.4842 7.11207 16.6935 7.14645 16.227 7.65534L18.0699 9.34466ZM5.90834 13.5074L9.99168 16.5074L11.4719 14.4926L7.38853 11.4926L5.90834 13.5074ZM11.6532 16.3447L18.0699 9.34466L16.227 7.65534L9.81033 14.6553L11.6532 16.3447Z" fill="white"/>
<path d="M5 1H19V-1H5V1ZM23 5V19H25V5H23ZM19 23H5V25H19V23ZM1 19V5H-1V19H1ZM5 23C2.79086 23 1 21.2091 1 19H-1C-1 22.3137 1.68629 25 5 25V23ZM23 19C23 21.2091 21.2091 23 19 23V25C22.3137 25 25 22.3137 25 19H23ZM19 1C21.2091 1 23 2.79086 23 5H25C25 1.68629 22.3137 -1 19 -1V1ZM5 -1C1.68629 -1 -1 1.68629 -1 5H1C1 2.79086 2.79086 1 5 1V-1Z" fill="#008174"/>
</svg>
