<svg width="14" height="10" viewBox="0 0 14 10" fill="none" xmlns="http://www.w3.org/2000/svg">
<path d="M2.38853 4.49265C1.83219 4.0839 1.04983 4.20356 0.641085 4.7599C0.232342 5.31625 0.351997 6.09861 0.908342 6.50735L2.38853 4.49265ZM5.73177 8.5L4.99168 9.50735C5.50587 9.88513 6.22206 9.815 6.65321 9.34466L5.73177 8.5ZM13.0699 2.34466C13.5364 1.83576 13.502 1.04505 12.9931 0.578557C12.4842 0.112067 11.6935 0.146446 11.227 0.655344L13.0699 2.34466ZM0.908342 6.50735L4.99168 9.50735L6.47187 7.49265L2.38853 4.49265L0.908342 6.50735ZM6.65321 9.34466L13.0699 2.34466L11.227 0.655344L4.81033 7.65534L6.65321 9.34466Z" fill="white"/>
</svg>
