<svg width="70" height="61" viewBox="0 0 70 61" fill="none" xmlns="http://www.w3.org/2000/svg">
<path d="M27.5559 57.7388C29.997 58.7133 32.6652 59.25 35.4605 59.25C41.7034 59.25 47.3124 56.5733 51.1721 52.32M51.1721 52.32C51.2989 52.1802 51.4239 52.0388 51.5469 51.8956C52.578 52.1723 53.663 52.32 54.7829 52.32C61.5738 52.32 67.0789 46.8903 67.0789 40.1925C67.0789 37.3872 66.1132 34.8044 64.4918 32.7498C66.8089 30.5443 68.25 27.4494 68.25 24.0225C68.25 17.3247 62.7449 11.895 55.9539 11.895C54.9316 11.895 53.9383 12.0181 52.9886 12.25C49.5474 5.85524 42.7269 1.5 34.875 1.5C27.5042 1.5 21.0422 5.33794 17.4314 11.0982C16.4537 10.8641 15.4323 10.74 14.3816 10.74C7.26728 10.74 1.5 16.4282 1.5 23.445C1.5 28.0939 4.03164 32.1597 7.80936 34.3743C5.40925 36.0474 3.84211 38.8057 3.84211 41.925C3.84211 47.0281 8.03649 51.165 13.2105 51.165C14.9114 51.165 16.5065 50.7179 17.8814 49.9364C18.8543 49.339 21.0251 47.9221 21.9259 47.0337C21.1752 45.1815 18.5478 39.7317 18.5478 32.7498C18.5478 29.2644 36.9161 36.6912 48.9502 24.8221C49.5268 24.2534 50.1239 23.6645 50.6627 23.1331C51.5863 22.2221 53.0703 22.2223 53.9939 23.1333V23.1333C54.9358 24.0622 54.9358 25.582 53.9939 26.511L50.6392 29.8197C53.6218 33.1588 57.9041 42.3337 51.1721 52.32Z" stroke="#101010" stroke-width="2" stroke-linecap="round" stroke-linejoin="round"/>
<path d="M33.3086 49.3677C36.7473 50.9479 43.6845 50.8932 46.2349 45.7103" stroke="#008174" stroke-width="2" stroke-linecap="round"/>
<circle cx="33.75" cy="40.5" r="1.5" fill="#008174"/>
<circle cx="42.75" cy="38.25" r="1.5" fill="#008174"/>
</svg>
