<svg width="156" height="156" viewBox="0 0 156 156" fill="none" xmlns="http://www.w3.org/2000/svg">
<path d="M62.922 74.1961C62.922 92.0981 49.2126 106.61 32.3012 106.61C15.3898 106.61 1.68042 92.0981 1.68042 74.1961C1.68042 56.2941 15.3898 18.2812 32.3012 18.2812C49.2126 18.2812 62.922 56.2941 62.922 74.1961Z" fill="url(#paint0_linear)" stroke="#101010" stroke-linecap="round"/>
<path d="M32.3368 148.688V84.1814M32.3368 43.0137V72.2885M32.3368 72.2885L19.3462 64.9698M32.3368 72.2885V84.1814M32.3368 84.1814L49.967 74.1182" stroke="#101010" stroke-linecap="round"/>
<rect x="47.5312" y="31.6875" width="93.8438" height="117" rx="8" fill="white" stroke="#101010" stroke-linejoin="round"/>
<rect x="114.606" y="40.9375" width="18.0625" height="18.0625" rx="9.03125" fill="white"/>
<path d="M123.178 51.1882L119.401 51.1882L125.382 44.6514L123.832 49.1529L127.33 49.1529L121.586 55.8848L123.178 51.1882Z" fill="#008174"/>
<rect x="114.606" y="40.9375" width="18.0625" height="18.0625" rx="9.03125" stroke="#101010"/>
<path d="M66.2734 59.8008H93.5675M66.2734 75.4193H106.882M66.2734 91.0379H106.882" stroke="#101010" stroke-linecap="round" stroke-linejoin="round"/>
<path d="M142.317 84.7267C142.317 85.4732 142.247 86.2033 142.113 86.9105C147.493 87.3524 151.721 91.8811 151.721 97.4027C151.721 99.8751 150.873 102.148 149.454 103.945C152.685 106.893 154.713 111.148 154.713 115.88C154.713 124.779 147.537 131.993 138.684 131.993C135.424 131.993 132.392 131.015 129.861 129.334C127.204 131.533 123.801 132.852 120.091 132.852C111.592 132.852 104.703 125.927 104.703 117.383C104.703 116.168 104.842 114.985 105.106 113.85C101.308 111.833 98.7188 107.822 98.7188 103.204C98.7188 98.065 101.923 93.6789 106.433 91.9544C106.805 85.2894 112.299 80.0001 119.022 80.0001C119.422 80.0001 119.819 80.0189 120.209 80.0556C121.997 75.9743 126.056 73.125 130.777 73.125C137.15 73.125 142.317 78.3193 142.317 84.7267Z" fill="white" stroke="#101010" stroke-linecap="round"/>
<path d="M129.616 106.59V114.571M129.616 148.687V119.322M129.616 119.322L123.535 115.332M129.616 119.322V114.571M129.616 114.571L135.127 111.151" stroke="#101010" stroke-linecap="round"/>
<path d="M3.65625 148.688H152.953" stroke="#101010" stroke-linecap="round" stroke-linejoin="round"/>
<defs>
<linearGradient id="paint0_linear" x1="4.51568" y1="21.8144" x2="4.51568" y2="106.61" gradientUnits="userSpaceOnUse">
<stop stop-color="#D1EEDF"/>
<stop offset="1" stop-color="#A2E0DD"/>
</linearGradient>
</defs>
</svg>
