<svg width="128" height="109" viewBox="0 0 128 109" fill="none" xmlns="http://www.w3.org/2000/svg">
<path d="M51.6282 46.8788C51.6282 61.5676 40.3795 73.4753 26.5035 73.4753C12.6275 73.4753 1.37872 61.5676 1.37872 46.8788C1.37872 32.19 12.6275 1 26.5035 1C40.3795 1 51.6282 32.19 51.6282 46.8788Z" fill="url(#paint0_linear)" stroke="#101010" stroke-linecap="round"/>
<path d="M26.5328 108V55.0716M26.5328 21.293V45.3133M26.5328 45.3133L15.8738 39.3083M26.5328 45.3133V55.0716M26.5328 55.0716L40.9985 46.8146" stroke="#101010" stroke-linecap="round"/>
<rect x="39" y="12" width="77" height="96" rx="8" fill="white" stroke="#101010" stroke-linejoin="round"/>
<rect x="93.9456" y="19.5" width="15" height="15" rx="7.5" fill="white"/>
<path d="M101.069 28.0009L97.9698 28.0009L102.877 22.6374L101.606 26.3309L104.476 26.3309L99.7631 31.8545L101.069 28.0009Z" fill="#008174"/>
<rect x="93.9456" y="19.5" width="15" height="15" rx="7.5" stroke="#101010"/>
<path d="M54.3782 35.0674H76.7733M54.3782 47.8826H87.6977M54.3782 60.6978H87.6977" stroke="#101010" stroke-linecap="round" stroke-linejoin="round"/>
<path d="M116.773 55.5194C116.773 56.1319 116.716 56.7309 116.606 57.3112C121.02 57.6738 124.489 61.3896 124.489 65.9202C124.489 67.9488 123.793 69.8141 122.629 71.2881C125.28 73.7069 126.944 77.1984 126.944 81.0806C126.944 88.3826 121.056 94.302 113.792 94.302C111.118 94.302 108.629 93.4993 106.553 92.1206C104.372 93.9241 101.58 95.0071 98.5359 95.0071C91.5629 95.0071 85.9101 89.3245 85.9101 82.3146C85.9101 81.317 86.0245 80.3463 86.241 79.4151C83.1242 77.7605 81 74.4695 81 70.6798C81 66.4636 83.6293 62.8647 87.3294 61.4498C87.6347 55.9811 92.1428 51.6411 97.6591 51.6411C97.9877 51.6411 98.3126 51.6565 98.6334 51.6866C100.1 48.3379 103.43 46 107.304 46C112.534 46 116.773 50.262 116.773 55.5194Z" fill="white" stroke="#101010" stroke-linecap="round"/>
<path d="M106.352 73.4585V80.0075M106.352 108V83.9057M106.352 83.9057L101.362 80.6312M106.352 83.9057V80.0075M106.352 80.0075L110.874 77.2008" stroke="#101010" stroke-linecap="round"/>
<path d="M3 108H125.5" stroke="#101010" stroke-linecap="round" stroke-linejoin="round"/>
<defs>
<linearGradient id="paint0_linear" x1="3.70509" y1="3.89901" x2="3.70509" y2="73.4753" gradientUnits="userSpaceOnUse">
<stop stop-color="#D1EEDF"/>
<stop offset="1" stop-color="#A2E0DD"/>
</linearGradient>
</defs>
</svg>
