<svg width="291" height="252" viewBox="0 0 291 252" fill="none" xmlns="http://www.w3.org/2000/svg">
<path fill-rule="evenodd" clip-rule="evenodd" d="M184.37 84.0192L146.364 125.252C142.602 129.333 148.886 136.239 153.431 133.052C153.456 133.034 153.481 133.016 153.506 132.998L172.413 119.361C178.636 114.873 183.828 109.111 187.644 102.459L192.664 93.7079C188.712 91.9386 185.576 88.4748 184.37 84.0192ZM206.753 92.6763L206.541 93.3581L262.379 105.855C267.803 107.069 270.597 98.0772 265.526 95.8048L244.246 86.2703C237.243 83.1325 229.651 81.5227 221.975 81.5484L213.574 81.5765C213.13 86.1197 210.598 90.2292 206.753 92.6763ZM205.37 66.8053L189.708 16.7961C188.048 11.4961 178.914 13.4834 179.411 19.0143C179.414 19.0429 179.417 19.0715 179.42 19.1001L181.791 42.2719C182.572 49.8978 184.972 57.2696 188.833 63.8954L190.916 67.4709C192.281 66.6284 193.807 65.9938 195.46 65.6203C198.939 64.8346 202.408 65.3343 205.37 66.8053Z" fill="url(#paint0_linear)"/>
<path d="M146.364 125.252L146.732 125.591L146.364 125.252ZM184.37 84.0192L184.853 83.8886C184.805 83.7129 184.666 83.5769 184.489 83.5335C184.312 83.4902 184.126 83.5464 184.003 83.6803L184.37 84.0192ZM153.431 133.052L153.144 132.642L153.144 132.642L153.431 133.052ZM153.506 132.998L153.213 132.593L153.213 132.593L153.506 132.998ZM172.413 119.361L172.121 118.955L172.413 119.361ZM187.644 102.459L188.078 102.708L187.644 102.459ZM192.664 93.7079L193.098 93.9567C193.168 93.8341 193.183 93.6876 193.139 93.5532C193.096 93.4189 192.997 93.3093 192.868 93.2515L192.664 93.7079ZM206.753 92.6763L206.485 92.2545C206.385 92.318 206.311 92.4148 206.276 92.5278L206.753 92.6763ZM206.541 93.3581L206.064 93.2096C206.022 93.343 206.039 93.4876 206.109 93.6085C206.179 93.7294 206.296 93.8155 206.432 93.846L206.541 93.3581ZM262.379 105.855L262.27 106.343L262.379 105.855ZM265.526 95.8048L265.321 96.2611L265.526 95.8048ZM244.246 86.2703L244.042 86.7266L244.246 86.2703ZM221.975 81.5484L221.973 81.0484L221.975 81.5484ZM213.574 81.5765L213.572 81.0765C213.316 81.0774 213.101 81.2725 213.076 81.5279L213.574 81.5765ZM205.37 66.8053L205.148 67.2531C205.327 67.3422 205.543 67.3157 205.695 67.1856C205.847 67.0555 205.907 66.8471 205.847 66.6559L205.37 66.8053ZM189.708 16.7961L190.185 16.6467L189.708 16.7961ZM179.411 19.0143L178.913 19.0591L178.913 19.0591L179.411 19.0143ZM179.42 19.1001L179.917 19.0492L179.917 19.0491L179.42 19.1001ZM181.791 42.2719L181.294 42.3228L181.294 42.3228L181.791 42.2719ZM188.833 63.8954L188.401 64.1471L188.833 63.8954ZM190.916 67.4709L190.484 67.7226C190.551 67.839 190.663 67.9232 190.794 67.9559C190.925 67.9886 191.063 67.9672 191.178 67.8964L190.916 67.4709ZM195.46 65.6203L195.35 65.1326L195.46 65.6203ZM146.732 125.591L184.738 84.3581L184.003 83.6803L145.996 124.913L146.732 125.591ZM153.144 132.642C151.153 134.039 148.722 133.27 147.153 131.541C145.584 129.813 145.092 127.369 146.732 125.591L145.996 124.913C143.874 127.215 144.644 130.265 146.412 132.213C148.181 134.161 151.164 135.252 153.718 133.461L153.144 132.642ZM153.213 132.593C153.19 132.609 153.167 132.626 153.144 132.642L153.718 133.461C153.745 133.442 153.772 133.423 153.798 133.404L153.213 132.593ZM172.121 118.955L153.213 132.593L153.798 133.404L172.706 119.766L172.121 118.955ZM187.21 102.21C183.43 108.8 178.286 114.509 172.121 118.955L172.706 119.766C178.986 115.237 184.227 109.421 188.078 102.708L187.21 102.21ZM192.23 93.4591L187.21 102.21L188.078 102.708L193.098 93.9567L192.23 93.4591ZM192.868 93.2515C189.047 91.541 186.017 88.1935 184.853 83.8886L183.888 84.1498C185.134 88.7562 188.376 92.3361 192.46 94.1643L192.868 93.2515ZM206.276 92.5278L206.064 93.2096L207.019 93.5066L207.231 92.8248L206.276 92.5278ZM206.432 93.846L262.27 106.343L262.489 105.367L206.651 92.8702L206.432 93.846ZM262.27 106.343C265.334 107.029 267.579 104.806 268.365 102.286C269.152 99.7667 268.583 96.6269 265.73 95.3485L265.321 96.2611C267.54 97.2551 268.11 99.7473 267.411 101.988C266.712 104.229 264.848 105.895 262.489 105.367L262.27 106.343ZM265.73 95.3485L244.451 85.814L244.042 86.7266L265.321 96.2611L265.73 95.3485ZM244.451 85.814C237.383 82.6471 229.72 81.0225 221.973 81.0484L221.977 82.0484C229.581 82.0229 237.104 83.6178 244.042 86.7266L244.451 85.814ZM221.973 81.0484L213.572 81.0765L213.576 82.0765L221.977 82.0484L221.973 81.0484ZM213.076 81.5279C212.647 85.9176 210.2 89.8897 206.485 92.2545L207.022 93.0981C210.995 90.5687 213.613 86.3218 214.072 81.6252L213.076 81.5279ZM205.847 66.6559L190.185 16.6467L189.231 16.9456L204.893 66.9548L205.847 66.6559ZM190.185 16.6467C189.249 13.657 186.219 12.7979 183.645 13.3549C181.072 13.9119 178.634 15.9505 178.913 19.0591L179.909 18.9696C179.692 16.5471 181.572 14.8267 183.857 14.3323C186.14 13.838 188.507 14.6352 189.231 16.9456L190.185 16.6467ZM178.913 19.0591C178.916 19.0897 178.919 19.1204 178.922 19.1511L179.917 19.0491C179.914 19.0226 179.912 18.9961 179.909 18.9696L178.913 19.0591ZM178.922 19.151L181.294 42.3228L182.289 42.221L179.917 19.0492L178.922 19.151ZM181.294 42.3228C182.082 50.0195 184.505 57.4598 188.401 64.1471L189.265 63.6437C185.44 57.0794 183.062 49.776 182.289 42.221L181.294 42.3228ZM188.401 64.1471L190.484 67.7226L191.348 67.2192L189.265 63.6437L188.401 64.1471ZM191.178 67.8964C192.497 67.0826 193.972 66.4692 195.571 66.1081L195.35 65.1326C193.643 65.5184 192.065 66.1743 190.653 67.0453L191.178 67.8964ZM195.571 66.1081C198.933 65.3486 202.285 65.8314 205.148 67.2531L205.593 66.3575C202.531 64.8372 198.945 64.3207 195.35 65.1326L195.571 66.1081Z" fill="#101010"/>
<ellipse rx="8.51051" ry="8.50052" transform="matrix(0.975424 -0.220338 0.220884 0.9753 198.746 80.1275)" fill="url(#paint1_linear)" stroke="#101010" stroke-linejoin="round"/>
<path d="M199.228 95.0291H196.928L192.357 250.673H199.228H206.099L201.528 95.0291H199.228Z" fill="#101010" fill-opacity="0.05" stroke="#101010" stroke-linejoin="round"/>
<path fill-rule="evenodd" clip-rule="evenodd" d="M71.6471 137.907L101.568 162.494C104.627 165.007 109.289 160.253 106.836 157.146C106.822 157.129 106.809 157.112 106.795 157.095L96.3182 144.185C92.8703 139.936 88.5572 136.472 83.6665 134.025L77.9292 131.155C76.9774 134.222 74.6658 136.73 71.6471 137.907ZM75.506 120.71L76.4203 120.939L83.0553 80.6741C83.6996 76.7635 77.1841 75.1379 75.7716 78.8412L69.8453 94.3791C67.895 99.4927 67.0565 104.964 67.3859 110.428L67.8054 117.386C70.806 117.385 73.5584 118.65 75.506 120.71ZM58.797 122.383L22.5886 136.028C18.8821 137.424 20.6673 143.847 24.5854 143.269C24.6056 143.266 24.6258 143.263 24.6461 143.26L41.0488 140.632C46.447 139.767 51.5987 137.759 56.1599 134.742L58.5228 133.179C57.8096 131.898 57.3513 130.448 57.2222 128.891C57.0254 126.516 57.6246 124.259 58.797 122.383Z" fill="url(#paint2_linear)"/>
<path d="M101.568 162.494L101.251 162.88L101.251 162.88L101.568 162.494ZM71.6471 137.907L71.4654 137.441C71.3 137.506 71.1812 137.653 71.1533 137.828C71.1254 138.004 71.1925 138.181 71.3296 138.293L71.6471 137.907ZM106.836 157.146L107.228 156.836L107.228 156.836L106.836 157.146ZM106.795 157.095L106.406 157.41L106.406 157.41L106.795 157.095ZM96.3182 144.185L95.9299 144.5L96.3182 144.185ZM83.6665 134.025L83.8903 133.578L83.6665 134.025ZM77.9292 131.155L78.153 130.707C78.0217 130.642 77.8682 130.637 77.7331 130.695C77.5981 130.752 77.4952 130.866 77.4517 131.006L77.9292 131.155ZM75.506 120.71L75.1426 121.054C75.2082 121.123 75.2922 121.172 75.3849 121.196L75.506 120.71ZM76.4203 120.939L76.2992 121.424C76.4347 121.458 76.5782 121.433 76.6949 121.357C76.8116 121.28 76.8909 121.158 76.9136 121.02L76.4203 120.939ZM83.0553 80.6741L83.5486 80.7554L83.0553 80.6741ZM75.7716 78.8412L75.3044 78.663L75.7716 78.8412ZM69.8453 94.3791L70.3125 94.5573L69.8453 94.3791ZM67.3859 110.428L67.885 110.398L67.3859 110.428ZM67.8054 117.386L67.3063 117.416C67.3222 117.68 67.5411 117.886 67.8056 117.886L67.8054 117.386ZM58.797 122.383L59.221 122.648C59.3346 122.466 59.3196 122.232 59.1837 122.066C59.0479 121.901 58.8213 121.84 58.6206 121.915L58.797 122.383ZM22.5886 136.028L22.7649 136.496L22.7649 136.496L22.5886 136.028ZM24.5854 143.269L24.5124 142.775L24.5124 142.775L24.5854 143.269ZM24.6461 143.26L24.567 142.766L24.567 142.766L24.6461 143.26ZM41.0488 140.632L41.1279 141.126L41.0488 140.632ZM56.1599 134.742L55.884 134.325L56.1599 134.742ZM58.5228 133.179L58.7986 133.596C59.0166 133.452 59.0868 133.164 58.9596 132.936L58.5228 133.179ZM57.2222 128.891L57.7205 128.85L57.2222 128.891ZM101.886 162.108L71.9645 137.521L71.3296 138.293L101.251 162.88L101.886 162.108ZM106.443 157.456C107.457 158.74 107.05 160.42 105.913 161.577C104.775 162.734 103.14 163.138 101.886 162.108L101.251 162.88C103.055 164.363 105.28 163.646 106.626 162.278C107.971 160.909 108.668 158.659 107.228 156.836L106.443 157.456ZM106.406 157.41C106.419 157.425 106.431 157.44 106.443 157.456L107.228 156.836C107.213 156.817 107.198 156.798 107.183 156.779L106.406 157.41ZM95.9299 144.5L106.406 157.41L107.183 156.779L96.7064 143.87L95.9299 144.5ZM83.4428 134.472C88.2698 136.888 92.5269 140.306 95.9299 144.5L96.7064 143.87C93.2138 139.566 88.8445 136.057 83.8903 133.578L83.4428 134.472ZM77.7055 131.602L83.4428 134.472L83.8903 133.578L78.153 130.707L77.7055 131.602ZM77.4517 131.006C76.5446 133.929 74.341 136.32 71.4654 137.441L71.8288 138.373C74.9906 137.14 77.4102 134.514 78.4068 131.303L77.4517 131.006ZM75.3849 121.196L76.2992 121.424L76.5414 120.454L75.6271 120.225L75.3849 121.196ZM76.9136 121.02L83.5486 80.7554L82.5619 80.5928L75.9269 120.857L76.9136 121.02ZM83.5486 80.7554C83.9294 78.4444 82.1729 76.8853 80.3063 76.4175C78.4399 75.9497 76.1346 76.4865 75.3044 78.663L76.2388 79.0194C76.8211 77.4926 78.4797 76.9906 80.0632 77.3875C81.6464 77.7842 82.8255 78.9932 82.5619 80.5928L83.5486 80.7554ZM75.3044 78.663L69.3781 94.2009L70.3125 94.5573L76.2388 79.0194L75.3044 78.663ZM69.3781 94.2009C67.4025 99.3809 66.5531 104.923 66.8868 110.458L67.885 110.398C67.5599 105.005 68.3875 99.6045 70.3125 94.5573L69.3781 94.2009ZM66.8868 110.458L67.3063 117.416L68.3045 117.356L67.885 110.398L66.8868 110.458ZM67.8056 117.886C70.6634 117.885 73.2859 119.09 75.1426 121.054L75.8693 120.367C73.8308 118.21 70.9485 116.884 67.8051 116.886L67.8056 117.886ZM58.6206 121.915L22.4123 135.56L22.7649 136.496L58.9733 122.851L58.6206 121.915ZM22.4123 135.56C20.226 136.384 19.7336 138.671 20.2459 140.522C20.7581 142.373 22.3586 144.103 24.6583 143.764L24.5124 142.775C22.8941 143.013 21.643 141.821 21.2097 140.256C20.7765 138.691 21.2447 137.068 22.7649 136.496L22.4123 135.56ZM24.6583 143.764C24.6806 143.761 24.7029 143.757 24.7252 143.754L24.567 142.766C24.5488 142.769 24.5306 142.772 24.5124 142.775L24.6583 143.764ZM24.7252 143.754L41.1279 141.126L40.9697 140.138L24.567 142.766L24.7252 143.754ZM41.1279 141.126C46.5964 140.249 51.8151 138.215 56.4357 135.159L55.884 134.325C51.3822 137.303 46.2976 139.285 40.9697 140.138L41.1279 141.126ZM56.4357 135.159L58.7986 133.596L58.2469 132.762L55.884 134.325L56.4357 135.159ZM58.9596 132.936C58.2803 131.716 57.8436 130.334 57.7205 128.85L56.724 128.932C56.859 130.561 57.3388 132.08 58.0859 133.422L58.9596 132.936ZM57.7205 128.85C57.5329 126.586 58.1038 124.436 59.221 122.648L58.3729 122.118C57.1454 124.083 56.5179 126.447 56.724 128.932L57.7205 128.85Z" fill="#101010"/>
<ellipse rx="6.0695" ry="6.06238" transform="matrix(-0.258549 -0.965998 0.965853 -0.25909 67.8362 127.992)" fill="url(#paint3_linear)" stroke="#101010" stroke-linejoin="round"/>
<path d="M67.5586 139.671H65.9184L62.6584 250.673H67.5586H72.4588L69.1988 139.671H67.5586Z" fill="#101010" fill-opacity="0.05" stroke="#101010" stroke-linejoin="round"/>
<path d="M129.51 188.603H122.278V250.673H129.51V188.603Z" fill="#101010" fill-opacity="0.05" stroke="#101010" stroke-linejoin="round"/>
<path d="M231.466 188.603H224.234V250.673H231.466V188.603Z" fill="#101010" fill-opacity="0.05" stroke="#101010" stroke-linejoin="round"/>
<path fill-rule="evenodd" clip-rule="evenodd" d="M134.85 146.216H265.294L212.552 222.974H82.1077L134.85 146.216Z" fill="white"/>
<path fill-rule="evenodd" clip-rule="evenodd" d="M212.552 222.974L265.294 146.216L269.761 152.809L217.018 229.567H86.5734L82.1077 222.974H212.552Z" fill="white"/>
<path d="M265.294 146.216H134.85L82.1077 222.974M265.294 146.216L212.552 222.974H82.1077M265.294 146.216L269.761 152.809L217.018 229.567H86.5734L82.1077 222.974" stroke="#101010" stroke-linejoin="round"/>
<path fill-rule="evenodd" clip-rule="evenodd" d="M134.85 146.216H265.294L212.552 222.974H82.1077L134.85 146.216Z" fill="url(#paint4_linear)" stroke="#101010" stroke-linejoin="round"/>
<path d="M239.269 184.092L238.579 185.093H195.71L169.681 222.976H168.46L194.488 185.093H152.219L126.2 222.976H124.98L151.008 185.093H108.138L108.828 184.092H151.699L177.726 146.22H178.938L152.909 184.092H195.179L221.207 146.22H222.418L196.389 184.092H239.269Z" fill="#101010"/>
<path d="M3.55737 250.673H290.443" stroke="#101010" stroke-linejoin="round"/>
<defs>
<linearGradient id="paint0_linear" x1="129.062" y1="30.7211" x2="152.343" y2="133.651" gradientUnits="userSpaceOnUse">
<stop stop-color="#D1EEDF"/>
<stop offset="1" stop-color="#A2E0DD"/>
</linearGradient>
<linearGradient id="paint1_linear" x1="0.788011" y1="0.680042" x2="0.788011" y2="17.001" gradientUnits="userSpaceOnUse">
<stop stop-color="#D1EEDF"/>
<stop offset="1" stop-color="#A2E0DD"/>
</linearGradient>
<linearGradient id="paint2_linear" x1="26.1515" y1="165.549" x2="107.509" y2="158.78" gradientUnits="userSpaceOnUse">
<stop stop-color="#D1EEDF"/>
<stop offset="1" stop-color="#A2E0DD"/>
</linearGradient>
<linearGradient id="paint3_linear" x1="0.561991" y1="0.48499" x2="0.561991" y2="12.1248" gradientUnits="userSpaceOnUse">
<stop stop-color="#D1EEDF"/>
<stop offset="1" stop-color="#A2E0DD"/>
</linearGradient>
<linearGradient id="paint4_linear" x1="90.5885" y1="149.286" x2="90.5885" y2="222.974" gradientUnits="userSpaceOnUse">
<stop stop-color="#D1EEDF"/>
<stop offset="1" stop-color="#A2E0DD"/>
</linearGradient>
</defs>
</svg>
