<svg width="20" height="20" viewBox="0 0 20 20" fill="none" xmlns="http://www.w3.org/2000/svg">
<path d="M2 15.9355H4V20L9.101 15.9355H14C15.103 15.9355 16 15.0421 16 13.9435V5.9758C16 4.87725 15.103 3.98387 14 3.98387H2C0.897 3.98387 0 4.87725 0 5.9758V13.9435C0 15.0421 0.897 15.9355 2 15.9355Z" fill="white"/>
<path d="M18 0H6C4.897 0 4 0.893382 4 1.99193H16C17.103 1.99193 18 2.88531 18 3.98387V11.9516C19.103 11.9516 20 11.0582 20 9.95966V1.99193C20 0.893382 19.103 0 18 0Z" fill="white"/>
</svg>
