<svg width="6" height="10" viewBox="0 0 6 10" fill="none" xmlns="http://www.w3.org/2000/svg">
<path d="M1.97815 6.32274H3.51815L3.60615 5.26674C4.66215 5.02474 5.37715 4.07874 5.37715 3.00074C5.37715 1.64774 4.36515 0.635742 3.01215 0.635742C1.68115 0.635742 0.614151 1.68074 0.680151 3.01174H2.28615V2.87974C2.28615 2.43974 2.52815 1.97774 3.02315 1.97774C3.52915 1.97774 3.78215 2.50574 3.78215 2.94574C3.78215 3.73774 3.11115 4.17774 2.37415 4.17774C2.24215 4.17774 2.11015 4.16674 1.97815 4.13374V6.32274ZM2.77015 7.41174C2.23115 7.41174 1.79115 7.84074 1.79115 8.37974C1.79115 8.91874 2.23115 9.36974 2.77015 9.36974C3.30915 9.36974 3.74915 8.91874 3.74915 8.37974C3.74915 7.84074 3.30915 7.41174 2.77015 7.41174Z" fill="#008174"/>
</svg>
