<svg width="44" height="44" viewBox="0 0 44 44" fill="none" xmlns="http://www.w3.org/2000/svg">
<circle cx="22" cy="22" r="19" stroke="#101010" stroke-width="2"/>
<path d="M36.1643 29.9714L35.1678 30.0544L36.1643 29.9714ZM33.5513 27.1838L33.2351 28.1325L33.5513 27.1838ZM35.2555 19.4964L35.8102 20.3284L35.2555 19.4964ZM39.1336 16.3075L39.3505 15.3313L39.1336 16.3075ZM35.0223 15.5682L34.8809 14.5783L35.0223 15.5682ZM35.9711 15.6047L35.7542 16.5809L35.9711 15.6047ZM33.5292 12.8883L33.1579 11.9598L33.5292 12.8883ZM35.3537 10.0732L34.9065 9.17873L35.3537 10.0732ZM24.666 6.50207L25.6147 6.8183L24.666 6.50207ZM27.2439 10.684L26.9021 9.74425L27.2439 10.684ZM28.324 6.88878L27.5558 7.52897L28.324 6.88878ZM27.3056 10.6616L26.9639 9.72181L27.3056 10.6616ZM28.2312 6.7774L28.9994 6.13722L28.2312 6.7774ZM27.6996 6.2997L28.2543 5.46765L27.6996 6.2997ZM6.8741 24.0993L6.24941 24.8801L6.8741 24.0993ZM9.5116 29.8638L9.01547 30.732L9.5116 29.8638ZM11.6685 32.5164L10.6746 32.6269L11.6685 32.5164ZM10.1753 30.243L9.67914 31.1112L10.1753 30.243ZM14.4396 35.7218L14.349 36.7177L14.4396 35.7218ZM18.7122 34.1617L17.793 34.5556L18.7122 34.1617ZM18.7016 31.6581L17.9334 31.0179L18.7016 31.6581ZM18.4317 33.5073L17.5126 33.9012L18.4317 33.5073ZM18.4587 25.8653L18.0779 26.79L18.4587 25.8653ZM12.6327 23.4664L13.0134 22.5417L12.6327 23.4664ZM10.2448 20.0711L11.1639 19.6772L10.2448 20.0711ZM20.6481 13.1085L21.2294 13.9222L20.6481 13.1085ZM20.7364 11.7364L20.0293 12.4435L20.7364 11.7364ZM19.718 10.0213L19.1633 9.18929L19.718 10.0213ZM20.62 9.25999L21.5144 9.70721L20.62 9.25999ZM26.8692 5.74613L26.3145 6.57818L26.8692 5.74613ZM20.0427 6.57259L19.5058 7.41625L20.0427 6.57259ZM15.4631 4.84366L19.5058 7.41625L20.5795 5.72893L16.5369 3.15634L15.4631 4.84366ZM19.8331 8.59784L19.7256 8.81278L21.5144 9.70721L21.6219 9.49227L19.8331 8.59784ZM19.7221 8.81679L19.1633 9.18929L20.2727 10.8534L20.8315 10.4809L19.7221 8.81679ZM20.0293 12.4435L20.0527 12.4669L21.4669 11.0526L21.4435 11.0293L20.0293 12.4435ZM20.0669 12.2948L14.7011 16.1275L15.8636 17.7549L21.2294 13.9222L20.0669 12.2948ZM13.5386 16.5H11.9402V18.5H13.5386V16.5ZM9.32565 20.4651L10.0984 22.268L11.9366 21.4802L11.1639 19.6772L9.32565 20.4651ZM12.2519 24.3911L18.0779 26.79L18.8394 24.9407L13.0134 22.5417L12.2519 24.3911ZM18.8519 29.9157L17.9334 31.0179L19.4698 32.2983L20.3883 31.1961L18.8519 29.9157ZM17.5126 33.9012L17.793 34.5556L19.6313 33.7678L19.3509 33.1134L17.5126 33.9012ZM17.5906 35.0041L14.5301 34.7259L14.349 36.7177L17.4095 36.9959L17.5906 35.0041ZM12.7234 32.955L12.6624 32.406L10.6746 32.6269L10.7356 33.1758L12.7234 32.955ZM10.6714 29.3748L10.0077 28.9955L9.01547 30.732L9.67914 31.1112L10.6714 29.3748ZM9.00002 27.259V26.4419H7.00002V27.259H9.00002ZM27.463 7.41758L27.5558 7.52897L29.0922 6.2486L28.9994 6.13722L27.463 7.41758ZM26.9639 9.72181L26.9021 9.74425L27.5856 11.6238L27.6474 11.6014L26.9639 9.72181ZM25.1937 8.08133L25.6147 6.8183L23.7173 6.18585L23.2963 7.44887L25.1937 8.08133ZM26.3145 6.57818L27.1449 7.13175L28.2543 5.46765L27.4239 4.91408L26.3145 6.57818ZM33.1579 11.9598L32.4874 12.228L33.2301 14.085L33.9006 13.8168L33.1579 11.9598ZM33.7007 16.7672L35.1637 16.5582L34.8809 14.5783L33.4179 14.7873L33.7007 16.7672ZM35.7542 16.5809L38.9167 17.2837L39.3505 15.3313L36.1881 14.6285L35.7542 16.5809ZM38.838 18H36.8949V20H38.838V18ZM34.7008 18.6643L32.2812 20.2773L33.3906 21.9415L35.8102 20.3284L34.7008 18.6643ZM30.5 23.6056V24.3377H32.5V23.6056H30.5ZM33.2351 28.1325L33.8071 28.3231L34.4396 26.4258L33.8676 26.2351L33.2351 28.1325ZM35.1678 30.0544L35.5035 34.083L37.4966 33.917L37.1608 29.8883L35.1678 30.0544ZM7.49879 23.3184L3.62469 20.2191L2.37531 21.7809L6.24941 24.8801L7.49879 23.3184ZM35.0528 9.10557L34.9065 9.17873L35.8009 10.9676L35.9472 10.8944L35.0528 9.10557ZM33.8071 28.3231C34.5661 28.5761 35.1013 29.2571 35.1678 30.0544L37.1608 29.8883C37.028 28.2937 35.9576 26.9318 34.4396 26.4258L33.8071 28.3231ZM30.5 24.3377C30.5 26.0594 31.6017 27.588 33.2351 28.1325L33.8676 26.2351C33.0509 25.9629 32.5 25.1986 32.5 24.3377H30.5ZM32.2812 20.2773C31.1684 21.0192 30.5 22.2681 30.5 23.6056H32.5C32.5 22.9368 32.8342 22.3124 33.3906 21.9415L32.2812 20.2773ZM36.8949 18C36.114 18 35.3505 18.2312 34.7008 18.6643L35.8102 20.3284C36.1314 20.1143 36.5088 20 36.8949 20V18ZM39.1935 17.5664C39.2384 17.7907 39.0668 18 38.838 18V20C40.3289 20 41.447 18.6361 41.1547 17.1742L39.1935 17.5664ZM38.9167 17.2837C39.0568 17.3148 39.1653 17.4257 39.1935 17.5664L41.1547 17.1742C40.9712 16.2569 40.2637 15.5342 39.3505 15.3313L38.9167 17.2837ZM35.1637 16.5582C35.3603 16.5301 35.5603 16.5378 35.7542 16.5809L36.1881 14.6285C35.7589 14.5331 35.3161 14.5161 34.8809 14.5783L35.1637 16.5582ZM31 14.4249C31 15.8648 32.2753 16.9708 33.7007 16.7672L33.4179 14.7873C33.1973 14.8188 33 14.6477 33 14.4249H31ZM32.4874 12.228C31.5891 12.5874 31 13.4574 31 14.4249H33C33 14.2752 33.0912 14.1406 33.2301 14.085L32.4874 12.228ZM33.5 11.4544C33.5 11.677 33.3645 11.8772 33.1579 11.9598L33.9006 13.8168C34.8666 13.4304 35.5 12.4948 35.5 11.4544H33.5ZM35.5 11.4544C35.5 11.2483 35.6165 11.0598 35.8009 10.9676L34.9065 9.17873C34.0445 9.60972 33.5 10.4907 33.5 11.4544H35.5ZM25.6147 6.8183C25.678 6.62822 25.8559 6.5 26.0563 6.5V4.5C24.9951 4.5 24.0529 5.17908 23.7173 6.18585L25.6147 6.8183ZM25.1937 8.91867C25.1031 8.64691 25.1031 8.35309 25.1937 8.08133L23.2963 7.44887C23.0689 8.13117 23.0689 8.86883 23.2963 9.55113L25.1937 8.91867ZM26.9021 9.74425C26.2018 9.99893 25.4293 9.62565 25.1937 8.91867L23.2963 9.55113C23.888 11.3261 25.8273 12.2632 27.5856 11.6238L26.9021 9.74425ZM27.5558 7.52897C28.1713 8.26761 27.8675 9.39322 26.9639 9.72181L27.6474 11.6014C29.8531 10.7993 30.5948 8.05166 29.0922 6.2486L27.5558 7.52897ZM28.9994 6.13722C28.7845 5.87935 28.5336 5.65384 28.2543 5.46765L27.1449 7.13175C27.2641 7.21124 27.3712 7.3075 27.463 7.41758L28.9994 6.13722ZM9.00002 26.4419C9.00002 25.2267 8.44766 24.0775 7.49879 23.3184L6.24941 24.8801C6.72384 25.2597 7.00002 25.8343 7.00002 26.4419H9.00002ZM10.0077 28.9955C9.38459 28.6394 9.00002 27.9767 9.00002 27.259H7.00002C7.00002 28.6945 7.76917 30.0198 9.01547 30.732L10.0077 28.9955ZM12.6624 32.406C12.5212 31.1355 11.7813 30.009 10.6714 29.3748L9.67914 31.1112C10.2341 31.4284 10.604 31.9916 10.6746 32.6269L12.6624 32.406ZM14.5301 34.7259C13.5836 34.6398 12.8283 33.8996 12.7234 32.955L10.7356 33.1758C10.9455 35.065 12.456 36.5456 14.349 36.7177L14.5301 34.7259ZM17.793 34.5556C17.8832 34.766 17.7289 35 17.5 35V37C19.1647 37 20.2871 35.2979 19.6313 33.7678L17.793 34.5556ZM17.9334 31.0179C17.2621 31.8234 17.0995 32.9375 17.5126 33.9012L19.3509 33.1134C19.2341 32.8409 19.2801 32.526 19.4698 32.2983L17.9334 31.0179ZM19.2877 28.3086C19.3833 28.8822 19.2241 29.469 18.8519 29.9157L20.3883 31.1961C21.1333 30.3021 21.4518 29.1277 21.2604 27.9798L19.2877 28.3086ZM18.0779 26.79C18.7166 27.053 19.1741 27.6273 19.2877 28.3086L21.2604 27.9798C21.0332 26.6163 20.1176 25.467 18.8394 24.9407L18.0779 26.79ZM10.0984 22.268C10.5107 23.2303 11.2839 23.9925 12.2519 24.3911L13.0134 22.5417C12.5294 22.3424 12.1428 21.9613 11.9366 21.4802L10.0984 22.268ZM9.18058 18.6546C9.02981 19.2577 9.08076 19.8937 9.32565 20.4651L11.1639 19.6772C11.0912 19.5076 11.0761 19.3188 11.1209 19.1397L9.18058 18.6546ZM11.9402 16.5C10.6349 16.5 9.49716 17.3883 9.18058 18.6546L11.1209 19.1397C11.2149 18.7637 11.5527 18.5 11.9402 18.5V16.5ZM14.7011 16.1275C14.3619 16.3698 13.9555 16.5 13.5386 16.5V18.5C14.3723 18.5 15.1852 18.2395 15.8636 17.7549L14.7011 16.1275ZM20.0527 12.4669C20.0032 12.4174 20.01 12.3354 20.0669 12.2948L21.2294 13.9222C22.1782 13.2445 22.2913 11.8771 21.4669 11.0526L20.0527 12.4669ZM20.1657 12.5C20.1145 12.5 20.0655 12.4797 20.0293 12.4435L21.4435 11.0293C21.1046 10.6904 20.645 10.5 20.1657 10.5V12.5ZM19.1633 9.18929C17.6756 10.1811 18.3777 12.5 20.1657 12.5V10.5C20.1922 10.5 20.2416 10.5119 20.2864 10.5474C20.3246 10.5777 20.3425 10.6113 20.3503 10.637C20.3581 10.6627 20.3618 10.7006 20.3468 10.747C20.3292 10.8014 20.2948 10.8387 20.2727 10.8534L19.1633 9.18929ZM19.7256 8.81278C19.7248 8.8144 19.7236 8.81579 19.7221 8.81679L20.8315 10.4809C21.1226 10.2868 21.358 10.0201 21.5144 9.70721L19.7256 8.81278ZM26.0563 6.5C26.1482 6.5 26.2381 6.5272 26.3145 6.57818L27.4239 4.91408C27.0189 4.64408 26.5431 4.5 26.0563 4.5V6.5ZM19.5058 7.41625C19.9015 7.66808 20.0428 8.1783 19.8331 8.59784L21.6219 9.49227C22.29 8.15604 21.8399 6.531 20.5795 5.72893L19.5058 7.41625Z" fill="#101010"/>
</svg>
