<svg width="308" height="415" viewBox="0 0 308 415" fill="none" xmlns="http://www.w3.org/2000/svg">
<path opacity="0.1" d="M15.5 384.5C7.21573 384.5 0.5 391.216 0.5 399.5C0.5 407.784 7.21573 414.5 15.5 414.5V384.5ZM279.28 208.063L293.556 212.667L279.28 208.063ZM284.217 9.59768C280.957 1.9817 272.141 -1.54971 264.525 1.71005C256.909 4.96982 253.377 13.7863 256.637 21.4023L284.217 9.59768ZM277.5 123.606C277.5 151.482 273.115 178.31 265.004 203.459L293.556 212.667C302.614 184.58 307.5 154.647 307.5 123.606H277.5ZM265.004 203.459C231.138 308.473 132.24 384.5 15.5 384.5V414.5C145.572 414.5 255.79 329.774 293.556 212.667L265.004 203.459ZM256.637 21.4023C270.063 52.7705 277.5 87.3043 277.5 123.606H307.5C307.5 83.1702 299.21 44.6259 284.217 9.59768L256.637 21.4023Z" fill="#44C0BB"/>
</svg>
