<svg width="20" height="20" viewBox="0 0 20 20" fill="none" xmlns="http://www.w3.org/2000/svg">
<path fill-rule="evenodd" clip-rule="evenodd" d="M10.0001 2.34917C12.4921 2.34917 12.7881 2.35717 13.7721 2.4025C16.3014 2.5185 17.4814 3.7185 17.5987 6.22917C17.6427 7.21317 17.6521 7.50784 17.6521 9.99984C17.6521 12.4918 17.6427 12.7878 17.5987 13.7718C17.4814 16.2812 16.3041 17.4838 13.7721 17.5985C12.7881 17.6438 12.4934 17.6532 10.0001 17.6532C7.50808 17.6532 7.21208 17.6425 6.22942 17.5985C3.69208 17.4825 2.51875 16.2772 2.40275 13.7718C2.35875 12.7865 2.34808 12.4918 2.34808 9.99984C2.34808 7.50784 2.35875 7.21317 2.40275 6.22917C2.51875 3.71717 3.69742 2.5185 6.22942 2.4025C7.21342 2.3585 7.50808 2.34917 10.0001 2.34917ZM5.20675 9.99984C5.20675 12.6478 7.35342 14.7932 10.0001 14.7932C12.6467 14.7932 14.7934 12.6465 14.7934 9.99984C14.7934 7.35317 12.6467 5.20784 10.0001 5.20784C7.35342 5.20784 5.20675 7.35317 5.20675 9.99984ZM13.8628 5.01851C13.8628 5.63717 14.3641 6.13851 14.9828 6.13851C15.6014 6.13851 16.1027 5.63584 16.1027 5.01851C16.1027 4.39984 15.6014 3.8985 14.9828 3.8985C14.3641 3.8985 13.8628 4.39984 13.8628 5.01851ZM10.0001 13.1105C11.7174 13.1105 13.1108 11.7185 13.1108 9.99984C13.1108 8.28117 11.7174 6.88917 10.0001 6.88917C8.28275 6.88917 6.88942 8.28117 6.88942 9.99984C6.88942 11.7185 8.28275 13.1105 10.0001 13.1105ZM13.8494 19.2772C17.2348 19.1212 19.1241 17.2412 19.2774 13.8478C19.3228 12.8532 19.3334 12.5345 19.3334 9.99984C19.3334 7.46517 19.3228 7.14784 19.2774 6.15184C19.1254 2.7665 17.2428 0.879837 13.8494 0.723837C12.8534 0.677171 12.5347 0.666504 10.0001 0.666504C7.46542 0.666504 7.14808 0.677171 6.15208 0.723837C2.76142 0.878504 0.878748 2.75984 0.722748 6.15184C0.677414 7.14784 0.666748 7.46517 0.666748 9.99984C0.666748 12.5345 0.677414 12.8532 0.722748 13.8478C0.878748 17.2385 2.76008 19.1212 6.15208 19.2772C7.14808 19.3225 7.46542 19.3332 10.0001 19.3332C12.5347 19.3332 12.8534 19.3225 13.8494 19.2772Z" fill="white"/>
</svg>
