<svg width="169" height="56" viewBox="0 0 169 56" fill="none" xmlns="http://www.w3.org/2000/svg">
<path d="M69.2038 7.62989H64.8645V27.8843H69.1296C76.1623 27.8843 80.5372 23.9605 80.5372 17.6469C80.5372 11.5661 76.0882 7.62989 69.2038 7.62989ZM67.85 10.3962H68.4473C72.603 10.3962 77.5517 11.614 77.5517 17.7082C77.5517 23.8016 72.6027 25.0194 68.4473 25.0194H67.85V10.3962ZM94.2341 19.5236C94.2341 23.5203 92.7724 25.4588 89.7374 25.4588C86.703 25.4588 85.2286 23.5327 85.2286 19.5236V7.62989H82.2429V20.365C82.2429 25.1056 85.2407 28.298 89.7251 28.298C94.2109 28.298 97.2088 25.1177 97.2088 20.365V7.62989H94.2341V19.5236ZM105.69 16.7696L114.83 7.61753H110.869L102.875 15.7942V7.61778H99.8889V27.8843H102.875V19.5236L103.57 18.8536L110.881 27.9196H114.952L105.69 16.7696ZM127.139 25.1054H119.01V18.1715H126.92V15.3931H119.01V10.3962H127.139V7.61778H116.037V27.8843H127.139V25.1054ZM64.8645 53.7191H75.9542V50.9407H67.85V44.0066H75.7471V41.2402H67.85V36.232H75.9542V33.4649H64.8645V53.7191ZM98.7556 53.7191H109.882V50.9407H101.741V44.0066H109.651V41.2402H101.741V36.232H109.882V33.4649H98.7556V53.7191ZM98.7556 53.7191H109.882V50.9407H101.741V44.0066H109.651V41.2402H101.741V36.232H109.882V33.4649H98.7556V53.7191ZM93.1737 33.4649V47.6509L80.2083 33.4649H78.3916V53.7191H81.3772V39.4001L94.2341 53.7191H96.1358V33.4649H93.1737ZM123.8 39.3522C123.801 38.3722 123.55 37.4084 123.069 36.5543C122.589 35.7002 121.896 34.9847 121.057 34.4771C119.388 33.7091 117.55 33.3817 115.719 33.5262H112.514V53.7191H115.5V45.3712H116.171L121.971 53.7191H125.628L119.266 45.1162C121.999 44.5867 123.929 42.1319 123.8 39.3522ZM120.972 39.4619C120.972 41.777 119.436 42.8132 116 42.8132H115.476V36.1831H115.866C119.351 36.1831 120.972 37.2311 120.972 39.4496V39.4619ZM136.888 46.0177H141.982C141.702 49.0526 138.497 51.3556 135.791 51.3556C131.634 51.1538 128.366 47.7296 128.357 43.5679C128.256 40.2661 130.323 37.2841 133.451 36.2186C134.975 35.7004 136.625 35.6849 138.158 36.1743C139.692 36.6636 141.027 37.6321 141.969 38.9373L142.153 39.1809L144.2 37.1585L144.053 36.9627C140.991 33.1816 135.738 31.9883 131.343 34.0746C126.947 36.1609 124.55 40.9855 125.543 45.7493C126.536 50.5121 130.66 53.9779 135.522 54.1343C140.714 54.2427 145.013 50.1242 145.126 44.9325V43.2513H136.888V46.0177ZM157.691 33.4649L152.998 41.6307L148.319 33.4649H144.882L151.512 44.9449V53.7191H154.497V44.9449L161.127 33.4649H157.691ZM158.75 50.783C158.744 49.0799 160.119 47.6941 161.822 47.6868C163.524 47.6804 164.911 49.0549 164.917 50.7585C164.923 52.4604 163.549 53.8475 161.847 53.8535C161.445 53.8569 161.047 53.781 160.674 53.6303C160.302 53.4796 159.963 53.257 159.677 52.9752C159.39 52.6935 159.162 52.358 159.005 51.9879C158.848 51.6178 158.766 51.2205 158.762 50.8186C158.762 50.8186 158.75 50.7951 158.75 50.783ZM159.25 50.783C159.244 52.2092 160.394 53.372 161.822 53.3781C163.248 53.3856 164.411 52.2336 164.417 50.8065C164.425 49.3803 163.273 48.2175 161.847 48.2114C161.165 48.2081 160.509 48.4756 160.024 48.9553C159.54 49.4359 159.266 50.0887 159.263 50.7706L159.25 50.783ZM163.247 52.5381H162.674L161.797 50.9407H161.152V52.5257H160.652V49.0761H162.102C162.724 49.0761 163.321 49.2595 163.321 49.991C163.331 50.1062 163.318 50.2223 163.283 50.3325C163.248 50.4428 163.191 50.5449 163.117 50.6332C163.042 50.7215 162.95 50.7941 162.847 50.8469C162.745 50.8996 162.632 50.9315 162.517 50.9407H162.407L163.247 52.5381ZM161.152 49.576V50.442H161.688C162.151 50.442 162.796 50.5144 162.796 50.0515C162.796 49.5884 162.432 49.5884 162.017 49.5884L161.152 49.576ZM41.5518 48.162C40.4376 49.3463 38.9558 50.1193 37.347 50.3555C34.9096 50.502 32.5337 49.0032 31.8143 43.5558L21.9673 40.655C26.2698 55.9744 38.1758 55.4376 42.2712 48.7716C42.5507 48.3332 42.4657 48.114 42.2712 48.0043C42.0752 47.8948 41.8326 47.8948 41.5518 48.162ZM41.5518 7.94645C37.5909 0.0255811 23.5524 7.84908 21.1153 28.298C21.0169 28.7546 21.0694 29.2307 21.2648 29.6549C21.4602 30.0791 21.788 30.4284 22.1989 30.6504C23.4456 31.3291 24.8039 31.7788 26.2093 31.9782C27.2865 32.2303 28.3946 32.325 29.499 32.2592C29.9792 32.2383 30.4369 32.0502 30.7929 31.7273C31.149 31.4045 31.3809 30.9673 31.4486 30.4915C33.5449 8.55612 38.5539 3.58394 40.8816 8.30009C41.149 8.84796 41.8326 8.55612 41.5395 7.94645H41.5518Z" fill="#005984"/>
<path d="M39.1267 14.8685C38.6441 14.7919 38.1497 14.8557 37.7024 15.0524C37.2551 15.2491 36.8739 15.5704 36.6043 15.9779C36.0234 17.0236 35.6429 18.1685 35.4823 19.3539C35.2221 20.5539 35.1441 21.7863 35.251 23.0096C35.3429 23.3273 35.5349 23.6069 35.7985 23.8066C36.0622 24.0064 36.3832 24.1157 36.714 24.1182C41.1983 24.3987 54.3597 26.2756 56.2122 30.1026C57.4318 32.7347 53.7748 33.4044 51.0703 34.0994C50.6306 34.1786 50.2257 34.3904 49.9098 34.7062C49.5938 35.0221 49.382 35.4269 49.3026 35.8666C49.1504 36.54 49.1368 37.2373 49.2626 37.9162C49.3884 38.595 49.651 39.2412 50.0343 39.8154C50.1993 40.093 50.4678 40.2938 50.7807 40.3737C51.0936 40.4536 51.4255 40.406 51.7034 40.2414L51.8623 40.132C53.2566 39.2135 54.4912 38.0731 55.5173 36.756C64.3167 24.4839 45.8665 15.0025 39.1267 14.8685Z" fill="#54B948"/>
<path d="M43.6485 34.9637C21.5784 37.4011 4.16296 27.3115 17.3491 24.8617C17.3491 24.8617 19.0313 24.4715 19.3479 23.5206C19.6644 22.5709 19.7618 22.3025 20.1275 20.9008C20.3591 20.0361 20.5662 19.5483 20.7866 18.8783C21.1388 17.8426 20.4812 17.2209 19.0189 17.94C6.96637 23.826 10.4889 34.8184 20.3235 40.3264C26.7631 44.0906 34.36 45.3611 41.674 43.8968C42.2742 43.7831 42.8438 43.5442 43.3456 43.1958C43.8475 42.8474 44.2704 42.3972 44.5868 41.8746C45.5788 40.3858 46.0105 38.5934 45.8052 36.8162C45.8143 36.5444 45.7618 36.2741 45.6515 36.0256C45.5411 35.777 45.3759 35.5567 45.1683 35.3812C44.9609 35.2054 44.7166 35.0787 44.4534 35.0107C44.1902 34.9427 43.915 34.9351 43.6485 34.9885V34.9637Z" fill="#26BCD7"/>
</svg>
