<svg width="167" height="54" viewBox="0 0 167 54" fill="none" xmlns="http://www.w3.org/2000/svg">
<g clip-path="url(#clip0)">
<path d="M138.285 6.78238C121.854 3.00204 98.8358 0.921021 73.4747 0.921021C38.6627 0.921021 17.9352 2.21413 1.93098 5.38718C1.73706 5.42595 1.60949 5.61286 1.64725 5.80872C1.68297 6.00256 1.8677 6.13125 2.0657 6.09659C15.1724 3.73695 38.0095 2.38464 64.7189 2.38464C66.1998 2.38464 67.6756 2.39039 69.1473 2.39907C94.4666 2.54286 115.913 4.62503 131.168 8.42169C144.462 11.7295 152.087 16.1896 152.087 20.6568C152.087 24.0421 150.294 27.6051 137.284 30.7383C123.439 34.0716 98.8052 36.5936 59.7628 38.6736C59.5669 38.6851 59.4158 38.848 59.4209 39.0431C59.427 39.2389 59.5862 39.3952 59.7822 39.3952L79.4055 39.3636C109.159 38.0491 130.167 35.8436 143.628 32.6215C156.322 29.5842 162.492 25.5476 162.492 20.2833C162.492 15.1691 153.896 10.3742 138.285 6.78375" fill="#75BC1E"/>
<path d="M12.1732 16.5246C12.2844 16.048 12.4906 15.1703 11.7956 15.1703C10.9158 15.1703 10.7515 15.7245 10.0207 18.8486C9.26855 22.0656 9.24406 22.5279 10.0748 22.5279C10.6158 22.5279 10.9515 22.0349 11.272 20.6663L11.471 19.8181H14.7543L14.5931 20.5112C13.9919 23.0821 12.5121 24.5589 9.5482 24.5589C5.19734 24.5589 5.71275 22.3585 6.53332 18.8486C7.32939 15.4469 7.8693 13.1382 12.2202 13.1382C15.827 13.1382 15.8352 14.909 15.4361 16.6165L15.2483 17.4177H11.964L12.1732 16.5246Z" fill="#005DB9"/>
<path d="M19.1871 22.6204C19.78 22.6204 20.0331 22.1121 20.4873 20.1729C20.9415 18.2338 20.9241 17.7255 20.3312 17.7255C19.7392 17.7255 19.4851 18.2338 19.0319 20.1729C18.5777 22.1121 18.5941 22.6204 19.1871 22.6204ZM23.7716 20.1729C23.2215 22.5275 22.356 24.5605 18.7329 24.5605C15.1097 24.5605 15.1954 22.5275 15.7466 20.1729C16.2936 17.8337 17.1581 15.8016 20.7812 15.8016C24.4054 15.8016 24.3197 17.8337 23.7716 20.1729Z" fill="#005DB9"/>
<path d="M29.7679 18.8337C29.9149 18.2029 29.7393 18.0172 29.3148 18.0172C28.8749 18.0172 28.5758 18.357 28.4636 18.8337L27.1745 24.3439H23.8912L25.8386 16.0168H29.0218L28.7983 16.9711H28.833C29.5138 16.1556 30.4272 15.8015 31.5264 15.8015C32.695 15.8015 33.6258 16.3863 33.2686 17.91L31.7632 24.3439H28.4789L29.7679 18.8337Z" fill="#005DB9"/>
<path d="M36.342 21.6659C36.293 22.02 36.2491 22.2813 36.3206 22.4824C36.393 22.6826 36.5665 22.8049 36.9391 22.8049C37.5147 22.8049 37.7321 22.3119 37.7678 22.1588C37.8607 21.7577 37.7892 21.6352 36.6931 21.2515C34.7345 20.5728 33.8915 20.1278 34.2487 18.603C34.6406 16.9252 35.9532 15.8015 38.4924 15.8015C42.1503 15.8015 41.7247 17.6181 41.5451 18.3867H38.768C38.819 18.1714 38.8425 17.9253 38.7732 17.7865C38.6905 17.6335 38.5221 17.5559 38.167 17.5559C37.8281 17.5559 37.4484 17.6641 37.3392 18.1265C37.2464 18.5255 37.6505 18.6796 39.4835 19.3114C40.3296 19.6033 41.3533 20.0034 40.9389 21.7731C40.4562 23.8368 38.5599 24.5604 36.5289 24.5604C34.1417 24.5604 32.971 23.9899 33.464 21.666L36.342 21.6659Z" fill="#005DB9"/>
<path d="M46.3601 23.39H46.3254C45.6436 24.2065 44.7322 24.5596 43.631 24.5596C42.4634 24.5596 41.5326 23.9758 41.8898 22.451L43.3952 16.0171H46.6795L45.3905 21.5274C45.2435 22.1581 45.4192 22.3439 45.8426 22.3439C46.2825 22.3439 46.5826 22.005 46.6949 21.5274L47.9839 16.0171H51.2682L49.3199 24.3443H46.1376L46.3601 23.39Z" fill="#005DB9"/>
<path d="M61.1543 18.8337C61.3013 18.2029 61.1247 18.0172 60.7012 18.0172C60.2613 18.0172 59.9622 18.357 59.85 18.8337L58.561 24.3439H55.2777L56.5667 18.8337C56.7136 18.2029 56.5361 18.0172 56.1135 18.0172C55.6737 18.0172 55.3736 18.357 55.2623 18.8337L53.9733 24.3439H50.688L52.6363 16.0168H55.8196L55.5961 16.9711H55.6298C56.3125 16.1556 57.225 15.8015 58.3252 15.8015C59.206 15.8015 59.9561 16.1403 60.2358 16.9711C60.9002 16.1556 61.8126 15.8015 62.9128 15.8015C64.0814 15.8015 65.0122 16.3863 64.655 17.91L63.1496 24.3439H59.8653L61.1543 18.8337Z" fill="#005DB9"/>
<path d="M70.3086 18.6027C70.4995 17.7863 70.3504 17.5566 69.8248 17.5566C69.3513 17.5566 69.0767 17.7863 68.8859 18.6027L68.7705 19.0957H70.1933L70.3086 18.6027ZM68.148 21.7585C68.0439 22.2045 67.9367 22.8046 68.6144 22.8046C69.2574 22.8046 69.4513 22.2657 69.6493 21.4197H72.6295C72.3631 22.5587 71.8405 23.3435 71.0822 23.8364C70.3239 24.3284 69.339 24.56 68.2214 24.56C64.5973 24.56 64.683 22.528 65.2341 20.1724C65.7812 17.8332 66.6466 15.8012 70.2698 15.8012C74.0124 15.8012 73.548 17.9261 72.9407 20.5266L72.9071 20.6655H68.4041L68.148 21.7585Z" fill="#005DB9"/>
<path d="M75.0613 16.0169H78.2445L77.9567 17.2487H77.9904C78.4987 16.4476 79.3784 15.8005 80.2756 15.8005C80.6317 15.8005 80.7256 15.8321 80.8236 15.8474L80.1857 18.5714C80.0714 18.5569 79.9388 18.5419 79.7908 18.5254C79.6417 18.5109 79.506 18.5109 79.1682 18.5109C78.0333 18.5109 77.6363 19.0488 77.4066 20.0336L76.3983 24.3437H73.1129L75.0613 16.0169Z" fill="#005DB9"/>
<path d="M83.2128 21.6659C83.1638 22.02 83.1199 22.2813 83.1914 22.4824C83.2638 22.6826 83.4373 22.8049 83.8098 22.8049C84.3855 22.8049 84.6029 22.3129 84.6386 22.1588C84.7314 21.7577 84.6591 21.6352 83.5639 21.2515C81.6053 20.5728 80.7623 20.1278 81.1195 18.603C81.5114 16.9252 82.8239 15.8015 85.3632 15.8015C89.0211 15.8015 88.5955 17.6181 88.4169 18.3867H85.6387C85.6898 18.1714 85.7132 17.9253 85.644 17.7865C85.5613 17.6335 85.3929 17.5559 85.0377 17.5559C84.6989 17.5559 84.3192 17.6641 84.21 18.1265C84.1171 18.5255 84.5213 18.6796 86.3543 19.3114C87.2004 19.6033 88.2241 20.0034 87.8097 21.7731C87.3269 23.8368 85.4306 24.5604 83.3996 24.5604C81.0124 24.5604 79.8418 23.9899 80.3347 21.666L83.2128 21.6659Z" fill="#005DB9"/>
<path d="M93.8643 13.3537H101.145L100.562 15.8481H96.667L96.271 17.5403H99.9115L99.3501 19.9418H95.7096L95.2636 21.8503H99.3093L98.7265 24.3437H91.2934L93.8643 13.3537Z" fill="#005DB9"/>
<path d="M105.884 18.8337C106.031 18.2029 105.855 18.0172 105.432 18.0172C104.991 18.0172 104.692 18.357 104.58 18.8337L103.291 24.3439H100.007L101.955 16.0168H105.138L104.914 16.9711H104.949C105.63 16.1556 106.543 15.8015 107.643 15.8015C108.812 15.8015 109.742 16.3863 109.385 17.91L107.879 24.3439H104.595L105.884 18.8337Z" fill="#005DB9"/>
<path d="M115.02 18.6027C115.211 17.7863 115.062 17.5566 114.536 17.5566C114.063 17.5566 113.788 17.7863 113.598 18.6027L113.482 19.0957H114.905L115.02 18.6027ZM112.86 21.7585C112.755 22.2045 112.649 22.8046 113.326 22.8046C113.969 22.8046 114.163 22.2657 114.361 21.4197H117.341C117.075 22.5587 116.552 23.3435 115.794 23.8364C115.035 24.3284 114.051 24.56 112.933 24.56C109.309 24.56 109.396 22.528 109.946 20.1724C110.494 17.8332 111.358 15.8012 114.981 15.8012C118.724 15.8012 118.26 17.9261 117.652 20.5266L117.619 20.6655H113.116L112.86 21.7585Z" fill="#005DB9"/>
<path d="M119.763 16.0169H122.946L122.658 17.2487H122.692C123.2 16.4476 124.08 15.8005 124.977 15.8005C125.333 15.8005 125.427 15.8321 125.525 15.8474L124.887 18.5714C124.773 18.5569 124.64 18.5419 124.493 18.5254C124.343 18.5109 124.208 18.5109 123.87 18.5109C122.735 18.5109 122.338 19.0488 122.108 20.0336L121.1 24.3437H117.815L119.763 16.0169Z" fill="#005DB9"/>
<path d="M129.609 18.0178C128.966 18.0178 128.723 18.6179 128.36 20.1734C128.091 21.3277 128.048 21.9431 128.674 21.9431C129.335 21.9431 129.581 21.3277 129.85 20.1734C130.213 18.6179 130.252 18.0178 129.609 18.0178ZM130.924 16.0164H134.056L132.188 24.0057C131.622 26.4225 129.819 27.1757 127.416 27.1757C123.979 27.1757 124.107 25.7602 124.253 24.7763H127.233C127.181 24.9907 127.214 25.1448 127.277 25.2366C127.379 25.3755 127.538 25.4223 127.776 25.4223C128.334 25.4223 128.618 25.2224 128.751 24.6518L129.137 23.0045H129.103C128.506 23.821 127.669 24.067 126.772 24.067C124.604 24.067 124.658 21.9584 125.111 20.0192C125.55 18.1403 126.284 15.8011 128.942 15.8011C129.976 15.8011 130.488 16.2175 130.648 17.0483H130.682L130.924 16.0164Z" fill="#005DB9"/>
<path d="M134.994 16.0168H138.381L138.03 21.0648H138.063L139.989 16.0168H143.274L138.99 24.2675C137.951 26.2526 137.356 27.0527 134.885 27.0527C134.174 27.0527 133.748 26.9914 133.359 26.915L133.812 24.9758C134.093 25.0065 134.378 25.0218 134.666 25.0218C134.936 25.0218 135.158 24.9452 135.313 24.7913C135.464 24.6524 135.549 24.4983 135.586 24.3442L134.994 16.0168Z" fill="#005DB9"/>
<path d="M98.2783 48.6179C97.6823 50.705 96.3933 52.6227 93.8612 52.6227C90.5646 52.6227 90.7861 49.6691 91.4086 46.8859C92.0302 44.1027 93.2253 41.149 96.4229 41.149C98.7948 41.149 99.501 42.4166 99.0826 44.5824H97.5884C97.8364 43.3301 97.6517 42.2625 96.1749 42.2625C94.1939 42.2615 93.4713 44.3343 92.9018 46.8859C92.3323 49.4374 92.1292 51.5092 94.1092 51.5092C95.8473 51.5092 96.4351 49.963 96.7842 48.6179H98.2783Z" fill="#005DB9"/>
<path d="M104.009 48.2622C104.41 46.469 104.478 44.9228 103.018 44.9228C101.638 44.9228 101 46.469 100.6 48.2622C100.198 50.0555 100.129 51.6027 101.525 51.6027C102.971 51.6027 103.607 50.0555 104.009 48.2622ZM103.278 43.9012C105.794 43.9012 105.958 45.9281 105.436 48.2622C104.916 50.5964 103.83 52.6233 101.329 52.6233C98.8127 52.6233 98.6494 50.5964 99.1699 48.2622C99.6924 45.9281 100.777 43.9012 103.278 43.9012Z" fill="#005DB9"/>
<path d="M111.559 52.4063H110.261L110.478 51.4326H110.446C109.919 52.1899 108.914 52.6226 108.069 52.6226C105.78 52.6226 106.149 50.9682 106.367 49.9935L107.68 44.1189H109.043L107.766 49.8405C107.624 50.4732 107.441 51.5102 108.675 51.5102C109.405 51.5102 110.5 51.0458 110.768 49.8405L112.047 44.1189H113.411L111.559 52.4063Z" fill="#005DB9"/>
<path d="M114.988 44.1181H116.286L116.069 45.0928H116.102C116.628 44.3345 117.634 43.9017 118.478 43.9017C120.768 43.9017 120.397 45.5562 120.18 46.5309L118.867 52.4065H117.503L118.782 46.6839C118.923 46.0501 119.107 45.0142 117.872 45.0142C117.142 45.0142 116.047 45.4786 115.779 46.6839L114.5 52.4065H113.136L114.988 44.1181Z" fill="#005DB9"/>
<path d="M123.403 41.706H124.767L124.228 44.1177H125.737L125.51 45.1393H124L122.812 50.4577C122.663 51.1222 122.783 51.3855 123.498 51.3855C123.79 51.3855 123.959 51.3548 124.108 51.3395L123.871 52.406C123.685 52.4375 123.313 52.4989 122.746 52.4989C121.333 52.4989 121.117 51.9426 121.358 50.8598L122.636 45.1392H121.37L121.598 44.1176H122.864L123.403 41.706Z" fill="#005DB9"/>
<path d="M132.586 48.2622C132.987 46.469 133.056 44.9228 131.595 44.9228C130.215 44.9228 129.577 46.469 129.177 48.2622C128.776 50.0555 128.707 51.6027 130.103 51.6027C131.548 51.6027 132.185 50.0555 132.586 48.2622ZM131.855 43.9012C134.372 43.9012 134.536 45.9281 134.014 48.2622C133.493 50.5964 132.408 52.6233 129.907 52.6233C127.39 52.6233 127.227 50.5964 127.747 48.2622C128.27 45.9281 129.355 43.9012 131.855 43.9012Z" fill="#005DB9"/>
<path d="M136.257 44.1181H137.555L137.338 45.0928H137.372C137.897 44.3345 138.904 43.9017 139.748 43.9017C142.037 43.9017 141.666 45.5562 141.449 46.5309L140.137 52.4065H138.773L140.052 46.6839C140.193 46.0501 140.376 45.0142 139.141 45.0142C138.412 45.0142 137.317 45.4786 137.048 46.6839L135.769 52.4065H134.406L136.257 44.1181Z" fill="#005DB9"/>
<path d="M146.859 41.3658H148.287L146.554 49.1275C146.191 50.7523 146.575 51.5096 147.987 51.5096C149.513 51.5096 150.154 50.6748 150.5 49.1275L152.233 41.3658H153.662L151.928 49.1275C151.454 51.2463 150.011 52.6221 147.738 52.6221C145.417 52.6221 144.618 51.4014 145.125 49.1275L146.859 41.3658Z" fill="#005DB9"/>
<path d="M157.896 46.5458C158.132 45.4946 157.966 44.922 156.976 44.922C156.537 44.922 155.539 45.0302 155.28 46.1906C155.063 47.1642 156.093 47.35 157.087 47.6899C158.068 48.0298 159.059 48.3859 158.694 50.025C158.304 51.7723 156.927 52.6225 155.304 52.6225C152.35 52.6225 152.784 50.5354 152.973 49.6852H154.337C154.112 50.6895 154.201 51.6019 155.533 51.6019C155.971 51.6019 157.022 51.4008 157.285 50.2261C157.533 49.1116 156.514 48.8799 155.534 48.5401C154.555 48.2002 153.534 47.9062 153.916 46.1906C154.261 44.6444 155.693 43.9014 157.204 43.9014C159.737 43.9014 159.461 45.5711 159.26 46.5458H157.896Z" fill="#005DB9"/>
<path d="M162.957 43.6803C163.394 43.6803 163.778 43.6601 163.778 43.1863C163.778 42.771 163.429 42.7199 163.095 42.7199H162.44V43.6803H162.957ZM161.961 42.2841H163.182C163.88 42.2841 164.258 42.5821 164.258 43.2078C164.258 43.7671 163.888 44.0294 163.408 44.0804L164.309 45.4398H163.829L162.957 44.1171H162.44V45.4398H161.961V42.2841ZM165.255 43.8477C165.255 42.5964 164.266 41.585 163.036 41.585C161.808 41.585 160.818 42.5964 160.818 43.8477C160.818 45.0989 161.808 46.1093 163.036 46.1093C164.266 46.1093 165.255 45.0989 165.255 43.8477ZM163.036 41.1492C164.527 41.1492 165.735 42.3566 165.735 43.8477C165.735 45.3378 164.527 46.5462 163.036 46.5462C161.545 46.5462 160.339 45.3378 160.339 43.8477C160.339 42.3566 161.545 41.1492 163.036 41.1492Z" fill="#005DB9"/>
</g>
<defs>
<clipPath id="clip0">
<rect width="165.625" height="53.2332" fill="white" transform="translate(0.875 0.155548)"/>
</clipPath>
</defs>
</svg>
