<svg width="212" height="50" viewBox="0 0 212 50" fill="none" xmlns="http://www.w3.org/2000/svg">
<path d="M24.9863 31.0909C28.3483 31.0909 31.0738 28.3639 31.0738 25C31.0738 21.6361 28.3483 18.9091 24.9863 18.9091C21.6242 18.9091 18.8987 21.6361 18.8987 25C18.8987 28.3639 21.6242 31.0909 24.9863 31.0909Z" fill="white"/>
<path d="M24.9863 50C38.7642 50 49.9726 38.7854 49.9726 25C49.9726 11.2156 38.7642 0 24.9863 0C11.2084 0 0 11.2156 0 25C0 38.7854 11.2084 50 24.9863 50ZM24.9169 3.7237C32.2521 3.7237 38.7308 7.45959 42.5542 13.1284C44.8502 16.5191 46.1937 20.6055 46.1937 25.0005C46.1937 30.1295 44.3647 34.8379 41.3257 38.5107C37.4228 43.2457 31.5164 46.2689 24.9169 46.2689C13.1938 46.2689 3.65594 36.7268 3.65594 24.9963C3.65647 13.2668 13.1938 3.7237 24.9169 3.7237Z" fill="#008174"/>
<path d="M24.9862 7.56409C15.3773 7.56409 7.55981 15.3859 7.55981 25C7.55981 29.0955 8.98763 32.8584 11.3589 35.837V25.3903C11.3551 25.2593 11.3392 25.1315 11.3392 24.9995C11.3392 24.8675 11.3551 24.7397 11.3589 24.6087V24.3536H11.3716C11.7118 17.1257 17.6796 11.3445 24.9862 11.3445C32.5106 11.3445 38.6337 17.471 38.6337 24.9995C38.6337 32.5291 32.5106 38.655 24.9862 38.655C24.1912 38.655 23.4164 38.5723 22.6585 38.4413V42.262C23.4222 42.3649 24.1955 42.4365 24.9862 42.4365C31.5821 42.4365 37.332 38.7505 40.291 33.3298C41.6351 30.8523 42.3988 28.0131 42.3988 24.9958C42.3988 22.3173 41.7793 19.7894 40.7039 17.5203C37.8986 11.6441 31.917 7.56409 24.9862 7.56409Z" fill="#A3DCBE"/>
<path d="M15.1379 39.496C16.297 40.2803 17.5643 40.9103 18.8993 41.4008V35.3618V32.7115C20.5816 34.0441 22.6788 34.8735 24.9864 34.8735C30.4284 34.8735 34.8545 30.4445 34.8545 25C34.8545 19.556 30.4279 15.1276 24.9864 15.1276C19.6117 15.1276 15.245 19.4526 15.1379 24.8043V24.8833V39.496V39.496ZM24.9864 18.9085C28.3477 18.9085 31.0735 21.6358 31.0735 25C31.0735 28.3641 28.3477 31.0914 24.9864 31.0914C21.623 31.0914 18.8993 28.3641 18.8993 25C18.8993 21.6358 21.623 18.9085 24.9864 18.9085Z" fill="#008174"/>
<path d="M24.917 46.2684C31.5165 46.2684 37.4228 43.2447 41.3258 38.5103C44.3642 34.8375 46.1938 30.129 46.1938 25.0001C46.1938 20.605 44.8508 16.5186 42.5543 13.1279C38.7309 7.45965 32.2527 3.72375 24.917 3.72375C13.1939 3.72375 3.65601 13.2669 3.65601 24.9963C3.65654 36.7269 13.1939 46.2684 24.917 46.2684ZM42.399 24.9963C42.399 28.0137 41.6353 30.8529 40.2912 33.3304C37.3327 38.751 31.5822 42.4371 24.9864 42.4371C24.1951 42.4371 23.4218 42.3655 22.6586 42.2626V38.4418C23.4171 38.5728 24.1914 38.6556 24.9864 38.6556C32.5108 38.6556 38.6339 32.5291 38.6339 25.0001C38.6339 17.4715 32.5108 11.3451 24.9864 11.3451C17.6798 11.3451 11.712 17.1263 11.3717 24.3542H11.359V24.6092C11.3553 24.7402 11.3394 24.868 11.3394 25.0001C11.3394 25.1321 11.3553 25.2599 11.359 25.3909V35.8376C8.98781 32.8584 7.55999 29.096 7.55999 25.0006C7.55999 15.3864 15.3775 7.56465 24.9864 7.56465C31.9172 7.56465 37.8982 11.6447 40.7041 17.5208C41.7794 19.79 42.399 22.3178 42.399 24.9963ZM15.1379 24.8834V24.8044C15.245 19.4527 19.6117 15.1276 24.9864 15.1276C30.4284 15.1276 34.8545 19.5566 34.8545 25.0001C34.8545 30.4451 30.4279 34.8735 24.9864 34.8735C22.6788 34.8735 20.5816 34.0442 18.8993 32.7115V35.3619V41.4009C17.5648 40.9103 16.2976 40.2804 15.1379 39.4961V24.8834V24.8834Z" fill="white"/>
<path d="M66.7976 32.4739H66.8749C67.9657 34.0319 70.0284 34.8873 71.9725 34.8873C77.6143 34.8873 80.8055 29.8267 80.8055 24.6108C80.8055 19.5889 77.4977 14.5284 72.0891 14.5284C70.0661 14.5284 68.0431 15.4235 66.7976 16.903V15.1509H61.3518V44.4638H66.7976V32.4739ZM70.7662 19.3551C73.5673 19.3551 75.2797 22.1195 75.2797 24.6882C75.2797 27.258 73.5673 30.0606 70.7662 30.0606C67.9652 30.0606 66.2528 27.258 66.2528 24.6882C66.2528 22.119 67.9652 19.3551 70.7662 19.3551Z" fill="#008174"/>
<path d="M88.7804 25.6618C88.7804 22.7039 89.1705 19.3556 92.9435 19.3556C93.7613 19.3556 94.5388 19.5895 95.2003 20.0567L95.8617 14.995C95.161 14.7225 94.383 14.5284 93.605 14.5284C91.582 14.5284 89.9485 15.4622 88.8578 17.1358H88.7804V15.1509H83.3325V34.2642H88.7804V25.6618Z" fill="#008174"/>
<path d="M106.328 34.8878C112.32 34.8878 116.366 30.645 116.366 24.728C116.366 18.7712 112.281 14.5284 106.328 14.5284C100.375 14.5284 96.2889 18.7712 96.2889 24.728C96.2894 30.645 100.335 34.8878 106.328 34.8878ZM106.328 19.3551C109.129 19.3551 110.841 22.0802 110.841 24.7275C110.841 27.2967 109.129 30.0606 106.328 30.0606C103.527 30.0606 101.814 27.2967 101.814 24.7275C101.814 22.0802 103.527 19.3551 106.328 19.3551Z" fill="#008174"/>
<path d="M127.844 34.654L136.637 15.1509H130.684L126.755 25.9339L122.279 15.1509H116.289L125.043 34.654H127.844Z" fill="#008174"/>
<path d="M143.641 15.1509H138.193V34.2642H143.641V15.1509Z" fill="#008174"/>
<path d="M140.917 10.3624C142.7 10.3624 144.146 8.91583 144.146 7.13137C144.146 5.34691 142.7 3.90031 140.917 3.90031C139.134 3.90031 137.688 5.34691 137.688 7.13137C137.688 8.91583 139.134 10.3624 140.917 10.3624Z" fill="#008174"/>
<path d="M153.133 30.6837C151.538 30.6837 150.138 29.6332 149.087 28.4644L146.596 31.696C148.271 33.7201 150.76 34.8878 153.329 34.8878C157.336 34.8878 160.76 32.3573 160.76 28.115C160.76 24.8054 158.814 23.4823 156.829 22.6254C154.885 21.769 152.899 21.3797 152.899 19.9782C152.899 19.0443 153.794 18.3433 154.689 18.3433C155.779 18.3433 156.791 18.9277 157.569 19.6664L159.903 16.5133C158.347 15.1515 155.78 14.5284 153.757 14.5284C150.178 14.5284 147.687 17.1358 147.687 20.7179C147.687 23.7931 149.594 24.9221 151.5 25.7398C153.406 26.557 155.313 26.9462 155.313 28.6208C155.313 29.8665 154.341 30.6837 153.133 30.6837Z" fill="#008174"/>
<path d="M169.435 15.1509H163.989V34.2642H169.435V15.1509Z" fill="#008174"/>
<path d="M166.713 10.363C168.503 10.363 169.942 8.92216 169.942 7.13137C169.942 5.37929 168.503 3.89978 166.713 3.89978C164.924 3.89978 163.482 5.37929 163.482 7.13137C163.482 8.92216 164.923 10.363 166.713 10.363Z" fill="#008174"/>
<path d="M182.275 34.8878C188.267 34.8878 192.313 30.645 192.313 24.728C192.313 18.7712 188.23 14.5284 182.275 14.5284C176.322 14.5284 172.238 18.7712 172.238 24.728C172.238 30.645 176.284 34.8878 182.275 34.8878ZM182.275 19.3551C185.076 19.3551 186.788 22.0802 186.788 24.7275C186.788 27.2967 185.076 30.0606 182.275 30.0606C179.473 30.0606 177.761 27.2967 177.761 24.7275C177.761 22.0802 179.473 19.3551 182.275 19.3551Z" fill="#008174"/>
<path d="M200.328 24.8049C200.328 22.5082 200.368 18.8874 203.597 18.8874C206.671 18.8874 206.554 21.8464 206.554 24.1431V34.2642H212V22.5867C212 18.1481 210.523 14.5284 205.386 14.5284C203.44 14.5284 201.534 15.1902 200.406 16.903H200.328V15.1509H194.881V34.2642H200.328V24.8049Z" fill="#008174"/>
</svg>
