<svg width="46" height="46" viewBox="0 0 46 46" fill="none" xmlns="http://www.w3.org/2000/svg">
<rect x="1" y="1" width="44" height="44" rx="22" fill="white"/>
<path fill-rule="evenodd" clip-rule="evenodd" d="M31.5556 14H14.4444C13.0963 14 12 15.0764 12 16.4V22.4V29C12 30.3236 13.0963 31.4 14.4444 31.4H21.7778H24.2222H31.5556C32.9037 31.4 34 30.3236 34 29V16.4C34 15.0764 32.9037 14 31.5556 14ZM14.4444 18.8V22.4L14.4444 29H21.7778H24.2222H31.5556V18.8L23.7333 24.56C23.5158 24.7196 23.2579 24.8 23 24.8C22.7421 24.8 22.4842 24.7196 22.2667 24.56L14.4444 18.8ZM15.2584 16.4L23 22.1L30.7416 16.4H15.2584Z" fill="#008174"/>
<rect x="1" y="1" width="44" height="44" rx="22" stroke="#008174" stroke-width="2"/>
</svg>
