<svg width="20" height="10" viewBox="0 0 20 10" fill="none" xmlns="http://www.w3.org/2000/svg">
<path d="M1 4C0.447715 4 0 4.44772 0 5C0 5.55228 0.447715 6 1 6V4ZM18.5 5L19.2071 5.70711C19.5976 5.31658 19.5976 4.68342 19.2071 4.29289L18.5 5ZM15.7071 0.792893C15.3166 0.402369 14.6834 0.402369 14.2929 0.792893C13.9024 1.18342 13.9024 1.81658 14.2929 2.20711L15.7071 0.792893ZM14.2929 7.79289C13.9024 8.18342 13.9024 8.81658 14.2929 9.20711C14.6834 9.59763 15.3166 9.59763 15.7071 9.20711L14.2929 7.79289ZM1 6H18.5V4H1V6ZM19.2071 4.29289L15.7071 0.792893L14.2929 2.20711L17.7929 5.70711L19.2071 4.29289ZM17.7929 4.29289L14.2929 7.79289L15.7071 9.20711L19.2071 5.70711L17.7929 4.29289Z" fill="#44C0BB"/>
</svg>
