<svg width="46" height="48" viewBox="0 0 46 48" fill="none" xmlns="http://www.w3.org/2000/svg">
<path d="M6.09566 40.7048C6.0956 40.7049 6.09544 40.7049 6.09542 40.7048L1.79256 11.2618C1.56525 9.70644 2.484 8.21137 3.97433 7.71148V7.71148C4.13611 7.65722 4.30192 7.61578 4.47021 7.58756L13.0834 6.14311C14.6449 5.88126 16.2491 6.12369 17.6634 6.83524V6.83524C18.7021 7.35779 19.8486 7.62996 21.0113 7.62996H22.919C24.2163 7.62996 25.5049 7.41961 26.7349 7.0071L29.2996 6.14688C30.104 5.87712 30.8648 5.49194 31.5584 5.00342L35.3388 2.34064C37.7394 0.649735 41.0824 1.49618 42.389 4.12577V4.12577C42.6094 4.56927 42.7597 5.04426 42.8345 5.53381L44.3795 15.6389C44.5259 16.5962 44.5558 17.5678 44.4687 18.5323L43.8181 25.7334C43.7141 26.8844 43.3969 28.006 42.8826 29.041L42.7856 29.2362C42.1282 30.5592 41.1372 31.6878 39.9104 32.5108L37.4842 34.1384C36.6489 34.6987 36.1477 35.6384 36.1477 36.6443V37.129C36.1477 38.1362 35.5042 39.0307 34.5493 39.351V39.351C33.79 39.6057 33.2133 40.2305 33.0201 41.0079L32.3911 43.5399L32.2013 44.1125C31.7539 45.4632 30.4913 46.375 29.0685 46.375H28.8647C28.1163 46.375 27.3988 46.0765 26.8713 45.5457L26.2069 44.8771C25.4743 44.1399 24.2817 44.1399 23.5491 44.8771V44.8771C23.1974 45.231 22.7191 45.43 22.2202 45.43H18.0313C17.6049 45.43 17.1962 45.2599 16.8956 44.9574V44.9574C16.595 44.655 16.1862 44.4849 15.7598 44.4849H14.5876C13.3898 44.4849 12.2718 43.8845 11.6103 42.8859V42.8859C11.086 42.0946 10.2682 41.5445 9.33757 41.3572L6.09579 40.7047C6.09574 40.7047 6.09568 40.7048 6.09566 40.7048V40.7048Z" fill="white" stroke="#101010" stroke-width="2" stroke-linejoin="round"/>
</svg>
