<svg width="62" height="43" viewBox="0 0 62 43" fill="none" xmlns="http://www.w3.org/2000/svg">
<path d="M7.8262 6.87513L3.78242 10.9302C1.51314 13.2058 0.950481 16.6763 2.38455 19.5523V19.5523C2.74261 20.2704 2.98284 21.0414 3.09601 21.8358L4.88566 34.398V34.398C6.01378 38.9229 10.2729 41.9493 14.9171 41.5259L16.7021 41.3631C17.3186 41.3069 17.9295 41.2012 18.529 41.0471L53.1058 32.1562C54.8863 31.6984 56.4571 30.6463 57.5582 29.1741L59.3106 26.831C60.7045 24.9673 60.5195 22.3631 58.8762 20.7152V20.7152C58.1875 20.0246 57.7315 19.1364 57.5716 18.1744L57.0202 14.8571C56.9 14.1338 56.9581 13.3921 57.1894 12.6964L57.7866 10.8998C58.3237 9.28396 57.3245 7.56264 55.6549 7.22778V7.22778C54.5812 7.01243 53.7277 6.19768 53.4627 5.13515L53.3933 4.85667C53.0996 3.67887 52.1807 2.75881 51.0033 2.46361L49.6644 2.12795C49.2201 2.01654 48.7637 1.96021 48.3056 1.96021H45.5202C43.9319 1.96021 42.3594 2.27551 40.8939 2.88783L33.5716 5.94727C32.1061 6.5596 30.5129 6.8749 28.9247 6.8749V6.8749C27.9408 6.8749 26.9481 6.99588 25.9938 7.23513L9.47608 11.3762C8.63836 11.5863 7.82643 10.9528 7.82643 10.0891V6.87523C7.82643 6.87511 7.82628 6.87505 7.8262 6.87513V6.87513Z" fill="white" stroke="#101010" stroke-width="2" stroke-linejoin="round"/>
</svg>
