<svg width="96" height="68" viewBox="0 0 96 68" fill="none" xmlns="http://www.w3.org/2000/svg">
<path d="M93.9106 10.965C92.8094 6.81417 90.3953 3.30083 86.2588 2.19583C78.7624 0.184167 48 0 48 0C48 0 17.2376 0.184167 9.74118 2.19583C5.60471 3.30083 3.20471 6.81417 2.08941 10.965C0.084706 18.4875 0 34 0 34C0 34 0.084706 49.5125 2.08941 57.035C3.19059 61.1858 5.60471 64.6992 9.74118 65.8042C17.2376 67.8158 48 68 48 68C48 68 78.7624 67.8158 86.2588 65.8042C90.3953 64.6992 92.8094 61.1858 93.9106 57.035C95.9153 49.5125 96 34 96 34C96 34 95.9153 18.4875 93.9106 10.965Z" fill="#101010" fill-opacity="0.5"/>
<path d="M64 34L40 20V48" fill="white"/>
</svg>
