<svg width="640" height="357" viewBox="0 0 640 357" fill="none" xmlns="http://www.w3.org/2000/svg">
<g clip-path="url(#clip0)">
<rect width="640" height="357" fill="white"/>
<path d="M131.151 178.499H149.15H165.583C165.583 181.74 165.65 184.861 165.776 187.867C167.382 226.13 178.674 245.712 185.93 256.569H149.15H110.805C118.06 245.712 129.352 226.13 130.958 187.867C131.085 184.861 131.151 181.74 131.151 178.499Z" fill="#101010" fill-opacity="0.05"/>
<path d="M130.958 187.867C129.352 226.13 118.06 245.712 110.805 256.569H149.15H185.93C178.674 245.712 167.382 226.13 165.776 187.867M130.958 187.867C131.085 184.861 131.151 181.74 131.151 178.499H149.15H165.583C165.583 181.74 165.65 184.861 165.776 187.867M130.958 187.867H165.776" stroke="#101010"/>
<path d="M138.973 170.283C138.321 164.417 140.928 152.686 156.569 152.686C172.211 152.686 176.903 152.686 180.422 152.686C180.162 148.124 185.506 139 198.019 139C214.599 139 220.308 139 233.994 139C233.343 143.562 228.833 152.686 216.007 152.686C203.181 152.686 206.491 152.686 197.237 152.686C197.106 156.466 193.326 160.898 185.506 160.898C177.685 160.898 171.559 160.898 165.172 160.898C159.306 160.898 156.569 165.278 156.569 170.283" stroke="#101010"/>
<rect x="162.631" y="246.023" width="42.1824" height="7.0304" fill="white" stroke="#101010" stroke-linejoin="round"/>
<rect x="157.943" y="221.417" width="51.5563" height="7.0304" fill="white" stroke="#101010" stroke-linejoin="round"/>
<path d="M167.318 213.801L163.803 221.417H205.399L201.884 214.973L194.854 207.942H187.823L184.894 214.973L180.207 210.872H174.348L171.419 214.973L167.318 213.801Z" fill="white" stroke="#101010"/>
<path d="M161.457 228.448H205.983L201.296 246.024H166.144L161.457 228.448Z" fill="white" stroke="#101010" stroke-linejoin="round"/>
<circle cx="174.347" cy="250.71" r="5.85867" fill="white" stroke="#101010" stroke-linejoin="round"/>
<circle cx="194.267" cy="250.71" r="5.85867" fill="white" stroke="#101010" stroke-linejoin="round"/>
<path d="M162.63 249.539H159.115" stroke="#101010"/>
<path d="M208.328 249.539H204.812" stroke="#101010"/>
<path d="M110.991 11.4499C110.175 11.0019 109.247 10.7459 108.303 10.7459C104.767 10.7459 102.351 13.7699 102.351 17.1939C102.351 20.5219 104.863 23.4499 108.255 23.4499C109.231 23.4499 110.111 23.1459 110.991 22.7299V19.9299C110.335 20.6819 109.327 21.2099 108.319 21.2099C106.127 21.2099 104.783 19.1779 104.783 17.1459C104.783 15.0659 106.079 12.9859 108.335 12.9859C109.343 12.9859 110.335 13.4659 110.991 14.2659V11.4499ZM119.896 15.2739H117.688V16.0099C117.144 15.3699 116.312 15.0179 115.496 15.0179C113.24 15.0179 111.912 17.0819 111.912 19.1619C111.912 21.2899 113.224 23.3859 115.528 23.3859C116.344 23.3859 117.176 23.0339 117.656 22.4099H117.688V23.1299H119.896V15.2739ZM116.04 21.4019C114.888 21.4019 114.184 20.2499 114.184 19.1939C114.184 18.1379 114.888 17.0019 116.04 17.0019C117.192 17.0019 117.912 18.1379 117.912 19.1939C117.912 20.2499 117.192 21.4019 116.04 21.4019ZM123.759 15.2739H121.519V23.1299H123.759V19.5939C123.759 18.3779 123.919 17.0019 125.471 17.0019C125.807 17.0019 126.127 17.0979 126.399 17.2899L126.671 15.2099C126.383 15.0979 126.063 15.0179 125.743 15.0179C124.911 15.0179 124.239 15.4019 123.791 16.0899H123.759V15.2739ZM127.394 23.1299H129.634V22.3939H129.666C130.114 23.0339 130.962 23.3859 131.762 23.3859C134.082 23.3859 135.394 21.3059 135.394 19.1619C135.394 17.0979 134.034 15.0179 131.81 15.0179C130.978 15.0179 130.146 15.3859 129.634 15.9939V9.56188H127.394V23.1299ZM131.266 21.4019C130.114 21.4019 129.41 20.2499 129.41 19.1939C129.41 18.1379 130.114 17.0019 131.266 17.0019C132.418 17.0019 133.122 18.1379 133.122 19.1939C133.122 20.2499 132.418 21.4019 131.266 21.4019ZM140.025 15.0179C137.577 15.0179 135.897 16.7619 135.897 19.2099C135.897 21.6419 137.561 23.3859 140.025 23.3859C142.489 23.3859 144.153 21.6419 144.153 19.2099C144.153 16.7619 142.473 15.0179 140.025 15.0179ZM140.025 17.0019C141.177 17.0019 141.881 18.1219 141.881 19.2099C141.881 20.2659 141.177 21.4019 140.025 21.4019C138.873 21.4019 138.169 20.2659 138.169 19.2099C138.169 18.1219 138.873 17.0019 140.025 17.0019ZM147.446 15.2739H145.206V23.1299H147.446V19.2419C147.446 18.2979 147.462 16.8099 148.79 16.8099C150.054 16.8099 150.006 18.0259 150.006 18.9699V23.1299H152.246V18.3299C152.246 16.5059 151.638 15.0179 149.526 15.0179C148.726 15.0179 147.942 15.2899 147.478 15.9939H147.446V15.2739ZM163.288 18.0419C164.904 17.7699 165.752 16.2339 165.752 14.6979C165.752 12.1219 164.104 11.0659 161.72 11.0659H158.536V23.1299H160.888V18.2659H160.92L163.848 23.1299H166.696L163.288 18.0419ZM160.888 12.9859H161.208C162.456 12.9859 163.4 13.2739 163.4 14.7619C163.4 16.2339 162.488 16.6179 161.192 16.6179H160.888V12.9859ZM174.182 19.5619V19.2899C174.182 16.9219 173.03 15.0179 170.454 15.0179C167.91 15.0179 166.646 16.8899 166.646 19.2739C166.646 21.6579 168.134 23.3859 170.566 23.3859C172.214 23.3859 173.59 22.5059 174.134 20.9379L172.07 20.6019C171.766 21.2259 171.302 21.6739 170.566 21.6739C169.398 21.6739 169.014 20.5539 169.014 19.5619H174.182ZM169.078 18.1699C169.19 17.3539 169.686 16.5859 170.582 16.5859C171.446 16.5859 171.958 17.3699 172.07 18.1699H169.078ZM177.462 9.56188H175.222V23.1299H177.462V9.56188ZM186.026 19.5619V19.2899C186.026 16.9219 184.874 15.0179 182.298 15.0179C179.754 15.0179 178.49 16.8899 178.49 19.2739C178.49 21.6579 179.978 23.3859 182.41 23.3859C184.058 23.3859 185.434 22.5059 185.978 20.9379L183.914 20.6019C183.61 21.2259 183.146 21.6739 182.41 21.6739C181.242 21.6739 180.858 20.5539 180.858 19.5619H186.026ZM180.922 18.1699C181.034 17.3539 181.53 16.5859 182.426 16.5859C183.29 16.5859 183.802 17.3699 183.914 18.1699H180.922ZM194.49 15.2739H192.282V16.0099C191.738 15.3699 190.906 15.0179 190.09 15.0179C187.834 15.0179 186.506 17.0819 186.506 19.1619C186.506 21.2899 187.818 23.3859 190.122 23.3859C190.938 23.3859 191.77 23.0339 192.25 22.4099H192.282V23.1299H194.49V15.2739ZM190.634 21.4019C189.482 21.4019 188.778 20.2499 188.778 19.1939C188.778 18.1379 189.482 17.0019 190.634 17.0019C191.786 17.0019 192.506 18.1379 192.506 19.1939C192.506 20.2499 191.786 21.4019 190.634 21.4019ZM201.105 15.8339C200.465 15.2739 199.409 15.0179 198.577 15.0179C197.105 15.0179 196.081 16.0899 196.081 17.5619C196.081 18.8259 196.865 19.2899 197.649 19.6259C198.433 19.9619 199.217 20.1219 199.217 20.8099C199.217 21.3219 198.817 21.6579 198.321 21.6579C197.664 21.6579 197.089 21.2259 196.657 20.7459L195.633 22.0739C196.321 22.9059 197.345 23.3859 198.401 23.3859C200.049 23.3859 201.457 22.3459 201.457 20.6019C201.457 19.2419 200.657 18.6979 199.841 18.3459C199.041 17.9939 198.225 17.8339 198.225 17.2579C198.225 16.8739 198.593 16.5859 198.961 16.5859C199.409 16.5859 199.825 16.8259 200.145 17.1299L201.105 15.8339ZM209.651 19.5619V19.2899C209.651 16.9219 208.499 15.0179 205.923 15.0179C203.379 15.0179 202.115 16.8899 202.115 19.2739C202.115 21.6579 203.603 23.3859 206.035 23.3859C207.683 23.3859 209.059 22.5059 209.603 20.9379L207.539 20.6019C207.235 21.2259 206.771 21.6739 206.035 21.6739C204.867 21.6739 204.483 20.5539 204.483 19.5619H209.651ZM204.547 18.1699C204.659 17.3539 205.155 16.5859 206.051 16.5859C206.915 16.5859 207.427 17.3699 207.539 18.1699H204.547ZM215.891 23.1299H218.131V9.56188H215.891V15.9939H215.859C215.363 15.3699 214.531 15.0179 213.715 15.0179C211.459 15.0179 210.131 17.0819 210.131 19.1619C210.131 21.2899 211.443 23.3859 213.747 23.3859C214.563 23.3859 215.395 23.0339 215.859 22.3939H215.891V23.1299ZM214.259 21.4019C213.107 21.4019 212.403 20.2499 212.403 19.1939C212.403 18.1379 213.107 17.0019 214.259 17.0019C215.411 17.0019 216.115 18.1379 216.115 19.1939C216.115 20.2499 215.411 21.4019 214.259 21.4019ZM98.0422 47.1299H100.282V46.3939H100.314C100.762 47.0339 101.61 47.3859 102.41 47.3859C104.73 47.3859 106.042 45.3059 106.042 43.1619C106.042 41.0979 104.682 39.0179 102.458 39.0179C101.626 39.0179 100.794 39.3859 100.282 39.9939V33.5619H98.0422V47.1299ZM101.914 45.4019C100.762 45.4019 100.058 44.2499 100.058 43.1939C100.058 42.1379 100.762 41.0019 101.914 41.0019C103.066 41.0019 103.77 42.1379 103.77 43.1939C103.77 44.2499 103.066 45.4019 101.914 45.4019ZM109.345 45.9299L106.753 51.3219H109.217L114.929 39.2739H112.433L110.417 43.7379L108.545 39.2739H106.001L109.345 45.9299ZM127.764 35.4499C126.948 35.0019 126.02 34.7459 125.076 34.7459C121.54 34.7459 119.124 37.7699 119.124 41.1939C119.124 44.5219 121.636 47.4499 125.028 47.4499C126.004 47.4499 126.884 47.1459 127.764 46.7299V43.9299C127.108 44.6819 126.1 45.2099 125.092 45.2099C122.9 45.2099 121.556 43.1779 121.556 41.1459C121.556 39.0659 122.852 36.9859 125.108 36.9859C126.116 36.9859 127.108 37.4659 127.764 38.2659V35.4499ZM131.485 39.2739H129.245V47.1299H131.485V43.5939C131.485 42.3779 131.645 41.0019 133.197 41.0019C133.533 41.0019 133.853 41.0979 134.125 41.2899L134.397 39.2099C134.109 39.0979 133.789 39.0179 133.469 39.0179C132.637 39.0179 131.965 39.4019 131.517 40.0899H131.485V39.2739ZM142.003 43.5619V43.2899C142.003 40.9219 140.851 39.0179 138.275 39.0179C135.731 39.0179 134.467 40.8899 134.467 43.2739C134.467 45.6579 135.955 47.3859 138.387 47.3859C140.035 47.3859 141.411 46.5059 141.955 44.9379L139.891 44.6019C139.587 45.2259 139.123 45.6739 138.387 45.6739C137.219 45.6739 136.835 44.5539 136.835 43.5619H142.003ZM136.899 42.1699C137.011 41.3539 137.507 40.5859 138.403 40.5859C139.267 40.5859 139.779 41.3699 139.891 42.1699H136.899ZM150.466 39.2739H148.258V40.0099C147.714 39.3699 146.882 39.0179 146.066 39.0179C143.81 39.0179 142.482 41.0819 142.482 43.1619C142.482 45.2899 143.794 47.3859 146.098 47.3859C146.914 47.3859 147.746 47.0339 148.226 46.4099H148.258V47.1299H150.466V39.2739ZM146.61 45.4019C145.458 45.4019 144.754 44.2499 144.754 43.1939C144.754 42.1379 145.458 41.0019 146.61 41.0019C147.762 41.0019 148.482 42.1379 148.482 43.1939C148.482 44.2499 147.762 45.4019 146.61 45.4019ZM154.601 41.1619H155.977V39.2739H154.601V36.6179H152.361V39.2739H151.593V41.1619H152.361V47.1299H154.601V41.1619ZM158.847 39.2739H156.607V47.1299H158.847V39.2739ZM157.727 34.6499C156.991 34.6499 156.399 35.2579 156.399 35.9779C156.399 36.7139 156.991 37.3059 157.727 37.3059C158.463 37.3059 159.055 36.7139 159.055 35.9779C159.055 35.2579 158.463 34.6499 157.727 34.6499ZM162.782 39.2739H160.542V47.1299H162.782V43.2419C162.782 42.2979 162.798 40.8099 164.126 40.8099C165.39 40.8099 165.342 42.0259 165.342 42.9699V47.1299H167.582V42.3299C167.582 40.5059 166.974 39.0179 164.862 39.0179C164.062 39.0179 163.278 39.2899 162.814 39.9939H162.782V39.2739ZM176.575 39.2739H174.335V40.0259H174.303C173.855 39.4179 173.055 39.0179 172.271 39.0179C169.935 39.0179 168.623 41.0979 168.623 43.2579C168.623 45.3699 169.855 47.3859 172.159 47.3859C172.991 47.3859 173.823 46.9859 174.303 46.3459H174.335V46.8579C174.335 48.0419 174.303 49.4339 172.719 49.4339C171.871 49.4339 171.279 48.8899 171.167 48.0579H168.799C168.911 50.1539 170.847 51.3219 172.767 51.3219C175.711 51.3219 176.575 49.2099 176.575 46.6499V39.2739ZM172.751 45.4019C171.599 45.4019 170.895 44.2659 170.895 43.2099C170.895 42.1539 171.599 41.0019 172.751 41.0019C173.903 41.0019 174.607 42.1539 174.607 43.2099C174.607 44.2659 173.903 45.4019 172.751 45.4019ZM189.096 37.1139V35.0659H182.856V47.1299H189.096V45.0819H185.208V41.8179H188.952V39.7699H185.208V37.1139H189.096ZM192.845 39.2739H190.605V47.1299H192.845V43.2419C192.845 42.2979 192.861 40.8099 194.189 40.8099C195.453 40.8099 195.405 42.0259 195.405 42.9699V47.1299H197.645V42.3299C197.645 40.5059 197.037 39.0179 194.925 39.0179C194.125 39.0179 193.341 39.2899 192.877 39.9939H192.845V39.2739ZM206.221 43.5619V43.2899C206.221 40.9219 205.069 39.0179 202.493 39.0179C199.949 39.0179 198.685 40.8899 198.685 43.2739C198.685 45.6579 200.173 47.3859 202.605 47.3859C204.253 47.3859 205.629 46.5059 206.173 44.9379L204.109 44.6019C203.805 45.2259 203.341 45.6739 202.605 45.6739C201.437 45.6739 201.053 44.5539 201.053 43.5619H206.221ZM201.117 42.1699C201.229 41.3539 201.725 40.5859 202.621 40.5859C203.485 40.5859 203.997 41.3699 204.109 42.1699H201.117ZM214.653 39.2739H212.413V40.0259H212.381C211.933 39.4179 211.133 39.0179 210.349 39.0179C208.013 39.0179 206.701 41.0979 206.701 43.2579C206.701 45.3699 207.933 47.3859 210.237 47.3859C211.069 47.3859 211.901 46.9859 212.381 46.3459H212.413V46.8579C212.413 48.0419 212.381 49.4339 210.797 49.4339C209.949 49.4339 209.357 48.8899 209.245 48.0579H206.877C206.989 50.1539 208.925 51.3219 210.845 51.3219C213.789 51.3219 214.653 49.2099 214.653 46.6499V39.2739ZM210.829 45.4019C209.677 45.4019 208.973 44.2659 208.973 43.2099C208.973 42.1539 209.677 41.0019 210.829 41.0019C211.981 41.0019 212.685 42.1539 212.685 43.2099C212.685 44.2659 211.981 45.4019 210.829 45.4019ZM218.501 45.9299L215.909 51.3219H218.373L224.085 39.2739H221.589L219.573 43.7379L217.701 39.2739H215.157L218.501 45.9299Z" fill="#101010" fill-opacity="0.7"/>
<circle cx="205.797" cy="88.1474" r="14.7968" fill="#101010" fill-opacity="0.05" stroke="#101010" stroke-linejoin="round"/>
<path d="M202.476 84.8312C201.781 84.1459 200.828 83.748 199.884 83.748C197.665 83.748 195.799 85.6712 195.799 88.0364C195.799 90.3685 197.696 92.3027 199.874 92.3027C200.838 92.3027 201.74 91.9159 202.476 91.2638V90.5343C201.895 91.2859 200.755 91.8053 199.853 91.8053C198.93 91.8053 197.997 91.319 197.344 90.6559C196.691 89.9706 196.297 89.0533 196.297 88.0806C196.297 86.0359 197.904 84.2454 199.853 84.2454C200.817 84.2454 201.875 84.7759 202.476 85.5607V84.8312Z" fill="#101010"/>
<path d="M207.457 83.748C205.249 83.748 203.403 85.6822 203.403 88.0254C203.403 90.3685 205.259 92.3027 207.457 92.3027C209.655 92.3027 211.511 90.3685 211.511 88.0254C211.511 85.6822 209.655 83.748 207.457 83.748ZM207.457 84.2454C209.396 84.2454 211.013 85.9696 211.013 88.0254C211.013 90.0701 209.396 91.8053 207.457 91.8053C205.508 91.8053 203.901 90.0811 203.901 88.0254C203.901 85.9696 205.508 84.2454 207.457 84.2454Z" fill="#101010"/>
<path d="M213.346 92.9149L214.699 91.2184C214.901 90.9697 214.995 90.6768 214.995 90.3397C214.995 89.6158 214.419 89.1073 213.766 89.1073C213.077 89.1073 212.574 89.6655 212.558 90.395H212.994C213.004 89.9087 213.31 89.5384 213.782 89.5384C214.207 89.5384 214.559 89.881 214.559 90.3452C214.559 90.616 214.45 90.8426 214.295 91.0415L212.465 93.346H214.995V92.9149H213.346Z" fill="#101010"/>
<path d="M202.476 84.8312C201.781 84.1459 200.828 83.748 199.884 83.748C197.665 83.748 195.799 85.6712 195.799 88.0364C195.799 90.3685 197.696 92.3027 199.874 92.3027C200.838 92.3027 201.74 91.9159 202.476 91.2638V90.5343C201.895 91.2859 200.755 91.8053 199.853 91.8053C198.93 91.8053 197.997 91.319 197.344 90.6559C196.691 89.9706 196.297 89.0533 196.297 88.0806C196.297 86.0359 197.904 84.2454 199.853 84.2454C200.817 84.2454 201.875 84.7759 202.476 85.5607V84.8312Z" stroke="#101010" stroke-width="0.479897"/>
<path d="M207.457 83.748C205.249 83.748 203.403 85.6822 203.403 88.0254C203.403 90.3685 205.259 92.3027 207.457 92.3027C209.655 92.3027 211.511 90.3685 211.511 88.0254C211.511 85.6822 209.655 83.748 207.457 83.748ZM207.457 84.2454C209.396 84.2454 211.013 85.9696 211.013 88.0254C211.013 90.0701 209.396 91.8053 207.457 91.8053C205.508 91.8053 203.901 90.0811 203.901 88.0254C203.901 85.9696 205.508 84.2454 207.457 84.2454Z" stroke="#101010" stroke-width="0.479897"/>
<path d="M213.346 92.9149L214.699 91.2184C214.901 90.9697 214.995 90.6768 214.995 90.3397C214.995 89.6158 214.419 89.1073 213.766 89.1073C213.077 89.1073 212.574 89.6655 212.558 90.395H212.994C213.004 89.9087 213.31 89.5384 213.782 89.5384C214.207 89.5384 214.559 89.881 214.559 90.3452C214.559 90.616 214.45 90.8426 214.295 91.0415L212.465 93.346H214.995V92.9149H213.346Z" stroke="#101010" stroke-width="0.479897"/>
<circle cx="163.344" cy="123.613" r="11.3442" fill="#101010" fill-opacity="0.05" stroke="#101010" stroke-linejoin="round"/>
<path d="M160.799 121.071C160.266 120.545 159.535 120.24 158.812 120.24C157.111 120.24 155.68 121.715 155.68 123.528C155.68 125.316 157.134 126.799 158.804 126.799C159.543 126.799 160.235 126.502 160.799 126.002V125.443C160.354 126.019 159.479 126.417 158.788 126.417C158.08 126.417 157.365 126.045 156.864 125.536C156.363 125.011 156.061 124.308 156.061 123.562C156.061 121.994 157.293 120.622 158.788 120.622C159.527 120.622 160.338 121.028 160.799 121.63V121.071Z" fill="#101010"/>
<path d="M164.618 120.24C162.925 120.24 161.51 121.723 161.51 123.52C161.51 125.316 162.932 126.799 164.618 126.799C166.303 126.799 167.726 125.316 167.726 123.52C167.726 121.723 166.303 120.24 164.618 120.24ZM164.618 120.622C166.104 120.622 167.344 121.943 167.344 123.52C167.344 125.087 166.104 126.417 164.618 126.417C163.123 126.417 161.891 125.096 161.891 123.52C161.891 121.943 163.123 120.622 164.618 120.622Z" fill="#101010"/>
<path d="M169.133 127.268L170.17 125.967C170.325 125.777 170.397 125.552 170.397 125.294C170.397 124.739 169.955 124.349 169.455 124.349C168.926 124.349 168.54 124.777 168.528 125.336H168.862C168.87 124.963 169.105 124.68 169.466 124.68C169.792 124.68 170.063 124.942 170.063 125.298C170.063 125.506 169.979 125.679 169.86 125.832L168.457 127.599H170.397V127.268H169.133Z" fill="#101010"/>
<path d="M160.799 121.071C160.266 120.545 159.535 120.24 158.812 120.24C157.111 120.24 155.68 121.715 155.68 123.528C155.68 125.316 157.134 126.799 158.804 126.799C159.543 126.799 160.235 126.502 160.799 126.002V125.443C160.354 126.019 159.479 126.417 158.788 126.417C158.08 126.417 157.365 126.045 156.864 125.536C156.363 125.011 156.061 124.308 156.061 123.562C156.061 121.994 157.293 120.622 158.788 120.622C159.527 120.622 160.338 121.028 160.799 121.63V121.071Z" stroke="#101010" stroke-width="0.5"/>
<path d="M164.618 120.24C162.925 120.24 161.51 121.723 161.51 123.52C161.51 125.316 162.932 126.799 164.618 126.799C166.303 126.799 167.726 125.316 167.726 123.52C167.726 121.723 166.303 120.24 164.618 120.24ZM164.618 120.622C166.104 120.622 167.344 121.943 167.344 123.52C167.344 125.087 166.104 126.417 164.618 126.417C163.123 126.417 161.891 125.096 161.891 123.52C161.891 121.943 163.123 120.622 164.618 120.622Z" stroke="#101010" stroke-width="0.5"/>
<path d="M169.133 127.268L170.17 125.967C170.325 125.777 170.397 125.552 170.397 125.294C170.397 124.739 169.955 124.349 169.455 124.349C168.926 124.349 168.54 124.777 168.528 125.336H168.862C168.87 124.963 169.105 124.68 169.466 124.68C169.792 124.68 170.063 124.942 170.063 125.298C170.063 125.506 169.979 125.679 169.86 125.832L168.457 127.599H170.397V127.268H169.133Z" stroke="#101010" stroke-width="0.5"/>
<path fill-rule="evenodd" clip-rule="evenodd" d="M567.363 121.768L538.744 157.268C535.91 160.784 541.379 166.056 544.894 163.221C544.913 163.207 544.931 163.192 544.949 163.177L559.553 151.098C564.359 147.123 568.262 142.168 571.001 136.565L574.605 129.193C571.306 127.967 568.578 125.322 567.363 121.768ZM585.975 127.604L585.839 128.17L631.782 135.343C636.244 136.04 638.075 128.667 633.863 127.041C633.841 127.032 633.819 127.024 633.797 127.016L616.034 120.408C610.189 118.233 603.946 117.33 597.724 117.76L590.913 118.23C590.795 121.942 588.961 125.413 585.975 127.604ZM583.474 106.674L568.108 66.9047C566.481 62.6923 559.18 64.7923 559.878 69.254C559.881 69.277 559.885 69.3001 559.889 69.3231L563.047 88.0101C564.087 94.16 566.426 100.017 569.909 105.191L571.789 107.983C572.851 107.227 574.055 106.63 575.375 106.239C578.154 105.416 580.994 105.637 583.474 106.674Z" fill="url(#paint0_linear)"/>
<path d="M538.744 157.268L538.355 156.954L538.355 156.954L538.744 157.268ZM567.363 121.768L567.836 121.606C567.777 121.434 567.63 121.307 567.45 121.276C567.271 121.244 567.088 121.313 566.974 121.454L567.363 121.768ZM544.894 163.221L545.208 163.611L545.208 163.611L544.894 163.221ZM544.949 163.177L544.63 162.792L544.63 162.792L544.949 163.177ZM559.553 151.098L559.871 151.484L559.553 151.098ZM571.001 136.565L570.552 136.345L571.001 136.565ZM574.605 129.193L575.054 129.412C575.116 129.286 575.122 129.138 575.069 129.007C575.017 128.876 574.912 128.773 574.779 128.724L574.605 129.193ZM585.975 127.604L585.679 127.201C585.584 127.271 585.516 127.373 585.489 127.488L585.975 127.604ZM585.839 128.17L585.353 128.053C585.32 128.189 585.346 128.332 585.424 128.448C585.501 128.564 585.624 128.642 585.762 128.664L585.839 128.17ZM631.782 135.343L631.705 135.837L631.782 135.343ZM633.863 127.041L633.682 127.507L633.682 127.507L633.863 127.041ZM633.797 127.016L633.623 127.484L633.623 127.484L633.797 127.016ZM616.034 120.408L615.86 120.876L615.86 120.876L616.034 120.408ZM597.724 117.76L597.758 118.258L597.724 117.76ZM590.913 118.23L590.879 117.731C590.622 117.749 590.421 117.957 590.413 118.214L590.913 118.23ZM583.474 106.674L583.281 107.135C583.466 107.213 583.679 107.172 583.823 107.032C583.967 106.893 584.013 106.681 583.941 106.494L583.474 106.674ZM568.108 66.9047L567.642 67.0849L568.108 66.9047ZM559.878 69.254L559.384 69.3313L559.384 69.3313L559.878 69.254ZM559.889 69.3231L559.396 69.4063L559.396 69.4064L559.889 69.3231ZM563.047 88.0101L562.554 88.0934L563.047 88.0101ZM569.909 105.191L569.495 105.471L569.909 105.191ZM571.789 107.983L571.374 108.263C571.449 108.374 571.567 108.451 571.7 108.475C571.832 108.499 571.969 108.469 572.079 108.391L571.789 107.983ZM539.134 157.582L567.753 122.082L566.974 121.454L538.355 156.954L539.134 157.582ZM544.58 162.832C543.091 164.034 541.132 163.567 539.786 162.267C538.44 160.967 537.94 159.063 539.134 157.582L538.355 156.954C536.715 158.989 537.532 161.479 539.091 162.986C540.65 164.492 543.183 165.244 545.208 163.611L544.58 162.832ZM544.63 162.792C544.614 162.805 544.597 162.819 544.58 162.832L545.208 163.611C545.228 163.595 545.248 163.579 545.267 163.562L544.63 162.792ZM559.234 150.713L544.63 162.792L545.267 163.562L559.871 151.484L559.234 150.713ZM570.552 136.345C567.844 141.885 563.986 146.783 559.234 150.713L559.871 151.484C564.732 147.463 568.68 142.452 571.45 136.785L570.552 136.345ZM574.156 128.973L570.552 136.345L571.45 136.785L575.054 129.412L574.156 128.973ZM574.779 128.724C571.615 127.548 569.001 125.012 567.836 121.606L566.89 121.93C568.156 125.631 570.997 128.385 574.431 129.661L574.779 128.724ZM585.489 127.488L585.353 128.053L586.325 128.286L586.461 127.721L585.489 127.488ZM585.762 128.664L631.705 135.837L631.859 134.849L585.916 127.676L585.762 128.664ZM631.705 135.837C634.287 136.24 636.035 134.288 636.56 132.184C637.085 130.081 636.47 127.511 634.043 126.574L633.682 127.507C635.468 128.196 636.043 130.126 635.59 131.942C635.137 133.757 633.738 135.143 631.859 134.849L631.705 135.837ZM634.043 126.574C634.019 126.565 633.995 126.556 633.971 126.547L633.623 127.484C633.643 127.492 633.663 127.499 633.682 127.507L634.043 126.574ZM633.971 126.547L616.209 119.939L615.86 120.876L633.623 127.484L633.971 126.547ZM616.209 119.939C610.296 117.739 603.983 116.826 597.69 117.261L597.758 118.258C603.91 117.834 610.081 118.726 615.86 120.876L616.209 119.939ZM597.69 117.261L590.879 117.731L590.947 118.728L597.758 118.258L597.69 117.261ZM590.413 118.214C590.3 121.772 588.542 125.101 585.679 127.201L586.271 128.008C589.381 125.725 591.29 122.111 591.413 118.246L590.413 118.214ZM583.941 106.494L568.575 66.7245L567.642 67.0849L583.008 106.854L583.941 106.494ZM568.575 66.7245C567.633 64.2862 565.068 63.7488 562.983 64.3459C560.9 64.9428 558.982 66.7604 559.384 69.3313L560.372 69.1768C560.076 67.2859 561.46 65.8226 563.259 65.3072C565.057 64.7919 566.956 65.3107 567.642 67.0849L568.575 66.7245ZM559.384 69.3313C559.388 69.3564 559.392 69.3814 559.396 69.4063L560.382 69.2398C560.378 69.2187 560.375 69.1977 560.372 69.1768L559.384 69.3313ZM559.396 69.4064L562.554 88.0934L563.54 87.9268L560.382 69.2397L559.396 69.4064ZM562.554 88.0934C563.606 94.3135 565.972 100.238 569.495 105.471L570.324 104.912C566.881 99.7972 564.568 94.0066 563.54 87.9268L562.554 88.0934ZM569.495 105.471L571.374 108.263L572.204 107.704L570.324 104.912L569.495 105.471ZM572.079 108.391C573.097 107.666 574.25 107.094 575.517 106.719L575.233 105.76C573.859 106.167 572.605 106.788 571.499 107.576L572.079 108.391ZM575.517 106.719C578.181 105.929 580.903 106.141 583.281 107.135L583.667 106.213C581.084 105.133 578.126 104.903 575.233 105.76L575.517 106.719Z" fill="#101010"/>
<circle cx="578.967" cy="118.308" r="6.91604" transform="rotate(-12.7449 578.967 118.308)" fill="url(#paint1_linear)" stroke="#101010" stroke-linejoin="round"/>
<path d="M579.466 130.956H577.943L574.66 256.966H579.466H584.271L580.988 130.956H579.466Z" fill="#101010" fill-opacity="0.03" stroke="#101010" stroke-linejoin="round"/>
<path d="M482.847 206.57H476.971V257.074H482.847V206.57Z" fill="#101010" fill-opacity="0.03" stroke="#101010" stroke-linejoin="round"/>
<path d="M565.699 206.57H559.822V257.074H565.699V206.57Z" fill="#101010" fill-opacity="0.03" stroke="#101010" stroke-linejoin="round"/>
<path fill-rule="evenodd" clip-rule="evenodd" d="M487.188 172.082H593.187L550.328 234.537H444.33L487.188 172.082Z" fill="white"/>
<path fill-rule="evenodd" clip-rule="evenodd" d="M550.328 234.537L593.187 172.082L596.816 177.446L553.958 239.901H447.959L444.33 234.537H550.328Z" fill="white"/>
<path d="M593.187 172.082H487.188L444.33 234.537M593.187 172.082L550.329 234.537H444.33M593.187 172.082L596.816 177.446L553.958 239.901H447.959L444.33 234.537" stroke="#101010" stroke-linejoin="round"/>
<path fill-rule="evenodd" clip-rule="evenodd" d="M487.188 172.082H593.187L550.328 234.537H444.33L487.188 172.082Z" fill="url(#paint2_linear)" stroke="#101010" stroke-linejoin="round"/>
<path d="M572.041 202.901L571.48 203.715H536.644L515.494 234.539H514.501L535.652 203.715H501.304L480.161 234.539H479.17L500.32 203.715H465.484L466.045 202.901H500.881L522.031 172.085H523.016L501.865 202.901H536.213L557.364 172.085H558.347L537.197 202.901H572.041Z" fill="#101010"/>
<path d="M339.387 193.331C339.387 213.614 355.711 230.057 375.847 230.057C390.95 230.057 403.909 220.807 409.443 207.624C404.64 201.957 401.722 194.49 401.722 186.309C401.722 181.872 402.581 176.186 404.133 170.156C397.447 161.887 387.259 156.605 375.847 156.605C355.711 156.605 339.387 173.048 339.387 193.331Z" fill="white" stroke="#101010" stroke-linecap="round"/>
<path d="M462.882 186.309C462.882 204.031 449.191 218.398 432.302 218.398C423.21 218.398 415.045 214.234 409.443 207.624C404.64 201.956 401.722 194.49 401.722 186.309C401.722 181.871 402.581 176.186 404.133 170.155C408.779 152.101 419.642 130.956 432.302 130.956C449.191 130.956 462.882 168.587 462.882 186.309Z" fill="url(#paint3_linear)"/>
<path d="M339.387 193.331C339.387 213.614 355.711 230.057 375.847 230.057C390.95 230.057 403.909 220.807 409.443 207.624C404.64 201.956 401.722 194.49 401.722 186.309C401.722 181.871 402.581 176.186 404.133 170.155C397.447 161.887 387.259 156.605 375.847 156.605C355.711 156.605 339.387 173.048 339.387 193.331Z" fill="url(#paint4_linear)"/>
<path d="M404.133 170.155C402.581 176.186 401.722 181.871 401.722 186.309C401.722 194.49 404.64 201.956 409.443 207.624M404.133 170.155C408.779 152.101 419.642 130.956 432.302 130.956C449.191 130.956 462.882 168.587 462.882 186.309C462.882 204.031 449.191 218.398 432.302 218.398C423.21 218.398 415.045 214.234 409.443 207.624M404.133 170.155C397.447 161.887 387.259 156.605 375.847 156.605C355.711 156.605 339.387 173.048 339.387 193.331C339.387 213.614 355.711 230.057 375.847 230.057C390.95 230.057 403.909 220.807 409.443 207.624" stroke="#101010" stroke-linecap="round"/>
<path d="M377.588 257.5V209.193M377.588 173.646V197.344M377.588 197.344L389.7 190.052M377.588 197.344V209.193M377.588 209.193L356.158 199.167" stroke="#101010" stroke-linecap="round"/>
<path d="M432.483 257.5V196.392M432.483 155.35V184.535M432.483 184.535L420.193 177.239M432.483 184.535V196.392M432.483 196.392L449.161 186.36" stroke="#101010" stroke-linecap="round"/>
<path d="M432.139 11.32C431.323 10.872 430.395 10.616 429.451 10.616C425.915 10.616 423.499 13.64 423.499 17.064C423.499 20.392 426.011 23.32 429.403 23.32C430.379 23.32 431.259 23.016 432.139 22.6V19.8C431.483 20.552 430.475 21.08 429.467 21.08C427.275 21.08 425.931 19.048 425.931 17.016C425.931 14.936 427.227 12.856 429.483 12.856C430.491 12.856 431.483 13.336 432.139 14.136V11.32ZM441.044 15.144H438.836V15.88C438.292 15.24 437.46 14.888 436.644 14.888C434.388 14.888 433.06 16.952 433.06 19.032C433.06 21.16 434.372 23.256 436.676 23.256C437.492 23.256 438.324 22.904 438.804 22.28H438.836V23H441.044V15.144ZM437.188 21.272C436.036 21.272 435.332 20.12 435.332 19.064C435.332 18.008 436.036 16.872 437.188 16.872C438.34 16.872 439.06 18.008 439.06 19.064C439.06 20.12 438.34 21.272 437.188 21.272ZM444.907 15.144H442.667V23H444.907V19.464C444.907 18.248 445.067 16.872 446.619 16.872C446.955 16.872 447.275 16.968 447.547 17.16L447.819 15.08C447.531 14.968 447.211 14.888 446.891 14.888C446.059 14.888 445.387 15.272 444.939 15.96H444.907V15.144ZM448.542 23H450.782V22.264H450.814C451.262 22.904 452.11 23.256 452.91 23.256C455.23 23.256 456.542 21.176 456.542 19.032C456.542 16.968 455.182 14.888 452.958 14.888C452.126 14.888 451.294 15.256 450.782 15.864V9.432H448.542V23ZM452.414 21.272C451.262 21.272 450.558 20.12 450.558 19.064C450.558 18.008 451.262 16.872 452.414 16.872C453.566 16.872 454.27 18.008 454.27 19.064C454.27 20.12 453.566 21.272 452.414 21.272ZM461.173 14.888C458.725 14.888 457.045 16.632 457.045 19.08C457.045 21.512 458.709 23.256 461.173 23.256C463.637 23.256 465.301 21.512 465.301 19.08C465.301 16.632 463.621 14.888 461.173 14.888ZM461.173 16.872C462.325 16.872 463.029 17.992 463.029 19.08C463.029 20.136 462.325 21.272 461.173 21.272C460.021 21.272 459.317 20.136 459.317 19.08C459.317 17.992 460.021 16.872 461.173 16.872ZM468.595 15.144H466.355V23H468.595V19.112C468.595 18.168 468.611 16.68 469.939 16.68C471.203 16.68 471.155 17.896 471.155 18.84V23H473.395V18.2C473.395 16.376 472.787 14.888 470.675 14.888C469.875 14.888 469.091 15.16 468.627 15.864H468.595V15.144ZM484.436 17.912C486.052 17.64 486.9 16.104 486.9 14.568C486.9 11.992 485.252 10.936 482.868 10.936H479.684V23H482.036V18.136H482.068L484.996 23H487.844L484.436 17.912ZM482.036 12.856H482.356C483.604 12.856 484.548 13.144 484.548 14.632C484.548 16.104 483.636 16.488 482.34 16.488H482.036V12.856ZM495.331 19.432V19.16C495.331 16.792 494.179 14.888 491.603 14.888C489.059 14.888 487.795 16.76 487.795 19.144C487.795 21.528 489.283 23.256 491.715 23.256C493.363 23.256 494.739 22.376 495.283 20.808L493.219 20.472C492.915 21.096 492.451 21.544 491.715 21.544C490.547 21.544 490.163 20.424 490.163 19.432H495.331ZM490.227 18.04C490.339 17.224 490.835 16.456 491.731 16.456C492.595 16.456 493.107 17.24 493.219 18.04H490.227ZM501.57 23H503.81V9.432H501.57V15.864H501.538C501.042 15.24 500.21 14.888 499.394 14.888C497.138 14.888 495.81 16.952 495.81 19.032C495.81 21.16 497.122 23.256 499.426 23.256C500.242 23.256 501.074 22.904 501.538 22.264H501.57V23ZM499.938 21.272C498.786 21.272 498.082 20.12 498.082 19.064C498.082 18.008 498.786 16.872 499.938 16.872C501.09 16.872 501.794 18.008 501.794 19.064C501.794 20.12 501.09 21.272 499.938 21.272ZM505.369 15.144V19.768C505.369 22.056 506.553 23.256 508.889 23.256C511.225 23.256 512.409 22.056 512.409 19.768V15.144H510.169V19.4C510.169 20.296 510.025 21.368 508.889 21.368C507.753 21.368 507.609 20.296 507.609 19.4V15.144H505.369ZM519.324 15.384C518.78 15.048 518.124 14.888 517.5 14.888C515.132 14.888 513.42 16.76 513.42 19.096C513.42 21.352 515.068 23.256 517.388 23.256C518.076 23.256 518.716 23.112 519.324 22.776V20.616C518.924 21.064 518.364 21.368 517.756 21.368C516.476 21.368 515.692 20.344 515.692 19.112C515.692 17.96 516.412 16.776 517.676 16.776C518.364 16.776 518.844 17.064 519.324 17.544V15.384ZM527.503 19.432V19.16C527.503 16.792 526.351 14.888 523.775 14.888C521.231 14.888 519.967 16.76 519.967 19.144C519.967 21.528 521.455 23.256 523.887 23.256C525.535 23.256 526.911 22.376 527.455 20.808L525.391 20.472C525.087 21.096 524.623 21.544 523.887 21.544C522.719 21.544 522.335 20.424 522.335 19.432H527.503ZM522.399 18.04C522.511 17.224 523.007 16.456 523.903 16.456C524.767 16.456 525.279 17.24 525.391 18.04H522.399ZM533.742 23H535.982V9.432H533.742V15.864H533.71C533.214 15.24 532.382 14.888 531.566 14.888C529.31 14.888 527.982 16.952 527.982 19.032C527.982 21.16 529.294 23.256 531.598 23.256C532.414 23.256 533.246 22.904 533.71 22.264H533.742V23ZM532.11 21.272C530.958 21.272 530.254 20.12 530.254 19.064C530.254 18.008 530.958 16.872 532.11 16.872C533.262 16.872 533.966 18.008 533.966 19.064C533.966 20.12 533.262 21.272 532.11 21.272ZM407.683 44.168C407.187 44.648 406.627 45.208 405.891 45.208C405.091 45.208 404.451 44.36 404.451 43.592C404.451 42.712 405.171 42.136 405.811 41.656L407.683 44.168ZM406.083 38.312C405.891 38.04 405.795 37.736 405.795 37.416C405.795 36.84 406.147 36.296 406.787 36.296C407.411 36.296 407.731 36.92 407.731 37.48C407.731 38.056 407.475 38.44 407.059 38.792L406.659 39.128L406.083 38.312ZM410.051 47H412.915L410.835 44.248L412.131 42.504L410.643 41.112L409.427 42.664L407.747 40.504C408.771 39.832 409.731 38.92 409.731 37.592C409.731 35.784 408.387 34.616 406.643 34.616C404.915 34.616 403.571 35.816 403.571 37.608C403.571 38.584 403.987 39.384 404.547 40.168L403.827 40.664C402.739 41.4 402.083 42.456 402.083 43.8C402.083 45.832 403.587 47.32 405.619 47.32C406.979 47.32 408.083 46.648 409.075 45.784L410.051 47ZM429.247 40.952C429.247 37.368 426.879 34.616 423.279 34.616C419.679 34.616 417.311 37.368 417.311 40.952C417.311 44.504 419.599 47.32 423.279 47.32C426.959 47.32 429.247 44.504 429.247 40.952ZM426.815 40.856C426.815 42.712 425.887 45 423.279 45C420.671 45 419.743 42.712 419.743 40.856C419.743 38.904 421.055 36.936 423.279 36.936C425.503 36.936 426.815 38.904 426.815 40.856ZM432.659 41.032H434.451V39.144H432.659V37.16C432.659 36.52 432.547 35.224 433.539 35.224C433.875 35.224 434.163 35.352 434.451 35.496V33.496C434.115 33.32 433.747 33.24 433.379 33.24C431.219 33.24 430.419 34.92 430.419 36.84V39.144H429.667V41.032H430.419V47H432.659V41.032ZM437.503 41.032H439.295V39.144H437.503V37.16C437.503 36.52 437.391 35.224 438.383 35.224C438.719 35.224 439.007 35.352 439.295 35.496V33.496C438.959 33.32 438.591 33.24 438.223 33.24C436.063 33.24 435.263 34.92 435.263 36.84V39.144H434.511V41.032H435.263V47H437.503V41.032ZM445.019 39.704C444.379 39.144 443.323 38.888 442.491 38.888C441.019 38.888 439.995 39.96 439.995 41.432C439.995 42.696 440.779 43.16 441.563 43.496C442.347 43.832 443.131 43.992 443.131 44.68C443.131 45.192 442.731 45.528 442.235 45.528C441.579 45.528 441.003 45.096 440.571 44.616L439.547 45.944C440.235 46.776 441.259 47.256 442.315 47.256C443.963 47.256 445.371 46.216 445.371 44.472C445.371 43.112 444.571 42.568 443.755 42.216C442.955 41.864 442.139 41.704 442.139 41.128C442.139 40.744 442.507 40.456 442.875 40.456C443.323 40.456 443.739 40.696 444.059 41L445.019 39.704ZM453.565 43.432V43.16C453.565 40.792 452.413 38.888 449.837 38.888C447.293 38.888 446.029 40.76 446.029 43.144C446.029 45.528 447.517 47.256 449.949 47.256C451.597 47.256 452.973 46.376 453.517 44.808L451.453 44.472C451.149 45.096 450.685 45.544 449.949 45.544C448.781 45.544 448.397 44.424 448.397 43.432H453.565ZM448.461 42.04C448.573 41.224 449.069 40.456 449.965 40.456C450.829 40.456 451.341 41.24 451.453 42.04H448.461ZM457.117 41.032H458.493V39.144H457.117V36.488H454.877V39.144H454.109V41.032H454.877V47H457.117V41.032ZM460.355 44.504L458.611 49.368L460.099 49.544L462.403 44.728L460.355 44.504ZM472.229 36.984H474.661V34.936H467.445V36.984H469.877V47H472.229V36.984ZM477.063 39.144H474.823V47H477.063V43.464C477.063 42.248 477.223 40.872 478.775 40.872C479.111 40.872 479.431 40.968 479.703 41.16L479.975 39.08C479.687 38.968 479.367 38.888 479.047 38.888C478.215 38.888 477.543 39.272 477.095 39.96H477.063V39.144ZM487.581 43.432V43.16C487.581 40.792 486.429 38.888 483.853 38.888C481.309 38.888 480.045 40.76 480.045 43.144C480.045 45.528 481.533 47.256 483.965 47.256C485.613 47.256 486.989 46.376 487.533 44.808L485.469 44.472C485.165 45.096 484.701 45.544 483.965 45.544C482.797 45.544 482.413 44.424 482.413 43.432H487.581ZM482.477 42.04C482.589 41.224 483.085 40.456 483.981 40.456C484.845 40.456 485.357 41.24 485.469 42.04H482.477ZM495.596 43.432V43.16C495.596 40.792 494.444 38.888 491.868 38.888C489.324 38.888 488.06 40.76 488.06 43.144C488.06 45.528 489.548 47.256 491.98 47.256C493.628 47.256 495.004 46.376 495.548 44.808L493.484 44.472C493.18 45.096 492.716 45.544 491.98 45.544C490.812 45.544 490.428 44.424 490.428 43.432H495.596ZM490.492 42.04C490.604 41.224 491.1 40.456 491.996 40.456C492.86 40.456 493.372 41.24 493.484 42.04H490.492ZM501.628 39.704C500.988 39.144 499.932 38.888 499.1 38.888C497.628 38.888 496.604 39.96 496.604 41.432C496.604 42.696 497.388 43.16 498.172 43.496C498.956 43.832 499.74 43.992 499.74 44.68C499.74 45.192 499.34 45.528 498.844 45.528C498.188 45.528 497.612 45.096 497.18 44.616L496.156 45.944C496.844 46.776 497.868 47.256 498.924 47.256C500.572 47.256 501.98 46.216 501.98 44.472C501.98 43.112 501.18 42.568 500.364 42.216C499.564 41.864 498.748 41.704 498.748 41.128C498.748 40.744 499.116 40.456 499.484 40.456C499.932 40.456 500.348 40.696 500.668 41L501.628 39.704ZM510.239 42.488H511.407C513.871 42.488 515.263 41.24 515.263 38.68C515.263 35.944 513.615 34.936 511.087 34.936H507.887V47H510.239V42.488ZM510.239 36.888H510.655C511.967 36.888 512.863 37.112 512.863 38.664C512.863 40.232 512.111 40.536 510.719 40.536H510.239V36.888ZM518.517 33.432H516.277V47H518.517V33.432ZM527.529 39.144H525.321V39.88C524.777 39.24 523.945 38.888 523.129 38.888C520.873 38.888 519.545 40.952 519.545 43.032C519.545 45.16 520.857 47.256 523.161 47.256C523.977 47.256 524.809 46.904 525.289 46.28H525.321V47H527.529V39.144ZM523.673 45.272C522.521 45.272 521.817 44.12 521.817 43.064C521.817 42.008 522.521 40.872 523.673 40.872C524.825 40.872 525.545 42.008 525.545 43.064C525.545 44.12 524.825 45.272 523.673 45.272ZM531.392 39.144H529.152V47H531.392V43.112C531.392 42.168 531.408 40.68 532.736 40.68C534 40.68 533.952 41.896 533.952 42.84V47H536.192V42.2C536.192 40.376 535.584 38.888 533.472 38.888C532.672 38.888 531.888 39.16 531.424 39.864H531.392V39.144ZM540.304 41.032H541.68V39.144H540.304V36.488H538.064V39.144H537.296V41.032H538.064V47H540.304V41.032ZM549.159 43.432V43.16C549.159 40.792 548.007 38.888 545.431 38.888C542.887 38.888 541.623 40.76 541.623 43.144C541.623 45.528 543.111 47.256 545.543 47.256C547.191 47.256 548.567 46.376 549.111 44.808L547.047 44.472C546.743 45.096 546.279 45.544 545.543 45.544C544.375 45.544 543.991 44.424 543.991 43.432H549.159ZM544.055 42.04C544.167 41.224 544.663 40.456 545.559 40.456C546.423 40.456 546.935 41.24 547.047 42.04H544.055ZM555.398 47H557.638V33.432H555.398V39.864H555.366C554.87 39.24 554.038 38.888 553.222 38.888C550.966 38.888 549.638 40.952 549.638 43.032C549.638 45.16 550.95 47.256 553.254 47.256C554.07 47.256 554.902 46.904 555.366 46.264H555.398V47ZM553.766 45.272C552.614 45.272 551.91 44.12 551.91 43.064C551.91 42.008 552.614 40.872 553.766 40.872C554.918 40.872 555.622 42.008 555.622 43.064C555.622 44.12 554.918 45.272 553.766 45.272Z" fill="#008174"/>
<path d="M439.612 97.5455C441.308 97.5455 442.684 96.182 442.684 94.5C442.684 92.8181 441.308 91.4546 439.612 91.4546C437.915 91.4546 436.539 92.8181 436.539 94.5C436.539 96.182 437.915 97.5455 439.612 97.5455Z" fill="white"/>
<path d="M439.611 107C446.565 107 452.222 101.393 452.222 94.5C452.222 87.6078 446.565 82 439.611 82C432.657 82 427 87.6078 427 94.5C427 101.393 432.657 107 439.611 107ZM439.576 83.8618C443.278 83.8618 446.548 85.7298 448.478 88.5642C449.637 90.2595 450.315 92.3027 450.315 94.5003C450.315 97.0647 449.392 99.419 447.858 101.255C445.888 103.623 442.907 105.134 439.576 105.134C433.659 105.134 428.845 100.363 428.845 94.4981C428.845 88.6334 433.659 83.8618 439.576 83.8618Z" fill="#008174"/>
<path d="M439.612 85.7822C434.762 85.7822 430.816 89.6931 430.816 94.5002C430.816 96.5479 431.537 98.4294 432.734 99.9187V94.6953C432.732 94.6299 432.724 94.566 432.724 94.4999C432.724 94.4339 432.732 94.37 432.734 94.3045V94.177H432.74C432.912 90.5631 435.924 87.6724 439.612 87.6724C443.41 87.6724 446.5 90.7357 446.5 94.4999C446.5 98.2647 443.41 101.328 439.612 101.328C439.211 101.328 438.819 101.286 438.437 101.221V103.131C438.822 103.183 439.213 103.218 439.612 103.218C442.941 103.218 445.843 101.375 447.336 98.6651C448.015 97.4263 448.4 96.0068 448.4 94.4981C448.4 93.1588 448.088 91.8949 447.545 90.7603C446.129 87.8223 443.11 85.7822 439.612 85.7822Z" fill="#A3DCBE"/>
<path d="M434.641 101.748C435.226 102.14 435.865 102.455 436.539 102.701V99.6811V98.3559C437.388 99.0222 438.447 99.4369 439.611 99.4369C442.358 99.4369 444.592 97.2224 444.592 94.5002C444.592 91.7782 442.358 89.564 439.611 89.564C436.899 89.564 434.695 91.7265 434.641 94.4023V94.4418V101.748ZM439.611 91.4545C441.308 91.4545 442.684 92.8181 442.684 94.5002C442.684 96.1823 441.308 97.5459 439.611 97.5459C437.914 97.5459 436.539 96.1823 436.539 94.5002C436.539 92.8181 437.914 91.4545 439.611 91.4545Z" fill="#008174"/>
<path d="M439.576 105.134C442.907 105.134 445.888 103.622 447.858 101.255C449.392 99.4187 450.315 97.0645 450.315 94.5C450.315 92.3024 449.637 90.2592 448.478 88.5639C446.549 85.7298 443.279 83.8618 439.576 83.8618C433.66 83.8618 428.846 88.6334 428.846 94.4981C428.846 100.363 433.66 105.134 439.576 105.134ZM448.4 94.4981C448.4 96.0068 448.014 97.4264 447.336 98.6651C445.843 101.375 442.941 103.218 439.612 103.218C439.212 103.218 438.822 103.183 438.437 103.131V101.221C438.819 101.286 439.21 101.328 439.612 101.328C443.409 101.328 446.5 98.2645 446.5 94.5C446.5 90.7357 443.409 87.6725 439.612 87.6725C435.924 87.6725 432.912 90.5631 432.74 94.177H432.734V94.3046C432.732 94.37 432.724 94.4339 432.724 94.5C432.724 94.566 432.732 94.6299 432.734 94.6954V99.9187C431.537 98.4292 430.816 96.5479 430.816 94.5002C430.816 89.6932 434.762 85.7823 439.612 85.7823C443.11 85.7823 446.128 87.8223 447.544 90.7604C448.087 91.8949 448.4 93.1589 448.4 94.4981ZM434.641 94.4416V94.4021C434.695 91.7263 436.899 89.5638 439.612 89.5638C442.358 89.5638 444.592 91.7783 444.592 94.5C444.592 97.2225 442.358 99.4367 439.612 99.4367C438.447 99.4367 437.388 99.022 436.539 98.3557V99.6809V102.7C435.866 102.455 435.226 102.14 434.641 101.748V94.4416Z" fill="white"/>
<path d="M460.713 98.2368H460.752C461.303 99.0158 462.344 99.4435 463.325 99.4435C466.173 99.4435 467.783 96.9132 467.783 94.3052C467.783 91.7943 466.114 89.264 463.384 89.264C462.363 89.264 461.342 89.7116 460.713 90.4513V89.5753H457.965V104.232H460.713V98.2368ZM462.716 91.6774C464.13 91.6774 464.994 93.0596 464.994 94.3439C464.994 95.6288 464.13 97.0301 462.716 97.0301C461.303 97.0301 460.438 95.6288 460.438 94.3439C460.438 93.0593 461.303 91.6774 462.716 91.6774Z" fill="#008174"/>
<path d="M471.809 94.8307C471.809 93.3518 472.005 91.6776 473.91 91.6776C474.322 91.6776 474.715 91.7946 475.049 92.0281L475.383 89.4973C475.029 89.3611 474.636 89.264 474.244 89.264C473.223 89.264 472.398 89.7309 471.848 90.5677H471.809V89.5753H469.059V99.1319H471.809V94.8307Z" fill="#008174"/>
<path d="M480.665 99.4437C483.689 99.4437 485.732 97.3223 485.732 94.3638C485.732 91.3854 483.669 89.264 480.665 89.264C477.661 89.264 475.598 91.3854 475.598 94.3638C475.598 97.3223 477.641 99.4437 480.665 99.4437ZM480.665 91.6774C482.079 91.6774 482.943 93.0399 482.943 94.3635C482.943 95.6482 482.079 97.0301 480.665 97.0301C479.251 97.0301 478.387 95.6482 478.387 94.3635C478.387 93.0399 479.251 91.6774 480.665 91.6774Z" fill="#008174"/>
<path d="M491.525 99.3268L495.963 89.5753H492.958L490.975 94.9667L488.716 89.5753H485.693L490.111 99.3268H491.525Z" fill="#008174"/>
<path d="M499.498 89.5753H496.748V99.1319H499.498V89.5753Z" fill="#008174"/>
<path d="M498.123 87.181C499.023 87.181 499.753 86.4577 499.753 85.5655C499.753 84.6733 499.023 83.95 498.123 83.95C497.223 83.95 496.493 84.6733 496.493 85.5655C496.493 86.4577 497.223 87.181 498.123 87.181Z" fill="#008174"/>
<path d="M504.288 97.3417C503.483 97.3417 502.777 96.8164 502.246 96.232L500.989 97.8478C501.835 98.8599 503.09 99.4437 504.387 99.4437C506.41 99.4437 508.138 98.1785 508.138 96.0573C508.138 94.4025 507.156 93.741 506.154 93.3125C505.172 92.8843 504.17 92.6897 504.17 91.9889C504.17 91.522 504.622 91.1715 505.073 91.1715C505.624 91.1715 506.135 91.4637 506.527 91.833L507.705 90.2564C506.92 89.5756 505.624 89.264 504.603 89.264C502.797 89.264 501.54 90.5677 501.54 92.3588C501.54 93.8964 502.502 94.4609 503.464 94.8697C504.426 95.2783 505.389 95.4729 505.389 96.3102C505.389 96.9331 504.898 97.3417 504.288 97.3417Z" fill="#008174"/>
<path d="M512.516 89.5753H509.768V99.1319H512.516V89.5753Z" fill="#008174"/>
<path d="M511.143 87.1813C512.046 87.1813 512.772 86.4609 512.772 85.5655C512.772 84.6895 512.046 83.9497 511.143 83.9497C510.239 83.9497 509.512 84.6895 509.512 85.5655C509.512 86.4609 510.239 87.1813 511.143 87.1813Z" fill="#008174"/>
<path d="M518.997 99.4437C522.021 99.4437 524.063 97.3223 524.063 94.3638C524.063 91.3854 522.002 89.264 518.997 89.264C515.992 89.264 513.931 91.3854 513.931 94.3638C513.931 97.3223 515.973 99.4437 518.997 99.4437ZM518.997 91.6774C520.41 91.6774 521.275 93.0399 521.275 94.3635C521.275 95.6482 520.41 97.0301 518.997 97.0301C517.583 97.0301 516.719 95.6482 516.719 94.3635C516.719 93.0399 517.583 91.6774 518.997 91.6774Z" fill="#008174"/>
<path d="M528.109 94.4023C528.109 93.2539 528.129 91.4435 529.758 91.4435C531.31 91.4435 531.251 92.923 531.251 94.0714V99.1319H534V93.2932C534 91.0739 533.254 89.264 530.661 89.264C529.679 89.264 528.717 89.5949 528.148 90.4513H528.109V89.5753H525.359V99.1319H528.109V94.4023Z" fill="#008174"/>
<path d="M233.194 308.32C232.378 307.872 231.45 307.616 230.506 307.616C226.97 307.616 224.554 310.64 224.554 314.064C224.554 317.392 227.066 320.32 230.458 320.32C231.434 320.32 232.314 320.016 233.194 319.6V316.8C232.538 317.552 231.53 318.08 230.522 318.08C228.33 318.08 226.986 316.048 226.986 314.016C226.986 311.936 228.282 309.856 230.538 309.856C231.546 309.856 232.538 310.336 233.194 311.136V308.32ZM242.099 312.144H239.891V312.88C239.347 312.24 238.515 311.888 237.699 311.888C235.443 311.888 234.115 313.952 234.115 316.032C234.115 318.16 235.427 320.256 237.731 320.256C238.547 320.256 239.379 319.904 239.859 319.28H239.891V320H242.099V312.144ZM238.243 318.272C237.091 318.272 236.387 317.12 236.387 316.064C236.387 315.008 237.091 313.872 238.243 313.872C239.395 313.872 240.115 315.008 240.115 316.064C240.115 317.12 239.395 318.272 238.243 318.272ZM245.962 312.144H243.722V320H245.962V316.464C245.962 315.248 246.122 313.872 247.674 313.872C248.01 313.872 248.33 313.968 248.602 314.16L248.874 312.08C248.586 311.968 248.266 311.888 247.946 311.888C247.114 311.888 246.442 312.272 245.994 312.96H245.962V312.144ZM249.597 320H251.837V319.264H251.869C252.317 319.904 253.165 320.256 253.965 320.256C256.285 320.256 257.597 318.176 257.597 316.032C257.597 313.968 256.237 311.888 254.013 311.888C253.181 311.888 252.349 312.256 251.837 312.864V306.432H249.597V320ZM253.469 318.272C252.317 318.272 251.613 317.12 251.613 316.064C251.613 315.008 252.317 313.872 253.469 313.872C254.621 313.872 255.325 315.008 255.325 316.064C255.325 317.12 254.621 318.272 253.469 318.272ZM262.228 311.888C259.78 311.888 258.1 313.632 258.1 316.08C258.1 318.512 259.764 320.256 262.228 320.256C264.692 320.256 266.356 318.512 266.356 316.08C266.356 313.632 264.676 311.888 262.228 311.888ZM262.228 313.872C263.38 313.872 264.084 314.992 264.084 316.08C264.084 317.136 263.38 318.272 262.228 318.272C261.076 318.272 260.372 317.136 260.372 316.08C260.372 314.992 261.076 313.872 262.228 313.872ZM269.649 312.144H267.409V320H269.649V316.112C269.649 315.168 269.665 313.68 270.993 313.68C272.257 313.68 272.209 314.896 272.209 315.84V320H274.449V315.2C274.449 313.376 273.841 311.888 271.729 311.888C270.929 311.888 270.145 312.16 269.681 312.864H269.649V312.144ZM275.938 313.952V315.792H279.842V313.952H275.938ZM283.747 314.752H284.131C285.315 314.752 286.595 314.816 286.595 316.384C286.595 317.952 285.507 318.112 284.243 318.112H283.747V314.752ZM281.395 320H285.091C287.283 320 288.947 318.944 288.947 316.576C288.947 315.248 288.307 313.808 286.883 313.552C287.635 313.072 287.939 312.08 287.939 311.216C287.939 308.816 286.563 307.936 284.323 307.936H281.395V320ZM283.747 309.824H284.051C285.043 309.824 285.747 310.144 285.747 311.376C285.747 312.624 285.187 312.96 284.035 312.96H283.747V309.824ZM297.151 316.432V316.16C297.151 313.792 295.999 311.888 293.423 311.888C290.879 311.888 289.615 313.76 289.615 316.144C289.615 318.528 291.103 320.256 293.535 320.256C295.183 320.256 296.559 319.376 297.103 317.808L295.039 317.472C294.735 318.096 294.271 318.544 293.535 318.544C292.367 318.544 291.983 317.424 291.983 316.432H297.151ZM292.047 315.04C292.159 314.224 292.655 313.456 293.551 313.456C294.415 313.456 294.927 314.24 295.039 315.04H292.047ZM300.703 314.032H302.079V312.144H300.703V309.488H298.463V312.144H297.695V314.032H298.463V320H300.703V314.032ZM305.109 314.032H306.485V312.144H305.109V309.488H302.869V312.144H302.101V314.032H302.869V320H305.109V314.032ZM313.964 316.432V316.16C313.964 313.792 312.812 311.888 310.236 311.888C307.692 311.888 306.428 313.76 306.428 316.144C306.428 318.528 307.916 320.256 310.348 320.256C311.996 320.256 313.372 319.376 313.916 317.808L311.852 317.472C311.548 318.096 311.084 318.544 310.348 318.544C309.18 318.544 308.796 317.424 308.796 316.432H313.964ZM308.86 315.04C308.972 314.224 309.468 313.456 310.364 313.456C311.228 313.456 311.74 314.24 311.852 315.04H308.86ZM317.243 312.144H315.003V320H317.243V316.464C317.243 315.248 317.403 313.872 318.955 313.872C319.291 313.872 319.611 313.968 319.883 314.16L320.155 312.08C319.867 311.968 319.547 311.888 319.227 311.888C318.395 311.888 317.723 312.272 317.275 312.96H317.243V312.144ZM330.633 313.584V315.504H333.193C333.145 316.96 331.913 318.24 330.441 318.24C328.169 318.24 327.033 316.016 327.033 314.016C327.033 312.016 328.153 309.696 330.425 309.696C331.673 309.696 332.697 310.528 333.177 311.616L335.257 310.496C334.329 308.656 332.536 307.616 330.489 307.616C326.889 307.616 324.601 310.576 324.601 314.016C324.601 317.344 326.825 320.32 330.345 320.32C334.089 320.32 335.833 317.296 335.833 313.888V313.584H330.633ZM340.525 311.888C338.077 311.888 336.397 313.632 336.397 316.08C336.397 318.512 338.061 320.256 340.525 320.256C342.989 320.256 344.653 318.512 344.653 316.08C344.653 313.632 342.973 311.888 340.525 311.888ZM340.525 313.872C341.677 313.872 342.381 314.992 342.381 316.08C342.381 317.136 341.677 318.272 340.525 318.272C339.373 318.272 338.669 317.136 338.669 316.08C338.669 314.992 339.373 313.872 340.525 313.872ZM352.682 316.432V316.16C352.682 313.792 351.53 311.888 348.954 311.888C346.41 311.888 345.146 313.76 345.146 316.144C345.146 318.528 346.634 320.256 349.066 320.256C350.714 320.256 352.09 319.376 352.634 317.808L350.57 317.472C350.266 318.096 349.802 318.544 349.066 318.544C347.898 318.544 347.514 317.424 347.514 316.432H352.682ZM347.578 315.04C347.69 314.224 348.186 313.456 349.082 313.456C349.946 313.456 350.458 314.24 350.57 315.04H347.578ZM358.714 312.704C358.074 312.144 357.018 311.888 356.186 311.888C354.714 311.888 353.69 312.96 353.69 314.432C353.69 315.696 354.474 316.16 355.258 316.496C356.042 316.832 356.826 316.992 356.826 317.68C356.826 318.192 356.426 318.528 355.93 318.528C355.274 318.528 354.698 318.096 354.266 317.616L353.242 318.944C353.93 319.776 354.954 320.256 356.01 320.256C357.658 320.256 359.066 319.216 359.066 317.472C359.066 316.112 358.266 315.568 357.45 315.216C356.65 314.864 355.834 314.704 355.834 314.128C355.834 313.744 356.202 313.456 356.57 313.456C357.018 313.456 357.434 313.696 357.754 314L358.714 312.704ZM367.325 314.752H367.709C368.893 314.752 370.173 314.816 370.173 316.384C370.173 317.952 369.085 318.112 367.821 318.112H367.325V314.752ZM364.973 320H368.669C370.861 320 372.525 318.944 372.525 316.576C372.525 315.248 371.885 313.808 370.461 313.552C371.213 313.072 371.517 312.08 371.517 311.216C371.517 308.816 370.141 307.936 367.901 307.936H364.973V320ZM367.325 309.824H367.629C368.621 309.824 369.325 310.144 369.325 311.376C369.325 312.624 368.765 312.96 367.613 312.96H367.325V309.824ZM380.729 316.432V316.16C380.729 313.792 379.577 311.888 377.001 311.888C374.457 311.888 373.193 313.76 373.193 316.144C373.193 318.528 374.681 320.256 377.113 320.256C378.761 320.256 380.137 319.376 380.681 317.808L378.617 317.472C378.313 318.096 377.849 318.544 377.113 318.544C375.945 318.544 375.561 317.424 375.561 316.432H380.729ZM375.625 315.04C375.737 314.224 376.233 313.456 377.129 313.456C377.993 313.456 378.505 314.24 378.617 315.04H375.625ZM384.025 318.8L381.433 324.192H383.897L389.609 312.144H387.113L385.097 316.608L383.225 312.144H380.681L384.025 318.8ZM393.665 311.888C391.217 311.888 389.537 313.632 389.537 316.08C389.537 318.512 391.201 320.256 393.665 320.256C396.129 320.256 397.793 318.512 397.793 316.08C397.793 313.632 396.113 311.888 393.665 311.888ZM393.665 313.872C394.817 313.872 395.521 314.992 395.521 316.08C395.521 317.136 394.817 318.272 393.665 318.272C392.513 318.272 391.809 317.136 391.809 316.08C391.809 314.992 392.513 313.872 393.665 313.872ZM401.087 312.144H398.847V320H401.087V316.112C401.087 315.168 401.103 313.68 402.431 313.68C403.695 313.68 403.647 314.896 403.647 315.84V320H405.887V315.2C405.887 313.376 405.279 311.888 403.167 311.888C402.367 311.888 401.583 312.16 401.119 312.864H401.087V312.144ZM412.688 320H414.928V306.432H412.688V312.864H412.656C412.16 312.24 411.328 311.888 410.512 311.888C408.256 311.888 406.928 313.952 406.928 316.032C406.928 318.16 408.24 320.256 410.544 320.256C411.36 320.256 412.192 319.904 412.656 319.264H412.688V320ZM411.056 318.272C409.904 318.272 409.2 317.12 409.2 316.064C409.2 315.008 409.904 313.872 411.056 313.872C412.208 313.872 412.912 315.008 412.912 316.064C412.912 317.12 412.208 318.272 411.056 318.272ZM275.241 333.32C274.425 332.872 273.497 332.616 272.553 332.616C269.017 332.616 266.601 335.64 266.601 339.064C266.601 342.392 269.113 345.32 272.505 345.32C273.481 345.32 274.361 345.016 275.241 344.6V341.8C274.585 342.552 273.577 343.08 272.569 343.08C270.377 343.08 269.033 341.048 269.033 339.016C269.033 336.936 270.329 334.856 272.585 334.856C273.593 334.856 274.585 335.336 275.241 336.136V333.32ZM284.146 337.144H281.938V337.88C281.394 337.24 280.562 336.888 279.746 336.888C277.49 336.888 276.162 338.952 276.162 341.032C276.162 343.16 277.474 345.256 279.778 345.256C280.594 345.256 281.426 344.904 281.906 344.28H281.938V345H284.146V337.144ZM280.29 343.272C279.138 343.272 278.434 342.12 278.434 341.064C278.434 340.008 279.138 338.872 280.29 338.872C281.442 338.872 282.162 340.008 282.162 341.064C282.162 342.12 281.442 343.272 280.29 343.272ZM288.009 337.144H285.769V345H288.009V341.464C288.009 340.248 288.169 338.872 289.721 338.872C290.057 338.872 290.377 338.968 290.649 339.16L290.921 337.08C290.633 336.968 290.313 336.888 289.993 336.888C289.161 336.888 288.489 337.272 288.041 337.96H288.009V337.144ZM291.644 345H293.884V344.264H293.916C294.364 344.904 295.212 345.256 296.012 345.256C298.332 345.256 299.644 343.176 299.644 341.032C299.644 338.968 298.284 336.888 296.06 336.888C295.228 336.888 294.396 337.256 293.884 337.864V331.432H291.644V345ZM295.516 343.272C294.364 343.272 293.66 342.12 293.66 341.064C293.66 340.008 294.364 338.872 295.516 338.872C296.668 338.872 297.372 340.008 297.372 341.064C297.372 342.12 296.668 343.272 295.516 343.272ZM304.275 336.888C301.827 336.888 300.147 338.632 300.147 341.08C300.147 343.512 301.811 345.256 304.275 345.256C306.739 345.256 308.403 343.512 308.403 341.08C308.403 338.632 306.723 336.888 304.275 336.888ZM304.275 338.872C305.427 338.872 306.131 339.992 306.131 341.08C306.131 342.136 305.427 343.272 304.275 343.272C303.123 343.272 302.419 342.136 302.419 341.08C302.419 339.992 303.123 338.872 304.275 338.872ZM311.696 337.144H309.456V345H311.696V341.112C311.696 340.168 311.712 338.68 313.04 338.68C314.304 338.68 314.256 339.896 314.256 340.84V345H316.496V340.2C316.496 338.376 315.888 336.888 313.776 336.888C312.976 336.888 312.192 337.16 311.728 337.864H311.696V337.144ZM322.786 345H325.138V336.808H325.17L331.522 345.24H333.218V332.936H330.866V341.048H330.834L324.482 332.616H322.786V345ZM341.839 341.432V341.16C341.839 338.792 340.687 336.888 338.111 336.888C335.567 336.888 334.303 338.76 334.303 341.144C334.303 343.528 335.791 345.256 338.223 345.256C339.871 345.256 341.247 344.376 341.791 342.808L339.727 342.472C339.423 343.096 338.959 343.544 338.223 343.544C337.055 343.544 336.671 342.424 336.671 341.432H341.839ZM336.735 340.04C336.847 339.224 337.343 338.456 338.239 338.456C339.103 338.456 339.615 339.24 339.727 340.04H336.735ZM342.83 337.144V341.768C342.83 344.056 344.014 345.256 346.35 345.256C348.686 345.256 349.87 344.056 349.87 341.768V337.144H347.63V341.4C347.63 342.296 347.486 343.368 346.35 343.368C345.214 343.368 345.07 342.296 345.07 341.4V337.144H342.83ZM353.953 339.032H355.329V337.144H353.953V334.488H351.713V337.144H350.945V339.032H351.713V345H353.953V339.032ZM358.071 337.144H355.831V345H358.071V341.464C358.071 340.248 358.231 338.872 359.783 338.872C360.119 338.872 360.439 338.968 360.711 339.16L360.983 337.08C360.695 336.968 360.375 336.888 360.055 336.888C359.223 336.888 358.551 337.272 358.103 337.96H358.071V337.144ZM369.036 337.144H366.829V337.88C366.285 337.24 365.453 336.888 364.637 336.888C362.381 336.888 361.053 338.952 361.053 341.032C361.053 343.16 362.365 345.256 364.669 345.256C365.485 345.256 366.317 344.904 366.797 344.28H366.829V345H369.036V337.144ZM365.181 343.272C364.029 343.272 363.325 342.12 363.325 341.064C363.325 340.008 364.029 338.872 365.181 338.872C366.333 338.872 367.053 340.008 367.053 341.064C367.053 342.12 366.333 343.272 365.181 343.272ZM372.899 331.432H370.659V345H372.899V331.432Z" fill="#008174"/>
<rect x="361" y="256" width="266" height="2" rx="1" fill="#008174"/>
<rect x="13" y="256" width="265" height="2" rx="1" fill="#101010"/>
<g clip-path="url(#clip1)">
<circle cx="319.624" cy="256.625" r="31.8725" fill="white"/>
<path opacity="0.3" d="M307.018 234.498L310.067 239.732M297.531 243.899L302.813 246.921M294.059 256.742H300.157M297.531 269.584L302.813 266.562" stroke="#101010" stroke-width="1.5" stroke-linecap="round" stroke-linejoin="round"/>
<path d="M319.975 231.057V237.1" stroke="#101010" stroke-width="1.5" stroke-linecap="round" stroke-linejoin="round"/>
<path d="M337.14 266.562L342.421 269.584M339.795 256.742H345.893M337.14 246.921L342.421 243.899M329.885 239.732L332.934 234.498" stroke="#44C0BB" stroke-width="1.5" stroke-linecap="round" stroke-linejoin="round"/>
<path fill-rule="evenodd" clip-rule="evenodd" d="M319.627 291.018C338.621 291.018 354.019 275.62 354.019 256.625C354.019 237.631 338.621 222.233 319.627 222.233C300.632 222.233 285.234 237.631 285.234 256.625C285.234 275.62 300.632 291.018 319.627 291.018ZM319.627 286.241C335.983 286.241 349.242 272.982 349.242 256.625C349.242 240.269 335.983 227.01 319.627 227.01C303.27 227.01 290.011 240.269 290.011 256.625C290.011 272.982 303.27 286.241 319.627 286.241Z" fill="url(#paint5_linear)" stroke="#101010" stroke-width="1.5" stroke-linecap="round"/>
<path d="M319.975 256.975L331.183 250.671" stroke="#101010" stroke-width="1.5" stroke-linecap="round"/>
<path fill-rule="evenodd" clip-rule="evenodd" d="M319.626 259.076C320.98 259.076 322.077 257.979 322.077 256.625C322.077 255.271 320.98 254.173 319.626 254.173C318.272 254.173 317.174 255.271 317.174 256.625C317.174 257.979 318.272 259.076 319.626 259.076Z" fill="url(#paint6_linear)" stroke="#101010" stroke-width="1.5" stroke-linecap="round"/>
</g>
</g>
<defs>
<linearGradient id="paint0_linear" x1="519.652" y1="81.4352" x2="544.043" y2="163.768" gradientUnits="userSpaceOnUse">
<stop stop-color="#D1EEDF"/>
<stop offset="1" stop-color="#A2E0DD"/>
</linearGradient>
<linearGradient id="paint1_linear" x1="572.691" y1="111.946" x2="572.691" y2="125.224" gradientUnits="userSpaceOnUse">
<stop stop-color="#D1EEDF"/>
<stop offset="1" stop-color="#A2E0DD"/>
</linearGradient>
<linearGradient id="paint2_linear" x1="451.222" y1="174.58" x2="451.222" y2="234.537" gradientUnits="userSpaceOnUse">
<stop stop-color="#D1EEDF"/>
<stop offset="1" stop-color="#A2E0DD"/>
</linearGradient>
<linearGradient id="paint3_linear" x1="345.104" y1="134.92" x2="345.104" y2="230.057" gradientUnits="userSpaceOnUse">
<stop stop-color="#D1EEDF"/>
<stop offset="1" stop-color="#A2E0DD"/>
</linearGradient>
<linearGradient id="paint4_linear" x1="345.104" y1="134.92" x2="345.104" y2="230.057" gradientUnits="userSpaceOnUse">
<stop stop-color="#D1EEDF"/>
<stop offset="1" stop-color="#A2E0DD"/>
</linearGradient>
<linearGradient id="paint5_linear" x1="288.419" y1="224.984" x2="288.419" y2="291.018" gradientUnits="userSpaceOnUse">
<stop stop-color="#D1EEDF"/>
<stop offset="1" stop-color="#A2E0DD"/>
</linearGradient>
<linearGradient id="paint6_linear" x1="317.401" y1="254.369" x2="317.401" y2="259.076" gradientUnits="userSpaceOnUse">
<stop stop-color="#D1EEDF"/>
<stop offset="1" stop-color="#A2E0DD"/>
</linearGradient>
<clipPath id="clip0">
<rect width="640" height="357" fill="white"/>
</clipPath>
<clipPath id="clip1">
<rect x="284.25" y="221.25" width="70.75" height="70.75" rx="35.375" fill="white"/>
</clipPath>
</defs>
</svg>
