<svg width="69" height="61" viewBox="0 0 69 61" fill="none" xmlns="http://www.w3.org/2000/svg">
<path d="M27.0559 57.7388C29.497 58.7133 32.1652 59.25 34.9605 59.25C41.2034 59.25 46.8124 56.5733 50.6721 52.32M50.6721 52.32C50.7989 52.1802 50.9239 52.0388 51.0469 51.8956C52.078 52.1723 53.163 52.32 54.2829 52.32C61.0738 52.32 66.5789 46.8903 66.5789 40.1925C66.5789 37.3872 65.6132 34.8044 63.9918 32.7498C66.3089 30.5443 67.75 27.4494 67.75 24.0225C67.75 17.3247 62.2449 11.895 55.4539 11.895C54.4316 11.895 53.4383 12.0181 52.4886 12.25C49.0474 5.85524 42.2269 1.5 34.375 1.5C27.0042 1.5 20.5422 5.33794 16.9314 11.0982C15.9537 10.8641 14.9323 10.74 13.8816 10.74C6.76728 10.74 1 16.4282 1 23.445C1 28.0939 3.53164 32.1597 7.30936 34.3743C4.90925 36.0474 3.34211 38.8057 3.34211 41.925C3.34211 47.0281 7.53649 51.165 12.7105 51.165C14.4114 51.165 16.0065 50.7179 17.3814 49.9364C18.3543 49.339 20.5251 47.9221 21.4259 47.0337C20.6752 45.1815 18.0478 39.7317 18.0478 32.7498C18.0478 29.2644 36.4161 36.6912 48.4502 24.8221C49.0268 24.2534 49.6239 23.6645 50.1627 23.1331C51.0863 22.2221 52.5703 22.2223 53.4939 23.1333V23.1333C54.4358 24.0622 54.4358 25.582 53.4939 26.511L50.1392 29.8197C53.1218 33.1588 57.4041 42.3337 50.6721 52.32Z" stroke="#101010" stroke-width="2" stroke-linecap="round" stroke-linejoin="round"/>
<path d="M32.8086 49.3678C36.2473 50.948 43.1845 50.8933 45.7349 45.7104" stroke="#008174" stroke-width="2" stroke-linecap="round"/>
<circle cx="33.25" cy="40.5" r="1.5" fill="#008174"/>
<circle cx="42.25" cy="38.25" r="1.5" fill="#008174"/>
</svg>
