<svg width="245" height="215" viewBox="0 0 245 215" fill="none" xmlns="http://www.w3.org/2000/svg">
<g filter="url(#filter0_d)">
<path d="M121.653 170C121.654 170 121.654 170 121.655 170L140.214 165.65C141.112 165.439 142.031 165.333 142.953 165.333H162.336C163.623 165.333 164.901 165.126 166.122 164.72L170.201 163.364C170.794 163.167 171.402 163.016 172.019 162.914L189.021 160.088C194.402 159.194 198.347 154.539 198.347 149.084C198.347 146.416 199.303 143.836 201.042 141.812L209.075 132.467C210.946 130.291 211.974 127.516 211.974 124.645V118.344C211.974 116.477 211.538 114.635 210.701 112.965L208.023 107.625C207.63 106.84 207.324 106.015 207.111 105.164L203.229 89.6792C203.006 88.7932 202.547 87.9843 201.9 87.3392C199.936 85.3802 196.757 85.3802 194.792 87.3392L193.804 88.325L182.336 101.667C181.066 103.145 178.955 103.571 177.211 102.701C176.201 102.198 175.433 101.313 175.075 100.243L174.593 98.8026C173.817 96.4794 174.159 93.9276 175.52 91.8912L182.104 82.0439C182.332 81.7021 182.594 81.3838 182.885 81.0935C184.059 79.9229 184.718 78.3332 184.718 76.6754V68.8829C184.718 66.8295 183.901 64.8605 182.447 63.4106C180.993 61.9608 180.176 59.9918 180.176 57.9384V57.8371C180.176 54.4034 177.977 51.3554 174.719 50.2723L173.362 49.8213L166.006 47.9874C164.86 47.7016 163.762 47.2479 162.748 46.6412L154.783 41.8756C153.565 41.1464 152.171 40.7612 150.751 40.7612C149.204 40.7612 147.691 41.2181 146.403 42.0745L145.817 42.464C143.16 44.2297 141.564 47.2074 141.564 50.3969V52.4276C141.564 53.6585 141.074 54.8388 140.203 55.7079C139.607 56.3016 139.185 57.0462 138.98 57.8617L137.022 65.6748L136.301 67.8305C135.375 70.6016 132.78 72.4699 129.859 72.4699H129.329C127.083 72.4699 125.03 73.7372 124.024 75.7445C123.61 76.57 123.394 77.4808 123.394 78.4044V85.4845C123.394 87.352 122.958 89.1938 122.121 90.8632L120.124 94.8453C119.287 96.5147 118.852 98.3565 118.852 100.224V110.399C118.852 112.266 119.287 114.108 120.124 115.777L123.394 122.298L125.913 126.066C127.232 128.04 127.936 130.36 127.936 132.735V148.903C127.936 150.771 127.5 152.612 126.664 154.281L124.049 159.495C123.615 160.363 123.303 161.286 123.122 162.239L121.652 169.997C121.652 169.998 121.652 169.999 121.653 170Z" fill="white"/>
<path d="M87.0534 67.9482C87.0528 67.948 87.0523 67.9475 87.0521 67.9469L84.7811 58.8884L83.6343 55.4575C82.9003 53.2617 81.5467 51.325 79.7368 49.8812L74.437 45.6531C72.3113 43.9573 69.6727 43.0338 66.9534 43.0338H59.2804C58.157 43.0338 57.0795 42.5883 56.284 41.7951C55.6169 41.1298 54.7474 40.7055 53.8126 40.589L40.5122 38.931C38.3142 38.657 36.3095 37.5373 34.9234 35.8095C31.4262 31.4501 33.0058 24.9606 38.1153 22.6961L46.7381 18.8745C47.8669 18.3743 48.9117 17.7028 49.8357 16.8838L67.5165 1.21157C68.3424 0.479486 69.5303 0.322552 70.518 0.815031C72.0308 1.56935 72.4889 3.51097 71.4728 4.86196L67.5133 10.1262C66.9284 10.904 66.612 11.8508 66.612 12.824C66.612 15.5966 69.101 17.7059 71.836 17.2513L76.5049 16.4753C78.882 16.0802 81.3152 16.7127 83.1989 18.2155L88.3122 22.2948C90.4379 23.9906 93.0765 24.9141 95.7958 24.9141H102.534C105.71 24.9141 108.758 23.6544 111.007 21.4112L112.305 20.1169C113.622 18.803 115.227 17.8135 116.993 17.2266L130.8 12.637C132.982 11.9115 135.34 13.0904 136.069 15.2716C136.638 16.9724 138.23 18.1191 140.023 18.1191H143.134C143.601 18.1191 144.066 18.0807 144.526 18.0042L150.465 17.0171C154.418 16.3601 158.213 18.8478 159.188 22.7347C159.544 24.1576 159.484 25.6597 159.019 27.0509C158.071 29.8881 155.573 31.9442 152.605 32.3142L141.646 33.6803C140.096 33.8735 138.524 33.7181 137.042 33.2256C134.145 32.2626 130.972 32.6102 128.353 34.1777L123.78 36.9137C122.041 37.9542 120.053 38.5037 118.026 38.5037H117.017C113.906 38.5037 111 40.0565 109.271 42.643C108.12 44.3644 106.429 45.6534 104.464 46.3065L104.089 46.4313C101.881 47.1653 99.9799 48.6139 98.6867 50.5484L87.0552 67.9474C87.0548 67.948 87.0541 67.9483 87.0534 67.9482Z" fill="white"/>
<path d="M121.653 170C121.654 170 121.654 170 121.655 170L140.214 165.65C141.112 165.439 142.031 165.333 142.953 165.333H162.336C163.623 165.333 164.901 165.126 166.122 164.72L170.201 163.364C170.794 163.167 171.402 163.016 172.019 162.914L189.021 160.088C194.402 159.194 198.347 154.539 198.347 149.084C198.347 146.416 199.303 143.836 201.042 141.812L209.075 132.467C210.946 130.291 211.974 127.516 211.974 124.645V118.344C211.974 116.477 211.538 114.635 210.701 112.965L208.023 107.625C207.63 106.84 207.324 106.015 207.111 105.164L203.229 89.6792C203.006 88.7932 202.547 87.9843 201.9 87.3392C199.936 85.3802 196.757 85.3802 194.792 87.3392L193.804 88.325L182.336 101.667C181.066 103.145 178.955 103.571 177.211 102.701C176.201 102.198 175.433 101.313 175.075 100.243L174.593 98.8026C173.817 96.4794 174.159 93.9276 175.52 91.8912L182.104 82.0439C182.332 81.7021 182.594 81.3838 182.885 81.0935C184.059 79.9229 184.718 78.3332 184.718 76.6754V68.8829C184.718 66.8295 183.901 64.8605 182.447 63.4106C180.993 61.9608 180.176 59.9918 180.176 57.9384V57.8371C180.176 54.4034 177.977 51.3554 174.719 50.2723L173.362 49.8213L166.006 47.9874C164.86 47.7016 163.762 47.2479 162.748 46.6412L154.783 41.8756C153.565 41.1464 152.171 40.7612 150.751 40.7612C149.204 40.7612 147.691 41.2181 146.403 42.0745L145.817 42.464C143.16 44.2297 141.564 47.2074 141.564 50.3969V52.4276C141.564 53.6585 141.074 54.8388 140.203 55.7079C139.607 56.3016 139.185 57.0462 138.98 57.8617L137.022 65.6748L136.301 67.8305C135.375 70.6016 132.78 72.4699 129.859 72.4699H129.329C127.083 72.4699 125.03 73.7372 124.024 75.7445C123.61 76.57 123.394 77.4808 123.394 78.4044V85.4845C123.394 87.352 122.958 89.1938 122.121 90.8632L120.124 94.8453C119.287 96.5147 118.852 98.3565 118.852 100.224V110.399C118.852 112.266 119.287 114.108 120.124 115.777L123.394 122.298L125.913 126.066C127.232 128.04 127.936 130.36 127.936 132.735V148.903C127.936 150.771 127.5 152.612 126.664 154.281L124.049 159.495C123.615 160.363 123.303 161.286 123.122 162.239L121.652 169.997C121.652 169.998 121.652 169.999 121.653 170Z" stroke="#101010" stroke-width="2" stroke-linejoin="round"/>
<path d="M87.0534 67.9482C87.0528 67.948 87.0523 67.9475 87.0521 67.9469L84.7811 58.8884L83.6343 55.4575C82.9003 53.2617 81.5467 51.325 79.7368 49.8812L74.437 45.6531C72.3113 43.9573 69.6727 43.0338 66.9534 43.0338H59.2804C58.157 43.0338 57.0795 42.5883 56.284 41.7951C55.6169 41.1298 54.7474 40.7055 53.8126 40.589L40.5122 38.931C38.3142 38.657 36.3095 37.5373 34.9234 35.8095C31.4262 31.4501 33.0058 24.9606 38.1153 22.6961L46.7381 18.8745C47.8669 18.3743 48.9117 17.7028 49.8357 16.8838L67.5165 1.21157C68.3424 0.479486 69.5303 0.322552 70.518 0.815031C72.0308 1.56935 72.4889 3.51097 71.4728 4.86196L67.5133 10.1262C66.9284 10.904 66.612 11.8508 66.612 12.824C66.612 15.5966 69.101 17.7059 71.836 17.2513L76.5049 16.4753C78.882 16.0802 81.3152 16.7127 83.1989 18.2155L88.3122 22.2948C90.4379 23.9906 93.0765 24.9141 95.7958 24.9141H102.534C105.71 24.9141 108.758 23.6544 111.007 21.4112L112.305 20.1169C113.622 18.803 115.227 17.8135 116.993 17.2266L130.8 12.637C132.982 11.9115 135.34 13.0904 136.069 15.2716C136.638 16.9724 138.23 18.1191 140.023 18.1191H143.134C143.601 18.1191 144.066 18.0807 144.526 18.0042L150.465 17.0171C154.418 16.3601 158.213 18.8478 159.188 22.7347C159.544 24.1576 159.484 25.6597 159.019 27.0509C158.071 29.8881 155.573 31.9442 152.605 32.3142L141.646 33.6803C140.096 33.8735 138.524 33.7181 137.042 33.2256C134.145 32.2626 130.972 32.6102 128.353 34.1777L123.78 36.9137C122.041 37.9542 120.053 38.5037 118.026 38.5037H117.017C113.906 38.5037 111 40.0565 109.271 42.643C108.12 44.3644 106.429 45.6534 104.464 46.3065L104.089 46.4313C101.881 47.1653 99.9799 48.6139 98.6867 50.5484L87.0552 67.9474C87.0548 67.948 87.0541 67.9483 87.0534 67.9482Z" stroke="#101010" stroke-width="2" stroke-linejoin="round"/>
</g>
<defs>
<filter id="filter0_d" x="0.0476074" y="-20.4692" width="244.927" height="235.469" filterUnits="userSpaceOnUse" color-interpolation-filters="sRGB">
<feFlood flood-opacity="0" result="BackgroundImageFix"/>
<feColorMatrix in="SourceAlpha" type="matrix" values="0 0 0 0 0 0 0 0 0 0 0 0 0 0 0 0 0 0 127 0"/>
<feOffset dy="12"/>
<feGaussianBlur stdDeviation="16"/>
<feColorMatrix type="matrix" values="0 0 0 0 0 0 0 0 0 0.505882 0 0 0 0 0.454902 0 0 0 0.15 0"/>
<feBlend mode="normal" in2="BackgroundImageFix" result="effect1_dropShadow"/>
<feBlend mode="normal" in="SourceGraphic" in2="effect1_dropShadow" result="shape"/>
</filter>
</defs>
</svg>
