<svg width="179" height="114" viewBox="0 0 179 114" fill="none" xmlns="http://www.w3.org/2000/svg">
<path d="M34.4145 111.937V69.9228M34.4145 39.0063V59.6173M34.4145 59.6173L45.1716 53.2755M34.4145 59.6173V69.9228M34.4145 69.9228L15.3828 61.2028" stroke="#101010" stroke-width="2" stroke-linecap="round"/>
<ellipse cx="32.8432" cy="55.9552" rx="31.8432" ry="32.3568" stroke="#101010" stroke-width="2" stroke-linecap="round"/>
<path d="M113.805 49.7684C113.805 65.3823 101.848 78.0399 87.0978 78.0399C72.3478 78.0399 60.3906 65.3823 60.3906 49.7684C60.3906 34.1545 72.3478 1 87.0978 1C101.848 1 113.805 34.1545 113.805 49.7684Z" fill="white" stroke="#101010" stroke-width="2" stroke-linecap="round"/>
<path d="M87.1272 111.937V58.4773M87.1272 22.5712V48.1044M87.1272 48.1044L75.7969 41.7211M87.1272 48.1044V58.4773M87.1272 58.4773L102.504 49.7002" stroke="#101010" stroke-width="2" stroke-linecap="round"/>
<path d="M152.79 112.128V79.6456M152.79 57.2151V72.1688M152.79 72.1688L144.985 67.5677M152.79 72.1688V79.6456M152.79 79.6456L166.598 73.3191" stroke="#101010" stroke-width="2" stroke-linecap="round"/>
<ellipse rx="23.1028" ry="23.4754" transform="matrix(-1 0 0 1 153.928 69.512)" stroke="#101010" stroke-width="2" stroke-linecap="round"/>
</svg>
