<svg width="355" height="114" viewBox="0 0 355 114" fill="none" xmlns="http://www.w3.org/2000/svg">
<g clip-path="url(#clip0)">
<path d="M138.01 116.045V72.4113M138.01 40.3032V61.7086M138.01 61.7086L149.172 55.1223M138.01 61.7086V72.4113M138.01 72.4113L118.262 63.3552" stroke="#101010" stroke-width="2" stroke-linecap="round"/>
<ellipse cx="136.381" cy="57.9052" rx="33.0415" ry="33.604" stroke="#101010" stroke-width="2" stroke-linecap="round"/>
<path d="M220.389 51.4801C220.389 67.6959 207.982 80.8414 192.677 80.8414C177.372 80.8414 164.965 67.6959 164.965 51.4801C164.965 35.2643 177.372 0.831909 192.677 0.831909C207.982 0.831909 220.389 35.2643 220.389 51.4801Z" fill="white" stroke="#101010" stroke-width="2" stroke-linecap="round"/>
<path d="M192.71 116.045V60.5246M192.71 23.2345V49.7519M192.71 49.7519L180.953 43.1226M192.71 49.7519V60.5246M192.71 60.5246L208.665 51.4093" stroke="#101010" stroke-width="2" stroke-linecap="round"/>
<path d="M73.2152 71.373C73.2152 82.5926 64.6307 91.6879 54.0412 91.6879C43.4517 91.6879 34.8672 82.5926 34.8672 71.373C34.8672 60.1534 43.4517 36.3297 54.0412 36.3297C64.6307 36.3297 73.2152 60.1534 73.2152 71.373Z" fill="#008174" fill-opacity="0.1" stroke="#101010" stroke-width="2" stroke-linecap="round"/>
<path d="M54.0641 116.046V77.6309M54.0641 51.83V70.1773M54.0641 70.1773L45.9297 65.5905M54.0641 70.1773V77.6309M54.0641 77.6309L65.1037 71.324" stroke="#101010" stroke-width="2" stroke-linecap="round"/>
<path d="M327.153 86.1157C327.153 93.6326 321.402 99.7263 314.307 99.7263C307.212 99.7263 301.461 93.6326 301.461 86.1157C301.461 78.5987 307.212 62.6373 314.307 62.6373C321.402 62.6373 327.153 78.5987 327.153 86.1157Z" fill="white" stroke="#101010" stroke-width="2" stroke-linecap="round"/>
<path d="M314.321 116.045V90.3082M314.321 73.0221V85.3144M314.321 85.3144L308.871 82.2413M314.321 85.3144V90.3082M314.321 90.3082L321.717 86.0827" stroke="#101010" stroke-width="2" stroke-linecap="round"/>
<ellipse rx="23.9722" ry="24.3803" transform="matrix(-1 0 0 1 262.024 71.9846)" fill="#008174" fill-opacity="0.1" stroke="#101010" stroke-width="2" stroke-linecap="round"/>
<path d="M260.84 114.166V82.5088M260.84 59.2138V74.7438M260.84 74.7438L252.742 69.9653M260.84 74.7438V82.5088M260.84 82.5088L275.168 75.9384" stroke="#101010" stroke-width="2" stroke-linecap="round"/>
</g>
<defs>
<clipPath id="clip0">
<rect width="355" height="114" fill="white"/>
</clipPath>
</defs>
</svg>
