<svg width="16" height="13" viewBox="0 0 16 13" fill="none" xmlns="http://www.w3.org/2000/svg">
<path d="M14.2628 3.45815C14.4686 7.85177 11.0788 12.75 5.0776 12.75C3.25272 12.75 1.55498 12.2323 0.125 11.346C1.83962 11.5418 3.55087 11.0806 4.90884 10.0529C3.49574 10.0279 2.30203 9.12418 1.88913 7.88331C2.39654 7.97683 2.89607 7.94965 3.34948 7.83002C1.79574 7.52768 0.722417 6.1748 0.757295 4.72729C1.19383 4.96111 1.69111 5.1014 2.22102 5.11772C0.782047 4.18788 0.374768 2.35104 1.22083 0.947041C2.81394 2.83717 5.19574 4.08021 7.8813 4.21072C7.40989 2.25751 8.94338 0.375 11.0304 0.375C11.9586 0.375 12.799 0.754548 13.3886 1.36139C14.1244 1.22219 14.8174 0.961179 15.4407 0.603382C15.1988 1.33311 14.6869 1.94431 14.0197 2.33147C14.6734 2.25534 15.2967 2.08786 15.875 1.83882C15.443 2.46741 14.8962 3.0177 14.2628 3.45815Z" fill="#008174"/>
</svg>
