<svg width="19" height="16" viewBox="0 0 19 16" fill="none" xmlns="http://www.w3.org/2000/svg">
<path d="M17.0879 3.86008C17.3319 9.24675 13.3146 15.2521 6.20258 15.2521C4.03992 15.2521 2.02792 14.6174 0.333252 13.5307C2.36525 13.7707 4.39325 13.2054 6.00258 11.9454C4.32792 11.9147 2.91325 10.8067 2.42392 9.28541C3.02525 9.40008 3.61725 9.36675 4.15458 9.22008C2.31325 8.84941 1.04125 7.19075 1.08258 5.41608C1.59992 5.70275 2.18925 5.87474 2.81725 5.89474C1.11192 4.75474 0.629252 2.50275 1.63192 0.781412C3.51992 3.09875 6.34258 4.62275 9.52525 4.78275C8.96658 2.38808 10.7839 0.0800781 13.2572 0.0800781C14.3572 0.0800781 15.3532 0.545411 16.0519 1.28941C16.9239 1.11874 17.7452 0.798746 18.4839 0.360079C18.1972 1.25475 17.5906 2.00408 16.7999 2.47875C17.5746 2.38541 18.3132 2.18008 18.9986 1.87475C18.4866 2.64541 17.8386 3.32008 17.0879 3.86008Z" fill="white"/>
</svg>
