<svg width="24" height="24" viewBox="0 0 24 24" fill="none" xmlns="http://www.w3.org/2000/svg">
<path d="M0 5C0 2.23858 2.23858 0 5 0H19C21.7614 0 24 2.23858 24 5V19C24 21.7614 21.7614 24 19 24H5C2.23858 24 0 21.7614 0 19V5Z" fill="#101010" fill-opacity="0.03"/>
<path d="M5 1H19V-1H5V1ZM23 5V19H25V5H23ZM19 23H5V25H19V23ZM1 19V5H-1V19H1ZM5 23C2.79086 23 1 21.2091 1 19H-1C-1 22.3137 1.68629 25 5 25V23ZM23 19C23 21.2091 21.2091 23 19 23V25C22.3137 25 25 22.3137 25 19H23ZM19 1C21.2091 1 23 2.79086 23 5H25C25 1.68629 22.3137 -1 19 -1V1ZM5 -1C1.68629 -1 -1 1.68629 -1 5H1C1 2.79086 2.79086 1 5 1V-1Z" fill="#101010" fill-opacity="0.25"/>
</svg>
