<svg width="288" height="190" viewBox="0 0 288 190" fill="none" xmlns="http://www.w3.org/2000/svg">
<rect x="27.1997" y="49.3872" width="81.8484" height="139.286" fill="#101010" fill-opacity="0.03" stroke="#101010" stroke-linejoin="round"/>
<rect x="109.048" y="89.5931" width="66.0531" height="99.0797" fill="#101010" fill-opacity="0.03" stroke="#101010" stroke-linejoin="round"/>
<path d="M44.4309 68.0543H63.0981V91.0293H44.4309V68.0543Z" fill="white"/>
<path d="M72.4317 68.0543H91.0989V91.0293H72.4317V68.0543Z" fill="white"/>
<path d="M44.4309 103.953H63.0981V126.928H44.4309V103.953Z" fill="white"/>
<path d="M72.4317 103.953H91.0989V126.928H72.4317V103.953Z" fill="white"/>
<path d="M44.4309 103.953H63.0981V126.928H44.4309V103.953Z" fill="white"/>
<path d="M72.4317 103.953H91.0989V126.928H72.4317V103.953Z" fill="white"/>
<path d="M44.4309 139.851H63.0981V162.826H44.4309V139.851Z" fill="white"/>
<path d="M72.4317 139.851H91.0989V162.826H72.4317V139.851Z" fill="white"/>
<path d="M121.972 103.953H139.203V126.928H121.972V103.953Z" fill="white"/>
<path d="M145.664 103.953H162.896V126.928H145.664V103.953Z" fill="white"/>
<path d="M121.972 103.953H139.203V126.928H121.972V103.953Z" fill="white"/>
<path d="M145.664 103.953H162.896V126.928H145.664V103.953Z" fill="white"/>
<path d="M121.972 139.851H139.203V162.826H121.972V139.851Z" fill="white"/>
<path d="M145.664 139.851H162.896V162.826H145.664V139.851Z" fill="white"/>
<path d="M44.4309 68.0543H63.0981V91.0293H44.4309V68.0543Z" stroke="#101010" stroke-linejoin="round"/>
<path d="M72.4317 68.0543H91.0989V91.0293H72.4317V68.0543Z" stroke="#101010" stroke-linejoin="round"/>
<path d="M44.4309 103.953H63.0981V126.928H44.4309V103.953Z" stroke="#101010" stroke-linejoin="round"/>
<path d="M72.4317 103.953H91.0989V126.928H72.4317V103.953Z" stroke="#101010" stroke-linejoin="round"/>
<path d="M44.4309 103.953H63.0981V126.928H44.4309V103.953Z" stroke="#101010" stroke-linejoin="round"/>
<path d="M72.4317 103.953H91.0989V126.928H72.4317V103.953Z" stroke="#101010" stroke-linejoin="round"/>
<path d="M44.4309 139.851H63.0981V162.826H44.4309V139.851Z" stroke="#101010" stroke-linejoin="round"/>
<path d="M72.4317 139.851H91.0989V162.826H72.4317V139.851Z" stroke="#101010" stroke-linejoin="round"/>
<path d="M121.972 103.953H139.203V126.928H121.972V103.953Z" stroke="#101010" stroke-linejoin="round"/>
<path d="M145.664 103.953H162.896V126.928H145.664V103.953Z" stroke="#101010" stroke-linejoin="round"/>
<path d="M121.972 103.953H139.203V126.928H121.972V103.953Z" stroke="#101010" stroke-linejoin="round"/>
<path d="M145.664 103.953H162.896V126.928H145.664V103.953Z" stroke="#101010" stroke-linejoin="round"/>
<path d="M121.972 139.851H139.203V162.826H121.972V139.851Z" stroke="#101010" stroke-linejoin="round"/>
<path d="M145.664 139.851H162.896V162.826H145.664V139.851Z" stroke="#101010" stroke-linejoin="round"/>
<path d="M0.557373 188.673H287.443" stroke="#101010" stroke-linejoin="round"/>
<path fill-rule="evenodd" clip-rule="evenodd" d="M209.467 1.39478C209.068 1.39478 208.676 1.51315 208.325 1.73921L160.261 32.7176C159.484 33.2181 159 34.1864 159 35.2396V52.1369H163.805V38.106H207.065V57.4679L160.261 87.6338C159.484 88.1343 159 89.1027 159 90.1558V107.053H163.805V93.0222H206.488L189.122 188.673H194.038L197.359 170.381L222.634 137.768L248.242 170.812L251.485 188.673H256.401L239.034 93.0222H281.718V107.053H286.523V90.1558C286.523 89.1027 286.039 88.1343 285.262 87.6338L238.458 57.4679V38.106H281.718V52.1369H286.523V35.2396C286.523 34.1864 286.039 33.2181 285.262 32.7176L237.198 1.73921C236.847 1.51315 236.454 1.39478 236.056 1.39478H209.467ZM170.905 32.3731H207.065V9.06753L170.905 32.3731ZM211.869 7.12765V32.3731H233.653V7.12765H211.869ZM274.618 32.3731L238.458 9.06753V32.3731H274.618ZM233.653 38.106H211.869V56.311H233.653V38.106ZM233.653 62.0438H211.869V87.2894H233.653V62.0438ZM238.458 63.9837V87.2894H274.618L238.458 63.9837ZM234.118 93.0222H211.405L208.196 110.694L222.634 129.323L237.278 110.427L234.118 93.0222ZM238.52 117.268L225.906 133.546L246.24 159.784L238.52 117.268ZM199.361 159.353L219.361 133.546L206.954 117.535L199.361 159.353ZM207.065 87.2894V63.9837L170.905 87.2894H207.065Z" fill="url(#paint0_linear)"/>
<path d="M256.401 188.673H276.962H168.561H189.122M256.401 188.673L239.034 93.0222H281.718V107.053H286.523V90.1558C286.523 89.1027 286.039 88.1343 285.262 87.6338L238.458 57.4679V38.106H281.718V52.1369H286.523V35.2396C286.523 34.1864 286.039 33.2181 285.262 32.7176L237.198 1.73921C236.847 1.51315 236.454 1.39478 236.056 1.39478H209.467C209.068 1.39478 208.676 1.51315 208.325 1.73921L160.261 32.7176C159.484 33.2181 159 34.1864 159 35.2396V52.1369H163.805V38.106H207.065V57.4679L160.261 87.6338C159.484 88.1343 159 89.1027 159 90.1558V107.053H163.805V93.0222H206.488L189.122 188.673M256.401 188.673H251.485M189.122 188.673H194.038M194.038 188.673L197.359 170.381L222.634 137.768L248.242 170.812L251.485 188.673M194.038 188.673H251.485M207.065 32.3731H170.905L207.065 9.06753V32.3731ZM211.869 32.3731V7.12765H233.653V32.3731H211.869ZM238.458 9.06753L274.618 32.3731H238.458V9.06753ZM211.869 38.106H233.653V56.311H211.869V38.106ZM211.869 62.0439H233.653V87.2894H211.869V62.0439ZM238.458 87.2894V63.9837L274.618 87.2894H238.458ZM211.405 93.0222H234.118L237.278 110.427L222.634 129.323L208.196 110.694L211.405 93.0222ZM225.906 133.546L238.52 117.268L246.24 159.784L225.906 133.546ZM219.362 133.546L199.361 159.353L206.954 117.535L219.362 133.546ZM207.065 63.9837V87.2894H170.905L207.065 63.9837Z" stroke="#101010" stroke-linejoin="round"/>
<defs>
<linearGradient id="paint0_linear" x1="164.904" y1="8.88591" x2="164.904" y2="188.673" gradientUnits="userSpaceOnUse">
<stop stop-color="#D1EEDF"/>
<stop offset="1" stop-color="#A2E0DD"/>
</linearGradient>
</defs>
</svg>
