<svg xmlns="http://www.w3.org/2000/svg" width="212" height="50" viewBox="0 0 212 50"><path d="M121.8,45.6a2.77,2.77,0,0,1-2.7,1.7,2.9,2.9,0,0,1-3-2.9,2.59,2.59,0,0,1,.8-2.1,2.93,2.93,0,0,1,2.1-.8,2.33,2.33,0,0,1,2.1.9,3.11,3.11,0,0,1,.7,2.1v.1h-4.1a1.4,1.4,0,0,0,.3.9,1.43,1.43,0,0,0,1.1.5,1.56,1.56,0,0,0,1.3-.7Zm-1.4-2a1.32,1.32,0,0,0-2.6,0Z"/><path d="M123.2,41.6h1.5v.7a2,2,0,0,1,1.7-.9,1.83,1.83,0,0,1,1.6.7,2.15,2.15,0,0,1,.4,1.5V47h-1.5V44a1.55,1.55,0,0,0-.3-1.1.83.83,0,0,0-.7-.3.87.87,0,0,0-.9.5,2.15,2.15,0,0,0-.2,1.1V47h-1.5V41.6Z"/><path d="M135.4,45.6a2.77,2.77,0,0,1-2.7,1.7,2.9,2.9,0,0,1-3-2.9,2.59,2.59,0,0,1,.8-2.1,2.93,2.93,0,0,1,2.1-.8,2.33,2.33,0,0,1,2.1.9,3.11,3.11,0,0,1,.7,2.1v.1h-4.1a1.4,1.4,0,0,0,.3.9,1.43,1.43,0,0,0,1.1.5,1.56,1.56,0,0,0,1.3-.7Zm-1.4-2a1.32,1.32,0,0,0-2.6,0Z"/><path d="M136.8,41.6h1.5v.8a1.91,1.91,0,0,1,.7-.8c.2-.2.5-.2.9-.2s.5.1.7.1l-.2,1.4a1.4,1.4,0,0,0-1.7.2,1.8,1.8,0,0,0-.3,1.2v2.6h-1.5V41.6Z"/><path d="M145.6,41.6h1.5v5.2a3.19,3.19,0,0,1-.8,2.4,2.84,2.84,0,0,1-2.2.8,2.75,2.75,0,0,1-2-.6,3.19,3.19,0,0,1-.9-1.6h1.7a1.61,1.61,0,0,0,.4.7,1.21,1.21,0,0,0,.9.3,1.9,1.9,0,0,0,.9-.3,1.37,1.37,0,0,0,.4-1.2v-.8a1.94,1.94,0,0,1-1.7.9,2.64,2.64,0,0,1-1.9-.7,3,3,0,0,1-.9-2.2,3.11,3.11,0,0,1,.8-2.2,2.49,2.49,0,0,1,1.9-.7,2,2,0,0,1,1.7.9v-.9Zm-2.3,1.6a1.36,1.36,0,0,0-.5,1.2,1.82,1.82,0,0,0,.4,1.1,1.27,1.27,0,0,0,1.1.5,1.16,1.16,0,0,0,1-.4,1.66,1.66,0,0,0,.5-1.2,1.6,1.6,0,0,0-.4-1.1,1.5,1.5,0,0,0-1.1-.4A1,1,0,0,0,143.3,43.2Z"/><path d="M150.7,46.3l-2.6-4.6h1.8l1.7,3.1,1.5-3.1h1.7L150.4,50h-1.7Z"/><path d="M160.4,43v4.1h-1.5V43h-.6V41.7h.6V40.2a2.19,2.19,0,0,1,.7-1.9,1.9,1.9,0,0,1,1.3-.5,2.92,2.92,0,0,1,.9.2v1.4a.84.84,0,0,0-.7-.2.86.86,0,0,0-.6.3,2,2,0,0,0-.2.9v1.3h1.4V43Z"/><path d="M167.8,42.2a2.9,2.9,0,0,1,0,4.2,3.41,3.41,0,0,1-2.2.8,2.91,2.91,0,0,1-3.1-2.9,2.76,2.76,0,0,1,.9-2.1,3.41,3.41,0,0,1,2.2-.8A4.07,4.07,0,0,1,167.8,42.2Zm-.7,2.2a1.47,1.47,0,0,0-1.5-1.5,1.54,1.54,0,0,0-1.5,1.5,1.47,1.47,0,0,0,1.5,1.5A1.54,1.54,0,0,0,167.1,44.4Z"/><path d="M170,41.6h1.5v.8a1.91,1.91,0,0,1,.7-.8c.2-.2.5-.2.9-.2s.5.1.7.1l-.2,1.4a1.4,1.4,0,0,0-1.7.2,1.8,1.8,0,0,0-.3,1.2v2.6H170Z"/><path d="M181.9,41.6h1.5v5.2a3.19,3.19,0,0,1-.8,2.4,2.84,2.84,0,0,1-2.2.8,2.75,2.75,0,0,1-2-.6,3.19,3.19,0,0,1-.9-1.6h1.7a1.61,1.61,0,0,0,.4.7,1.21,1.21,0,0,0,.9.3,1.9,1.9,0,0,0,.9-.3,1.37,1.37,0,0,0,.4-1.2v-.8a1.94,1.94,0,0,1-1.7.9,2.64,2.64,0,0,1-1.9-.7,3,3,0,0,1-.9-2.2,3.11,3.11,0,0,1,.8-2.2,2.49,2.49,0,0,1,1.9-.7,2,2,0,0,1,1.7.9v-.9Zm-2.4,1.6a1.36,1.36,0,0,0-.5,1.2,1.82,1.82,0,0,0,.4,1.1,1.27,1.27,0,0,0,1.1.5,1.16,1.16,0,0,0,1-.4,1.66,1.66,0,0,0,.5-1.2,1.6,1.6,0,0,0-.4-1.1,1.5,1.5,0,0,0-1.1-.4A1.11,1.11,0,0,0,179.5,43.2Z"/><path d="M190.1,42.2a2.9,2.9,0,0,1,0,4.2,3.41,3.41,0,0,1-2.2.8,2.91,2.91,0,0,1-3.1-2.9,2.76,2.76,0,0,1,.9-2.1,3.41,3.41,0,0,1,2.2-.8A4.07,4.07,0,0,1,190.1,42.2Zm-.7,2.2a1.47,1.47,0,0,0-1.5-1.5,1.54,1.54,0,0,0-1.5,1.5,1.5,1.5,0,1,0,3,0Z"/><path d="M197.4,42.2a2.9,2.9,0,0,1,0,4.2,3.41,3.41,0,0,1-2.2.8,2.91,2.91,0,0,1-3.1-2.9,2.76,2.76,0,0,1,.9-2.1,3.41,3.41,0,0,1,2.2-.8A4.07,4.07,0,0,1,197.4,42.2Zm-.7,2.2a1.47,1.47,0,0,0-1.5-1.5,1.54,1.54,0,0,0-1.5,1.5,1.5,1.5,0,1,0,3,0Z"/><path d="M203.8,37.9h1.5v9.2h-1.5v-.7a2,2,0,0,1-1.7.9,2.9,2.9,0,0,1-.1-5.8,2.2,2.2,0,0,1,1.8.9Zm-2.9,6.5a1.5,1.5,0,1,0,3,0,1.5,1.5,0,0,0-3,0Z"/><path d="M208,38.6v2.2h-.6V38.6h-.6V38h1.8v.6Zm.7,2.2.5-2.8h.5l.7,1.7.7-1.7h.5l.4,2.8h-.6l-.2-1.5-.7,1.6h-.2l-.6-1.6-.2,1.5Z"/><path d="M70.77,30.06c2.8,0,4.51-2.8,4.51-5.37s-1.71-5.33-4.51-5.33-4.52,2.76-4.52,5.33S68,30.06,70.77,30.06Z" fill="none"/><path d="M106.33,30.06c2.8,0,4.51-2.76,4.51-5.33s-1.71-5.37-4.51-5.37-4.52,2.72-4.52,5.37S103.53,30.06,106.33,30.06Z" fill="none"/><path d="M182.27,30.06c2.81,0,4.52-2.76,4.52-5.33s-1.71-5.37-4.52-5.37-4.51,2.72-4.51,5.37S179.47,30.06,182.27,30.06Z" fill="none"/><circle cx="24.99" cy="25" r="6.09" fill="#fff"/><path d="M25,50A25,25,0,1,0,0,25,25,25,0,0,0,25,50ZM24.92,3.74A21.26,21.26,0,1,1,3.66,25,21.25,21.25,0,0,1,24.92,3.74Z" fill="#008174"/><path d="M25,7.57A17.4,17.4,0,0,0,11.36,35.83V25.39c0-.13,0-.26,0-.39s0-.26,0-.39v-.26h0A13.64,13.64,0,1,1,25,38.65a12.78,12.78,0,0,1-2.33-.22v3.82a16.28,16.28,0,0,0,2.33.18A17.43,17.43,0,0,0,25,7.57Z" fill="#93d0b3"/><path d="M15.14,39.49a17.46,17.46,0,0,0,3.76,1.9V32.71a9.84,9.84,0,1,0-3.76-7.91V39.49ZM25,18.91A6.09,6.09,0,1,1,18.9,25,6.09,6.09,0,0,1,25,18.91Z" fill="#008174"/><path d="M24.92,46.26A21.26,21.26,0,1,0,3.66,25,21.25,21.25,0,0,0,24.92,46.26ZM42.4,25A17.41,17.41,0,0,1,25,42.43a16.28,16.28,0,0,1-2.33-.18V38.43a12.78,12.78,0,0,0,2.33.22,13.65,13.65,0,1,0-13.62-14.3h0v.26c0,.13,0,.26,0,.39s0,.26,0,.39V35.83A17.4,17.4,0,1,1,42.4,25Zm-27.26-.12V24.8a10,10,0,1,1,3.76,7.91v8.68a17.46,17.46,0,0,1-3.76-1.9Z" fill="#fff"/><path d="M66.8,32.47h.07A6.33,6.33,0,0,0,72,34.88c5.64,0,8.83-5.06,8.83-10.27,0-5-3.3-10.08-8.71-10.08a7,7,0,0,0-5.29,2.38V15.16H61.35V44.45H66.8Zm4-13.11c2.8,0,4.51,2.76,4.51,5.33s-1.71,5.37-4.51,5.37-4.52-2.8-4.52-5.37S68,19.36,70.77,19.36Z" fill="#008174"/><path d="M88.78,25.66c0-3,.39-6.3,4.16-6.3a3.85,3.85,0,0,1,2.26.7L95.86,15a6.38,6.38,0,0,0-2.26-.47,5.46,5.46,0,0,0-4.74,2.61h-.08v-2H83.33v19.1h5.45Z" fill="#008174"/><path d="M106.33,34.88c6,0,10-4.24,10-10.15s-4.09-10.2-10-10.2-10,4.24-10,10.2S100.34,34.88,106.33,34.88Zm0-15.52c2.8,0,4.51,2.72,4.51,5.37s-1.71,5.33-4.51,5.33-4.52-2.76-4.52-5.33S103.53,19.36,106.33,19.36Z" fill="#008174"/><polygon points="127.84 34.65 136.64 15.16 130.68 15.16 126.75 25.93 122.28 15.16 116.29 15.16 125.04 34.65 127.84 34.65" fill="#008174"/><rect x="138.19" y="15.16" width="5.45" height="19.1" fill="#008174"/><circle cx="140.92" cy="7.14" r="3.23" fill="#008174"/><path d="M153.13,30.68a5.75,5.75,0,0,1-4-2.22l-2.49,3.23a8.75,8.75,0,0,0,6.73,3.19c4,0,7.43-2.53,7.43-6.77,0-3.3-1.95-4.63-3.93-5.48S152.9,21.38,152.9,20a1.75,1.75,0,0,1,1.79-1.63,4.32,4.32,0,0,1,2.88,1.32l2.33-3.15a9.92,9.92,0,0,0-6.14-2,5.9,5.9,0,0,0-6.07,6.19c0,3.07,1.9,4.2,3.81,5s3.81,1.2,3.81,2.88A2.06,2.06,0,0,1,153.13,30.68Z" fill="#008174"/><rect x="163.99" y="15.16" width="5.45" height="19.1" fill="#008174"/><path d="M166.71,10.37a3.23,3.23,0,1,0-3.23-3.23A3.22,3.22,0,0,0,166.71,10.37Z" fill="#008174"/><path d="M182.27,34.88c6,0,10-4.24,10-10.15s-4.08-10.2-10-10.2-10,4.24-10,10.2S176.28,34.88,182.27,34.88Zm0-15.52c2.81,0,4.52,2.72,4.52,5.37s-1.71,5.33-4.52,5.33-4.51-2.76-4.51-5.33S179.47,19.36,182.27,19.36Z" fill="#008174"/><path d="M200.33,24.81c0-2.3,0-5.92,3.27-5.92,3.07,0,3,3,3,5.25V34.26H212V22.59c0-4.44-1.48-8.06-6.61-8.06a5.7,5.7,0,0,0-5,2.38h-.08V15.16h-5.45v19.1h5.45Z" fill="#008174"/></svg>