<svg xmlns="http://www.w3.org/2000/svg" width="136" height="32" viewBox="0 0 136 32"><path d="M45.44,19.24c1.79,0,2.89-1.79,2.89-3.44s-1.1-3.41-2.89-3.41-2.89,1.77-2.89,3.41S43.64,19.24,45.44,19.24Z" fill="none"/><path d="M68.21,19.24c1.79,0,2.89-1.77,2.89-3.41s-1.1-3.44-2.89-3.44-2.89,1.74-2.89,3.44S66.42,19.24,68.21,19.24Z" fill="none"/><path d="M116.84,19.24c1.8,0,2.89-1.77,2.89-3.41s-1.09-3.44-2.89-3.44S114,14.13,114,15.83,115.05,19.24,116.84,19.24Z" fill="none"/><circle cx="16.12" cy="16" r="3.9" fill="#008276"/><path d="M16.12,32a16,16,0,1,0-16-16A16,16,0,0,0,16.12,32Zm0-29.62A13.62,13.62,0,1,1,2.46,16,13.6,13.6,0,0,1,16.08,2.38Z" fill="#fff"/><path d="M16.12,4.84A11.14,11.14,0,0,0,7.4,22.94V16.25a1.57,1.57,0,0,1,0-.5v-.16h0a8.73,8.73,0,1,1,8.72,9.15,8.18,8.18,0,0,1-1.49-.14v2.45a12.29,12.29,0,0,0,1.49.11,11.16,11.16,0,0,0,0-22.32Z" fill="#93d0b3"/><path d="M9.82,25.28a11.53,11.53,0,0,0,2.4,1.22V20.94a6.31,6.31,0,1,0-2.4-5.07v9.41Zm6.3-13.18a3.9,3.9,0,1,1-3.9,3.9A3.9,3.9,0,0,1,16.12,12.1Z" fill="#fff"/><path d="M16.08,29.61A13.62,13.62,0,1,0,2.46,16,13.61,13.61,0,0,0,16.08,29.61ZM27.27,16A11.15,11.15,0,0,1,16.12,27.16a12.29,12.29,0,0,1-1.49-.11V24.6a8.18,8.18,0,0,0,1.49.14A8.74,8.74,0,1,0,7.4,15.59h0v.16a1.57,1.57,0,0,0,0,.5v6.69A11.15,11.15,0,1,1,27.27,16ZM9.82,15.93v-.06a6.36,6.36,0,1,1,2.4,5.07V26.5a11.53,11.53,0,0,1-2.4-1.22Z" fill="#008276"/><path d="M42.9,20.78H43a4,4,0,0,0,3.26,1.55c3.61,0,5.66-3.24,5.66-6.58S49.75,9.3,46.28,9.3a4.47,4.47,0,0,0-3.38,1.52V9.7H39.41V28.46H42.9Zm2.54-8.39c1.79,0,2.89,1.77,2.89,3.41s-1.1,3.44-2.89,3.44-2.89-1.79-2.89-3.44S43.64,12.39,45.44,12.39Z" fill="#fff"/><path d="M57,16.42c0-1.89.25-4,2.67-4a2.46,2.46,0,0,1,1.44.45l.43-3.24a4,4,0,0,0-1.45-.3A3.51,3.51,0,0,0,57,11H57V9.7H53.49V21.93H57Z" fill="#fff"/><path d="M68.21,22.33a6.18,6.18,0,0,0,6.43-6.5,6.43,6.43,0,1,0-12.86,0A6.18,6.18,0,0,0,68.21,22.33Zm0-9.94c1.79,0,2.89,1.74,2.89,3.44s-1.1,3.41-2.89,3.41-2.89-1.77-2.89-3.41S66.42,12.39,68.21,12.39Z" fill="#fff"/><polygon points="81.99 22.18 87.62 9.7 83.81 9.7 81.29 16.6 78.42 9.7 74.59 9.7 80.19 22.18 81.99 22.18" fill="#fff"/><rect x="88.61" y="9.7" width="3.49" height="12.23" fill="#fff"/><circle cx="90.36" cy="4.56" r="2.07" fill="#fff"/><path d="M98.18,19.64a3.71,3.71,0,0,1-2.59-1.42L94,20.29a5.62,5.62,0,0,0,4.31,2c2.56,0,4.76-1.62,4.76-4.34a3.55,3.55,0,0,0-2.52-3.51c-1.25-.55-2.52-.8-2.52-1.69a1.13,1.13,0,0,1,1.15-1,2.73,2.73,0,0,1,1.84.85l1.5-2A6.38,6.38,0,0,0,98.58,9.3a3.78,3.78,0,0,0-3.89,4c0,2,1.23,2.69,2.45,3.21s2.44.78,2.44,1.85A1.33,1.33,0,0,1,98.18,19.64Z" fill="#fff"/><rect x="105.13" y="9.7" width="3.49" height="12.23" fill="#fff"/><path d="M106.88,6.63a2.07,2.07,0,1,0-2.07-2.07A2.07,2.07,0,0,0,106.88,6.63Z" fill="#fff"/><path d="M116.84,22.33a6.18,6.18,0,0,0,6.43-6.5,6.43,6.43,0,1,0-12.85,0A6.18,6.18,0,0,0,116.84,22.33Zm0-9.94c1.8,0,2.89,1.74,2.89,3.44s-1.09,3.41-2.89,3.41S114,17.47,114,15.83,115.05,12.39,116.84,12.39Z" fill="#fff"/><path d="M128.4,15.88c0-1.47,0-3.79,2.1-3.79s1.89,1.89,1.89,3.36v6.48h3.49V14.46c0-2.85-.95-5.16-4.24-5.16a3.66,3.66,0,0,0-3.19,1.52h0V9.7h-3.49V21.93h3.49Z" fill="#fff"/><path d="M78.24,29.18a1.77,1.77,0,0,1-1.73,1.09,1.86,1.86,0,0,1-1.92-1.86,1.67,1.67,0,0,1,.51-1.34,1.91,1.91,0,0,1,1.35-.51,1.48,1.48,0,0,1,1.34.57,2,2,0,0,1,.45,1.35v.06H75.62a.86.86,0,0,0,.89.9,1,1,0,0,0,.83-.45Zm-.9-1.28a.84.84,0,0,0-1.66,0Z" fill="#fff"/><path d="M79.14,26.62h1v.45a1.29,1.29,0,0,1,1.09-.58,1.18,1.18,0,0,1,1,.45,1.36,1.36,0,0,1,.26,1v2.18h-1V28.16a1,1,0,0,0-.2-.71.52.52,0,0,0-.44-.19.57.57,0,0,0-.58.32,1.38,1.38,0,0,0-.13.71v1.79h-1V26.62Z" fill="#fff"/><path d="M87,29.18a1.77,1.77,0,0,1-1.73,1.09,1.86,1.86,0,0,1-1.92-1.86,1.67,1.67,0,0,1,.51-1.34,1.91,1.91,0,0,1,1.35-.51,1.48,1.48,0,0,1,1.34.57A2,2,0,0,1,87,28.48v.06H84.32a.91.91,0,0,0,.2.58.89.89,0,0,0,.7.32,1,1,0,0,0,.83-.45Zm-.9-1.28a.84.84,0,0,0-1.66,0Z" fill="#fff"/><path d="M87.85,26.62h1v.51a1.23,1.23,0,0,1,.44-.51c.13-.13.32-.13.58-.13s.32.07.45.07l-.13.89a1,1,0,0,0-.45-.12.92.92,0,0,0-.64.25,1.17,1.17,0,0,0-.19.77V30h-1V26.62Z" fill="#fff"/><path d="M93.48,26.62h1V30a2,2,0,0,1-.51,1.54,1.85,1.85,0,0,1-1.41.51,1.78,1.78,0,0,1-1.28-.38,2.07,2.07,0,0,1-.58-1h1.09A1.11,1.11,0,0,0,92,31a.77.77,0,0,0,.57.19,1.27,1.27,0,0,0,.58-.19.87.87,0,0,0,.26-.77v-.51a1.26,1.26,0,0,1-1.09.58,1.7,1.7,0,0,1-1.22-.45,2.11,2.11,0,0,1-.06-2.82,1.58,1.58,0,0,1,1.21-.45,1.27,1.27,0,0,1,1.09.58v-.58Zm-1.47,1a.86.86,0,0,0-.32.76,1.23,1.23,0,0,0,.25.71.85.85,0,0,0,.71.32.76.76,0,0,0,.64-.26,1.07,1.07,0,0,0,.32-.77,1,1,0,0,0-.26-.7,1,1,0,0,0-.7-.26A.66.66,0,0,0,92,27.65Z" fill="#fff"/><path d="M96.75,29.63l-1.67-2.94h1.15l1.09,2,1-2h1.09L96.55,32H95.47Z" fill="#fff"/><path d="M103,27.52v2.62h-1V27.52h-.39v-.83H102v-1a1.39,1.39,0,0,1,.45-1.21,1.22,1.22,0,0,1,.83-.32,1.68,1.68,0,0,1,.57.13v.89c-.12-.13-.25-.13-.44-.13a.57.57,0,0,0-.39.2,1.29,1.29,0,0,0-.13.57v.84h.9v.83Z" fill="#fff"/><path d="M107.7,27a1.86,1.86,0,0,1,0,2.68,2.17,2.17,0,0,1-1.41.52,1.89,1.89,0,0,1-1.41-.52,1.86,1.86,0,0,1-.58-1.34,1.74,1.74,0,0,1,.58-1.34,2.17,2.17,0,0,1,1.41-.52A2.63,2.63,0,0,1,107.7,27Zm-.45,1.4a1,1,0,0,0-1-1,1,1,0,0,0-1,1,.94.94,0,0,0,1,1A1,1,0,0,0,107.25,28.41Z" fill="#fff"/><path d="M109.11,26.62h1v.51a1.23,1.23,0,0,1,.44-.51c.13-.13.32-.13.58-.13s.32.07.45.07l-.13.89a1,1,0,0,0-.45-.12.92.92,0,0,0-.64.25,1.17,1.17,0,0,0-.19.77V30h-1Z" fill="#fff"/><path d="M116.73,26.62h1V30a2.06,2.06,0,0,1-.52,1.54,1.83,1.83,0,0,1-1.41.51,1.8,1.8,0,0,1-1.28-.38,2.06,2.06,0,0,1-.57-1H115a1,1,0,0,0,.25.45.78.78,0,0,0,.58.19,1.27,1.27,0,0,0,.58-.19.89.89,0,0,0,.25-.77v-.51a1.25,1.25,0,0,1-1.09.58,1.67,1.67,0,0,1-1.21-.45,1.94,1.94,0,0,1-.58-1.41,2,2,0,0,1,.51-1.41,1.61,1.61,0,0,1,1.22-.45,1.27,1.27,0,0,1,1.09.58v-.58Zm-1.54,1a.86.86,0,0,0-.32.76,1.23,1.23,0,0,0,.25.71.85.85,0,0,0,.71.32.75.75,0,0,0,.64-.26,1.07,1.07,0,0,0,.32-.77,1,1,0,0,0-.26-.7,1,1,0,0,0-.7-.26A.72.72,0,0,0,115.19,27.65Z" fill="#fff"/><path d="M122,27a1.86,1.86,0,0,1,0,2.68,2.17,2.17,0,0,1-1.41.52,1.89,1.89,0,0,1-1.41-.52,1.86,1.86,0,0,1-.58-1.34,1.74,1.74,0,0,1,.58-1.34,2.17,2.17,0,0,1,1.41-.52A2.63,2.63,0,0,1,122,27Zm-.45,1.4a1,1,0,0,0-1-1,1,1,0,0,0-1,1,1,1,0,0,0,1.92,0Z" fill="#fff"/><path d="M126.65,27a1.84,1.84,0,0,1,0,2.68,2.17,2.17,0,0,1-1.41.52,1.89,1.89,0,0,1-1.41-.52,1.85,1.85,0,0,1-.57-1.34,1.74,1.74,0,0,1,.57-1.34,2.17,2.17,0,0,1,1.41-.52A2.63,2.63,0,0,1,126.65,27Zm-.45,1.4a1,1,0,0,0-1-1,1,1,0,0,0-1,1,1,1,0,0,0,1.92,0Z" fill="#fff"/><path d="M130.75,24.25h1v5.89h-1v-.45a1.3,1.3,0,0,1-1.09.58,1.86,1.86,0,0,1-.06-3.71,1.41,1.41,0,0,1,1.15.57Zm-1.86,4.16a1,1,0,1,0,1.92,0,1,1,0,0,0-1.92,0Z" fill="#fff"/><path d="M133.44,24.7v1.41h-.39V24.7h-.38v-.38h1.15v.38Zm.45,1.41.32-1.79h.32L135,25.4l.44-1.08h.32l.26,1.79h-.38l-.13-1-.45,1h-.13l-.38-1-.13,1Z" fill="#fff"/></svg>