<svg width="640" height="357" viewBox="0 0 640 357" fill="none" xmlns="http://www.w3.org/2000/svg">
<rect width="640" height="357" fill="white"/>
<rect width="640" height="357" fill="white"/>
<path d="M131.15 178.499H149.149H165.582C165.582 181.74 165.649 184.861 165.775 187.867C167.381 226.13 178.673 245.712 185.929 256.57H149.149H110.804C118.059 245.712 129.351 226.13 130.957 187.867C131.084 184.861 131.15 181.74 131.15 178.499Z" fill="#101010" fill-opacity="0.05"/>
<path d="M130.957 187.867C129.351 226.13 118.059 245.712 110.804 256.57H149.149H185.929C178.673 245.712 167.381 226.13 165.775 187.867M130.957 187.867C131.084 184.861 131.15 181.74 131.15 178.499H149.149H165.582C165.582 181.74 165.649 184.861 165.775 187.867M130.957 187.867H165.775" stroke="#101010"/>
<path d="M138.972 170.283C138.32 164.417 140.927 152.686 156.568 152.686C172.21 152.686 176.902 152.686 180.421 152.686C180.161 148.124 185.505 139 198.018 139C214.598 139 220.307 139 233.994 139C233.342 143.562 228.832 152.686 216.006 152.686C203.18 152.686 206.491 152.686 197.236 152.686C197.106 156.466 193.326 160.898 185.505 160.898C177.684 160.898 171.558 160.898 165.171 160.898C159.305 160.898 156.568 165.278 156.568 170.283" stroke="#101010"/>
<rect x="162.629" y="246.023" width="42.1824" height="7.0304" fill="white" stroke="#101010" stroke-linejoin="round"/>
<rect x="157.942" y="221.417" width="51.5563" height="7.0304" fill="white" stroke="#101010" stroke-linejoin="round"/>
<path d="M167.315 213.801L163.8 221.417H205.397L201.882 214.973L194.851 207.942H187.821L184.892 214.973L180.205 210.872H174.346L171.417 214.973L167.315 213.801Z" fill="white" stroke="#101010"/>
<path d="M161.456 228.447H205.982L201.295 246.023H166.143L161.456 228.447Z" fill="white" stroke="#101010" stroke-linejoin="round"/>
<circle cx="174.346" cy="250.71" r="5.85867" fill="white" stroke="#101010" stroke-linejoin="round"/>
<circle cx="194.265" cy="250.71" r="5.85867" fill="white" stroke="#101010" stroke-linejoin="round"/>
<path d="M162.628 249.539H159.113" stroke="#101010"/>
<path d="M208.327 249.539H204.811" stroke="#101010"/>
<path d="M110.991 11.4499C110.175 11.0019 109.247 10.7459 108.303 10.7459C104.767 10.7459 102.351 13.7699 102.351 17.1939C102.351 20.5219 104.863 23.4499 108.255 23.4499C109.231 23.4499 110.111 23.1459 110.991 22.7299V19.9299C110.335 20.6819 109.327 21.2099 108.319 21.2099C106.127 21.2099 104.783 19.1779 104.783 17.1459C104.783 15.0659 106.079 12.9859 108.335 12.9859C109.343 12.9859 110.335 13.4659 110.991 14.2659V11.4499ZM119.896 15.2739H117.688V16.0099C117.144 15.3699 116.312 15.0179 115.496 15.0179C113.24 15.0179 111.912 17.0819 111.912 19.1619C111.912 21.2899 113.224 23.3859 115.528 23.3859C116.344 23.3859 117.176 23.0339 117.656 22.4099H117.688V23.1299H119.896V15.2739ZM116.04 21.4019C114.888 21.4019 114.184 20.2499 114.184 19.1939C114.184 18.1379 114.888 17.0019 116.04 17.0019C117.192 17.0019 117.912 18.1379 117.912 19.1939C117.912 20.2499 117.192 21.4019 116.04 21.4019ZM123.759 15.2739H121.519V23.1299H123.759V19.5939C123.759 18.3779 123.919 17.0019 125.471 17.0019C125.807 17.0019 126.127 17.0979 126.399 17.2899L126.671 15.2099C126.383 15.0979 126.063 15.0179 125.743 15.0179C124.911 15.0179 124.239 15.4019 123.791 16.0899H123.759V15.2739ZM127.394 23.1299H129.634V22.3939H129.666C130.114 23.0339 130.962 23.3859 131.762 23.3859C134.082 23.3859 135.394 21.3059 135.394 19.1619C135.394 17.0979 134.034 15.0179 131.81 15.0179C130.978 15.0179 130.146 15.3859 129.634 15.9939V9.56188H127.394V23.1299ZM131.266 21.4019C130.114 21.4019 129.41 20.2499 129.41 19.1939C129.41 18.1379 130.114 17.0019 131.266 17.0019C132.418 17.0019 133.122 18.1379 133.122 19.1939C133.122 20.2499 132.418 21.4019 131.266 21.4019ZM140.025 15.0179C137.577 15.0179 135.897 16.7619 135.897 19.2099C135.897 21.6419 137.561 23.3859 140.025 23.3859C142.489 23.3859 144.153 21.6419 144.153 19.2099C144.153 16.7619 142.473 15.0179 140.025 15.0179ZM140.025 17.0019C141.177 17.0019 141.881 18.1219 141.881 19.2099C141.881 20.2659 141.177 21.4019 140.025 21.4019C138.873 21.4019 138.169 20.2659 138.169 19.2099C138.169 18.1219 138.873 17.0019 140.025 17.0019ZM147.446 15.2739H145.206V23.1299H147.446V19.2419C147.446 18.2979 147.462 16.8099 148.79 16.8099C150.054 16.8099 150.006 18.0259 150.006 18.9699V23.1299H152.246V18.3299C152.246 16.5059 151.638 15.0179 149.526 15.0179C148.726 15.0179 147.942 15.2899 147.478 15.9939H147.446V15.2739ZM163.288 18.0419C164.904 17.7699 165.752 16.2339 165.752 14.6979C165.752 12.1219 164.104 11.0659 161.72 11.0659H158.536V23.1299H160.888V18.2659H160.92L163.848 23.1299H166.696L163.288 18.0419ZM160.888 12.9859H161.208C162.456 12.9859 163.4 13.2739 163.4 14.7619C163.4 16.2339 162.488 16.6179 161.192 16.6179H160.888V12.9859ZM174.182 19.5619V19.2899C174.182 16.9219 173.03 15.0179 170.454 15.0179C167.91 15.0179 166.646 16.8899 166.646 19.2739C166.646 21.6579 168.134 23.3859 170.566 23.3859C172.214 23.3859 173.59 22.5059 174.134 20.9379L172.07 20.6019C171.766 21.2259 171.302 21.6739 170.566 21.6739C169.398 21.6739 169.014 20.5539 169.014 19.5619H174.182ZM169.078 18.1699C169.19 17.3539 169.686 16.5859 170.582 16.5859C171.446 16.5859 171.958 17.3699 172.07 18.1699H169.078ZM177.462 9.56188H175.222V23.1299H177.462V9.56188ZM186.026 19.5619V19.2899C186.026 16.9219 184.874 15.0179 182.298 15.0179C179.754 15.0179 178.49 16.8899 178.49 19.2739C178.49 21.6579 179.978 23.3859 182.41 23.3859C184.058 23.3859 185.434 22.5059 185.978 20.9379L183.914 20.6019C183.61 21.2259 183.146 21.6739 182.41 21.6739C181.242 21.6739 180.858 20.5539 180.858 19.5619H186.026ZM180.922 18.1699C181.034 17.3539 181.53 16.5859 182.426 16.5859C183.29 16.5859 183.802 17.3699 183.914 18.1699H180.922ZM194.49 15.2739H192.282V16.0099C191.738 15.3699 190.906 15.0179 190.09 15.0179C187.834 15.0179 186.506 17.0819 186.506 19.1619C186.506 21.2899 187.818 23.3859 190.122 23.3859C190.938 23.3859 191.77 23.0339 192.25 22.4099H192.282V23.1299H194.49V15.2739ZM190.634 21.4019C189.482 21.4019 188.778 20.2499 188.778 19.1939C188.778 18.1379 189.482 17.0019 190.634 17.0019C191.786 17.0019 192.506 18.1379 192.506 19.1939C192.506 20.2499 191.786 21.4019 190.634 21.4019ZM201.105 15.8339C200.465 15.2739 199.409 15.0179 198.577 15.0179C197.105 15.0179 196.081 16.0899 196.081 17.5619C196.081 18.8259 196.865 19.2899 197.649 19.6259C198.433 19.9619 199.217 20.1219 199.217 20.8099C199.217 21.3219 198.817 21.6579 198.321 21.6579C197.664 21.6579 197.089 21.2259 196.657 20.7459L195.633 22.0739C196.321 22.9059 197.345 23.3859 198.401 23.3859C200.049 23.3859 201.457 22.3459 201.457 20.6019C201.457 19.2419 200.657 18.6979 199.841 18.3459C199.041 17.9939 198.225 17.8339 198.225 17.2579C198.225 16.8739 198.593 16.5859 198.961 16.5859C199.409 16.5859 199.825 16.8259 200.145 17.1299L201.105 15.8339ZM209.651 19.5619V19.2899C209.651 16.9219 208.499 15.0179 205.923 15.0179C203.379 15.0179 202.115 16.8899 202.115 19.2739C202.115 21.6579 203.603 23.3859 206.035 23.3859C207.683 23.3859 209.059 22.5059 209.603 20.9379L207.539 20.6019C207.235 21.2259 206.771 21.6739 206.035 21.6739C204.867 21.6739 204.483 20.5539 204.483 19.5619H209.651ZM204.547 18.1699C204.659 17.3539 205.155 16.5859 206.051 16.5859C206.915 16.5859 207.427 17.3699 207.539 18.1699H204.547ZM215.891 23.1299H218.131V9.56188H215.891V15.9939H215.859C215.363 15.3699 214.531 15.0179 213.715 15.0179C211.459 15.0179 210.131 17.0819 210.131 19.1619C210.131 21.2899 211.443 23.3859 213.747 23.3859C214.563 23.3859 215.395 23.0339 215.859 22.3939H215.891V23.1299ZM214.259 21.4019C213.107 21.4019 212.403 20.2499 212.403 19.1939C212.403 18.1379 213.107 17.0019 214.259 17.0019C215.411 17.0019 216.115 18.1379 216.115 19.1939C216.115 20.2499 215.411 21.4019 214.259 21.4019ZM95.1516 47.1299H97.3916V46.3939H97.4236C97.8716 47.0339 98.7196 47.3859 99.5196 47.3859C101.84 47.3859 103.152 45.3059 103.152 43.1619C103.152 41.0979 101.792 39.0179 99.5676 39.0179C98.7356 39.0179 97.9036 39.3859 97.3916 39.9939V33.5619H95.1516V47.1299ZM99.0236 45.4019C97.8716 45.4019 97.1676 44.2499 97.1676 43.1939C97.1676 42.1379 97.8716 41.0019 99.0236 41.0019C100.176 41.0019 100.88 42.1379 100.88 43.1939C100.88 44.2499 100.176 45.4019 99.0236 45.4019ZM106.454 45.9299L103.862 51.3219H106.326L112.038 39.2739H109.542L107.526 43.7379L105.654 39.2739H103.11L106.454 45.9299ZM124.873 35.4499C124.057 35.0019 123.129 34.7459 122.185 34.7459C118.649 34.7459 116.233 37.7699 116.233 41.1939C116.233 44.5219 118.745 47.4499 122.137 47.4499C123.113 47.4499 123.993 47.1459 124.873 46.7299V43.9299C124.217 44.6819 123.209 45.2099 122.201 45.2099C120.009 45.2099 118.665 43.1779 118.665 41.1459C118.665 39.0659 119.961 36.9859 122.217 36.9859C123.225 36.9859 124.217 37.4659 124.873 38.2659V35.4499ZM128.595 39.2739H126.355V47.1299H128.595V43.5939C128.595 42.3779 128.755 41.0019 130.307 41.0019C130.643 41.0019 130.963 41.0979 131.235 41.2899L131.507 39.2099C131.219 39.0979 130.899 39.0179 130.579 39.0179C129.747 39.0179 129.075 39.4019 128.627 40.0899H128.595V39.2739ZM139.112 43.5619V43.2899C139.112 40.9219 137.96 39.0179 135.384 39.0179C132.84 39.0179 131.576 40.8899 131.576 43.2739C131.576 45.6579 133.064 47.3859 135.496 47.3859C137.144 47.3859 138.52 46.5059 139.064 44.9379L137 44.6019C136.696 45.2259 136.232 45.6739 135.496 45.6739C134.328 45.6739 133.944 44.5539 133.944 43.5619H139.112ZM134.008 42.1699C134.12 41.3539 134.616 40.5859 135.512 40.5859C136.376 40.5859 136.888 41.3699 137 42.1699H134.008ZM147.576 39.2739H145.368V40.0099C144.824 39.3699 143.992 39.0179 143.176 39.0179C140.92 39.0179 139.592 41.0819 139.592 43.1619C139.592 45.2899 140.904 47.3859 143.208 47.3859C144.024 47.3859 144.856 47.0339 145.336 46.4099H145.368V47.1299H147.576V39.2739ZM143.72 45.4019C142.568 45.4019 141.864 44.2499 141.864 43.1939C141.864 42.1379 142.568 41.0019 143.72 41.0019C144.872 41.0019 145.592 42.1379 145.592 43.1939C145.592 44.2499 144.872 45.4019 143.72 45.4019ZM151.71 41.1619H153.086V39.2739H151.71V36.6179H149.47V39.2739H148.702V41.1619H149.47V47.1299H151.71V41.1619ZM155.957 39.2739H153.717V47.1299H155.957V39.2739ZM154.837 34.6499C154.101 34.6499 153.509 35.2579 153.509 35.9779C153.509 36.7139 154.101 37.3059 154.837 37.3059C155.573 37.3059 156.165 36.7139 156.165 35.9779C156.165 35.2579 155.573 34.6499 154.837 34.6499ZM159.892 39.2739H157.652V47.1299H159.892V43.2419C159.892 42.2979 159.908 40.8099 161.236 40.8099C162.5 40.8099 162.452 42.0259 162.452 42.9699V47.1299H164.692V42.3299C164.692 40.5059 164.084 39.0179 161.972 39.0179C161.172 39.0179 160.388 39.2899 159.924 39.9939H159.892V39.2739ZM173.684 39.2739H171.444V40.0259H171.412C170.964 39.4179 170.164 39.0179 169.38 39.0179C167.044 39.0179 165.732 41.0979 165.732 43.2579C165.732 45.3699 166.964 47.3859 169.268 47.3859C170.1 47.3859 170.932 46.9859 171.412 46.3459H171.444V46.8579C171.444 48.0419 171.412 49.4339 169.828 49.4339C168.98 49.4339 168.388 48.8899 168.276 48.0579H165.908C166.02 50.1539 167.956 51.3219 169.876 51.3219C172.82 51.3219 173.684 49.2099 173.684 46.6499V39.2739ZM169.86 45.4019C168.708 45.4019 168.004 44.2659 168.004 43.2099C168.004 42.1539 168.708 41.0019 169.86 41.0019C171.012 41.0019 171.716 42.1539 171.716 43.2099C171.716 44.2659 171.012 45.4019 169.86 45.4019ZM186.206 37.1139V35.0659H179.966V47.1299H186.206V45.0819H182.318V41.8179H186.062V39.7699H182.318V37.1139H186.206ZM189.954 39.2739H187.714V47.1299H189.954V43.2419C189.954 42.2979 189.97 40.8099 191.298 40.8099C192.562 40.8099 192.514 42.0259 192.514 42.9699V47.1299H194.754V42.3299C194.754 40.5059 194.146 39.0179 192.034 39.0179C191.234 39.0179 190.45 39.2899 189.986 39.9939H189.954V39.2739ZM203.331 43.5619V43.2899C203.331 40.9219 202.179 39.0179 199.603 39.0179C197.059 39.0179 195.795 40.8899 195.795 43.2739C195.795 45.6579 197.283 47.3859 199.715 47.3859C201.363 47.3859 202.739 46.5059 203.283 44.9379L201.219 44.6019C200.915 45.2259 200.451 45.6739 199.715 45.6739C198.547 45.6739 198.163 44.5539 198.163 43.5619H203.331ZM198.227 42.1699C198.339 41.3539 198.835 40.5859 199.731 40.5859C200.595 40.5859 201.107 41.3699 201.219 42.1699H198.227ZM206.61 39.2739H204.37V47.1299H206.61V43.5939C206.61 42.3779 206.77 41.0019 208.322 41.0019C208.658 41.0019 208.978 41.0979 209.25 41.2899L209.522 39.2099C209.234 39.0979 208.914 39.0179 208.594 39.0179C207.762 39.0179 207.09 39.4019 206.642 40.0899H206.61V39.2739ZM217.544 39.2739H215.304V40.0259H215.272C214.824 39.4179 214.024 39.0179 213.24 39.0179C210.904 39.0179 209.592 41.0979 209.592 43.2579C209.592 45.3699 210.824 47.3859 213.128 47.3859C213.96 47.3859 214.792 46.9859 215.272 46.3459H215.304V46.8579C215.304 48.0419 215.272 49.4339 213.688 49.4339C212.84 49.4339 212.248 48.8899 212.136 48.0579H209.768C209.88 50.1539 211.816 51.3219 213.736 51.3219C216.68 51.3219 217.544 49.2099 217.544 46.6499V39.2739ZM213.72 45.4019C212.568 45.4019 211.864 44.2659 211.864 43.2099C211.864 42.1539 212.568 41.0019 213.72 41.0019C214.872 41.0019 215.576 42.1539 215.576 43.2099C215.576 44.2659 214.872 45.4019 213.72 45.4019ZM221.392 45.9299L218.8 51.3219H221.264L226.976 39.2739H224.48L222.464 43.7379L220.592 39.2739H218.048L221.392 45.9299Z" fill="#101010" fill-opacity="0.7"/>
<circle cx="205.797" cy="88.1473" r="14.7968" fill="#101010" fill-opacity="0.05" stroke="#101010" stroke-linejoin="round"/>
<path d="M202.476 84.8314C201.781 84.1462 200.828 83.7483 199.884 83.7483C197.665 83.7483 195.799 85.6714 195.799 88.0367C195.799 90.3688 197.696 92.3029 199.874 92.3029C200.838 92.3029 201.74 91.9161 202.476 91.264V90.5345C201.895 91.2861 200.755 91.8056 199.853 91.8056C198.93 91.8056 197.997 91.3193 197.344 90.6561C196.691 89.9709 196.297 89.0535 196.297 88.0809C196.297 86.0362 197.904 84.2457 199.853 84.2457C200.817 84.2457 201.875 84.7762 202.476 85.5609V84.8314Z" fill="#101010"/>
<path d="M207.457 83.7483C205.249 83.7483 203.403 85.6825 203.403 88.0256C203.403 90.3688 205.259 92.3029 207.457 92.3029C209.655 92.3029 211.511 90.3688 211.511 88.0256C211.511 85.6825 209.655 83.7483 207.457 83.7483ZM207.457 84.2457C209.396 84.2457 211.013 85.9698 211.013 88.0256C211.013 90.0703 209.396 91.8056 207.457 91.8056C205.508 91.8056 203.901 90.0814 203.901 88.0256C203.901 85.9698 205.508 84.2457 207.457 84.2457Z" fill="#101010"/>
<path d="M213.346 92.9152L214.699 91.2186C214.901 90.9699 214.995 90.6771 214.995 90.3399C214.995 89.616 214.419 89.1076 213.766 89.1076C213.077 89.1076 212.574 89.6657 212.558 90.3952H212.994C213.004 89.9089 213.31 89.5386 213.782 89.5386C214.207 89.5386 214.559 89.8813 214.559 90.3455C214.559 90.6163 214.45 90.8428 214.295 91.0418L212.465 93.3462H214.995V92.9152H213.346Z" fill="#101010"/>
<path d="M202.476 84.8314C201.781 84.1462 200.828 83.7483 199.884 83.7483C197.665 83.7483 195.799 85.6714 195.799 88.0367C195.799 90.3688 197.696 92.3029 199.874 92.3029C200.838 92.3029 201.74 91.9161 202.476 91.264V90.5345C201.895 91.2861 200.755 91.8056 199.853 91.8056C198.93 91.8056 197.997 91.3193 197.344 90.6561C196.691 89.9709 196.297 89.0535 196.297 88.0809C196.297 86.0362 197.904 84.2457 199.853 84.2457C200.817 84.2457 201.875 84.7762 202.476 85.5609V84.8314Z" stroke="#101010" stroke-width="0.479897"/>
<path d="M207.457 83.7483C205.249 83.7483 203.403 85.6825 203.403 88.0256C203.403 90.3688 205.259 92.3029 207.457 92.3029C209.655 92.3029 211.511 90.3688 211.511 88.0256C211.511 85.6825 209.655 83.7483 207.457 83.7483ZM207.457 84.2457C209.396 84.2457 211.013 85.9698 211.013 88.0256C211.013 90.0703 209.396 91.8056 207.457 91.8056C205.508 91.8056 203.901 90.0814 203.901 88.0256C203.901 85.9698 205.508 84.2457 207.457 84.2457Z" stroke="#101010" stroke-width="0.479897"/>
<path d="M213.346 92.9152L214.699 91.2186C214.901 90.9699 214.995 90.6771 214.995 90.3399C214.995 89.616 214.419 89.1076 213.766 89.1076C213.077 89.1076 212.574 89.6657 212.558 90.3952H212.994C213.004 89.9089 213.31 89.5386 213.782 89.5386C214.207 89.5386 214.559 89.8813 214.559 90.3455C214.559 90.6163 214.45 90.8428 214.295 91.0418L212.465 93.3462H214.995V92.9152H213.346Z" stroke="#101010" stroke-width="0.479897"/>
<circle cx="163.344" cy="123.613" r="11.3442" fill="#101010" fill-opacity="0.05" stroke="#101010" stroke-linejoin="round"/>
<path d="M160.798 121.071C160.266 120.545 159.534 120.24 158.811 120.24C157.11 120.24 155.679 121.715 155.679 123.528C155.679 125.316 157.134 126.799 158.803 126.799C159.542 126.799 160.234 126.502 160.798 126.002V125.443C160.353 126.019 159.479 126.418 158.787 126.418C158.08 126.418 157.364 126.045 156.864 125.536C156.363 125.011 156.061 124.308 156.061 123.562C156.061 121.994 157.293 120.622 158.787 120.622C159.526 120.622 160.337 121.028 160.798 121.63V121.071Z" fill="#101010"/>
<path d="M164.617 120.24C162.924 120.24 161.509 121.723 161.509 123.52C161.509 125.316 162.932 126.799 164.617 126.799C166.302 126.799 167.725 125.316 167.725 123.52C167.725 121.723 166.302 120.24 164.617 120.24ZM164.617 120.622C166.104 120.622 167.344 121.944 167.344 123.52C167.344 125.087 166.104 126.418 164.617 126.418C163.123 126.418 161.891 125.096 161.891 123.52C161.891 121.944 163.123 120.622 164.617 120.622Z" fill="#101010"/>
<path d="M169.132 127.268L170.169 125.968C170.324 125.777 170.396 125.552 170.396 125.294C170.396 124.739 169.955 124.349 169.454 124.349C168.925 124.349 168.54 124.777 168.528 125.336H168.862C168.87 124.963 169.104 124.68 169.466 124.68C169.792 124.68 170.062 124.942 170.062 125.298C170.062 125.506 169.979 125.68 169.859 125.832L168.456 127.599H170.396V127.268H169.132Z" fill="#101010"/>
<path d="M160.798 121.071C160.266 120.545 159.534 120.24 158.811 120.24C157.11 120.24 155.679 121.715 155.679 123.528C155.679 125.316 157.134 126.799 158.803 126.799C159.542 126.799 160.234 126.502 160.798 126.002V125.443C160.353 126.019 159.479 126.418 158.787 126.418C158.08 126.418 157.364 126.045 156.864 125.536C156.363 125.011 156.061 124.308 156.061 123.562C156.061 121.994 157.293 120.622 158.787 120.622C159.526 120.622 160.337 121.028 160.798 121.63V121.071Z" stroke="#101010" stroke-width="0.5"/>
<path d="M164.617 120.24C162.924 120.24 161.509 121.723 161.509 123.52C161.509 125.316 162.932 126.799 164.617 126.799C166.302 126.799 167.725 125.316 167.725 123.52C167.725 121.723 166.302 120.24 164.617 120.24ZM164.617 120.622C166.104 120.622 167.344 121.944 167.344 123.52C167.344 125.087 166.104 126.418 164.617 126.418C163.123 126.418 161.891 125.096 161.891 123.52C161.891 121.944 163.123 120.622 164.617 120.622Z" stroke="#101010" stroke-width="0.5"/>
<path d="M169.132 127.268L170.169 125.968C170.324 125.777 170.396 125.552 170.396 125.294C170.396 124.739 169.955 124.349 169.454 124.349C168.925 124.349 168.54 124.777 168.528 125.336H168.862C168.87 124.963 169.104 124.68 169.466 124.68C169.792 124.68 170.062 124.942 170.062 125.298C170.062 125.506 169.979 125.68 169.859 125.832L168.456 127.599H170.396V127.268H169.132Z" stroke="#101010" stroke-width="0.5"/>
<path fill-rule="evenodd" clip-rule="evenodd" d="M567.365 121.768L538.746 157.268C535.911 160.784 541.38 166.056 544.896 163.221C544.914 163.207 544.932 163.192 544.95 163.177L559.554 151.098C564.36 147.123 568.263 142.168 571.002 136.565L574.606 129.193C571.307 127.967 568.58 125.321 567.365 121.768ZM585.976 127.604L585.84 128.169L631.783 135.343C636.245 136.04 638.077 128.667 633.864 127.04C633.842 127.032 633.82 127.024 633.798 127.016L616.036 120.407C610.19 118.233 603.947 117.33 597.725 117.759L590.914 118.23C590.796 121.942 588.962 125.413 585.976 127.604ZM583.475 106.674L568.11 66.9046C566.482 62.6921 559.181 64.7921 559.879 69.2539C559.882 69.2769 559.886 69.2999 559.89 69.3229L563.049 88.0099C564.088 94.1599 566.427 100.017 569.911 105.191L571.79 107.983C572.852 107.227 574.056 106.63 575.376 106.239C578.155 105.416 580.995 105.637 583.475 106.674Z" fill="url(#paint0_linear_1_2)"/>
<path d="M538.746 157.268L538.356 156.954L538.356 156.954L538.746 157.268ZM567.365 121.768L567.838 121.606C567.779 121.434 567.631 121.307 567.451 121.276C567.272 121.244 567.09 121.312 566.975 121.454L567.365 121.768ZM544.896 163.221L545.209 163.61L545.209 163.61L544.896 163.221ZM544.95 163.177L544.631 162.792L544.631 162.792L544.95 163.177ZM559.554 151.098L559.873 151.483L559.554 151.098ZM571.002 136.565L570.553 136.345L571.002 136.565ZM574.606 129.193L575.055 129.412C575.117 129.285 575.123 129.138 575.071 129.007C575.018 128.876 574.913 128.773 574.78 128.724L574.606 129.193ZM585.976 127.604L585.68 127.201C585.585 127.271 585.517 127.373 585.49 127.488L585.976 127.604ZM585.84 128.169L585.354 128.053C585.322 128.188 585.347 128.332 585.425 128.448C585.503 128.564 585.625 128.642 585.763 128.663L585.84 128.169ZM631.783 135.343L631.706 135.837L631.783 135.343ZM633.864 127.04L633.683 127.507L633.684 127.507L633.864 127.04ZM633.798 127.016L633.624 127.484L633.624 127.484L633.798 127.016ZM616.036 120.407L615.861 120.876L615.861 120.876L616.036 120.407ZM597.725 117.759L597.76 118.258L597.725 117.759ZM590.914 118.23L590.88 117.731C590.624 117.748 590.423 117.957 590.414 118.214L590.914 118.23ZM583.475 106.674L583.283 107.135C583.467 107.213 583.681 107.172 583.824 107.032C583.968 106.893 584.014 106.681 583.942 106.494L583.475 106.674ZM568.11 66.9046L567.643 67.0848L568.11 66.9046ZM559.879 69.2539L559.385 69.3311L559.385 69.3311L559.879 69.2539ZM559.89 69.3229L559.397 69.4062L559.397 69.4062L559.89 69.3229ZM563.049 88.0099L562.556 88.0933L563.049 88.0099ZM569.911 105.191L569.496 105.471L569.911 105.191ZM571.79 107.983L571.375 108.262C571.451 108.374 571.568 108.451 571.701 108.475C571.833 108.499 571.97 108.469 572.08 108.39L571.79 107.983ZM539.135 157.582L567.754 122.082L566.975 121.454L538.356 156.954L539.135 157.582ZM544.582 162.832C543.092 164.034 541.133 163.567 539.787 162.267C538.441 160.966 537.941 159.062 539.135 157.582L538.356 156.954C536.716 158.989 537.533 161.479 539.092 162.986C540.651 164.492 543.184 165.244 545.209 163.61L544.582 162.832ZM544.631 162.792C544.615 162.805 544.598 162.819 544.582 162.832L545.209 163.61C545.229 163.595 545.249 163.579 545.268 163.562L544.631 162.792ZM559.235 150.713L544.631 162.792L545.268 163.562L559.873 151.483L559.235 150.713ZM570.553 136.345C567.845 141.885 563.987 146.783 559.235 150.713L559.873 151.483C564.734 147.463 568.681 142.452 571.452 136.784L570.553 136.345ZM574.157 128.973L570.553 136.345L571.452 136.784L575.055 129.412L574.157 128.973ZM574.78 128.724C571.616 127.548 569.002 125.012 567.838 121.606L566.891 121.93C568.157 125.631 570.998 128.385 574.432 129.661L574.78 128.724ZM585.49 127.488L585.354 128.053L586.327 128.286L586.462 127.721L585.49 127.488ZM585.763 128.663L631.706 135.837L631.86 134.849L585.917 127.675L585.763 128.663ZM631.706 135.837C634.288 136.24 636.036 134.288 636.561 132.184C637.086 130.081 636.471 127.511 634.044 126.574L633.684 127.507C635.469 128.196 636.044 130.126 635.591 131.942C635.138 133.757 633.739 135.142 631.86 134.849L631.706 135.837ZM634.044 126.574C634.02 126.565 633.996 126.556 633.973 126.547L633.624 127.484C633.644 127.492 633.664 127.499 633.683 127.507L634.044 126.574ZM633.973 126.547L616.21 119.939L615.861 120.876L633.624 127.484L633.973 126.547ZM616.21 119.939C610.298 117.739 603.984 116.826 597.691 117.261L597.76 118.258C603.911 117.834 610.082 118.726 615.861 120.876L616.21 119.939ZM597.691 117.261L590.88 117.731L590.949 118.728L597.76 118.258L597.691 117.261ZM590.414 118.214C590.301 121.772 588.543 125.1 585.68 127.201L586.272 128.007C589.382 125.725 591.291 122.111 591.414 118.245L590.414 118.214ZM583.942 106.494L568.576 66.7244L567.643 67.0848L583.009 106.854L583.942 106.494ZM568.576 66.7244C567.634 64.2861 565.069 63.7487 562.985 64.3457C560.901 64.9427 558.983 66.7603 559.385 69.3311L560.373 69.1766C560.077 67.2857 561.461 65.8224 563.26 65.3071C565.059 64.7918 566.958 65.3106 567.643 67.0848L568.576 66.7244ZM559.385 69.3311C559.389 69.3562 559.393 69.3812 559.397 69.4062L560.383 69.2397C560.38 69.2186 560.376 69.1976 560.373 69.1766L559.385 69.3311ZM559.397 69.4062L562.556 88.0933L563.542 87.9266L560.383 69.2396L559.397 69.4062ZM562.556 88.0933C563.607 94.3133 565.973 100.238 569.496 105.471L570.325 104.912C566.882 99.7971 564.569 94.0064 563.542 87.9266L562.556 88.0933ZM569.496 105.471L571.375 108.262L572.205 107.704L570.325 104.912L569.496 105.471ZM572.08 108.39C573.098 107.666 574.252 107.094 575.518 106.719L575.234 105.76C573.86 106.167 572.607 106.788 571.5 107.576L572.08 108.39ZM575.518 106.719C578.183 105.929 580.904 106.141 583.283 107.135L583.668 106.213C581.085 105.133 578.127 104.903 575.234 105.76L575.518 106.719Z" fill="#101010"/>
<circle cx="578.968" cy="118.308" r="6.91604" transform="rotate(-12.7449 578.968 118.308)" fill="url(#paint1_linear_1_2)" stroke="#101010" stroke-linejoin="round"/>
<path d="M579.467 130.956H577.944L574.661 256.966H579.467H584.272L580.989 130.956H579.467Z" fill="#101010" fill-opacity="0.03" stroke="#101010" stroke-linejoin="round"/>
<path d="M482.848 206.57H476.972V257.073H482.848V206.57Z" fill="#101010" fill-opacity="0.03" stroke="#101010" stroke-linejoin="round"/>
<path d="M565.699 206.57H559.822V257.073H565.699V206.57Z" fill="#101010" fill-opacity="0.03" stroke="#101010" stroke-linejoin="round"/>
<path fill-rule="evenodd" clip-rule="evenodd" d="M487.188 172.082H593.187L550.328 234.537H444.33L487.188 172.082Z" fill="white"/>
<path fill-rule="evenodd" clip-rule="evenodd" d="M550.328 234.537L593.187 172.082L596.816 177.446L553.958 239.901H447.959L444.33 234.537H550.328Z" fill="white"/>
<path d="M593.187 172.082H487.188L444.33 234.537M593.187 172.082L550.329 234.537H444.33M593.187 172.082L596.816 177.446L553.958 239.901H447.959L444.33 234.537" stroke="#101010" stroke-linejoin="round"/>
<path fill-rule="evenodd" clip-rule="evenodd" d="M487.188 172.082H593.187L550.328 234.536H444.33L487.188 172.082Z" fill="url(#paint2_linear_1_2)" stroke="#101010" stroke-linejoin="round"/>
<path d="M572.04 202.9L571.479 203.715H536.643L515.493 234.538H514.5L535.651 203.715H501.303L480.161 234.538H479.169L500.319 203.715H465.483L466.044 202.9H500.88L522.03 172.085H523.015L501.864 202.9H536.212L557.363 172.085H558.346L537.196 202.9H572.04Z" fill="#101010"/>
<path d="M339.387 193.331C339.387 213.614 355.711 230.057 375.847 230.057C390.95 230.057 403.909 220.807 409.443 207.624C404.64 201.956 401.722 194.49 401.722 186.309C401.722 181.871 402.581 176.186 404.133 170.155C397.447 161.887 387.259 156.605 375.847 156.605C355.711 156.605 339.387 173.048 339.387 193.331Z" fill="white" stroke="#101010" stroke-linecap="round"/>
<path d="M462.883 186.309C462.883 204.031 449.192 218.398 432.303 218.398C423.211 218.398 415.045 214.234 409.444 207.624C404.641 201.956 401.723 194.49 401.723 186.309C401.723 181.871 402.582 176.186 404.134 170.155C408.78 152.101 419.643 130.955 432.303 130.955C449.192 130.955 462.883 168.587 462.883 186.309Z" fill="url(#paint3_linear_1_2)"/>
<path d="M339.388 193.331C339.388 213.614 355.711 230.056 375.848 230.056C390.951 230.056 403.91 220.807 409.444 207.624C404.641 201.956 401.723 194.49 401.723 186.309C401.723 181.871 402.582 176.186 404.134 170.155C397.448 161.887 387.26 156.605 375.848 156.605C355.711 156.605 339.388 173.048 339.388 193.331Z" fill="url(#paint4_linear_1_2)"/>
<path d="M404.134 170.155C402.582 176.186 401.723 181.871 401.723 186.309C401.723 194.49 404.641 201.956 409.444 207.624M404.134 170.155C408.78 152.101 419.643 130.955 432.303 130.955C449.192 130.955 462.883 168.587 462.883 186.309C462.883 204.031 449.192 218.398 432.303 218.398C423.211 218.398 415.045 214.234 409.444 207.624M404.134 170.155C397.448 161.887 387.26 156.605 375.848 156.605C355.711 156.605 339.388 173.048 339.388 193.331C339.388 213.614 355.711 230.056 375.848 230.056C390.951 230.056 403.91 220.807 409.444 207.624" stroke="#101010" stroke-linecap="round"/>
<path d="M377.587 257.5V209.192M377.587 173.645V197.343M377.587 197.343L389.7 190.052M377.587 197.343V209.192M377.587 209.192L356.158 199.166" stroke="#101010" stroke-linecap="round"/>
<path d="M432.482 257.5V196.392M432.482 155.35V184.535M432.482 184.535L420.192 177.239M432.482 184.535V196.392M432.482 196.392L449.16 186.36" stroke="#101010" stroke-linecap="round"/>
<path d="M432.139 11.32C431.323 10.872 430.395 10.616 429.451 10.616C425.915 10.616 423.499 13.64 423.499 17.064C423.499 20.392 426.011 23.32 429.403 23.32C430.379 23.32 431.259 23.016 432.139 22.6V19.8C431.483 20.552 430.475 21.08 429.467 21.08C427.275 21.08 425.931 19.048 425.931 17.016C425.931 14.936 427.227 12.856 429.483 12.856C430.491 12.856 431.483 13.336 432.139 14.136V11.32ZM441.044 15.144H438.836V15.88C438.292 15.24 437.46 14.888 436.644 14.888C434.388 14.888 433.06 16.952 433.06 19.032C433.06 21.16 434.372 23.256 436.676 23.256C437.492 23.256 438.324 22.904 438.804 22.28H438.836V23H441.044V15.144ZM437.188 21.272C436.036 21.272 435.332 20.12 435.332 19.064C435.332 18.008 436.036 16.872 437.188 16.872C438.34 16.872 439.06 18.008 439.06 19.064C439.06 20.12 438.34 21.272 437.188 21.272ZM444.907 15.144H442.667V23H444.907V19.464C444.907 18.248 445.067 16.872 446.619 16.872C446.955 16.872 447.275 16.968 447.547 17.16L447.819 15.08C447.531 14.968 447.211 14.888 446.891 14.888C446.059 14.888 445.387 15.272 444.939 15.96H444.907V15.144ZM448.542 23H450.782V22.264H450.814C451.262 22.904 452.11 23.256 452.91 23.256C455.23 23.256 456.542 21.176 456.542 19.032C456.542 16.968 455.182 14.888 452.958 14.888C452.126 14.888 451.294 15.256 450.782 15.864V9.432H448.542V23ZM452.414 21.272C451.262 21.272 450.558 20.12 450.558 19.064C450.558 18.008 451.262 16.872 452.414 16.872C453.566 16.872 454.27 18.008 454.27 19.064C454.27 20.12 453.566 21.272 452.414 21.272ZM461.173 14.888C458.725 14.888 457.045 16.632 457.045 19.08C457.045 21.512 458.709 23.256 461.173 23.256C463.637 23.256 465.301 21.512 465.301 19.08C465.301 16.632 463.621 14.888 461.173 14.888ZM461.173 16.872C462.325 16.872 463.029 17.992 463.029 19.08C463.029 20.136 462.325 21.272 461.173 21.272C460.021 21.272 459.317 20.136 459.317 19.08C459.317 17.992 460.021 16.872 461.173 16.872ZM468.595 15.144H466.355V23H468.595V19.112C468.595 18.168 468.611 16.68 469.939 16.68C471.203 16.68 471.155 17.896 471.155 18.84V23H473.395V18.2C473.395 16.376 472.787 14.888 470.675 14.888C469.875 14.888 469.091 15.16 468.627 15.864H468.595V15.144ZM484.436 17.912C486.052 17.64 486.9 16.104 486.9 14.568C486.9 11.992 485.252 10.936 482.868 10.936H479.684V23H482.036V18.136H482.068L484.996 23H487.844L484.436 17.912ZM482.036 12.856H482.356C483.604 12.856 484.548 13.144 484.548 14.632C484.548 16.104 483.636 16.488 482.34 16.488H482.036V12.856ZM495.331 19.432V19.16C495.331 16.792 494.179 14.888 491.603 14.888C489.059 14.888 487.795 16.76 487.795 19.144C487.795 21.528 489.283 23.256 491.715 23.256C493.363 23.256 494.739 22.376 495.283 20.808L493.219 20.472C492.915 21.096 492.451 21.544 491.715 21.544C490.547 21.544 490.163 20.424 490.163 19.432H495.331ZM490.227 18.04C490.339 17.224 490.835 16.456 491.731 16.456C492.595 16.456 493.107 17.24 493.219 18.04H490.227ZM501.57 23H503.81V9.432H501.57V15.864H501.538C501.042 15.24 500.21 14.888 499.394 14.888C497.138 14.888 495.81 16.952 495.81 19.032C495.81 21.16 497.122 23.256 499.426 23.256C500.242 23.256 501.074 22.904 501.538 22.264H501.57V23ZM499.938 21.272C498.786 21.272 498.082 20.12 498.082 19.064C498.082 18.008 498.786 16.872 499.938 16.872C501.09 16.872 501.794 18.008 501.794 19.064C501.794 20.12 501.09 21.272 499.938 21.272ZM505.369 15.144V19.768C505.369 22.056 506.553 23.256 508.889 23.256C511.225 23.256 512.409 22.056 512.409 19.768V15.144H510.169V19.4C510.169 20.296 510.025 21.368 508.889 21.368C507.753 21.368 507.609 20.296 507.609 19.4V15.144H505.369ZM519.324 15.384C518.78 15.048 518.124 14.888 517.5 14.888C515.132 14.888 513.42 16.76 513.42 19.096C513.42 21.352 515.068 23.256 517.388 23.256C518.076 23.256 518.716 23.112 519.324 22.776V20.616C518.924 21.064 518.364 21.368 517.756 21.368C516.476 21.368 515.692 20.344 515.692 19.112C515.692 17.96 516.412 16.776 517.676 16.776C518.364 16.776 518.844 17.064 519.324 17.544V15.384ZM527.503 19.432V19.16C527.503 16.792 526.351 14.888 523.775 14.888C521.231 14.888 519.967 16.76 519.967 19.144C519.967 21.528 521.455 23.256 523.887 23.256C525.535 23.256 526.911 22.376 527.455 20.808L525.391 20.472C525.087 21.096 524.623 21.544 523.887 21.544C522.719 21.544 522.335 20.424 522.335 19.432H527.503ZM522.399 18.04C522.511 17.224 523.007 16.456 523.903 16.456C524.767 16.456 525.279 17.24 525.391 18.04H522.399ZM533.742 23H535.982V9.432H533.742V15.864H533.71C533.214 15.24 532.382 14.888 531.566 14.888C529.31 14.888 527.982 16.952 527.982 19.032C527.982 21.16 529.294 23.256 531.598 23.256C532.414 23.256 533.246 22.904 533.71 22.264H533.742V23ZM532.11 21.272C530.958 21.272 530.254 20.12 530.254 19.064C530.254 18.008 530.958 16.872 532.11 16.872C533.262 16.872 533.966 18.008 533.966 19.064C533.966 20.12 533.262 21.272 532.11 21.272ZM407.683 44.168C407.187 44.648 406.627 45.208 405.891 45.208C405.091 45.208 404.451 44.36 404.451 43.592C404.451 42.712 405.171 42.136 405.811 41.656L407.683 44.168ZM406.083 38.312C405.891 38.04 405.795 37.736 405.795 37.416C405.795 36.84 406.147 36.296 406.787 36.296C407.411 36.296 407.731 36.92 407.731 37.48C407.731 38.056 407.475 38.44 407.059 38.792L406.659 39.128L406.083 38.312ZM410.051 47H412.915L410.835 44.248L412.131 42.504L410.643 41.112L409.427 42.664L407.747 40.504C408.771 39.832 409.731 38.92 409.731 37.592C409.731 35.784 408.387 34.616 406.643 34.616C404.915 34.616 403.571 35.816 403.571 37.608C403.571 38.584 403.987 39.384 404.547 40.168L403.827 40.664C402.739 41.4 402.083 42.456 402.083 43.8C402.083 45.832 403.587 47.32 405.619 47.32C406.979 47.32 408.083 46.648 409.075 45.784L410.051 47ZM429.247 40.952C429.247 37.368 426.879 34.616 423.279 34.616C419.679 34.616 417.311 37.368 417.311 40.952C417.311 44.504 419.599 47.32 423.279 47.32C426.959 47.32 429.247 44.504 429.247 40.952ZM426.815 40.856C426.815 42.712 425.887 45 423.279 45C420.671 45 419.743 42.712 419.743 40.856C419.743 38.904 421.055 36.936 423.279 36.936C425.503 36.936 426.815 38.904 426.815 40.856ZM432.659 41.032H434.451V39.144H432.659V37.16C432.659 36.52 432.547 35.224 433.539 35.224C433.875 35.224 434.163 35.352 434.451 35.496V33.496C434.115 33.32 433.747 33.24 433.379 33.24C431.219 33.24 430.419 34.92 430.419 36.84V39.144H429.667V41.032H430.419V47H432.659V41.032ZM437.503 41.032H439.295V39.144H437.503V37.16C437.503 36.52 437.391 35.224 438.383 35.224C438.719 35.224 439.007 35.352 439.295 35.496V33.496C438.959 33.32 438.591 33.24 438.223 33.24C436.063 33.24 435.263 34.92 435.263 36.84V39.144H434.511V41.032H435.263V47H437.503V41.032ZM445.019 39.704C444.379 39.144 443.323 38.888 442.491 38.888C441.019 38.888 439.995 39.96 439.995 41.432C439.995 42.696 440.779 43.16 441.563 43.496C442.347 43.832 443.131 43.992 443.131 44.68C443.131 45.192 442.731 45.528 442.235 45.528C441.579 45.528 441.003 45.096 440.571 44.616L439.547 45.944C440.235 46.776 441.259 47.256 442.315 47.256C443.963 47.256 445.371 46.216 445.371 44.472C445.371 43.112 444.571 42.568 443.755 42.216C442.955 41.864 442.139 41.704 442.139 41.128C442.139 40.744 442.507 40.456 442.875 40.456C443.323 40.456 443.739 40.696 444.059 41L445.019 39.704ZM453.565 43.432V43.16C453.565 40.792 452.413 38.888 449.837 38.888C447.293 38.888 446.029 40.76 446.029 43.144C446.029 45.528 447.517 47.256 449.949 47.256C451.597 47.256 452.973 46.376 453.517 44.808L451.453 44.472C451.149 45.096 450.685 45.544 449.949 45.544C448.781 45.544 448.397 44.424 448.397 43.432H453.565ZM448.461 42.04C448.573 41.224 449.069 40.456 449.965 40.456C450.829 40.456 451.341 41.24 451.453 42.04H448.461ZM457.117 41.032H458.493V39.144H457.117V36.488H454.877V39.144H454.109V41.032H454.877V47H457.117V41.032ZM460.355 44.504L458.611 49.368L460.099 49.544L462.403 44.728L460.355 44.504ZM472.229 36.984H474.661V34.936H467.445V36.984H469.877V47H472.229V36.984ZM477.063 39.144H474.823V47H477.063V43.464C477.063 42.248 477.223 40.872 478.775 40.872C479.111 40.872 479.431 40.968 479.703 41.16L479.975 39.08C479.687 38.968 479.367 38.888 479.047 38.888C478.215 38.888 477.543 39.272 477.095 39.96H477.063V39.144ZM487.581 43.432V43.16C487.581 40.792 486.429 38.888 483.853 38.888C481.309 38.888 480.045 40.76 480.045 43.144C480.045 45.528 481.533 47.256 483.965 47.256C485.613 47.256 486.989 46.376 487.533 44.808L485.469 44.472C485.165 45.096 484.701 45.544 483.965 45.544C482.797 45.544 482.413 44.424 482.413 43.432H487.581ZM482.477 42.04C482.589 41.224 483.085 40.456 483.981 40.456C484.845 40.456 485.357 41.24 485.469 42.04H482.477ZM495.596 43.432V43.16C495.596 40.792 494.444 38.888 491.868 38.888C489.324 38.888 488.06 40.76 488.06 43.144C488.06 45.528 489.548 47.256 491.98 47.256C493.628 47.256 495.004 46.376 495.548 44.808L493.484 44.472C493.18 45.096 492.716 45.544 491.98 45.544C490.812 45.544 490.428 44.424 490.428 43.432H495.596ZM490.492 42.04C490.604 41.224 491.1 40.456 491.996 40.456C492.86 40.456 493.372 41.24 493.484 42.04H490.492ZM501.628 39.704C500.988 39.144 499.932 38.888 499.1 38.888C497.628 38.888 496.604 39.96 496.604 41.432C496.604 42.696 497.388 43.16 498.172 43.496C498.956 43.832 499.74 43.992 499.74 44.68C499.74 45.192 499.34 45.528 498.844 45.528C498.188 45.528 497.612 45.096 497.18 44.616L496.156 45.944C496.844 46.776 497.868 47.256 498.924 47.256C500.572 47.256 501.98 46.216 501.98 44.472C501.98 43.112 501.18 42.568 500.364 42.216C499.564 41.864 498.748 41.704 498.748 41.128C498.748 40.744 499.116 40.456 499.484 40.456C499.932 40.456 500.348 40.696 500.668 41L501.628 39.704ZM510.239 42.488H511.407C513.871 42.488 515.263 41.24 515.263 38.68C515.263 35.944 513.615 34.936 511.087 34.936H507.887V47H510.239V42.488ZM510.239 36.888H510.655C511.967 36.888 512.863 37.112 512.863 38.664C512.863 40.232 512.111 40.536 510.719 40.536H510.239V36.888ZM518.517 33.432H516.277V47H518.517V33.432ZM527.529 39.144H525.321V39.88C524.777 39.24 523.945 38.888 523.129 38.888C520.873 38.888 519.545 40.952 519.545 43.032C519.545 45.16 520.857 47.256 523.161 47.256C523.977 47.256 524.809 46.904 525.289 46.28H525.321V47H527.529V39.144ZM523.673 45.272C522.521 45.272 521.817 44.12 521.817 43.064C521.817 42.008 522.521 40.872 523.673 40.872C524.825 40.872 525.545 42.008 525.545 43.064C525.545 44.12 524.825 45.272 523.673 45.272ZM531.392 39.144H529.152V47H531.392V43.112C531.392 42.168 531.408 40.68 532.736 40.68C534 40.68 533.952 41.896 533.952 42.84V47H536.192V42.2C536.192 40.376 535.584 38.888 533.472 38.888C532.672 38.888 531.888 39.16 531.424 39.864H531.392V39.144ZM540.304 41.032H541.68V39.144H540.304V36.488H538.064V39.144H537.296V41.032H538.064V47H540.304V41.032ZM549.159 43.432V43.16C549.159 40.792 548.007 38.888 545.431 38.888C542.887 38.888 541.623 40.76 541.623 43.144C541.623 45.528 543.111 47.256 545.543 47.256C547.191 47.256 548.567 46.376 549.111 44.808L547.047 44.472C546.743 45.096 546.279 45.544 545.543 45.544C544.375 45.544 543.991 44.424 543.991 43.432H549.159ZM544.055 42.04C544.167 41.224 544.663 40.456 545.559 40.456C546.423 40.456 546.935 41.24 547.047 42.04H544.055ZM555.398 47H557.638V33.432H555.398V39.864H555.366C554.87 39.24 554.038 38.888 553.222 38.888C550.966 38.888 549.638 40.952 549.638 43.032C549.638 45.16 550.95 47.256 553.254 47.256C554.07 47.256 554.902 46.904 555.366 46.264H555.398V47ZM553.766 45.272C552.614 45.272 551.91 44.12 551.91 43.064C551.91 42.008 552.614 40.872 553.766 40.872C554.918 40.872 555.622 42.008 555.622 43.064C555.622 44.12 554.918 45.272 553.766 45.272Z" fill="#008174"/>
<path d="M439.611 97.5455C441.308 97.5455 442.684 96.182 442.684 94.5C442.684 92.818 441.308 91.4545 439.611 91.4545C437.914 91.4545 436.539 92.818 436.539 94.5C436.539 96.182 437.914 97.5455 439.611 97.5455Z" fill="white"/>
<path d="M439.611 107C446.565 107 452.222 101.393 452.222 94.5C452.222 87.6078 446.565 82 439.611 82C432.657 82 427 87.6078 427 94.5C427 101.393 432.657 107 439.611 107ZM439.576 83.8618C443.278 83.8618 446.548 85.7298 448.478 88.5642C449.637 90.2595 450.315 92.3027 450.315 94.5003C450.315 97.0647 449.392 99.419 447.858 101.255C445.888 103.623 442.907 105.134 439.576 105.134C433.659 105.134 428.845 100.363 428.845 94.4981C428.845 88.6334 433.659 83.8618 439.576 83.8618Z" fill="#008174"/>
<path d="M439.611 85.782C434.761 85.782 430.816 89.6929 430.816 94.5C430.816 96.5477 431.536 98.4292 432.733 99.9185V94.6951C432.731 94.6297 432.723 94.5658 432.723 94.4997C432.723 94.4337 432.731 94.3698 432.733 94.3043V94.1768H432.739C432.911 90.5629 435.923 87.6722 439.611 87.6722C443.409 87.6722 446.499 90.7355 446.499 94.4997C446.499 98.2645 443.409 101.327 439.611 101.327C439.21 101.327 438.819 101.286 438.436 101.221V103.131C438.822 103.182 439.212 103.218 439.611 103.218C442.94 103.218 445.842 101.375 447.336 98.6649C448.014 97.4261 448.399 96.0066 448.399 94.4979C448.399 93.1586 448.087 91.8947 447.544 90.7601C446.128 87.8221 443.109 85.782 439.611 85.782Z" fill="#A3DCBE"/>
<path d="M434.64 101.748C435.225 102.14 435.865 102.455 436.539 102.7V99.6809V98.3557C437.388 99.0221 438.446 99.4367 439.611 99.4367C442.358 99.4367 444.592 97.2222 444.592 94.5C444.592 91.778 442.357 89.5638 439.611 89.5638C436.898 89.5638 434.694 91.7263 434.64 94.4022V94.4417V101.748ZM439.611 91.4543C441.308 91.4543 442.683 92.8179 442.683 94.5C442.683 96.1821 441.308 97.5457 439.611 97.5457C437.913 97.5457 436.539 96.1821 436.539 94.5C436.539 92.8179 437.913 91.4543 439.611 91.4543Z" fill="#008174"/>
<path d="M439.576 105.134C442.907 105.134 445.888 103.622 447.858 101.255C449.391 99.4187 450.315 97.0645 450.315 94.5C450.315 92.3025 449.637 90.2593 448.478 88.5639C446.548 85.7298 443.278 83.8618 439.576 83.8618C433.659 83.8618 428.845 88.6334 428.845 94.4981C428.845 100.363 433.659 105.134 439.576 105.134ZM448.399 94.4981C448.399 96.0068 448.014 97.4264 447.336 98.6652C445.842 101.375 442.94 103.218 439.611 103.218C439.212 103.218 438.821 103.183 438.436 103.131V101.221C438.819 101.286 439.21 101.328 439.611 101.328C443.409 101.328 446.499 98.2645 446.499 94.5C446.499 90.7357 443.409 87.6725 439.611 87.6725C435.923 87.6725 432.911 90.5631 432.739 94.177H432.733V94.3046C432.731 94.3701 432.723 94.434 432.723 94.5C432.723 94.566 432.731 94.6299 432.733 94.6954V99.9188C431.536 98.4292 430.816 96.548 430.816 94.5003C430.816 89.6932 434.761 85.7823 439.611 85.7823C443.109 85.7823 446.128 87.8223 447.544 90.7604C448.087 91.8949 448.399 93.1589 448.399 94.4981ZM434.64 94.4417V94.4022C434.694 91.7263 436.898 89.5638 439.611 89.5638C442.358 89.5638 444.592 91.7783 444.592 94.5C444.592 97.2225 442.357 99.4367 439.611 99.4367C438.446 99.4367 437.388 99.022 436.539 98.3557V99.6809V102.7C435.865 102.455 435.226 102.14 434.64 101.748V94.4417Z" fill="white"/>
<path d="M460.714 98.237H460.753C461.303 99.016 462.344 99.4436 463.326 99.4436C466.173 99.4436 467.784 96.9134 467.784 94.3054C467.784 91.7945 466.114 89.2642 463.385 89.2642C462.363 89.2642 461.342 89.7117 460.714 90.4515V89.5755H457.965V104.232H460.714V98.237ZM462.717 91.6775C464.131 91.6775 464.995 93.0597 464.995 94.3441C464.995 95.629 464.131 97.0303 462.717 97.0303C461.303 97.0303 460.439 95.629 460.439 94.3441C460.439 93.0595 461.303 91.6775 462.717 91.6775Z" fill="#008174"/>
<path d="M471.809 94.8309C471.809 93.3519 472.006 91.6778 473.91 91.6778C474.323 91.6778 474.715 91.7947 475.049 92.0283L475.383 89.4975C475.029 89.3612 474.637 89.2642 474.244 89.2642C473.223 89.2642 472.398 89.7311 471.848 90.5679H471.809V89.5755H469.059V99.1321H471.809V94.8309Z" fill="#008174"/>
<path d="M480.665 99.4439C483.69 99.4439 485.732 97.3225 485.732 94.364C485.732 91.3856 483.67 89.2642 480.665 89.2642C477.661 89.2642 475.599 91.3856 475.599 94.364C475.599 97.3225 477.641 99.4439 480.665 99.4439ZM480.665 91.6775C482.079 91.6775 482.943 93.0401 482.943 94.3637C482.943 95.6483 482.079 97.0303 480.665 97.0303C479.252 97.0303 478.387 95.6483 478.387 94.3637C478.387 93.0401 479.252 91.6775 480.665 91.6775Z" fill="#008174"/>
<path d="M491.525 99.327L495.963 89.5755H492.959L490.975 94.9669L488.716 89.5755H485.693L490.111 99.327H491.525Z" fill="#008174"/>
<path d="M499.498 89.5755H496.748V99.1321H499.498V89.5755Z" fill="#008174"/>
<path d="M498.123 87.1812C499.023 87.1812 499.753 86.4579 499.753 85.5657C499.753 84.6734 499.023 83.9501 498.123 83.9501C497.223 83.9501 496.493 84.6734 496.493 85.5657C496.493 86.4579 497.223 87.1812 498.123 87.1812Z" fill="#008174"/>
<path d="M504.289 97.3418C503.484 97.3418 502.777 96.8166 502.247 96.2322L500.99 97.848C501.835 98.86 503.091 99.4439 504.388 99.4439C506.41 99.4439 508.138 98.1786 508.138 96.0575C508.138 94.4027 507.156 93.7412 506.154 93.3127C505.173 92.8845 504.171 92.6899 504.171 91.9891C504.171 91.5222 504.622 91.1716 505.074 91.1716C505.624 91.1716 506.135 91.4638 506.528 91.8332L507.706 90.2566C506.92 89.5757 505.625 89.2642 504.604 89.2642C502.797 89.2642 501.54 90.5679 501.54 92.359C501.54 93.8965 502.502 94.461 503.465 94.8699C504.427 95.2785 505.389 95.4731 505.389 96.3104C505.389 96.9332 504.898 97.3418 504.289 97.3418Z" fill="#008174"/>
<path d="M512.517 89.5755H509.768V99.1321H512.517V89.5755Z" fill="#008174"/>
<path d="M511.143 87.1815C512.046 87.1815 512.773 86.4611 512.773 85.5657C512.773 84.6896 512.046 83.9499 511.143 83.9499C510.24 83.9499 509.512 84.6896 509.512 85.5657C509.512 86.4611 510.24 87.1815 511.143 87.1815Z" fill="#008174"/>
<path d="M518.997 99.4439C522.021 99.4439 524.064 97.3225 524.064 94.364C524.064 91.3856 522.003 89.2642 518.997 89.2642C515.993 89.2642 513.931 91.3856 513.931 94.364C513.931 97.3225 515.974 99.4439 518.997 99.4439ZM518.997 91.6775C520.411 91.6775 521.275 93.0401 521.275 94.3637C521.275 95.6483 520.411 97.0303 518.997 97.0303C517.583 97.0303 516.719 95.6483 516.719 94.3637C516.719 93.0401 517.583 91.6775 518.997 91.6775Z" fill="#008174"/>
<path d="M528.109 94.4024C528.109 93.2541 528.129 91.4437 529.759 91.4437C531.311 91.4437 531.251 92.9232 531.251 94.0715V99.1321H534V93.2933C534 91.0741 533.255 89.2642 530.662 89.2642C529.68 89.2642 528.718 89.5951 528.148 90.4515H528.109V89.5755H525.359V99.1321H528.109V94.4024Z" fill="#008174"/>
<path d="M233.522 308.32C232.706 307.872 231.778 307.616 230.834 307.616C227.298 307.616 224.882 310.64 224.882 314.064C224.882 317.392 227.394 320.32 230.786 320.32C231.762 320.32 232.642 320.016 233.522 319.6V316.8C232.866 317.552 231.858 318.08 230.85 318.08C228.658 318.08 227.314 316.048 227.314 314.016C227.314 311.936 228.61 309.856 230.866 309.856C231.874 309.856 232.866 310.336 233.522 311.136V308.32ZM242.427 312.144H240.219V312.88C239.675 312.24 238.843 311.888 238.027 311.888C235.771 311.888 234.443 313.952 234.443 316.032C234.443 318.16 235.755 320.256 238.059 320.256C238.875 320.256 239.707 319.904 240.187 319.28H240.219V320H242.427V312.144ZM238.571 318.272C237.419 318.272 236.715 317.12 236.715 316.064C236.715 315.008 237.419 313.872 238.571 313.872C239.723 313.872 240.443 315.008 240.443 316.064C240.443 317.12 239.723 318.272 238.571 318.272ZM246.29 312.144H244.05V320H246.29V316.464C246.29 315.248 246.45 313.872 248.002 313.872C248.338 313.872 248.658 313.968 248.93 314.16L249.202 312.08C248.914 311.968 248.594 311.888 248.274 311.888C247.442 311.888 246.77 312.272 246.322 312.96H246.29V312.144ZM249.925 320H252.165V319.264H252.197C252.645 319.904 253.493 320.256 254.293 320.256C256.613 320.256 257.925 318.176 257.925 316.032C257.925 313.968 256.565 311.888 254.341 311.888C253.509 311.888 252.677 312.256 252.165 312.864V306.432H249.925V320ZM253.797 318.272C252.645 318.272 251.941 317.12 251.941 316.064C251.941 315.008 252.645 313.872 253.797 313.872C254.949 313.872 255.653 315.008 255.653 316.064C255.653 317.12 254.949 318.272 253.797 318.272ZM262.556 311.888C260.108 311.888 258.428 313.632 258.428 316.08C258.428 318.512 260.092 320.256 262.556 320.256C265.02 320.256 266.684 318.512 266.684 316.08C266.684 313.632 265.004 311.888 262.556 311.888ZM262.556 313.872C263.708 313.872 264.412 314.992 264.412 316.08C264.412 317.136 263.708 318.272 262.556 318.272C261.404 318.272 260.7 317.136 260.7 316.08C260.7 314.992 261.404 313.872 262.556 313.872ZM269.978 312.144H267.738V320H269.978V316.112C269.978 315.168 269.994 313.68 271.322 313.68C272.586 313.68 272.538 314.896 272.538 315.84V320H274.778V315.2C274.778 313.376 274.17 311.888 272.058 311.888C271.258 311.888 270.474 312.16 270.01 312.864H269.978V312.144ZM283.419 314.752H283.803C284.987 314.752 286.267 314.816 286.267 316.384C286.267 317.952 285.179 318.112 283.915 318.112H283.419V314.752ZM281.067 320H284.763C286.955 320 288.619 318.944 288.619 316.576C288.619 315.248 287.979 313.808 286.555 313.552C287.307 313.072 287.611 312.08 287.611 311.216C287.611 308.816 286.235 307.936 283.995 307.936H281.067V320ZM283.419 309.824H283.723C284.715 309.824 285.419 310.144 285.419 311.376C285.419 312.624 284.859 312.96 283.707 312.96H283.419V309.824ZM296.823 316.432V316.16C296.823 313.792 295.671 311.888 293.095 311.888C290.551 311.888 289.287 313.76 289.287 316.144C289.287 318.528 290.775 320.256 293.207 320.256C294.855 320.256 296.231 319.376 296.775 317.808L294.711 317.472C294.407 318.096 293.943 318.544 293.207 318.544C292.039 318.544 291.655 317.424 291.655 316.432H296.823ZM291.719 315.04C291.831 314.224 292.327 313.456 293.223 313.456C294.087 313.456 294.599 314.24 294.711 315.04H291.719ZM300.375 314.032H301.751V312.144H300.375V309.488H298.135V312.144H297.367V314.032H298.135V320H300.375V314.032ZM304.781 314.032H306.157V312.144H304.781V309.488H302.541V312.144H301.773V314.032H302.541V320H304.781V314.032ZM313.635 316.432V316.16C313.635 313.792 312.483 311.888 309.907 311.888C307.363 311.888 306.099 313.76 306.099 316.144C306.099 318.528 307.587 320.256 310.019 320.256C311.667 320.256 313.043 319.376 313.587 317.808L311.523 317.472C311.219 318.096 310.755 318.544 310.019 318.544C308.851 318.544 308.467 317.424 308.467 316.432H313.635ZM308.531 315.04C308.643 314.224 309.139 313.456 310.035 313.456C310.899 313.456 311.411 314.24 311.523 315.04H308.531ZM316.915 312.144H314.675V320H316.915V316.464C316.915 315.248 317.075 313.872 318.627 313.872C318.963 313.872 319.283 313.968 319.555 314.16L319.827 312.08C319.539 311.968 319.219 311.888 318.899 311.888C318.067 311.888 317.395 312.272 316.947 312.96H316.915V312.144ZM330.304 313.584V315.504H332.864C332.816 316.96 331.584 318.24 330.112 318.24C327.84 318.24 326.704 316.016 326.704 314.016C326.704 312.016 327.824 309.696 330.096 309.696C331.344 309.696 332.368 310.528 332.848 311.616L334.928 310.496C334 308.656 332.208 307.616 330.16 307.616C326.56 307.616 324.272 310.576 324.272 314.016C324.272 317.344 326.496 320.32 330.016 320.32C333.76 320.32 335.504 317.296 335.504 313.888V313.584H330.304ZM340.197 311.888C337.749 311.888 336.069 313.632 336.069 316.08C336.069 318.512 337.733 320.256 340.197 320.256C342.661 320.256 344.325 318.512 344.325 316.08C344.325 313.632 342.645 311.888 340.197 311.888ZM340.197 313.872C341.349 313.872 342.053 314.992 342.053 316.08C342.053 317.136 341.349 318.272 340.197 318.272C339.045 318.272 338.341 317.136 338.341 316.08C338.341 314.992 339.045 313.872 340.197 313.872ZM352.354 316.432V316.16C352.354 313.792 351.202 311.888 348.626 311.888C346.082 311.888 344.818 313.76 344.818 316.144C344.818 318.528 346.306 320.256 348.738 320.256C350.386 320.256 351.762 319.376 352.306 317.808L350.242 317.472C349.938 318.096 349.474 318.544 348.738 318.544C347.57 318.544 347.186 317.424 347.186 316.432H352.354ZM347.25 315.04C347.362 314.224 347.858 313.456 348.754 313.456C349.618 313.456 350.13 314.24 350.242 315.04H347.25ZM358.386 312.704C357.746 312.144 356.69 311.888 355.858 311.888C354.386 311.888 353.362 312.96 353.362 314.432C353.362 315.696 354.146 316.16 354.93 316.496C355.714 316.832 356.498 316.992 356.498 317.68C356.498 318.192 356.098 318.528 355.602 318.528C354.946 318.528 354.37 318.096 353.938 317.616L352.914 318.944C353.602 319.776 354.626 320.256 355.682 320.256C357.33 320.256 358.738 319.216 358.738 317.472C358.738 316.112 357.938 315.568 357.122 315.216C356.322 314.864 355.506 314.704 355.506 314.128C355.506 313.744 355.874 313.456 356.242 313.456C356.69 313.456 357.106 313.696 357.426 314L358.386 312.704ZM366.997 314.752H367.381C368.565 314.752 369.845 314.816 369.845 316.384C369.845 317.952 368.757 318.112 367.493 318.112H366.997V314.752ZM364.645 320H368.341C370.533 320 372.197 318.944 372.197 316.576C372.197 315.248 371.557 313.808 370.133 313.552C370.885 313.072 371.189 312.08 371.189 311.216C371.189 308.816 369.813 307.936 367.573 307.936H364.645V320ZM366.997 309.824H367.301C368.293 309.824 368.997 310.144 368.997 311.376C368.997 312.624 368.437 312.96 367.285 312.96H366.997V309.824ZM380.401 316.432V316.16C380.401 313.792 379.249 311.888 376.673 311.888C374.129 311.888 372.865 313.76 372.865 316.144C372.865 318.528 374.353 320.256 376.785 320.256C378.433 320.256 379.809 319.376 380.353 317.808L378.289 317.472C377.985 318.096 377.521 318.544 376.785 318.544C375.617 318.544 375.233 317.424 375.233 316.432H380.401ZM375.297 315.04C375.409 314.224 375.905 313.456 376.801 313.456C377.665 313.456 378.177 314.24 378.289 315.04H375.297ZM383.697 318.8L381.105 324.192H383.569L389.281 312.144H386.785L384.769 316.608L382.897 312.144H380.353L383.697 318.8ZM393.337 311.888C390.889 311.888 389.209 313.632 389.209 316.08C389.209 318.512 390.873 320.256 393.337 320.256C395.801 320.256 397.465 318.512 397.465 316.08C397.465 313.632 395.785 311.888 393.337 311.888ZM393.337 313.872C394.489 313.872 395.193 314.992 395.193 316.08C395.193 317.136 394.489 318.272 393.337 318.272C392.185 318.272 391.481 317.136 391.481 316.08C391.481 314.992 392.185 313.872 393.337 313.872ZM400.759 312.144H398.519V320H400.759V316.112C400.759 315.168 400.775 313.68 402.103 313.68C403.367 313.68 403.319 314.896 403.319 315.84V320H405.559V315.2C405.559 313.376 404.951 311.888 402.839 311.888C402.039 311.888 401.255 312.16 400.791 312.864H400.759V312.144ZM412.359 320H414.599V306.432H412.359V312.864H412.327C411.831 312.24 410.999 311.888 410.183 311.888C407.927 311.888 406.599 313.952 406.599 316.032C406.599 318.16 407.911 320.256 410.215 320.256C411.031 320.256 411.863 319.904 412.327 319.264H412.359V320ZM410.727 318.272C409.575 318.272 408.871 317.12 408.871 316.064C408.871 315.008 409.575 313.872 410.727 313.872C411.879 313.872 412.583 315.008 412.583 316.064C412.583 317.12 411.879 318.272 410.727 318.272ZM275.241 333.32C274.425 332.872 273.497 332.616 272.553 332.616C269.017 332.616 266.601 335.64 266.601 339.064C266.601 342.392 269.113 345.32 272.505 345.32C273.481 345.32 274.361 345.016 275.241 344.6V341.8C274.585 342.552 273.577 343.08 272.569 343.08C270.377 343.08 269.033 341.048 269.033 339.016C269.033 336.936 270.329 334.856 272.585 334.856C273.593 334.856 274.585 335.336 275.241 336.136V333.32ZM284.146 337.144H281.938V337.88C281.394 337.24 280.562 336.888 279.746 336.888C277.49 336.888 276.162 338.952 276.162 341.032C276.162 343.16 277.474 345.256 279.778 345.256C280.594 345.256 281.426 344.904 281.906 344.28H281.938V345H284.146V337.144ZM280.29 343.272C279.138 343.272 278.434 342.12 278.434 341.064C278.434 340.008 279.138 338.872 280.29 338.872C281.442 338.872 282.162 340.008 282.162 341.064C282.162 342.12 281.442 343.272 280.29 343.272ZM288.009 337.144H285.769V345H288.009V341.464C288.009 340.248 288.169 338.872 289.721 338.872C290.057 338.872 290.377 338.968 290.649 339.16L290.921 337.08C290.633 336.968 290.313 336.888 289.993 336.888C289.161 336.888 288.489 337.272 288.041 337.96H288.009V337.144ZM291.644 345H293.884V344.264H293.916C294.364 344.904 295.212 345.256 296.012 345.256C298.332 345.256 299.644 343.176 299.644 341.032C299.644 338.968 298.284 336.888 296.06 336.888C295.228 336.888 294.396 337.256 293.884 337.864V331.432H291.644V345ZM295.516 343.272C294.364 343.272 293.66 342.12 293.66 341.064C293.66 340.008 294.364 338.872 295.516 338.872C296.668 338.872 297.372 340.008 297.372 341.064C297.372 342.12 296.668 343.272 295.516 343.272ZM304.275 336.888C301.827 336.888 300.147 338.632 300.147 341.08C300.147 343.512 301.811 345.256 304.275 345.256C306.739 345.256 308.403 343.512 308.403 341.08C308.403 338.632 306.723 336.888 304.275 336.888ZM304.275 338.872C305.427 338.872 306.131 339.992 306.131 341.08C306.131 342.136 305.427 343.272 304.275 343.272C303.123 343.272 302.419 342.136 302.419 341.08C302.419 339.992 303.123 338.872 304.275 338.872ZM311.696 337.144H309.456V345H311.696V341.112C311.696 340.168 311.712 338.68 313.04 338.68C314.304 338.68 314.256 339.896 314.256 340.84V345H316.496V340.2C316.496 338.376 315.888 336.888 313.776 336.888C312.976 336.888 312.192 337.16 311.728 337.864H311.696V337.144ZM322.786 345H325.138V336.808H325.17L331.522 345.24H333.218V332.936H330.866V341.048H330.834L324.482 332.616H322.786V345ZM341.839 341.432V341.16C341.839 338.792 340.687 336.888 338.111 336.888C335.567 336.888 334.303 338.76 334.303 341.144C334.303 343.528 335.791 345.256 338.223 345.256C339.871 345.256 341.247 344.376 341.791 342.808L339.727 342.472C339.423 343.096 338.959 343.544 338.223 343.544C337.055 343.544 336.671 342.424 336.671 341.432H341.839ZM336.735 340.04C336.847 339.224 337.343 338.456 338.239 338.456C339.103 338.456 339.615 339.24 339.727 340.04H336.735ZM342.83 337.144V341.768C342.83 344.056 344.014 345.256 346.35 345.256C348.686 345.256 349.87 344.056 349.87 341.768V337.144H347.63V341.4C347.63 342.296 347.486 343.368 346.35 343.368C345.214 343.368 345.07 342.296 345.07 341.4V337.144H342.83ZM353.953 339.032H355.329V337.144H353.953V334.488H351.713V337.144H350.945V339.032H351.713V345H353.953V339.032ZM358.071 337.144H355.831V345H358.071V341.464C358.071 340.248 358.231 338.872 359.783 338.872C360.119 338.872 360.439 338.968 360.711 339.16L360.983 337.08C360.695 336.968 360.375 336.888 360.055 336.888C359.223 336.888 358.551 337.272 358.103 337.96H358.071V337.144ZM369.036 337.144H366.829V337.88C366.285 337.24 365.453 336.888 364.637 336.888C362.381 336.888 361.053 338.952 361.053 341.032C361.053 343.16 362.365 345.256 364.669 345.256C365.485 345.256 366.317 344.904 366.797 344.28H366.829V345H369.036V337.144ZM365.181 343.272C364.029 343.272 363.325 342.12 363.325 341.064C363.325 340.008 364.029 338.872 365.181 338.872C366.333 338.872 367.053 340.008 367.053 341.064C367.053 342.12 366.333 343.272 365.181 343.272ZM372.899 331.432H370.659V345H372.899V331.432Z" fill="#008174"/>
<rect x="361" y="256" width="266" height="2" rx="1" fill="#008174"/>
<rect x="13" y="256" width="265" height="2" rx="1" fill="#101010"/>
<g clip-path="url(#clip0_1_2)">
<circle cx="319.625" cy="256.625" r="31.8725" fill="white"/>
<path opacity="0.3" d="M307.018 234.498L310.067 239.732M297.531 243.899L302.812 246.921M294.058 256.742H300.156M297.531 269.584L302.812 266.562" stroke="#101010" stroke-width="1.5" stroke-linecap="round" stroke-linejoin="round"/>
<path d="M319.974 231.057V237.1" stroke="#101010" stroke-width="1.5" stroke-linecap="round" stroke-linejoin="round"/>
<path d="M337.139 266.562L342.421 269.584M339.794 256.742H345.893M337.139 246.921L342.421 243.899M329.884 239.732L332.934 234.498" stroke="#44C0BB" stroke-width="1.5" stroke-linecap="round" stroke-linejoin="round"/>
<path fill-rule="evenodd" clip-rule="evenodd" d="M319.626 291.018C338.62 291.018 354.018 275.62 354.018 256.625C354.018 237.631 338.62 222.233 319.626 222.233C300.632 222.233 285.234 237.631 285.234 256.625C285.234 275.62 300.632 291.018 319.626 291.018ZM319.626 286.241C335.982 286.241 349.242 272.981 349.242 256.625C349.242 240.269 335.982 227.01 319.626 227.01C303.27 227.01 290.01 240.269 290.01 256.625C290.01 272.981 303.27 286.241 319.626 286.241Z" fill="url(#paint5_linear_1_2)" stroke="#101010" stroke-width="1.5" stroke-linecap="round"/>
<path d="M319.974 256.975L331.182 250.671" stroke="#101010" stroke-width="1.5" stroke-linecap="round"/>
<path fill-rule="evenodd" clip-rule="evenodd" d="M319.626 259.076C320.98 259.076 322.077 257.979 322.077 256.625C322.077 255.271 320.98 254.173 319.626 254.173C318.272 254.173 317.174 255.271 317.174 256.625C317.174 257.979 318.272 259.076 319.626 259.076Z" fill="url(#paint6_linear_1_2)" stroke="#101010" stroke-width="1.5" stroke-linecap="round"/>
</g>
<defs>
<linearGradient id="paint0_linear_1_2" x1="519.653" y1="81.435" x2="544.044" y2="163.767" gradientUnits="userSpaceOnUse">
<stop stop-color="#D1EEDF"/>
<stop offset="1" stop-color="#A2E0DD"/>
</linearGradient>
<linearGradient id="paint1_linear_1_2" x1="572.693" y1="111.945" x2="572.693" y2="125.224" gradientUnits="userSpaceOnUse">
<stop stop-color="#D1EEDF"/>
<stop offset="1" stop-color="#A2E0DD"/>
</linearGradient>
<linearGradient id="paint2_linear_1_2" x1="451.222" y1="174.58" x2="451.222" y2="234.536" gradientUnits="userSpaceOnUse">
<stop stop-color="#D1EEDF"/>
<stop offset="1" stop-color="#A2E0DD"/>
</linearGradient>
<linearGradient id="paint3_linear_1_2" x1="345.105" y1="134.919" x2="345.105" y2="230.056" gradientUnits="userSpaceOnUse">
<stop stop-color="#D1EEDF"/>
<stop offset="1" stop-color="#A2E0DD"/>
</linearGradient>
<linearGradient id="paint4_linear_1_2" x1="345.105" y1="134.919" x2="345.105" y2="230.056" gradientUnits="userSpaceOnUse">
<stop stop-color="#D1EEDF"/>
<stop offset="1" stop-color="#A2E0DD"/>
</linearGradient>
<linearGradient id="paint5_linear_1_2" x1="288.418" y1="224.984" x2="288.418" y2="291.018" gradientUnits="userSpaceOnUse">
<stop stop-color="#D1EEDF"/>
<stop offset="1" stop-color="#A2E0DD"/>
</linearGradient>
<linearGradient id="paint6_linear_1_2" x1="317.401" y1="254.369" x2="317.401" y2="259.076" gradientUnits="userSpaceOnUse">
<stop stop-color="#D1EEDF"/>
<stop offset="1" stop-color="#A2E0DD"/>
</linearGradient>
<clipPath id="clip0_1_2">
<rect x="284.25" y="221.25" width="70.75" height="70.75" rx="35.375" fill="white"/>
</clipPath>
</defs>
</svg>
